<?xml version="1.0" encoding="UTF-8"?>
<svg xmlns="http://www.w3.org/2000/svg" viewBox="0 0 1000 1000" preserveAspectRatio="none">
<line x1="58.6" y1="55.5" x2="55.5" y2="58.6" stroke="#fefefe" stroke-width="0.63" stroke-opacity="0.9" stroke-linecap="round"/><polygon points="55.5,58.6 59.3,48.6 65.5,54.8" fill="#fefefe" fill-opacity="0.9"/>
<line x1="112.2" y1="55.1" x2="110.3" y2="59.0" stroke="#fefefe" stroke-width="0.63" stroke-opacity="0.9" stroke-linecap="round"/><polygon points="110.3,59.0 110.7,48.3 118.6,52.2" fill="#fefefe" fill-opacity="0.9"/>
<line x1="165.5" y1="54.9" x2="165.6" y2="59.2" stroke="#fefefe" stroke-width="0.63" stroke-opacity="0.9" stroke-linecap="round"/><polygon points="165.6,59.2 161.0,49.5 169.8,49.4" fill="#fefefe" fill-opacity="0.9"/>
<line x1="218.7" y1="55.1" x2="220.8" y2="59.0" stroke="#fefefe" stroke-width="0.63" stroke-opacity="0.9" stroke-linecap="round"/><polygon points="220.8,59.0 212.3,52.4 220.1,48.3" fill="#fefefe" fill-opacity="0.9"/>
<line x1="272.5" y1="55.5" x2="275.5" y2="58.6" stroke="#fefefe" stroke-width="0.63" stroke-opacity="0.9" stroke-linecap="round"/><polygon points="275.5,58.6 265.5,54.7 271.8,48.6" fill="#fefefe" fill-opacity="0.9"/>
<line x1="327.0" y1="55.3" x2="329.5" y2="58.8" stroke="#fefefe" stroke-width="0.63" stroke-opacity="0.9" stroke-linecap="round"/><polygon points="329.5,58.8 320.3,53.4 327.4,48.3" fill="#fefefe" fill-opacity="0.9"/>
<line x1="381.5" y1="55.1" x2="383.5" y2="59.0" stroke="#fefefe" stroke-width="0.63" stroke-opacity="0.9" stroke-linecap="round"/><polygon points="383.5,59.0 375.1,52.3 382.9,48.3" fill="#fefefe" fill-opacity="0.9"/>
<line x1="435.4" y1="55.3" x2="438.0" y2="58.8" stroke="#fefefe" stroke-width="0.63" stroke-opacity="0.9" stroke-linecap="round"/><polygon points="438.0,58.8 428.6,53.7 435.6,48.3" fill="#fefefe" fill-opacity="0.9"/>
<line x1="489.5" y1="55.5" x2="492.5" y2="58.6" stroke="#fefefe" stroke-width="0.63" stroke-opacity="0.9" stroke-linecap="round"/><polygon points="492.5,58.6 482.5,54.6 488.9,48.5" fill="#fefefe" fill-opacity="0.9"/>
<line x1="59.0" y1="110.3" x2="55.1" y2="112.2" stroke="#fefefe" stroke-width="0.63" stroke-opacity="0.9" stroke-linecap="round"/><polygon points="55.1,112.2 61.9,104.0 65.8,111.9" fill="#fefefe" fill-opacity="0.9"/>
<line x1="112.8" y1="109.7" x2="109.7" y2="112.8" stroke="#fcfcfc" stroke-width="0.63" stroke-opacity="0.9" stroke-linecap="round"/><polygon points="109.7,112.8 113.5,102.8 119.8,109.0" fill="#fcfcfc" fill-opacity="0.9"/>
<line x1="165.4" y1="109.1" x2="165.6" y2="113.4" stroke="#f3f3f3" stroke-width="0.63" stroke-opacity="0.9" stroke-linecap="round"/><polygon points="165.6,113.4 160.8,103.9 169.6,103.5" fill="#f3f3f3" fill-opacity="0.9"/>
<line x1="218.2" y1="109.8" x2="221.3" y2="112.8" stroke="#fefefe" stroke-width="0.63" stroke-opacity="0.9" stroke-linecap="round"/><polygon points="221.3,112.8 211.2,109.3 217.3,102.9" fill="#fefefe" fill-opacity="0.9"/>
<line x1="272.4" y1="109.8" x2="275.6" y2="112.7" stroke="#fefefe" stroke-width="0.63" stroke-opacity="0.9" stroke-linecap="round"/><polygon points="275.6,112.7 265.4,109.5 271.3,102.9" fill="#fefefe" fill-opacity="0.9"/>
<line x1="327.5" y1="109.3" x2="329.0" y2="113.3" stroke="#fefefe" stroke-width="0.63" stroke-opacity="0.9" stroke-linecap="round"/><polygon points="329.0,113.3 321.4,105.7 329.7,102.6" fill="#fefefe" fill-opacity="0.9"/>
<line x1="381.3" y1="109.5" x2="383.7" y2="113.1" stroke="#fefefe" stroke-width="0.63" stroke-opacity="0.9" stroke-linecap="round"/><polygon points="383.7,113.1 374.6,107.5 381.9,102.5" fill="#fefefe" fill-opacity="0.9"/>
<line x1="435.2" y1="109.8" x2="438.3" y2="112.8" stroke="#fefefe" stroke-width="0.63" stroke-opacity="0.9" stroke-linecap="round"/><polygon points="438.3,112.8 428.2,109.1 434.4,102.8" fill="#fefefe" fill-opacity="0.9"/>
<line x1="489.7" y1="109.5" x2="492.2" y2="113.0" stroke="#fefefe" stroke-width="0.63" stroke-opacity="0.9" stroke-linecap="round"/><polygon points="492.2,113.0 482.9,107.8 490.0,102.6" fill="#fefefe" fill-opacity="0.9"/>
<line x1="544.1" y1="109.4" x2="546.3" y2="113.1" stroke="#fefefe" stroke-width="0.63" stroke-opacity="0.9" stroke-linecap="round"/><polygon points="546.3,113.1 537.5,107.1 545.0,102.5" fill="#fefefe" fill-opacity="0.9"/>
<line x1="59.2" y1="165.6" x2="54.9" y2="165.5" stroke="#fefefe" stroke-width="0.63" stroke-opacity="0.9" stroke-linecap="round"/><polygon points="54.9,165.5 64.7,161.3 64.5,170.1" fill="#fefefe" fill-opacity="0.9"/>
<line x1="113.4" y1="165.6" x2="109.1" y2="165.4" stroke="#f3f3f3" stroke-width="0.63" stroke-opacity="0.9" stroke-linecap="round"/><polygon points="109.1,165.4 119.0,161.4 118.7,170.2" fill="#f3f3f3" fill-opacity="0.9"/>
<line x1="159.9" y1="171.2" x2="171.2" y2="159.8" stroke="#a0a0a0" stroke-width="0.63" stroke-opacity="0.9" stroke-linecap="round"/><polygon points="171.2,159.8 167.4,169.9 161.2,163.6" fill="#a0a0a0" fill-opacity="0.9"/>
<line x1="217.6" y1="165.4" x2="221.9" y2="165.7" stroke="#f4f4f4" stroke-width="0.63" stroke-opacity="0.9" stroke-linecap="round"/><polygon points="221.9,165.7 211.8,169.3 212.5,160.5" fill="#f4f4f4" fill-opacity="0.9"/>
<line x1="273.8" y1="163.4" x2="274.2" y2="167.7" stroke="#fefefe" stroke-width="0.63" stroke-opacity="0.9" stroke-linecap="round"/><polygon points="274.2,167.7 268.8,158.5 277.5,157.5" fill="#fefefe" fill-opacity="0.9"/>
<line x1="327.3" y1="163.6" x2="329.2" y2="167.5" stroke="#fefefe" stroke-width="0.63" stroke-opacity="0.9" stroke-linecap="round"/><polygon points="329.2,167.5 321.0,160.6 328.9,156.8" fill="#fefefe" fill-opacity="0.9"/>
<line x1="380.9" y1="164.0" x2="384.1" y2="167.0" stroke="#fefefe" stroke-width="0.63" stroke-opacity="0.9" stroke-linecap="round"/><polygon points="384.1,167.0 373.9,163.6 379.9,157.1" fill="#fefefe" fill-opacity="0.9"/>
<line x1="435.2" y1="164.0" x2="438.3" y2="167.1" stroke="#fefefe" stroke-width="0.63" stroke-opacity="0.9" stroke-linecap="round"/><polygon points="438.3,167.1 428.2,163.3 434.4,157.0" fill="#fefefe" fill-opacity="0.9"/>
<line x1="490.0" y1="163.6" x2="492.0" y2="167.4" stroke="#fefefe" stroke-width="0.63" stroke-opacity="0.9" stroke-linecap="round"/><polygon points="492.0,167.4 483.6,160.8 491.3,156.8" fill="#fefefe" fill-opacity="0.9"/>
<line x1="543.9" y1="163.8" x2="546.5" y2="167.2" stroke="#fefefe" stroke-width="0.63" stroke-opacity="0.9" stroke-linecap="round"/><polygon points="546.5,167.2 537.1,162.2 544.1,156.8" fill="#fefefe" fill-opacity="0.9"/>
<line x1="597.9" y1="164.0" x2="601.0" y2="167.0" stroke="#fefefe" stroke-width="0.63" stroke-opacity="0.9" stroke-linecap="round"/><polygon points="601.0,167.0 590.9,163.3 597.1,157.1" fill="#fefefe" fill-opacity="0.9"/>
<line x1="59.0" y1="220.8" x2="55.1" y2="218.7" stroke="#fefefe" stroke-width="0.63" stroke-opacity="0.9" stroke-linecap="round"/><polygon points="55.1,218.7 65.8,219.4 61.7,227.2" fill="#fefefe" fill-opacity="0.9"/>
<line x1="112.8" y1="221.4" x2="109.8" y2="218.2" stroke="#fefefe" stroke-width="0.63" stroke-opacity="0.9" stroke-linecap="round"/><polygon points="109.8,218.2 119.7,222.3 113.2,228.3" fill="#fefefe" fill-opacity="0.9"/>
<line x1="165.6" y1="221.9" x2="165.5" y2="217.6" stroke="#f6f6f6" stroke-width="0.63" stroke-opacity="0.9" stroke-linecap="round"/><polygon points="165.5,217.6 170.0,227.3 161.2,227.4" fill="#f6f6f6" fill-opacity="0.9"/>
<line x1="221.9" y1="220.0" x2="217.6" y2="219.5" stroke="#f4f4f4" stroke-width="0.63" stroke-opacity="0.9" stroke-linecap="round"/><polygon points="217.6,219.5 227.8,216.2 226.8,225.0" fill="#f4f4f4" fill-opacity="0.9"/>
<line x1="276.7" y1="212.9" x2="271.3" y2="226.6" stroke="#a8a8a8" stroke-width="0.63" stroke-opacity="0.9" stroke-linecap="round"/><polygon points="271.3,226.6 270.8,215.9 279.0,219.2" fill="#a8a8a8" fill-opacity="0.9"/>
<line x1="326.3" y1="218.2" x2="330.2" y2="221.3" stroke="#e1e1e1" stroke-width="0.63" stroke-opacity="0.9" stroke-linecap="round"/><polygon points="330.2,221.3 319.8,218.7 325.3,211.8" fill="#e1e1e1" fill-opacity="0.9"/>
<line x1="380.6" y1="218.7" x2="384.4" y2="220.8" stroke="#fefefe" stroke-width="0.63" stroke-opacity="0.9" stroke-linecap="round"/><polygon points="384.4,220.8 373.7,220.1 377.8,212.3" fill="#fefefe" fill-opacity="0.9"/>
<line x1="435.9" y1="217.8" x2="437.5" y2="221.8" stroke="#fefefe" stroke-width="0.63" stroke-opacity="0.9" stroke-linecap="round"/><polygon points="437.5,221.8 429.8,214.4 437.9,211.1" fill="#fefefe" fill-opacity="0.9"/>
<line x1="489.8" y1="218.0" x2="492.2" y2="221.6" stroke="#fefefe" stroke-width="0.63" stroke-opacity="0.9" stroke-linecap="round"/><polygon points="492.2,221.6 483.1,215.9 490.4,211.0" fill="#fefefe" fill-opacity="0.9"/>
<line x1="543.6" y1="218.3" x2="546.8" y2="221.2" stroke="#fefefe" stroke-width="0.63" stroke-opacity="0.9" stroke-linecap="round"/><polygon points="546.8,221.2 536.6,217.8 542.6,211.4" fill="#fefefe" fill-opacity="0.9"/>
<line x1="597.9" y1="218.2" x2="600.9" y2="221.3" stroke="#fefefe" stroke-width="0.63" stroke-opacity="0.9" stroke-linecap="round"/><polygon points="600.9,221.3 591.0,217.4 597.3,211.2" fill="#fefefe" fill-opacity="0.9"/>
<line x1="652.5" y1="217.9" x2="654.8" y2="221.6" stroke="#fefefe" stroke-width="0.63" stroke-opacity="0.9" stroke-linecap="round"/><polygon points="654.8,221.6 646.0,215.6 653.4,211.0" fill="#fefefe" fill-opacity="0.9"/>
<line x1="706.5" y1="218.1" x2="709.3" y2="221.4" stroke="#fefefe" stroke-width="0.63" stroke-opacity="0.9" stroke-linecap="round"/><polygon points="709.3,221.4 699.7,216.7 706.5,211.1" fill="#fefefe" fill-opacity="0.9"/>
<line x1="58.5" y1="275.6" x2="55.5" y2="272.4" stroke="#fefefe" stroke-width="0.63" stroke-opacity="0.9" stroke-linecap="round"/><polygon points="55.5,272.4 65.5,276.4 59.1,282.5" fill="#fefefe" fill-opacity="0.9"/>
<line x1="112.2" y1="275.9" x2="110.3" y2="272.1" stroke="#fefefe" stroke-width="0.63" stroke-opacity="0.9" stroke-linecap="round"/><polygon points="110.3,272.1 118.6,278.9 110.7,282.8" fill="#fefefe" fill-opacity="0.9"/>
<line x1="166.5" y1="275.9" x2="164.6" y2="272.1" stroke="#fefefe" stroke-width="0.63" stroke-opacity="0.9" stroke-linecap="round"/><polygon points="164.6,272.1 172.8,278.8 165.0,282.8" fill="#fefefe" fill-opacity="0.9"/>
<line x1="221.8" y1="274.8" x2="217.7" y2="273.2" stroke="#fcfcfc" stroke-width="0.63" stroke-opacity="0.9" stroke-linecap="round"/><polygon points="217.7,273.2 228.4,272.7 225.2,280.9" fill="#fcfcfc" fill-opacity="0.9"/>
<line x1="278.4" y1="281.2" x2="269.6" y2="266.8" stroke="#9c9c9c" stroke-width="0.63" stroke-opacity="0.9" stroke-linecap="round"/><polygon points="269.6,266.8 278.5,272.9 270.9,277.4" fill="#9c9c9c" fill-opacity="0.9"/>
<line x1="325.0" y1="275.7" x2="331.5" y2="272.3" stroke="#d3d3d3" stroke-width="0.63" stroke-opacity="0.9" stroke-linecap="round"/><polygon points="331.5,272.3 324.9,280.7 320.8,272.9" fill="#d3d3d3" fill-opacity="0.9"/>
<line x1="382.1" y1="271.9" x2="382.9" y2="276.1" stroke="#fdfdfd" stroke-width="0.63" stroke-opacity="0.9" stroke-linecap="round"/><polygon points="382.9,276.1 376.7,267.4 385.3,265.7" fill="#fdfdfd" fill-opacity="0.9"/>
<line x1="435.9" y1="272.0" x2="437.5" y2="276.0" stroke="#fefefe" stroke-width="0.63" stroke-opacity="0.9" stroke-linecap="round"/><polygon points="437.5,276.0 429.8,268.6 438.0,265.3" fill="#fefefe" fill-opacity="0.9"/>
<line x1="489.3" y1="272.6" x2="492.6" y2="275.4" stroke="#fefefe" stroke-width="0.63" stroke-opacity="0.9" stroke-linecap="round"/><polygon points="492.6,275.4 482.3,272.4 488.0,265.7" fill="#fefefe" fill-opacity="0.9"/>
<line x1="543.4" y1="272.7" x2="547.0" y2="275.3" stroke="#fefefe" stroke-width="0.63" stroke-opacity="0.9" stroke-linecap="round"/><polygon points="547.0,275.3 536.5,273.2 541.5,266.0" fill="#fefefe" fill-opacity="0.9"/>
<line x1="598.4" y1="272.1" x2="600.5" y2="275.9" stroke="#fefefe" stroke-width="0.63" stroke-opacity="0.9" stroke-linecap="round"/><polygon points="600.5,275.9 591.9,269.6 599.5,265.2" fill="#fefefe" fill-opacity="0.9"/>
<line x1="652.4" y1="272.3" x2="655.0" y2="275.7" stroke="#fefefe" stroke-width="0.63" stroke-opacity="0.9" stroke-linecap="round"/><polygon points="655.0,275.7 645.6,270.7 652.5,265.3" fill="#fefefe" fill-opacity="0.9"/>
<line x1="706.3" y1="272.5" x2="709.5" y2="275.5" stroke="#fefefe" stroke-width="0.63" stroke-opacity="0.9" stroke-linecap="round"/><polygon points="709.5,275.5 699.4,272.1 705.3,265.6" fill="#fefefe" fill-opacity="0.9"/>
<line x1="760.7" y1="272.4" x2="763.7" y2="275.6" stroke="#fefefe" stroke-width="0.63" stroke-opacity="0.9" stroke-linecap="round"/><polygon points="763.7,275.6 753.7,271.5 760.1,265.5" fill="#fefefe" fill-opacity="0.9"/>
<line x1="58.2" y1="330.1" x2="55.9" y2="326.4" stroke="#fefefe" stroke-width="0.63" stroke-opacity="0.9" stroke-linecap="round"/><polygon points="55.9,326.4 64.9,332.2 57.5,337.0" fill="#fefefe" fill-opacity="0.9"/>
<line x1="112.2" y1="330.2" x2="110.3" y2="326.3" stroke="#fefefe" stroke-width="0.63" stroke-opacity="0.9" stroke-linecap="round"/><polygon points="110.3,326.3 118.6,333.1 110.6,337.0" fill="#fefefe" fill-opacity="0.9"/>
<line x1="167.2" y1="329.6" x2="163.8" y2="326.9" stroke="#fefefe" stroke-width="0.63" stroke-opacity="0.9" stroke-linecap="round"/><polygon points="163.8,326.9 174.2,329.7 168.6,336.5" fill="#fefefe" fill-opacity="0.9"/>
<line x1="221.2" y1="329.9" x2="218.3" y2="326.6" stroke="#fefefe" stroke-width="0.63" stroke-opacity="0.9" stroke-linecap="round"/><polygon points="218.3,326.6 228.1,331.0 221.5,336.8" fill="#fefefe" fill-opacity="0.9"/>
<line x1="274.4" y1="330.4" x2="273.6" y2="326.1" stroke="#fdfdfd" stroke-width="0.63" stroke-opacity="0.9" stroke-linecap="round"/><polygon points="273.6,326.1 279.8,334.8 271.2,336.6" fill="#fdfdfd" fill-opacity="0.9"/>
<line x1="328.8" y1="330.3" x2="327.7" y2="326.1" stroke="#fdfdfd" stroke-width="0.63" stroke-opacity="0.9" stroke-linecap="round"/><polygon points="327.7,326.1 334.4,334.5 325.9,336.7" fill="#fdfdfd" fill-opacity="0.9"/>
<line x1="384.7" y1="327.3" x2="380.2" y2="329.1" stroke="#e2e2e2" stroke-width="0.63" stroke-opacity="0.9" stroke-linecap="round"/><polygon points="380.2,329.1 387.6,321.4 390.9,329.5" fill="#e2e2e2" fill-opacity="0.9"/>
<line x1="434.6" y1="327.2" x2="438.9" y2="329.3" stroke="#e2e2e2" stroke-width="0.63" stroke-opacity="0.9" stroke-linecap="round"/><polygon points="438.9,329.3 428.2,329.0 432.0,321.1" fill="#e2e2e2" fill-opacity="0.9"/>
<line x1="488.8" y1="327.7" x2="493.1" y2="328.7" stroke="#fefefe" stroke-width="0.63" stroke-opacity="0.9" stroke-linecap="round"/><polygon points="493.1,328.7 482.6,330.8 484.6,322.2" fill="#fefefe" fill-opacity="0.9"/>
<line x1="544.1" y1="326.3" x2="546.3" y2="330.1" stroke="#fefefe" stroke-width="0.63" stroke-opacity="0.9" stroke-linecap="round"/><polygon points="546.3,330.1 537.7,323.7 545.4,319.5" fill="#fefefe" fill-opacity="0.9"/>
<line x1="598.3" y1="326.4" x2="600.6" y2="330.1" stroke="#fefefe" stroke-width="0.63" stroke-opacity="0.9" stroke-linecap="round"/><polygon points="600.6,330.1 591.6,324.3 599.0,319.5" fill="#fefefe" fill-opacity="0.9"/>
<line x1="652.0" y1="326.8" x2="655.3" y2="329.7" stroke="#fefefe" stroke-width="0.63" stroke-opacity="0.9" stroke-linecap="round"/><polygon points="655.3,329.7 645.1,326.6 650.8,320.0" fill="#fefefe" fill-opacity="0.9"/>
<line x1="706.2" y1="326.9" x2="709.6" y2="329.6" stroke="#fefefe" stroke-width="0.63" stroke-opacity="0.9" stroke-linecap="round"/><polygon points="709.6,329.6 699.2,327.0 704.7,320.1" fill="#fefefe" fill-opacity="0.9"/>
<line x1="761.0" y1="326.4" x2="763.4" y2="330.1" stroke="#fefefe" stroke-width="0.63" stroke-opacity="0.9" stroke-linecap="round"/><polygon points="763.4,330.1 754.3,324.3 761.7,319.5" fill="#fefefe" fill-opacity="0.9"/>
<line x1="815.0" y1="326.6" x2="817.8" y2="329.9" stroke="#fefefe" stroke-width="0.63" stroke-opacity="0.9" stroke-linecap="round"/><polygon points="817.8,329.9 808.2,325.2 814.9,319.6" fill="#fefefe" fill-opacity="0.9"/>
<line x1="58.1" y1="384.4" x2="56.0" y2="380.6" stroke="#fefefe" stroke-width="0.63" stroke-opacity="0.9" stroke-linecap="round"/><polygon points="56.0,380.6 64.5,387.1 56.8,391.2" fill="#fefefe" fill-opacity="0.9"/>
<line x1="112.7" y1="384.1" x2="109.8" y2="380.9" stroke="#fefefe" stroke-width="0.63" stroke-opacity="0.9" stroke-linecap="round"/><polygon points="109.8,380.9 119.6,385.2 113.1,391.1" fill="#fefefe" fill-opacity="0.9"/>
<line x1="167.0" y1="384.1" x2="164.1" y2="380.9" stroke="#fefefe" stroke-width="0.63" stroke-opacity="0.9" stroke-linecap="round"/><polygon points="164.1,380.9 173.9,385.1 167.4,391.0" fill="#fefefe" fill-opacity="0.9"/>
<line x1="220.8" y1="384.4" x2="218.7" y2="380.6" stroke="#fefefe" stroke-width="0.63" stroke-opacity="0.9" stroke-linecap="round"/><polygon points="218.7,380.6 227.2,387.1 219.4,391.2" fill="#fefefe" fill-opacity="0.9"/>
<line x1="274.7" y1="384.5" x2="273.3" y2="380.4" stroke="#fefefe" stroke-width="0.63" stroke-opacity="0.9" stroke-linecap="round"/><polygon points="273.3,380.4 280.6,388.3 272.2,391.1" fill="#fefefe" fill-opacity="0.9"/>
<line x1="330.0" y1="383.7" x2="326.4" y2="381.3" stroke="#fefefe" stroke-width="0.63" stroke-opacity="0.9" stroke-linecap="round"/><polygon points="326.4,381.3 337.0,383.1 332.0,390.4" fill="#fefefe" fill-opacity="0.9"/>
<line x1="383.7" y1="384.3" x2="381.3" y2="380.7" stroke="#fcfcfc" stroke-width="0.63" stroke-opacity="0.9" stroke-linecap="round"/><polygon points="381.3,380.7 390.4,386.3 383.1,391.2" fill="#fcfcfc" fill-opacity="0.9"/>
<line x1="435.6" y1="384.4" x2="437.8" y2="380.6" stroke="#fafafa" stroke-width="0.63" stroke-opacity="0.9" stroke-linecap="round"/><polygon points="437.8,380.6 436.7,391.3 429.1,386.8" fill="#fafafa" fill-opacity="0.9"/>
<line x1="488.9" y1="381.7" x2="493.0" y2="383.2" stroke="#fefefe" stroke-width="0.63" stroke-opacity="0.9" stroke-linecap="round"/><polygon points="493.0,383.2 482.3,384.0 485.3,375.8" fill="#fefefe" fill-opacity="0.9"/>
<line x1="544.7" y1="380.4" x2="545.7" y2="384.6" stroke="#fefefe" stroke-width="0.63" stroke-opacity="0.9" stroke-linecap="round"/><polygon points="545.7,384.6 539.1,376.2 547.6,374.0" fill="#fefefe" fill-opacity="0.9"/>
<line x1="597.7" y1="381.2" x2="601.2" y2="383.8" stroke="#fefefe" stroke-width="0.63" stroke-opacity="0.9" stroke-linecap="round"/><polygon points="601.2,383.8 590.7,381.5 595.9,374.4" fill="#fefefe" fill-opacity="0.9"/>
<line x1="651.7" y1="381.5" x2="655.6" y2="383.4" stroke="#fefefe" stroke-width="0.63" stroke-opacity="0.9" stroke-linecap="round"/><polygon points="655.6,383.4 644.9,383.1 648.8,375.2" fill="#fefefe" fill-opacity="0.9"/>
<line x1="706.7" y1="380.7" x2="709.2" y2="384.3" stroke="#fefefe" stroke-width="0.63" stroke-opacity="0.9" stroke-linecap="round"/><polygon points="709.2,384.3 700.0,378.8 707.2,373.7" fill="#fefefe" fill-opacity="0.9"/>
<line x1="760.8" y1="380.8" x2="763.5" y2="384.2" stroke="#fefefe" stroke-width="0.63" stroke-opacity="0.9" stroke-linecap="round"/><polygon points="763.5,384.2 754.0,379.2 761.0,373.8" fill="#fefefe" fill-opacity="0.9"/>
<line x1="814.8" y1="381.1" x2="818.0" y2="383.9" stroke="#fefefe" stroke-width="0.63" stroke-opacity="0.9" stroke-linecap="round"/><polygon points="818.0,383.9 807.8,380.8 813.6,374.2" fill="#fefefe" fill-opacity="0.9"/>
<line x1="869.0" y1="381.1" x2="872.3" y2="383.9" stroke="#fefefe" stroke-width="0.63" stroke-opacity="0.9" stroke-linecap="round"/><polygon points="872.3,383.9 862.0,380.9 867.7,374.2" fill="#fefefe" fill-opacity="0.9"/>
<line x1="58.3" y1="438.5" x2="55.8" y2="435.0" stroke="#fefefe" stroke-width="0.63" stroke-opacity="0.9" stroke-linecap="round"/><polygon points="55.8,435.0 65.0,440.3 57.9,445.5" fill="#fefefe" fill-opacity="0.9"/>
<line x1="112.7" y1="438.3" x2="109.8" y2="435.1" stroke="#fefefe" stroke-width="0.63" stroke-opacity="0.9" stroke-linecap="round"/><polygon points="109.8,435.1 119.6,439.4 113.2,445.3" fill="#fefefe" fill-opacity="0.9"/>
<line x1="166.7" y1="438.5" x2="164.3" y2="434.9" stroke="#fefefe" stroke-width="0.63" stroke-opacity="0.9" stroke-linecap="round"/><polygon points="164.3,434.9 173.4,440.6 166.0,445.5" fill="#fefefe" fill-opacity="0.9"/>
<line x1="220.6" y1="438.7" x2="218.9" y2="434.7" stroke="#fefefe" stroke-width="0.63" stroke-opacity="0.9" stroke-linecap="round"/><polygon points="218.9,434.7 226.8,441.9 218.8,445.4" fill="#fefefe" fill-opacity="0.9"/>
<line x1="275.5" y1="438.3" x2="272.5" y2="435.1" stroke="#fefefe" stroke-width="0.63" stroke-opacity="0.9" stroke-linecap="round"/><polygon points="272.5,435.1 282.4,439.4 275.9,445.3" fill="#fefefe" fill-opacity="0.9"/>
<line x1="329.6" y1="438.4" x2="326.8" y2="435.1" stroke="#fefefe" stroke-width="0.63" stroke-opacity="0.9" stroke-linecap="round"/><polygon points="326.8,435.1 336.5,439.7 329.8,445.4" fill="#fefefe" fill-opacity="0.9"/>
<line x1="383.1" y1="438.8" x2="381.8" y2="434.6" stroke="#fefefe" stroke-width="0.63" stroke-opacity="0.9" stroke-linecap="round"/><polygon points="381.8,434.6 388.9,442.7 380.5,445.3" fill="#fefefe" fill-opacity="0.9"/>
<line x1="436.8" y1="438.9" x2="436.6" y2="434.6" stroke="#fefefe" stroke-width="0.63" stroke-opacity="0.9" stroke-linecap="round"/><polygon points="436.6,434.6 441.6,444.0 432.8,444.6" fill="#fefefe" fill-opacity="0.9"/>
<line x1="493.0" y1="437.3" x2="488.9" y2="436.1" stroke="#fefefe" stroke-width="0.63" stroke-opacity="0.9" stroke-linecap="round"/><polygon points="488.9,436.1 499.5,434.6 497.1,443.0" fill="#fefefe" fill-opacity="0.9"/>
<line x1="543.5" y1="438.1" x2="546.9" y2="435.4" stroke="#fefefe" stroke-width="0.63" stroke-opacity="0.9" stroke-linecap="round"/><polygon points="546.9,435.4 541.9,444.8 536.5,437.9" fill="#fefefe" fill-opacity="0.9"/>
<line x1="597.3" y1="436.9" x2="601.6" y2="436.5" stroke="#fefefe" stroke-width="0.63" stroke-opacity="0.9" stroke-linecap="round"/><polygon points="601.6,436.5 592.3,441.8 591.5,433.0" fill="#fefefe" fill-opacity="0.9"/>
<line x1="652.1" y1="435.2" x2="655.2" y2="438.2" stroke="#fefefe" stroke-width="0.63" stroke-opacity="0.9" stroke-linecap="round"/><polygon points="655.2,438.2 645.2,434.6 651.2,428.3" fill="#fefefe" fill-opacity="0.9"/>
<line x1="706.7" y1="434.9" x2="709.1" y2="438.5" stroke="#fefefe" stroke-width="0.63" stroke-opacity="0.9" stroke-linecap="round"/><polygon points="709.1,438.5 700.1,432.7 707.5,428.0" fill="#fefefe" fill-opacity="0.9"/>
<line x1="760.5" y1="435.4" x2="763.9" y2="438.1" stroke="#fefefe" stroke-width="0.63" stroke-opacity="0.9" stroke-linecap="round"/><polygon points="763.9,438.1 753.5,435.4 758.9,428.6" fill="#fefefe" fill-opacity="0.9"/>
<line x1="814.6" y1="435.6" x2="818.2" y2="437.9" stroke="#fefefe" stroke-width="0.63" stroke-opacity="0.9" stroke-linecap="round"/><polygon points="818.2,437.9 807.6,436.5 812.3,429.0" fill="#fefefe" fill-opacity="0.9"/>
<line x1="869.3" y1="435.0" x2="872.0" y2="438.4" stroke="#fefefe" stroke-width="0.63" stroke-opacity="0.9" stroke-linecap="round"/><polygon points="872.0,438.4 862.5,433.4 869.5,428.0" fill="#fefefe" fill-opacity="0.9"/>
<line x1="923.5" y1="435.1" x2="926.3" y2="438.4" stroke="#fefefe" stroke-width="0.63" stroke-opacity="0.9" stroke-linecap="round"/><polygon points="926.3,438.4 916.6,433.8 923.3,428.1" fill="#fefefe" fill-opacity="0.9"/>
<line x1="166.5" y1="492.9" x2="164.5" y2="489.0" stroke="#fefefe" stroke-width="0.63" stroke-opacity="0.9" stroke-linecap="round"/><polygon points="164.5,489.0 173.0,495.6 165.2,499.7" fill="#fefefe" fill-opacity="0.9"/>
<line x1="221.0" y1="492.7" x2="218.5" y2="489.2" stroke="#fefefe" stroke-width="0.63" stroke-opacity="0.9" stroke-linecap="round"/><polygon points="218.5,489.2 227.7,494.7 220.5,499.7" fill="#fefefe" fill-opacity="0.9"/>
<line x1="275.4" y1="492.6" x2="272.6" y2="489.3" stroke="#fefefe" stroke-width="0.63" stroke-opacity="0.9" stroke-linecap="round"/><polygon points="272.6,489.3 282.3,493.8 275.7,499.6" fill="#fefefe" fill-opacity="0.9"/>
<line x1="329.3" y1="492.9" x2="327.2" y2="489.1" stroke="#fefefe" stroke-width="0.63" stroke-opacity="0.9" stroke-linecap="round"/><polygon points="327.2,489.1 335.8,495.5 328.1,499.7" fill="#fefefe" fill-opacity="0.9"/>
<line x1="383.1" y1="493.0" x2="381.9" y2="488.9" stroke="#fefefe" stroke-width="0.63" stroke-opacity="0.9" stroke-linecap="round"/><polygon points="381.9,488.9 388.8,497.0 380.4,499.5" fill="#fefefe" fill-opacity="0.9"/>
<line x1="438.2" y1="492.5" x2="435.2" y2="489.4" stroke="#fefefe" stroke-width="0.63" stroke-opacity="0.9" stroke-linecap="round"/><polygon points="435.2,489.4 445.2,493.4 438.8,499.5" fill="#fefefe" fill-opacity="0.9"/>
<line x1="492.2" y1="492.7" x2="489.7" y2="489.2" stroke="#fefefe" stroke-width="0.63" stroke-opacity="0.9" stroke-linecap="round"/><polygon points="489.7,489.2 498.9,494.6 491.7,499.7" fill="#fefefe" fill-opacity="0.9"/>
<line x1="544.9" y1="493.1" x2="545.5" y2="488.8" stroke="#fefefe" stroke-width="0.63" stroke-opacity="0.9" stroke-linecap="round"/><polygon points="545.5,488.8 548.5,499.1 539.8,497.8" fill="#fefefe" fill-opacity="0.9"/>
<line x1="598.2" y1="492.7" x2="600.7" y2="489.2" stroke="#fefefe" stroke-width="0.63" stroke-opacity="0.9" stroke-linecap="round"/><polygon points="600.7,489.2 598.7,499.7 591.5,494.7" fill="#fefefe" fill-opacity="0.9"/>
<line x1="654.0" y1="488.8" x2="653.4" y2="493.1" stroke="#fefefe" stroke-width="0.63" stroke-opacity="0.9" stroke-linecap="round"/><polygon points="653.4,493.1 650.3,482.9 659.0,484.0" fill="#fefefe" fill-opacity="0.9"/>
<line x1="706.0" y1="489.9" x2="709.8" y2="492.0" stroke="#fefefe" stroke-width="0.63" stroke-opacity="0.9" stroke-linecap="round"/><polygon points="709.8,492.0 699.1,491.1 703.4,483.4" fill="#fefefe" fill-opacity="0.9"/>
<line x1="760.1" y1="490.3" x2="764.2" y2="491.6" stroke="#fefefe" stroke-width="0.63" stroke-opacity="0.9" stroke-linecap="round"/><polygon points="764.2,491.6 753.6,492.9 756.2,484.5" fill="#fefefe" fill-opacity="0.9"/>
<line x1="814.8" y1="489.5" x2="818.0" y2="492.5" stroke="#fefefe" stroke-width="0.63" stroke-opacity="0.9" stroke-linecap="round"/><polygon points="818.0,492.5 807.9,488.8 814.0,482.5" fill="#fefefe" fill-opacity="0.9"/>
<line x1="869.3" y1="489.3" x2="872.0" y2="492.7" stroke="#fefefe" stroke-width="0.63" stroke-opacity="0.9" stroke-linecap="round"/><polygon points="872.0,492.7 862.5,487.7 869.4,482.3" fill="#fefefe" fill-opacity="0.9"/>
<line x1="923.2" y1="489.6" x2="926.6" y2="492.3" stroke="#fefefe" stroke-width="0.63" stroke-opacity="0.9" stroke-linecap="round"/><polygon points="926.6,492.3 916.2,489.6 921.8,482.8" fill="#fefefe" fill-opacity="0.9"/>
<line x1="221.2" y1="546.8" x2="218.3" y2="543.6" stroke="#fefefe" stroke-width="0.63" stroke-opacity="0.9" stroke-linecap="round"/><polygon points="218.3,543.6 228.0,548.1 221.4,553.8" fill="#fefefe" fill-opacity="0.9"/>
<line x1="275.2" y1="547.0" x2="272.8" y2="543.4" stroke="#fefefe" stroke-width="0.63" stroke-opacity="0.9" stroke-linecap="round"/><polygon points="272.8,543.4 281.9,549.1 274.6,554.0" fill="#fefefe" fill-opacity="0.9"/>
<line x1="329.1" y1="547.2" x2="327.4" y2="543.2" stroke="#fefefe" stroke-width="0.63" stroke-opacity="0.9" stroke-linecap="round"/><polygon points="327.4,543.2 335.3,550.4 327.3,553.9" fill="#fefefe" fill-opacity="0.9"/>
<line x1="383.7" y1="547.0" x2="381.3" y2="543.4" stroke="#fefefe" stroke-width="0.63" stroke-opacity="0.9" stroke-linecap="round"/><polygon points="381.3,543.4 390.3,549.1 383.0,554.0" fill="#fefefe" fill-opacity="0.9"/>
<line x1="438.1" y1="546.9" x2="435.3" y2="543.5" stroke="#fefefe" stroke-width="0.63" stroke-opacity="0.9" stroke-linecap="round"/><polygon points="435.3,543.5 444.9,548.3 438.1,553.9" fill="#fefefe" fill-opacity="0.9"/>
<line x1="491.7" y1="547.2" x2="490.2" y2="543.2" stroke="#fefefe" stroke-width="0.63" stroke-opacity="0.9" stroke-linecap="round"/><polygon points="490.2,543.2 497.8,550.7 489.6,553.9" fill="#fefefe" fill-opacity="0.9"/>
<line x1="545.3" y1="547.4" x2="545.1" y2="543.0" stroke="#fefefe" stroke-width="0.63" stroke-opacity="0.9" stroke-linecap="round"/><polygon points="545.1,543.0 550.0,552.5 541.2,553.0" fill="#fefefe" fill-opacity="0.9"/>
<line x1="601.1" y1="546.6" x2="597.8" y2="543.8" stroke="#fefefe" stroke-width="0.63" stroke-opacity="0.9" stroke-linecap="round"/><polygon points="597.8,543.8 608.1,546.6 602.6,553.4" fill="#fefefe" fill-opacity="0.9"/>
<line x1="654.1" y1="547.3" x2="653.2" y2="543.1" stroke="#fefefe" stroke-width="0.63" stroke-opacity="0.9" stroke-linecap="round"/><polygon points="653.2,543.1 659.5,551.8 650.9,553.5" fill="#fefefe" fill-opacity="0.9"/>
<line x1="706.0" y1="546.3" x2="709.8" y2="544.1" stroke="#fefefe" stroke-width="0.63" stroke-opacity="0.9" stroke-linecap="round"/><polygon points="709.8,544.1 703.5,552.8 699.1,545.1" fill="#fefefe" fill-opacity="0.9"/>
<line x1="760.0" y1="544.8" x2="764.3" y2="545.6" stroke="#fefefe" stroke-width="0.63" stroke-opacity="0.9" stroke-linecap="round"/><polygon points="764.3,545.6 753.9,548.1 755.5,539.5" fill="#fefefe" fill-opacity="0.9"/>
<line x1="815.2" y1="543.4" x2="817.6" y2="547.0" stroke="#fefefe" stroke-width="0.63" stroke-opacity="0.9" stroke-linecap="round"/><polygon points="817.6,547.0 808.6,541.2 816.0,536.4" fill="#fefefe" fill-opacity="0.9"/>
<line x1="868.9" y1="544.0" x2="872.4" y2="546.4" stroke="#fefefe" stroke-width="0.63" stroke-opacity="0.9" stroke-linecap="round"/><polygon points="872.4,546.4 861.9,544.5 866.9,537.3" fill="#fefefe" fill-opacity="0.9"/>
<line x1="922.9" y1="544.3" x2="926.9" y2="546.1" stroke="#fefefe" stroke-width="0.63" stroke-opacity="0.9" stroke-linecap="round"/><polygon points="926.9,546.1 916.2,546.2 919.7,538.2" fill="#fefefe" fill-opacity="0.9"/>
<line x1="329.3" y1="601.3" x2="327.2" y2="597.5" stroke="#fefefe" stroke-width="0.63" stroke-opacity="0.9" stroke-linecap="round"/><polygon points="327.2,597.5 335.7,604.0 328.0,608.2" fill="#fefefe" fill-opacity="0.9"/>
<line x1="383.9" y1="601.1" x2="381.1" y2="597.8" stroke="#fefefe" stroke-width="0.63" stroke-opacity="0.9" stroke-linecap="round"/><polygon points="381.1,597.8 390.7,602.5 383.9,608.1" fill="#fefefe" fill-opacity="0.9"/>
<line x1="437.8" y1="601.3" x2="435.6" y2="597.6" stroke="#fefefe" stroke-width="0.63" stroke-opacity="0.9" stroke-linecap="round"/><polygon points="435.6,597.6 444.3,603.8 436.7,608.2" fill="#fefefe" fill-opacity="0.9"/>
<line x1="491.6" y1="601.5" x2="490.3" y2="597.4" stroke="#fefefe" stroke-width="0.63" stroke-opacity="0.9" stroke-linecap="round"/><polygon points="490.3,597.4 497.4,605.4 489.0,608.0" fill="#fefefe" fill-opacity="0.9"/>
<line x1="546.4" y1="601.3" x2="544.0" y2="597.6" stroke="#fefefe" stroke-width="0.63" stroke-opacity="0.9" stroke-linecap="round"/><polygon points="544.0,597.6 553.0,603.5 545.5,608.2" fill="#fefefe" fill-opacity="0.9"/>
<line x1="600.7" y1="601.2" x2="598.2" y2="597.7" stroke="#fefefe" stroke-width="0.63" stroke-opacity="0.9" stroke-linecap="round"/><polygon points="598.2,597.7 607.4,603.1 600.2,608.2" fill="#fefefe" fill-opacity="0.9"/>
<line x1="653.8" y1="601.6" x2="653.5" y2="597.3" stroke="#fefefe" stroke-width="0.63" stroke-opacity="0.9" stroke-linecap="round"/><polygon points="653.5,597.3 658.6,606.7 649.9,607.3" fill="#fefefe" fill-opacity="0.9"/>
<line x1="707.1" y1="601.5" x2="708.7" y2="597.4" stroke="#fefefe" stroke-width="0.63" stroke-opacity="0.9" stroke-linecap="round"/><polygon points="708.7,597.4 709.2,608.1 701.0,604.8" fill="#fefefe" fill-opacity="0.9"/>
<line x1="764.3" y1="599.0" x2="760.0" y2="599.9" stroke="#fefefe" stroke-width="0.63" stroke-opacity="0.9" stroke-linecap="round"/><polygon points="760.0,599.9 768.6,593.5 770.5,602.1" fill="#fefefe" fill-opacity="0.9"/>
<line x1="814.3" y1="599.0" x2="818.5" y2="599.9" stroke="#fefefe" stroke-width="0.63" stroke-opacity="0.9" stroke-linecap="round"/><polygon points="818.5,599.9 808.1,602.2 809.8,593.6" fill="#fefefe" fill-opacity="0.9"/>
<line x1="868.5" y1="599.3" x2="872.8" y2="599.6" stroke="#fefefe" stroke-width="0.63" stroke-opacity="0.9" stroke-linecap="round"/><polygon points="872.8,599.6 862.7,603.2 863.4,594.5" fill="#fefefe" fill-opacity="0.9"/>
<line x1="922.7" y1="599.3" x2="927.0" y2="599.5" stroke="#fefefe" stroke-width="0.63" stroke-opacity="0.9" stroke-linecap="round"/><polygon points="927.0,599.5 917.1,603.5 917.5,594.7" fill="#fefefe" fill-opacity="0.9"/>
<line x1="383.7" y1="655.5" x2="381.3" y2="651.9" stroke="#fefefe" stroke-width="0.63" stroke-opacity="0.9" stroke-linecap="round"/><polygon points="381.3,651.9 390.4,657.5 383.1,662.4" fill="#fefefe" fill-opacity="0.9"/>
<line x1="437.6" y1="655.7" x2="435.8" y2="651.7" stroke="#fefefe" stroke-width="0.63" stroke-opacity="0.9" stroke-linecap="round"/><polygon points="435.8,651.7 443.9,658.8 435.9,662.4" fill="#fefefe" fill-opacity="0.9"/>
<line x1="491.9" y1="655.6" x2="490.0" y2="651.7" stroke="#fefefe" stroke-width="0.63" stroke-opacity="0.9" stroke-linecap="round"/><polygon points="490.0,651.7 498.2,658.6 490.3,662.4" fill="#fefefe" fill-opacity="0.9"/>
<line x1="546.5" y1="655.4" x2="543.9" y2="652.0" stroke="#fefefe" stroke-width="0.63" stroke-opacity="0.9" stroke-linecap="round"/><polygon points="543.9,652.0 553.3,657.0 546.4,662.4" fill="#fefefe" fill-opacity="0.9"/>
<line x1="600.3" y1="655.7" x2="598.6" y2="651.7" stroke="#fefefe" stroke-width="0.63" stroke-opacity="0.9" stroke-linecap="round"/><polygon points="598.6,651.7 606.5,658.8 598.5,662.4" fill="#fefefe" fill-opacity="0.9"/>
<line x1="653.9" y1="655.8" x2="653.5" y2="651.5" stroke="#fefefe" stroke-width="0.63" stroke-opacity="0.9" stroke-linecap="round"/><polygon points="653.5,651.5 658.8,660.8 650.1,661.7" fill="#fefefe" fill-opacity="0.9"/>
<line x1="709.1" y1="655.5" x2="706.8" y2="651.8" stroke="#fefefe" stroke-width="0.63" stroke-opacity="0.9" stroke-linecap="round"/><polygon points="706.8,651.8 715.7,657.8 708.3,662.4" fill="#fefefe" fill-opacity="0.9"/>
<line x1="763.0" y1="655.7" x2="761.3" y2="651.7" stroke="#fefefe" stroke-width="0.63" stroke-opacity="0.9" stroke-linecap="round"/><polygon points="761.3,651.7 769.2,658.9 761.1,662.4" fill="#fefefe" fill-opacity="0.9"/>
<line x1="815.2" y1="655.5" x2="817.6" y2="651.9" stroke="#fefefe" stroke-width="0.63" stroke-opacity="0.9" stroke-linecap="round"/><polygon points="817.6,651.9 815.7,662.4 808.5,657.4" fill="#fefefe" fill-opacity="0.9"/>
<line x1="868.7" y1="654.7" x2="872.5" y2="652.6" stroke="#fefefe" stroke-width="0.63" stroke-opacity="0.9" stroke-linecap="round"/><polygon points="872.5,652.6 866.1,661.2 861.9,653.4" fill="#fefefe" fill-opacity="0.9"/>
<line x1="922.8" y1="654.4" x2="926.9" y2="653.0" stroke="#fefefe" stroke-width="0.63" stroke-opacity="0.9" stroke-linecap="round"/><polygon points="926.9,653.0 919.1,660.3 916.3,651.9" fill="#fefefe" fill-opacity="0.9"/>
<line x1="492.3" y1="709.6" x2="489.6" y2="706.2" stroke="#fefefe" stroke-width="0.63" stroke-opacity="0.9" stroke-linecap="round"/><polygon points="489.6,706.2 499.1,711.3 492.1,716.6" fill="#fefefe" fill-opacity="0.9"/>
<line x1="546.3" y1="709.8" x2="544.1" y2="706.1" stroke="#fefefe" stroke-width="0.63" stroke-opacity="0.9" stroke-linecap="round"/><polygon points="544.1,706.1 552.9,712.2 545.3,716.7" fill="#fefefe" fill-opacity="0.9"/>
<line x1="600.1" y1="710.0" x2="598.8" y2="705.9" stroke="#fefefe" stroke-width="0.63" stroke-opacity="0.9" stroke-linecap="round"/><polygon points="598.8,705.9 606.0,713.7 597.7,716.5" fill="#fefefe" fill-opacity="0.9"/>
<line x1="654.5" y1="709.9" x2="652.9" y2="705.9" stroke="#fefefe" stroke-width="0.63" stroke-opacity="0.9" stroke-linecap="round"/><polygon points="652.9,705.9 660.6,713.3 652.5,716.6" fill="#fefefe" fill-opacity="0.9"/>
<line x1="709.1" y1="709.7" x2="706.7" y2="706.1" stroke="#fefefe" stroke-width="0.63" stroke-opacity="0.9" stroke-linecap="round"/><polygon points="706.7,706.1 715.8,711.7 708.6,716.7" fill="#fefefe" fill-opacity="0.9"/>
<line x1="762.6" y1="710.0" x2="761.7" y2="705.8" stroke="#fefefe" stroke-width="0.63" stroke-opacity="0.9" stroke-linecap="round"/><polygon points="761.7,705.8 768.0,714.5 759.4,716.3" fill="#fefefe" fill-opacity="0.9"/>
<line x1="815.7" y1="710.0" x2="817.1" y2="705.9" stroke="#fefefe" stroke-width="0.63" stroke-opacity="0.9" stroke-linecap="round"/><polygon points="817.1,705.9 818.2,716.5 809.9,713.8" fill="#fefefe" fill-opacity="0.9"/>
<line x1="869.2" y1="709.6" x2="872.1" y2="706.3" stroke="#fefefe" stroke-width="0.63" stroke-opacity="0.9" stroke-linecap="round"/><polygon points="872.1,706.3 869.0,716.5 862.4,710.8" fill="#fefefe" fill-opacity="0.9"/>
<line x1="923.1" y1="709.2" x2="926.6" y2="706.7" stroke="#fefefe" stroke-width="0.63" stroke-opacity="0.9" stroke-linecap="round"/><polygon points="926.6,706.7 921.3,715.9 916.1,708.8" fill="#fefefe" fill-opacity="0.9"/>
<line x1="600.2" y1="764.2" x2="598.7" y2="760.1" stroke="#fefefe" stroke-width="0.63" stroke-opacity="0.9" stroke-linecap="round"/><polygon points="598.7,760.1 606.3,767.6 598.1,770.8" fill="#fefefe" fill-opacity="0.9"/>
<line x1="654.9" y1="763.9" x2="652.4" y2="760.4" stroke="#fefefe" stroke-width="0.63" stroke-opacity="0.9" stroke-linecap="round"/><polygon points="652.4,760.4 661.7,765.8 654.5,770.9" fill="#fefefe" fill-opacity="0.9"/>
<line x1="708.9" y1="764.1" x2="707.0" y2="760.2" stroke="#fefefe" stroke-width="0.63" stroke-opacity="0.9" stroke-linecap="round"/><polygon points="707.0,760.2 715.2,767.1 707.3,770.9" fill="#fefefe" fill-opacity="0.9"/>
<line x1="762.5" y1="764.3" x2="761.9" y2="760.0" stroke="#fefefe" stroke-width="0.63" stroke-opacity="0.9" stroke-linecap="round"/><polygon points="761.9,760.0 767.5,769.1 758.8,770.3" fill="#fefefe" fill-opacity="0.9"/>
<line x1="816.0" y1="764.3" x2="816.8" y2="760.0" stroke="#fefefe" stroke-width="0.63" stroke-opacity="0.9" stroke-linecap="round"/><polygon points="816.8,760.0 819.1,770.5 810.5,768.7" fill="#fefefe" fill-opacity="0.9"/>
<line x1="869.6" y1="764.1" x2="871.7" y2="760.3" stroke="#fefefe" stroke-width="0.63" stroke-opacity="0.9" stroke-linecap="round"/><polygon points="871.7,760.3 870.8,770.9 863.1,766.6" fill="#fefefe" fill-opacity="0.9"/>
<line x1="923.4" y1="763.8" x2="926.3" y2="760.6" stroke="#fefefe" stroke-width="0.63" stroke-opacity="0.9" stroke-linecap="round"/><polygon points="926.3,760.6 923.0,770.7 916.5,764.8" fill="#fefefe" fill-opacity="0.9"/>
<line x1="654.8" y1="818.3" x2="652.6" y2="814.5" stroke="#fefefe" stroke-width="0.63" stroke-opacity="0.9" stroke-linecap="round"/><polygon points="652.6,814.5 661.4,820.6 653.9,825.2" fill="#fefefe" fill-opacity="0.9"/>
<line x1="708.7" y1="818.4" x2="707.2" y2="814.4" stroke="#fefefe" stroke-width="0.63" stroke-opacity="0.9" stroke-linecap="round"/><polygon points="707.2,814.4 714.6,822.1 706.4,825.0" fill="#fefefe" fill-opacity="0.9"/>
<line x1="762.4" y1="818.6" x2="761.9" y2="814.2" stroke="#fefefe" stroke-width="0.63" stroke-opacity="0.9" stroke-linecap="round"/><polygon points="761.9,814.2 767.3,823.5 758.6,824.4" fill="#fefefe" fill-opacity="0.9"/>
<line x1="816.1" y1="818.5" x2="816.7" y2="814.3" stroke="#fefefe" stroke-width="0.63" stroke-opacity="0.9" stroke-linecap="round"/><polygon points="816.7,814.3 819.6,824.6 810.9,823.2" fill="#fefefe" fill-opacity="0.9"/>
<line x1="869.8" y1="818.4" x2="871.5" y2="814.4" stroke="#fefefe" stroke-width="0.63" stroke-opacity="0.9" stroke-linecap="round"/><polygon points="871.5,814.4 871.8,825.1 863.7,821.7" fill="#fefefe" fill-opacity="0.9"/>
</svg>