<?xml version="1.0" encoding="UTF-8"?>
<svg xmlns="http://www.w3.org/2000/svg" viewBox="0 0 1000 1000" preserveAspectRatio="none">
<line x1="58.6" y1="55.5" x2="55.5" y2="58.6" stroke="#fefefe" stroke-width="0.63" stroke-opacity="0.9" stroke-linecap="round"/><polygon points="55.5,58.6 59.3,48.6 65.5,54.8" fill="#fefefe" fill-opacity="0.9"/>
<line x1="112.2" y1="55.1" x2="110.3" y2="59.0" stroke="#fefefe" stroke-width="0.63" stroke-opacity="0.9" stroke-linecap="round"/><polygon points="110.3,59.0 110.7,48.3 118.6,52.2" fill="#fefefe" fill-opacity="0.9"/>
<line x1="165.5" y1="54.9" x2="165.6" y2="59.2" stroke="#fefefe" stroke-width="0.63" stroke-opacity="0.9" stroke-linecap="round"/><polygon points="165.6,59.2 161.0,49.5 169.8,49.4" fill="#fefefe" fill-opacity="0.9"/>
<line x1="218.8" y1="55.1" x2="220.7" y2="59.0" stroke="#fefefe" stroke-width="0.63" stroke-opacity="0.9" stroke-linecap="round"/><polygon points="220.7,59.0 212.4,52.3 220.2,48.3" fill="#fefefe" fill-opacity="0.9"/>
<line x1="272.9" y1="55.1" x2="275.1" y2="58.9" stroke="#fefefe" stroke-width="0.63" stroke-opacity="0.9" stroke-linecap="round"/><polygon points="275.1,58.9 266.5,52.5 274.2,48.3" fill="#fefefe" fill-opacity="0.9"/>
<line x1="327.7" y1="54.9" x2="328.8" y2="59.1" stroke="#fefefe" stroke-width="0.63" stroke-opacity="0.9" stroke-linecap="round"/><polygon points="328.8,59.1 322.1,50.8 330.6,48.6" fill="#fefefe" fill-opacity="0.9"/>
<line x1="381.5" y1="55.1" x2="383.4" y2="59.0" stroke="#fefefe" stroke-width="0.63" stroke-opacity="0.9" stroke-linecap="round"/><polygon points="383.4,59.0 375.2,52.1 383.1,48.3" fill="#fefefe" fill-opacity="0.9"/>
<line x1="435.5" y1="55.3" x2="438.0" y2="58.8" stroke="#fefefe" stroke-width="0.63" stroke-opacity="0.9" stroke-linecap="round"/><polygon points="438.0,58.8 428.7,53.4 435.9,48.3" fill="#fefefe" fill-opacity="0.9"/>
<line x1="59.0" y1="110.3" x2="55.1" y2="112.2" stroke="#fefefe" stroke-width="0.63" stroke-opacity="0.9" stroke-linecap="round"/><polygon points="55.1,112.2 61.9,104.0 65.8,111.9" fill="#fefefe" fill-opacity="0.9"/>
<line x1="112.8" y1="109.7" x2="109.7" y2="112.8" stroke="#fefefe" stroke-width="0.63" stroke-opacity="0.9" stroke-linecap="round"/><polygon points="109.7,112.8 113.5,102.8 119.8,109.0" fill="#fefefe" fill-opacity="0.9"/>
<line x1="165.4" y1="109.1" x2="165.6" y2="113.4" stroke="#fefefe" stroke-width="0.63" stroke-opacity="0.9" stroke-linecap="round"/><polygon points="165.6,113.4 160.9,103.9 169.6,103.5" fill="#fefefe" fill-opacity="0.9"/>
<line x1="218.5" y1="109.5" x2="221.1" y2="113.0" stroke="#fefefe" stroke-width="0.63" stroke-opacity="0.9" stroke-linecap="round"/><polygon points="221.1,113.0 211.7,107.8 218.8,102.6" fill="#fefefe" fill-opacity="0.9"/>
<line x1="273.9" y1="109.1" x2="274.1" y2="113.4" stroke="#fefefe" stroke-width="0.63" stroke-opacity="0.9" stroke-linecap="round"/><polygon points="274.1,113.4 269.2,104.0 277.9,103.4" fill="#fefefe" fill-opacity="0.9"/>
<line x1="327.6" y1="109.2" x2="328.9" y2="113.4" stroke="#fefefe" stroke-width="0.63" stroke-opacity="0.9" stroke-linecap="round"/><polygon points="328.9,113.4 321.9,105.2 330.3,102.8" fill="#fefefe" fill-opacity="0.9"/>
<line x1="381.3" y1="109.5" x2="383.7" y2="113.1" stroke="#fefefe" stroke-width="0.63" stroke-opacity="0.9" stroke-linecap="round"/><polygon points="383.7,113.1 374.6,107.3 382.0,102.5" fill="#fefefe" fill-opacity="0.9"/>
<line x1="435.6" y1="109.4" x2="437.8" y2="113.1" stroke="#fefefe" stroke-width="0.63" stroke-opacity="0.9" stroke-linecap="round"/><polygon points="437.8,113.1 429.0,107.0 436.6,102.5" fill="#fefefe" fill-opacity="0.9"/>
<line x1="490.2" y1="109.3" x2="491.7" y2="113.3" stroke="#fefefe" stroke-width="0.63" stroke-opacity="0.9" stroke-linecap="round"/><polygon points="491.7,113.3 484.1,105.8 492.3,102.6" fill="#fefefe" fill-opacity="0.9"/>
<line x1="544.1" y1="109.4" x2="546.3" y2="113.2" stroke="#fefefe" stroke-width="0.63" stroke-opacity="0.9" stroke-linecap="round"/><polygon points="546.3,113.2 537.6,106.9 545.2,102.5" fill="#fefefe" fill-opacity="0.9"/>
<line x1="59.2" y1="165.6" x2="54.9" y2="165.5" stroke="#fefefe" stroke-width="0.63" stroke-opacity="0.9" stroke-linecap="round"/><polygon points="54.9,165.5 64.7,161.3 64.5,170.1" fill="#fefefe" fill-opacity="0.9"/>
<line x1="113.4" y1="165.6" x2="109.1" y2="165.4" stroke="#fefefe" stroke-width="0.63" stroke-opacity="0.9" stroke-linecap="round"/><polygon points="109.1,165.4 119.0,161.4 118.7,170.2" fill="#fefefe" fill-opacity="0.9"/>
<line x1="164.0" y1="167.1" x2="167.0" y2="164.0" stroke="#fefefe" stroke-width="0.63" stroke-opacity="0.9" stroke-linecap="round"/><polygon points="167.0,164.0 163.4,174.0 157.1,167.9" fill="#fefefe" fill-opacity="0.9"/>
<line x1="220.2" y1="163.4" x2="219.3" y2="167.6" stroke="#fefefe" stroke-width="0.63" stroke-opacity="0.9" stroke-linecap="round"/><polygon points="219.3,167.6 217.1,157.2 225.7,159.1" fill="#fefefe" fill-opacity="0.9"/>
<line x1="274.3" y1="163.4" x2="273.7" y2="167.7" stroke="#fefefe" stroke-width="0.63" stroke-opacity="0.9" stroke-linecap="round"/><polygon points="273.7,167.7 270.7,157.4 279.4,158.6" fill="#fefefe" fill-opacity="0.9"/>
<line x1="327.3" y1="163.6" x2="329.2" y2="167.5" stroke="#fefefe" stroke-width="0.63" stroke-opacity="0.9" stroke-linecap="round"/><polygon points="329.2,167.5 321.1,160.5 329.0,156.8" fill="#fefefe" fill-opacity="0.9"/>
<line x1="381.2" y1="163.8" x2="383.8" y2="167.2" stroke="#fefefe" stroke-width="0.63" stroke-opacity="0.9" stroke-linecap="round"/><polygon points="383.8,167.2 374.4,162.1 381.4,156.8" fill="#fefefe" fill-opacity="0.9"/>
<line x1="436.2" y1="163.4" x2="437.3" y2="167.6" stroke="#fefefe" stroke-width="0.63" stroke-opacity="0.9" stroke-linecap="round"/><polygon points="437.3,167.6 430.6,159.2 439.1,157.1" fill="#fefefe" fill-opacity="0.9"/>
<line x1="490.1" y1="163.5" x2="491.9" y2="167.5" stroke="#fefefe" stroke-width="0.63" stroke-opacity="0.9" stroke-linecap="round"/><polygon points="491.9,167.5 483.8,160.4 491.8,156.8" fill="#fefefe" fill-opacity="0.9"/>
<line x1="543.9" y1="163.8" x2="546.5" y2="167.3" stroke="#fefefe" stroke-width="0.63" stroke-opacity="0.9" stroke-linecap="round"/><polygon points="546.5,167.3 537.2,162.0 544.2,156.8" fill="#fefefe" fill-opacity="0.9"/>
<line x1="598.3" y1="163.7" x2="600.6" y2="167.3" stroke="#fefefe" stroke-width="0.63" stroke-opacity="0.9" stroke-linecap="round"/><polygon points="600.6,167.3 591.6,161.5 599.0,156.8" fill="#fefefe" fill-opacity="0.9"/>
<line x1="59.0" y1="220.8" x2="55.1" y2="218.7" stroke="#fefefe" stroke-width="0.63" stroke-opacity="0.9" stroke-linecap="round"/><polygon points="55.1,218.7 65.8,219.4 61.7,227.2" fill="#fefefe" fill-opacity="0.9"/>
<line x1="112.8" y1="221.3" x2="109.8" y2="218.2" stroke="#fefefe" stroke-width="0.63" stroke-opacity="0.9" stroke-linecap="round"/><polygon points="109.8,218.2 119.7,222.1 113.4,228.3" fill="#fefefe" fill-opacity="0.9"/>
<line x1="167.1" y1="221.3" x2="164.0" y2="218.3" stroke="#fefefe" stroke-width="0.63" stroke-opacity="0.9" stroke-linecap="round"/><polygon points="164.0,218.3 174.0,221.9 167.9,228.2" fill="#fefefe" fill-opacity="0.9"/>
<line x1="221.7" y1="218.9" x2="217.8" y2="220.7" stroke="#fefefe" stroke-width="0.63" stroke-opacity="0.9" stroke-linecap="round"/><polygon points="217.8,220.7 224.8,212.6 228.5,220.6" fill="#fefefe" fill-opacity="0.9"/>
<line x1="274.8" y1="217.8" x2="273.2" y2="221.8" stroke="#fefefe" stroke-width="0.63" stroke-opacity="0.9" stroke-linecap="round"/><polygon points="273.2,221.8 272.9,211.1 281.0,214.4" fill="#fefefe" fill-opacity="0.9"/>
<line x1="326.7" y1="218.3" x2="329.8" y2="221.3" stroke="#fefefe" stroke-width="0.63" stroke-opacity="0.9" stroke-linecap="round"/><polygon points="329.8,221.3 319.7,217.7 325.8,211.3" fill="#fefefe" fill-opacity="0.9"/>
<line x1="382.2" y1="217.6" x2="382.7" y2="221.9" stroke="#fefefe" stroke-width="0.63" stroke-opacity="0.9" stroke-linecap="round"/><polygon points="382.7,221.9 377.3,212.7 386.0,211.7" fill="#fefefe" fill-opacity="0.9"/>
<line x1="436.2" y1="217.6" x2="437.2" y2="221.9" stroke="#fefefe" stroke-width="0.63" stroke-opacity="0.9" stroke-linecap="round"/><polygon points="437.2,221.9 430.8,213.3 439.4,211.4" fill="#fefefe" fill-opacity="0.9"/>
<line x1="489.8" y1="217.9" x2="492.1" y2="221.6" stroke="#fefefe" stroke-width="0.63" stroke-opacity="0.9" stroke-linecap="round"/><polygon points="492.1,221.6 483.1,215.8 490.5,211.0" fill="#fefefe" fill-opacity="0.9"/>
<line x1="543.9" y1="218.1" x2="546.5" y2="221.5" stroke="#fefefe" stroke-width="0.63" stroke-opacity="0.9" stroke-linecap="round"/><polygon points="546.5,221.5 537.1,216.5 544.0,211.1" fill="#fefefe" fill-opacity="0.9"/>
<line x1="598.7" y1="217.7" x2="600.2" y2="221.8" stroke="#fefefe" stroke-width="0.63" stroke-opacity="0.9" stroke-linecap="round"/><polygon points="600.2,221.8 592.6,214.3 600.8,211.1" fill="#fefefe" fill-opacity="0.9"/>
<line x1="652.6" y1="217.9" x2="654.8" y2="221.6" stroke="#fefefe" stroke-width="0.63" stroke-opacity="0.9" stroke-linecap="round"/><polygon points="654.8,221.6 646.1,215.3 653.8,211.0" fill="#fefefe" fill-opacity="0.9"/>
<line x1="706.6" y1="218.1" x2="709.3" y2="221.5" stroke="#fefefe" stroke-width="0.63" stroke-opacity="0.9" stroke-linecap="round"/><polygon points="709.3,221.5 699.8,216.6 706.6,211.1" fill="#fefefe" fill-opacity="0.9"/>
<line x1="58.6" y1="275.6" x2="55.5" y2="272.4" stroke="#fefefe" stroke-width="0.63" stroke-opacity="0.9" stroke-linecap="round"/><polygon points="55.5,272.4 65.5,276.4 59.2,282.5" fill="#fefefe" fill-opacity="0.9"/>
<line x1="112.6" y1="275.7" x2="109.9" y2="272.3" stroke="#fefefe" stroke-width="0.63" stroke-opacity="0.9" stroke-linecap="round"/><polygon points="109.9,272.3 119.5,277.2 112.6,282.7" fill="#fefefe" fill-opacity="0.9"/>
<line x1="167.6" y1="274.6" x2="163.4" y2="273.4" stroke="#fefefe" stroke-width="0.63" stroke-opacity="0.9" stroke-linecap="round"/><polygon points="163.4,273.4 174.0,271.9 171.6,280.3" fill="#fefefe" fill-opacity="0.9"/>
<line x1="221.8" y1="274.7" x2="217.7" y2="273.3" stroke="#fefefe" stroke-width="0.63" stroke-opacity="0.9" stroke-linecap="round"/><polygon points="217.7,273.3 228.3,272.2 225.6,280.5" fill="#fefefe" fill-opacity="0.9"/>
<line x1="275.2" y1="275.8" x2="272.8" y2="272.2" stroke="#fefefe" stroke-width="0.63" stroke-opacity="0.9" stroke-linecap="round"/><polygon points="272.8,272.2 281.8,277.9 274.5,282.8" fill="#fefefe" fill-opacity="0.9"/>
<line x1="327.4" y1="272.0" x2="329.1" y2="276.0" stroke="#fefefe" stroke-width="0.63" stroke-opacity="0.9" stroke-linecap="round"/><polygon points="329.1,276.0 321.2,268.7 329.3,265.3" fill="#fefefe" fill-opacity="0.9"/>
<line x1="383.3" y1="272.0" x2="381.7" y2="276.0" stroke="#fefefe" stroke-width="0.63" stroke-opacity="0.9" stroke-linecap="round"/><polygon points="381.7,276.0 381.2,265.3 389.4,268.6" fill="#fefefe" fill-opacity="0.9"/>
<line x1="436.0" y1="272.0" x2="437.5" y2="276.0" stroke="#fefefe" stroke-width="0.63" stroke-opacity="0.9" stroke-linecap="round"/><polygon points="437.5,276.0 429.9,268.5 438.1,265.3" fill="#fefefe" fill-opacity="0.9"/>
<line x1="489.4" y1="272.4" x2="492.5" y2="275.6" stroke="#fefefe" stroke-width="0.63" stroke-opacity="0.9" stroke-linecap="round"/><polygon points="492.5,275.6 482.5,271.6 488.8,265.5" fill="#fefefe" fill-opacity="0.9"/>
<line x1="544.6" y1="271.9" x2="545.8" y2="276.1" stroke="#fefefe" stroke-width="0.63" stroke-opacity="0.9" stroke-linecap="round"/><polygon points="545.8,276.1 538.8,268.0 547.2,265.5" fill="#fefefe" fill-opacity="0.9"/>
<line x1="598.6" y1="272.0" x2="600.3" y2="276.0" stroke="#fefefe" stroke-width="0.63" stroke-opacity="0.9" stroke-linecap="round"/><polygon points="600.3,276.0 592.4,268.7 600.5,265.3" fill="#fefefe" fill-opacity="0.9"/>
<line x1="652.4" y1="272.3" x2="655.0" y2="275.7" stroke="#fefefe" stroke-width="0.63" stroke-opacity="0.9" stroke-linecap="round"/><polygon points="655.0,275.7 645.6,270.6 652.6,265.3" fill="#fefefe" fill-opacity="0.9"/>
<line x1="706.6" y1="272.3" x2="709.3" y2="275.7" stroke="#fefefe" stroke-width="0.63" stroke-opacity="0.9" stroke-linecap="round"/><polygon points="709.3,275.7 699.7,270.8 706.6,265.3" fill="#fefefe" fill-opacity="0.9"/>
<line x1="761.2" y1="272.0" x2="763.1" y2="276.0" stroke="#fefefe" stroke-width="0.63" stroke-opacity="0.9" stroke-linecap="round"/><polygon points="763.1,276.0 754.9,269.1 762.8,265.3" fill="#fefefe" fill-opacity="0.9"/>
<line x1="815.2" y1="272.2" x2="817.6" y2="275.8" stroke="#fefefe" stroke-width="0.63" stroke-opacity="0.9" stroke-linecap="round"/><polygon points="817.6,275.8 808.6,270.0 816.0,265.2" fill="#fefefe" fill-opacity="0.9"/>
<line x1="58.3" y1="330.0" x2="55.7" y2="326.5" stroke="#fefefe" stroke-width="0.63" stroke-opacity="0.9" stroke-linecap="round"/><polygon points="55.7,326.5 65.1,331.6 58.1,336.9" fill="#fefefe" fill-opacity="0.9"/>
<line x1="113.1" y1="329.4" x2="109.5" y2="327.0" stroke="#fefefe" stroke-width="0.63" stroke-opacity="0.9" stroke-linecap="round"/><polygon points="109.5,327.0 120.0,328.8 115.2,336.1" fill="#fefefe" fill-opacity="0.9"/>
<line x1="167.3" y1="329.4" x2="163.7" y2="327.1" stroke="#fefefe" stroke-width="0.63" stroke-opacity="0.9" stroke-linecap="round"/><polygon points="163.7,327.1 174.3,328.6 169.6,336.0" fill="#fefefe" fill-opacity="0.9"/>
<line x1="221.2" y1="329.8" x2="218.3" y2="326.6" stroke="#fefefe" stroke-width="0.63" stroke-opacity="0.9" stroke-linecap="round"/><polygon points="218.3,326.6 228.1,330.9 221.6,336.8" fill="#fefefe" fill-opacity="0.9"/>
<line x1="275.1" y1="330.1" x2="272.9" y2="326.4" stroke="#fefefe" stroke-width="0.63" stroke-opacity="0.9" stroke-linecap="round"/><polygon points="272.9,326.4 281.7,332.5 274.2,337.0" fill="#fefefe" fill-opacity="0.9"/>
<line x1="330.4" y1="328.1" x2="326.1" y2="328.4" stroke="#fefefe" stroke-width="0.63" stroke-opacity="0.9" stroke-linecap="round"/><polygon points="326.1,328.4 335.5,323.3 336.1,332.1" fill="#fefefe" fill-opacity="0.9"/>
<line x1="384.5" y1="327.4" x2="380.5" y2="329.1" stroke="#fefefe" stroke-width="0.63" stroke-opacity="0.9" stroke-linecap="round"/><polygon points="380.5,329.1 387.8,321.2 391.2,329.3" fill="#fefefe" fill-opacity="0.9"/>
<line x1="434.8" y1="327.2" x2="438.6" y2="329.3" stroke="#fefefe" stroke-width="0.63" stroke-opacity="0.9" stroke-linecap="round"/><polygon points="438.6,329.3 428.0,328.5 432.1,320.8" fill="#fefefe" fill-opacity="0.9"/>
<line x1="490.2" y1="326.2" x2="491.7" y2="330.3" stroke="#fefefe" stroke-width="0.63" stroke-opacity="0.9" stroke-linecap="round"/><polygon points="491.7,330.3 484.1,322.8 492.3,319.6" fill="#fefefe" fill-opacity="0.9"/>
<line x1="544.9" y1="326.1" x2="545.5" y2="330.4" stroke="#fefefe" stroke-width="0.63" stroke-opacity="0.9" stroke-linecap="round"/><polygon points="545.5,330.4 539.9,321.3 548.6,320.2" fill="#fefefe" fill-opacity="0.9"/>
<line x1="598.3" y1="326.4" x2="600.6" y2="330.1" stroke="#fefefe" stroke-width="0.63" stroke-opacity="0.9" stroke-linecap="round"/><polygon points="600.6,330.1 591.7,324.2 599.1,319.5" fill="#fefefe" fill-opacity="0.9"/>
<line x1="652.2" y1="326.7" x2="655.2" y2="329.8" stroke="#fefefe" stroke-width="0.63" stroke-opacity="0.9" stroke-linecap="round"/><polygon points="655.2,329.8 645.2,325.8 651.6,319.7" fill="#fefefe" fill-opacity="0.9"/>
<line x1="707.1" y1="326.2" x2="708.8" y2="330.2" stroke="#fefefe" stroke-width="0.63" stroke-opacity="0.9" stroke-linecap="round"/><polygon points="708.8,330.2 700.9,323.0 708.9,319.5" fill="#fefefe" fill-opacity="0.9"/>
<line x1="761.1" y1="326.3" x2="763.2" y2="330.1" stroke="#fefefe" stroke-width="0.63" stroke-opacity="0.9" stroke-linecap="round"/><polygon points="763.2,330.1 754.7,323.7 762.4,319.5" fill="#fefefe" fill-opacity="0.9"/>
<line x1="815.0" y1="326.6" x2="817.8" y2="329.9" stroke="#fefefe" stroke-width="0.63" stroke-opacity="0.9" stroke-linecap="round"/><polygon points="817.8,329.9 808.2,325.1 815.0,319.6" fill="#fefefe" fill-opacity="0.9"/>
<line x1="869.3" y1="326.6" x2="872.0" y2="329.9" stroke="#fefefe" stroke-width="0.63" stroke-opacity="0.9" stroke-linecap="round"/><polygon points="872.0,329.9 862.4,325.1 869.2,319.6" fill="#fefefe" fill-opacity="0.9"/>
<line x1="113.0" y1="383.8" x2="109.6" y2="381.2" stroke="#fefefe" stroke-width="0.63" stroke-opacity="0.9" stroke-linecap="round"/><polygon points="109.6,381.2 120.0,383.6 114.6,390.6" fill="#fefefe" fill-opacity="0.9"/>
<line x1="167.0" y1="384.1" x2="164.0" y2="380.9" stroke="#fefefe" stroke-width="0.63" stroke-opacity="0.9" stroke-linecap="round"/><polygon points="164.0,380.9 173.9,385.0 167.5,391.0" fill="#fefefe" fill-opacity="0.9"/>
<line x1="221.0" y1="384.3" x2="218.6" y2="380.7" stroke="#fefefe" stroke-width="0.63" stroke-opacity="0.9" stroke-linecap="round"/><polygon points="218.6,380.7 227.6,386.4 220.3,391.2" fill="#fefefe" fill-opacity="0.9"/>
<line x1="275.9" y1="383.5" x2="272.1" y2="381.5" stroke="#fefefe" stroke-width="0.63" stroke-opacity="0.9" stroke-linecap="round"/><polygon points="272.1,381.5 282.8,382.2 278.6,389.9" fill="#fefefe" fill-opacity="0.9"/>
<line x1="330.2" y1="383.5" x2="326.3" y2="381.5" stroke="#fefefe" stroke-width="0.63" stroke-opacity="0.9" stroke-linecap="round"/><polygon points="326.3,381.5 337.0,382.0 333.0,389.9" fill="#fefefe" fill-opacity="0.9"/>
<line x1="383.7" y1="384.2" x2="381.2" y2="380.7" stroke="#fefefe" stroke-width="0.63" stroke-opacity="0.9" stroke-linecap="round"/><polygon points="381.2,380.7 390.5,386.1 383.3,391.2" fill="#fefefe" fill-opacity="0.9"/>
<line x1="436.4" y1="384.6" x2="437.0" y2="380.3" stroke="#fefefe" stroke-width="0.63" stroke-opacity="0.9" stroke-linecap="round"/><polygon points="437.0,380.3 440.1,390.6 431.4,389.4" fill="#fefefe" fill-opacity="0.9"/>
<line x1="492.4" y1="380.9" x2="489.5" y2="384.1" stroke="#fefefe" stroke-width="0.63" stroke-opacity="0.9" stroke-linecap="round"/><polygon points="489.5,384.1 492.8,373.9 499.3,379.8" fill="#fefefe" fill-opacity="0.9"/>
<line x1="544.8" y1="380.4" x2="545.6" y2="384.6" stroke="#fefefe" stroke-width="0.63" stroke-opacity="0.9" stroke-linecap="round"/><polygon points="545.6,384.6 539.3,376.0 547.9,374.1" fill="#fefefe" fill-opacity="0.9"/>
<line x1="597.8" y1="381.1" x2="601.1" y2="383.8" stroke="#fefefe" stroke-width="0.63" stroke-opacity="0.9" stroke-linecap="round"/><polygon points="601.1,383.8 590.8,381.1 596.3,374.3" fill="#fefefe" fill-opacity="0.9"/>
<line x1="652.7" y1="380.5" x2="654.6" y2="384.4" stroke="#fefefe" stroke-width="0.63" stroke-opacity="0.9" stroke-linecap="round"/><polygon points="654.6,384.4 646.4,377.5 654.4,373.7" fill="#fefefe" fill-opacity="0.9"/>
<line x1="707.1" y1="380.5" x2="708.7" y2="384.5" stroke="#fefefe" stroke-width="0.63" stroke-opacity="0.9" stroke-linecap="round"/><polygon points="708.7,384.5 701.1,377.0 709.3,373.8" fill="#fefefe" fill-opacity="0.9"/>
<line x1="760.9" y1="380.7" x2="763.5" y2="384.2" stroke="#fefefe" stroke-width="0.63" stroke-opacity="0.9" stroke-linecap="round"/><polygon points="763.5,384.2 754.1,379.1 761.1,373.8" fill="#fefefe" fill-opacity="0.9"/>
<line x1="814.9" y1="380.9" x2="817.9" y2="384.0" stroke="#fefefe" stroke-width="0.63" stroke-opacity="0.9" stroke-linecap="round"/><polygon points="817.9,384.0 808.0,380.0 814.3,374.0" fill="#fefefe" fill-opacity="0.9"/>
<line x1="869.6" y1="380.6" x2="871.6" y2="384.4" stroke="#fefefe" stroke-width="0.63" stroke-opacity="0.9" stroke-linecap="round"/><polygon points="871.6,384.4 863.2,377.8 871.0,373.7" fill="#fefefe" fill-opacity="0.9"/>
<line x1="923.7" y1="380.7" x2="926.0" y2="384.3" stroke="#fefefe" stroke-width="0.63" stroke-opacity="0.9" stroke-linecap="round"/><polygon points="926.0,384.3 917.1,378.4 924.5,373.7" fill="#fefefe" fill-opacity="0.9"/>
<line x1="112.8" y1="438.3" x2="109.8" y2="435.1" stroke="#fefefe" stroke-width="0.63" stroke-opacity="0.9" stroke-linecap="round"/><polygon points="109.8,435.1 119.7,439.2 113.3,445.2" fill="#fefefe" fill-opacity="0.9"/>
<line x1="166.8" y1="438.5" x2="164.3" y2="434.9" stroke="#fefefe" stroke-width="0.63" stroke-opacity="0.9" stroke-linecap="round"/><polygon points="164.3,434.9 173.5,440.4 166.3,445.5" fill="#fefefe" fill-opacity="0.9"/>
<line x1="221.4" y1="438.2" x2="218.2" y2="435.2" stroke="#fefefe" stroke-width="0.63" stroke-opacity="0.9" stroke-linecap="round"/><polygon points="218.2,435.2 228.3,438.6 222.4,445.1" fill="#fefefe" fill-opacity="0.9"/>
<line x1="275.8" y1="438.0" x2="272.2" y2="435.4" stroke="#fefefe" stroke-width="0.63" stroke-opacity="0.9" stroke-linecap="round"/><polygon points="272.2,435.4 282.7,437.6 277.6,444.7" fill="#fefefe" fill-opacity="0.9"/>
<line x1="329.7" y1="438.4" x2="326.8" y2="435.1" stroke="#fefefe" stroke-width="0.63" stroke-opacity="0.9" stroke-linecap="round"/><polygon points="326.8,435.1 336.5,439.6 329.9,445.3" fill="#fefefe" fill-opacity="0.9"/>
<line x1="383.4" y1="438.7" x2="381.5" y2="434.8" stroke="#fefefe" stroke-width="0.63" stroke-opacity="0.9" stroke-linecap="round"/><polygon points="381.5,434.8 389.8,441.6 381.9,445.5" fill="#fefefe" fill-opacity="0.9"/>
<line x1="438.8" y1="437.3" x2="434.6" y2="436.1" stroke="#fefefe" stroke-width="0.63" stroke-opacity="0.9" stroke-linecap="round"/><polygon points="434.6,436.1 445.2,434.6 442.8,443.0" fill="#fefefe" fill-opacity="0.9"/>
<line x1="493.1" y1="437.1" x2="488.8" y2="436.3" stroke="#fefefe" stroke-width="0.63" stroke-opacity="0.9" stroke-linecap="round"/><polygon points="488.8,436.3 499.2,433.7 497.7,442.4" fill="#fefefe" fill-opacity="0.9"/>
<line x1="543.5" y1="438.1" x2="546.9" y2="435.4" stroke="#fcfcfc" stroke-width="0.63" stroke-opacity="0.9" stroke-linecap="round"/><polygon points="546.9,435.4 541.9,444.9 536.5,437.9" fill="#fcfcfc" fill-opacity="0.9"/>
<line x1="597.5" y1="435.7" x2="601.4" y2="437.7" stroke="#fefefe" stroke-width="0.63" stroke-opacity="0.9" stroke-linecap="round"/><polygon points="601.4,437.7 590.7,437.2 594.7,429.4" fill="#fefefe" fill-opacity="0.9"/>
<line x1="653.7" y1="434.6" x2="653.7" y2="438.9" stroke="#fefefe" stroke-width="0.63" stroke-opacity="0.9" stroke-linecap="round"/><polygon points="653.7,438.9 649.3,429.1 658.1,429.2" fill="#fefefe" fill-opacity="0.9"/>
<line x1="706.8" y1="434.9" x2="709.0" y2="438.6" stroke="#fefefe" stroke-width="0.63" stroke-opacity="0.9" stroke-linecap="round"/><polygon points="709.0,438.6 700.3,432.5 707.8,427.9" fill="#fefefe" fill-opacity="0.9"/>
<line x1="760.5" y1="435.3" x2="763.8" y2="438.2" stroke="#fefefe" stroke-width="0.63" stroke-opacity="0.9" stroke-linecap="round"/><polygon points="763.8,438.2 753.6,435.0 759.3,428.4" fill="#fefefe" fill-opacity="0.9"/>
<line x1="815.3" y1="434.8" x2="817.5" y2="438.6" stroke="#fefefe" stroke-width="0.63" stroke-opacity="0.9" stroke-linecap="round"/><polygon points="817.5,438.6 808.8,432.3 816.5,427.9" fill="#fefefe" fill-opacity="0.9"/>
<line x1="869.6" y1="434.8" x2="871.7" y2="438.6" stroke="#fefefe" stroke-width="0.63" stroke-opacity="0.9" stroke-linecap="round"/><polygon points="871.7,438.6 863.2,432.1 871.0,428.0" fill="#fefefe" fill-opacity="0.9"/>
<line x1="923.5" y1="435.1" x2="926.3" y2="438.4" stroke="#fefefe" stroke-width="0.63" stroke-opacity="0.9" stroke-linecap="round"/><polygon points="926.3,438.4 916.6,433.7 923.4,428.1" fill="#fefefe" fill-opacity="0.9"/>
<line x1="221.4" y1="492.4" x2="218.1" y2="489.6" stroke="#fefefe" stroke-width="0.63" stroke-opacity="0.9" stroke-linecap="round"/><polygon points="218.1,489.6 228.4,492.5 222.8,499.2" fill="#fefefe" fill-opacity="0.9"/>
<line x1="275.5" y1="492.6" x2="272.5" y2="489.4" stroke="#fefefe" stroke-width="0.63" stroke-opacity="0.9" stroke-linecap="round"/><polygon points="272.5,489.4 282.4,493.6 275.9,499.5" fill="#fefefe" fill-opacity="0.9"/>
<line x1="329.4" y1="492.8" x2="327.1" y2="489.1" stroke="#fefefe" stroke-width="0.63" stroke-opacity="0.9" stroke-linecap="round"/><polygon points="327.1,489.1 336.0,495.1 328.5,499.7" fill="#fefefe" fill-opacity="0.9"/>
<line x1="384.1" y1="492.4" x2="380.8" y2="489.5" stroke="#fefefe" stroke-width="0.63" stroke-opacity="0.9" stroke-linecap="round"/><polygon points="380.8,489.5 391.1,492.6 385.4,499.2" fill="#fefefe" fill-opacity="0.9"/>
<line x1="438.5" y1="492.1" x2="434.9" y2="489.8" stroke="#fefefe" stroke-width="0.63" stroke-opacity="0.9" stroke-linecap="round"/><polygon points="434.9,489.8 445.5,491.4 440.7,498.8" fill="#fefefe" fill-opacity="0.9"/>
<line x1="492.2" y1="492.7" x2="489.7" y2="489.2" stroke="#fefefe" stroke-width="0.63" stroke-opacity="0.9" stroke-linecap="round"/><polygon points="489.7,489.2 499.0,494.5 491.9,499.7" fill="#fefefe" fill-opacity="0.9"/>
<line x1="545.3" y1="493.1" x2="545.1" y2="488.8" stroke="#fefefe" stroke-width="0.63" stroke-opacity="0.9" stroke-linecap="round"/><polygon points="545.1,488.8 550.0,498.3 541.3,498.8" fill="#fefefe" fill-opacity="0.9"/>
<line x1="601.5" y1="490.2" x2="597.4" y2="491.7" stroke="#fcfcfc" stroke-width="0.63" stroke-opacity="0.9" stroke-linecap="round"/><polygon points="597.4,491.7 605.1,484.2 608.1,492.5" fill="#fcfcfc" fill-opacity="0.9"/>
<line x1="654.6" y1="486.8" x2="652.8" y2="495.2" stroke="#cccccc" stroke-width="0.63" stroke-opacity="0.9" stroke-linecap="round"/><polygon points="652.8,495.2 650.5,484.7 659.1,486.5" fill="#cccccc" fill-opacity="0.9"/>
<line x1="706.0" y1="489.9" x2="709.8" y2="492.1" stroke="#f8f8f8" stroke-width="0.63" stroke-opacity="0.9" stroke-linecap="round"/><polygon points="709.8,492.1 699.1,490.9 703.6,483.3" fill="#f8f8f8" fill-opacity="0.9"/>
<line x1="760.7" y1="489.4" x2="763.6" y2="492.5" stroke="#fefefe" stroke-width="0.63" stroke-opacity="0.9" stroke-linecap="round"/><polygon points="763.6,492.5 753.8,488.4 760.2,482.4" fill="#fefefe" fill-opacity="0.9"/>
<line x1="815.7" y1="488.9" x2="817.1" y2="493.0" stroke="#fefefe" stroke-width="0.63" stroke-opacity="0.9" stroke-linecap="round"/><polygon points="817.1,493.0 809.8,485.2 818.1,482.4" fill="#fefefe" fill-opacity="0.9"/>
<line x1="869.3" y1="489.2" x2="872.0" y2="492.7" stroke="#fefefe" stroke-width="0.63" stroke-opacity="0.9" stroke-linecap="round"/><polygon points="872.0,492.7 862.6,487.6 869.6,482.3" fill="#fefefe" fill-opacity="0.9"/>
<line x1="923.2" y1="489.6" x2="926.6" y2="492.3" stroke="#fefefe" stroke-width="0.63" stroke-opacity="0.9" stroke-linecap="round"/><polygon points="926.6,492.3 916.2,489.6 921.8,482.8" fill="#fefefe" fill-opacity="0.9"/>
<line x1="275.2" y1="547.0" x2="272.8" y2="543.4" stroke="#fefefe" stroke-width="0.63" stroke-opacity="0.9" stroke-linecap="round"/><polygon points="272.8,543.4 281.9,548.9 274.7,553.9" fill="#fefefe" fill-opacity="0.9"/>
<line x1="329.6" y1="546.9" x2="326.9" y2="543.5" stroke="#fefefe" stroke-width="0.63" stroke-opacity="0.9" stroke-linecap="round"/><polygon points="326.9,543.5 336.4,548.4 329.6,553.9" fill="#fefefe" fill-opacity="0.9"/>
<line x1="384.2" y1="546.6" x2="380.8" y2="543.8" stroke="#fefefe" stroke-width="0.63" stroke-opacity="0.9" stroke-linecap="round"/><polygon points="380.8,543.8 391.1,546.6 385.6,553.4" fill="#fefefe" fill-opacity="0.9"/>
<line x1="438.1" y1="546.9" x2="435.3" y2="543.5" stroke="#fefefe" stroke-width="0.63" stroke-opacity="0.9" stroke-linecap="round"/><polygon points="435.3,543.5 445.0,548.1 438.3,553.8" fill="#fefefe" fill-opacity="0.9"/>
<line x1="491.9" y1="547.2" x2="490.0" y2="543.2" stroke="#fefefe" stroke-width="0.63" stroke-opacity="0.9" stroke-linecap="round"/><polygon points="490.0,543.2 498.2,550.2 490.2,553.9" fill="#fefefe" fill-opacity="0.9"/>
<line x1="547.0" y1="546.5" x2="543.4" y2="543.9" stroke="#fefefe" stroke-width="0.63" stroke-opacity="0.9" stroke-linecap="round"/><polygon points="543.4,543.9 553.9,546.0 548.9,553.2" fill="#fefefe" fill-opacity="0.9"/>
<line x1="601.4" y1="546.1" x2="597.5" y2="544.3" stroke="#fdfdfd" stroke-width="0.63" stroke-opacity="0.9" stroke-linecap="round"/><polygon points="597.5,544.3 608.2,544.5 604.4,552.4" fill="#fdfdfd" fill-opacity="0.9"/>
<line x1="654.6" y1="549.3" x2="652.8" y2="541.1" stroke="#cdcdcd" stroke-width="0.63" stroke-opacity="0.9" stroke-linecap="round"/><polygon points="652.8,541.1 659.2,549.6 650.6,551.5" fill="#cdcdcd" fill-opacity="0.9"/>
<line x1="706.0" y1="546.2" x2="709.9" y2="544.2" stroke="#f1f1f1" stroke-width="0.63" stroke-opacity="0.9" stroke-linecap="round"/><polygon points="709.9,544.2 703.1,552.5 699.2,544.6" fill="#f1f1f1" fill-opacity="0.9"/>
<line x1="762.6" y1="543.1" x2="761.7" y2="547.3" stroke="#f6f6f6" stroke-width="0.63" stroke-opacity="0.9" stroke-linecap="round"/><polygon points="761.7,547.3 759.4,536.9 768.0,538.7" fill="#f6f6f6" fill-opacity="0.9"/>
<line x1="815.4" y1="543.3" x2="817.4" y2="547.1" stroke="#fdfdfd" stroke-width="0.63" stroke-opacity="0.9" stroke-linecap="round"/><polygon points="817.4,547.1 808.9,540.6 816.6,536.4" fill="#fdfdfd" fill-opacity="0.9"/>
<line x1="868.9" y1="544.0" x2="872.4" y2="546.4" stroke="#fefefe" stroke-width="0.63" stroke-opacity="0.9" stroke-linecap="round"/><polygon points="872.4,546.4 861.9,544.4 866.9,537.2" fill="#fefefe" fill-opacity="0.9"/>
<line x1="922.9" y1="544.3" x2="926.9" y2="546.1" stroke="#fefefe" stroke-width="0.63" stroke-opacity="0.9" stroke-linecap="round"/><polygon points="926.9,546.1 916.2,546.2 919.7,538.2" fill="#fefefe" fill-opacity="0.9"/>
<line x1="329.8" y1="600.9" x2="326.7" y2="598.0" stroke="#fefefe" stroke-width="0.63" stroke-opacity="0.9" stroke-linecap="round"/><polygon points="326.7,598.0 336.8,601.4 330.8,607.8" fill="#fefefe" fill-opacity="0.9"/>
<line x1="383.9" y1="601.1" x2="381.0" y2="597.8" stroke="#fefefe" stroke-width="0.63" stroke-opacity="0.9" stroke-linecap="round"/><polygon points="381.0,597.8 390.8,602.2 384.3,608.0" fill="#fefefe" fill-opacity="0.9"/>
<line x1="437.8" y1="601.3" x2="435.6" y2="597.6" stroke="#fefefe" stroke-width="0.63" stroke-opacity="0.9" stroke-linecap="round"/><polygon points="435.6,597.6 444.4,603.6 436.9,608.2" fill="#fefefe" fill-opacity="0.9"/>
<line x1="492.3" y1="601.1" x2="489.6" y2="597.7" stroke="#fefefe" stroke-width="0.63" stroke-opacity="0.9" stroke-linecap="round"/><polygon points="489.6,597.7 499.1,602.7 492.2,608.1" fill="#fefefe" fill-opacity="0.9"/>
<line x1="546.9" y1="600.8" x2="543.5" y2="598.1" stroke="#fefefe" stroke-width="0.63" stroke-opacity="0.9" stroke-linecap="round"/><polygon points="543.5,598.1 553.9,600.6 548.6,607.5" fill="#fefefe" fill-opacity="0.9"/>
<line x1="600.7" y1="601.2" x2="598.2" y2="597.7" stroke="#fefefe" stroke-width="0.63" stroke-opacity="0.9" stroke-linecap="round"/><polygon points="598.2,597.7 607.5,602.9 600.4,608.2" fill="#fefefe" fill-opacity="0.9"/>
<line x1="654.0" y1="601.6" x2="653.3" y2="597.3" stroke="#fefefe" stroke-width="0.63" stroke-opacity="0.9" stroke-linecap="round"/><polygon points="653.3,597.3 659.3,606.2 650.6,607.7" fill="#fefefe" fill-opacity="0.9"/>
<line x1="710.0" y1="600.0" x2="705.8" y2="598.9" stroke="#fbfbfb" stroke-width="0.63" stroke-opacity="0.9" stroke-linecap="round"/><polygon points="705.8,598.9 716.4,597.2 714.1,605.7" fill="#fbfbfb" fill-opacity="0.9"/>
<line x1="770.7" y1="596.7" x2="753.7" y2="602.1" stroke="#969696" stroke-width="0.63" stroke-opacity="0.9" stroke-linecap="round"/><polygon points="753.7,602.1 761.6,595.0 764.3,603.4" fill="#969696" fill-opacity="0.9"/>
<line x1="809.2" y1="597.9" x2="823.6" y2="600.9" stroke="#a9a9a9" stroke-width="0.63" stroke-opacity="0.9" stroke-linecap="round"/><polygon points="823.6,600.9 813.1,603.2 814.9,594.6" fill="#a9a9a9" fill-opacity="0.9"/>
<line x1="868.5" y1="599.3" x2="872.8" y2="599.6" stroke="#fefefe" stroke-width="0.63" stroke-opacity="0.9" stroke-linecap="round"/><polygon points="872.8,599.6 862.7,603.2 863.4,594.5" fill="#fefefe" fill-opacity="0.9"/>
<line x1="922.7" y1="599.3" x2="927.0" y2="599.5" stroke="#fefefe" stroke-width="0.63" stroke-opacity="0.9" stroke-linecap="round"/><polygon points="927.0,599.5 917.1,603.5 917.5,594.7" fill="#fefefe" fill-opacity="0.9"/>
<line x1="383.7" y1="655.5" x2="381.2" y2="651.9" stroke="#fefefe" stroke-width="0.63" stroke-opacity="0.9" stroke-linecap="round"/><polygon points="381.2,651.9 390.4,657.4 383.2,662.4" fill="#fefefe" fill-opacity="0.9"/>
<line x1="437.9" y1="655.5" x2="435.6" y2="651.9" stroke="#fefefe" stroke-width="0.63" stroke-opacity="0.9" stroke-linecap="round"/><polygon points="435.6,651.9 444.5,657.7 437.1,662.4" fill="#fefefe" fill-opacity="0.9"/>
<line x1="492.6" y1="655.1" x2="489.4" y2="652.2" stroke="#fefefe" stroke-width="0.63" stroke-opacity="0.9" stroke-linecap="round"/><polygon points="489.4,652.2 499.5,655.6 493.6,662.0" fill="#fefefe" fill-opacity="0.9"/>
<line x1="546.6" y1="655.3" x2="543.8" y2="652.0" stroke="#fefefe" stroke-width="0.63" stroke-opacity="0.9" stroke-linecap="round"/><polygon points="543.8,652.0 553.4,656.7 546.7,662.3" fill="#fefefe" fill-opacity="0.9"/>
<line x1="600.4" y1="655.6" x2="598.5" y2="651.7" stroke="#fefefe" stroke-width="0.63" stroke-opacity="0.9" stroke-linecap="round"/><polygon points="598.5,651.7 606.7,658.6 598.7,662.4" fill="#fefefe" fill-opacity="0.9"/>
<line x1="655.0" y1="655.4" x2="652.4" y2="652.0" stroke="#fefefe" stroke-width="0.63" stroke-opacity="0.9" stroke-linecap="round"/><polygon points="652.4,652.0 661.8,657.0 654.8,662.4" fill="#fefefe" fill-opacity="0.9"/>
<line x1="709.7" y1="654.9" x2="706.1" y2="652.5" stroke="#fefefe" stroke-width="0.63" stroke-opacity="0.9" stroke-linecap="round"/><polygon points="706.1,652.5 716.7,654.3 711.8,661.6" fill="#fefefe" fill-opacity="0.9"/>
<line x1="763.2" y1="655.9" x2="761.1" y2="651.4" stroke="#e1e1e1" stroke-width="0.63" stroke-opacity="0.9" stroke-linecap="round"/><polygon points="761.1,651.4 769.2,658.5 761.1,662.1" fill="#e1e1e1" fill-opacity="0.9"/>
<line x1="815.2" y1="655.5" x2="817.6" y2="651.9" stroke="#f4f4f4" stroke-width="0.63" stroke-opacity="0.9" stroke-linecap="round"/><polygon points="817.6,651.9 815.7,662.4 808.5,657.4" fill="#f4f4f4" fill-opacity="0.9"/>
<line x1="868.7" y1="654.7" x2="872.5" y2="652.6" stroke="#fefefe" stroke-width="0.63" stroke-opacity="0.9" stroke-linecap="round"/><polygon points="872.5,652.6 866.1,661.2 861.9,653.4" fill="#fefefe" fill-opacity="0.9"/>
<line x1="922.8" y1="654.4" x2="926.9" y2="653.0" stroke="#fefefe" stroke-width="0.63" stroke-opacity="0.9" stroke-linecap="round"/><polygon points="926.9,653.0 919.1,660.3 916.3,651.9" fill="#fefefe" fill-opacity="0.9"/>
<line x1="438.2" y1="709.5" x2="435.2" y2="706.3" stroke="#fefefe" stroke-width="0.63" stroke-opacity="0.9" stroke-linecap="round"/><polygon points="435.2,706.3 445.1,710.4 438.7,716.5" fill="#fefefe" fill-opacity="0.9"/>
<line x1="492.4" y1="709.6" x2="489.5" y2="706.3" stroke="#fefefe" stroke-width="0.63" stroke-opacity="0.9" stroke-linecap="round"/><polygon points="489.5,706.3 499.3,710.7 492.7,716.5" fill="#fefefe" fill-opacity="0.9"/>
<line x1="546.3" y1="709.8" x2="544.1" y2="706.1" stroke="#fefefe" stroke-width="0.63" stroke-opacity="0.9" stroke-linecap="round"/><polygon points="544.1,706.1 552.9,712.1 545.4,716.7" fill="#fefefe" fill-opacity="0.9"/>
<line x1="600.5" y1="709.8" x2="598.4" y2="706.0" stroke="#fefefe" stroke-width="0.63" stroke-opacity="0.9" stroke-linecap="round"/><polygon points="598.4,706.0 607.0,712.3 599.4,716.7" fill="#fefefe" fill-opacity="0.9"/>
<line x1="655.3" y1="709.4" x2="652.1" y2="706.5" stroke="#fefefe" stroke-width="0.63" stroke-opacity="0.9" stroke-linecap="round"/><polygon points="652.1,706.5 662.3,709.7 656.4,716.3" fill="#fefefe" fill-opacity="0.9"/>
<line x1="709.2" y1="709.7" x2="706.6" y2="706.2" stroke="#fefefe" stroke-width="0.63" stroke-opacity="0.9" stroke-linecap="round"/><polygon points="706.6,706.2 716.0,711.4 708.9,716.6" fill="#fefefe" fill-opacity="0.9"/>
<line x1="762.6" y1="710.0" x2="761.7" y2="705.8" stroke="#fefefe" stroke-width="0.63" stroke-opacity="0.9" stroke-linecap="round"/><polygon points="761.7,705.8 768.0,714.4 759.4,716.3" fill="#fefefe" fill-opacity="0.9"/>
<line x1="815.7" y1="710.0" x2="817.1" y2="705.9" stroke="#fefefe" stroke-width="0.63" stroke-opacity="0.9" stroke-linecap="round"/><polygon points="817.1,705.9 818.2,716.5 809.9,713.8" fill="#fefefe" fill-opacity="0.9"/>
<line x1="869.2" y1="709.6" x2="872.1" y2="706.3" stroke="#fefefe" stroke-width="0.63" stroke-opacity="0.9" stroke-linecap="round"/><polygon points="872.1,706.3 869.0,716.5 862.4,710.8" fill="#fefefe" fill-opacity="0.9"/>
<line x1="923.1" y1="709.2" x2="926.6" y2="706.7" stroke="#fefefe" stroke-width="0.63" stroke-opacity="0.9" stroke-linecap="round"/><polygon points="926.6,706.7 921.3,715.9 916.1,708.8" fill="#fefefe" fill-opacity="0.9"/>
<line x1="546.3" y1="764.1" x2="544.1" y2="760.3" stroke="#fefefe" stroke-width="0.63" stroke-opacity="0.9" stroke-linecap="round"/><polygon points="544.1,760.3 552.7,766.6 545.1,770.9" fill="#fefefe" fill-opacity="0.9"/>
<line x1="600.9" y1="763.7" x2="598.0" y2="760.6" stroke="#fefefe" stroke-width="0.63" stroke-opacity="0.9" stroke-linecap="round"/><polygon points="598.0,760.6 607.8,764.7 601.5,770.7" fill="#fefefe" fill-opacity="0.9"/>
<line x1="655.1" y1="763.8" x2="652.3" y2="760.5" stroke="#fefefe" stroke-width="0.63" stroke-opacity="0.9" stroke-linecap="round"/><polygon points="652.3,760.5 661.9,765.2 655.1,770.8" fill="#fefefe" fill-opacity="0.9"/>
<line x1="708.9" y1="764.1" x2="707.0" y2="760.2" stroke="#fefefe" stroke-width="0.63" stroke-opacity="0.9" stroke-linecap="round"/><polygon points="707.0,760.2 715.2,767.1 707.3,770.9" fill="#fefefe" fill-opacity="0.9"/>
<line x1="762.5" y1="764.3" x2="761.9" y2="760.0" stroke="#fefefe" stroke-width="0.63" stroke-opacity="0.9" stroke-linecap="round"/><polygon points="761.9,760.0 767.5,769.1 758.8,770.3" fill="#fefefe" fill-opacity="0.9"/>
<line x1="816.0" y1="764.3" x2="816.8" y2="760.0" stroke="#fefefe" stroke-width="0.63" stroke-opacity="0.9" stroke-linecap="round"/><polygon points="816.8,760.0 819.1,770.5 810.5,768.7" fill="#fefefe" fill-opacity="0.9"/>
<line x1="869.6" y1="764.1" x2="871.7" y2="760.3" stroke="#fefefe" stroke-width="0.63" stroke-opacity="0.9" stroke-linecap="round"/><polygon points="871.7,760.3 870.8,770.9 863.1,766.6" fill="#fefefe" fill-opacity="0.9"/>
<line x1="923.4" y1="763.8" x2="926.3" y2="760.6" stroke="#fefefe" stroke-width="0.63" stroke-opacity="0.9" stroke-linecap="round"/><polygon points="926.3,760.6 923.0,770.7 916.5,764.8" fill="#fefefe" fill-opacity="0.9"/>
<line x1="600.9" y1="818.0" x2="598.0" y2="814.8" stroke="#fefefe" stroke-width="0.63" stroke-opacity="0.9" stroke-linecap="round"/><polygon points="598.0,814.8 607.7,819.3 601.0,825.0" fill="#fefefe" fill-opacity="0.9"/>
<line x1="654.8" y1="818.2" x2="652.5" y2="814.6" stroke="#fefefe" stroke-width="0.63" stroke-opacity="0.9" stroke-linecap="round"/><polygon points="652.5,814.6 661.4,820.6 653.9,825.2" fill="#fefefe" fill-opacity="0.9"/>
<line x1="708.7" y1="818.4" x2="707.2" y2="814.4" stroke="#fefefe" stroke-width="0.63" stroke-opacity="0.9" stroke-linecap="round"/><polygon points="707.2,814.4 714.6,822.1 706.4,825.0" fill="#fefefe" fill-opacity="0.9"/>
<line x1="762.4" y1="818.6" x2="761.9" y2="814.2" stroke="#fefefe" stroke-width="0.63" stroke-opacity="0.9" stroke-linecap="round"/><polygon points="761.9,814.2 767.3,823.5 758.6,824.4" fill="#fefefe" fill-opacity="0.9"/>
<line x1="816.1" y1="818.5" x2="816.7" y2="814.3" stroke="#fefefe" stroke-width="0.63" stroke-opacity="0.9" stroke-linecap="round"/><polygon points="816.7,814.3 819.6,824.6 810.9,823.2" fill="#fefefe" fill-opacity="0.9"/>
<line x1="869.8" y1="818.4" x2="871.5" y2="814.4" stroke="#fefefe" stroke-width="0.63" stroke-opacity="0.9" stroke-linecap="round"/><polygon points="871.5,814.4 871.8,825.1 863.7,821.7" fill="#fefefe" fill-opacity="0.9"/>
<line x1="923.7" y1="818.2" x2="926.1" y2="814.6" stroke="#fefefe" stroke-width="0.63" stroke-opacity="0.9" stroke-linecap="round"/><polygon points="926.1,814.6 924.3,825.2 917.0,820.2" fill="#fefefe" fill-opacity="0.9"/>
<line x1="654.6" y1="872.6" x2="652.7" y2="868.7" stroke="#fefefe" stroke-width="0.63" stroke-opacity="0.9" stroke-linecap="round"/><polygon points="652.7,868.7 661.0,875.5 653.1,879.4" fill="#fefefe" fill-opacity="0.9"/>
<line x1="708.5" y1="872.7" x2="707.3" y2="868.6" stroke="#fefefe" stroke-width="0.63" stroke-opacity="0.9" stroke-linecap="round"/><polygon points="707.3,868.6 714.2,876.7 705.8,879.1" fill="#fefefe" fill-opacity="0.9"/>
<line x1="762.3" y1="872.8" x2="762.0" y2="868.5" stroke="#fefefe" stroke-width="0.63" stroke-opacity="0.9" stroke-linecap="round"/><polygon points="762.0,868.5 767.2,877.9 758.4,878.6" fill="#fefefe" fill-opacity="0.9"/>
<line x1="816.1" y1="872.8" x2="816.7" y2="868.5" stroke="#fefefe" stroke-width="0.63" stroke-opacity="0.9" stroke-linecap="round"/><polygon points="816.7,868.5 819.8,878.7 811.1,877.6" fill="#fefefe" fill-opacity="0.9"/>
<line x1="870.0" y1="872.7" x2="871.3" y2="868.6" stroke="#fefefe" stroke-width="0.63" stroke-opacity="0.9" stroke-linecap="round"/><polygon points="871.3,868.6 872.4,879.2 864.1,876.5" fill="#fefefe" fill-opacity="0.9"/>
</svg>