<?xml version="1.0" encoding="UTF-8"?>
<svg xmlns="http://www.w3.org/2000/svg" viewBox="0 0 1000 1000" preserveAspectRatio="none">
<line x1="58.6" y1="55.5" x2="55.5" y2="58.6" stroke="#fefefe" stroke-width="0.63" stroke-opacity="0.9" stroke-linecap="round"/><polygon points="55.5,58.6 59.3,48.6 65.5,54.8" fill="#fefefe" fill-opacity="0.9"/>
<line x1="112.2" y1="55.1" x2="110.3" y2="59.0" stroke="#fefefe" stroke-width="0.63" stroke-opacity="0.9" stroke-linecap="round"/><polygon points="110.3,59.0 110.7,48.3 118.6,52.2" fill="#fefefe" fill-opacity="0.9"/>
<line x1="165.5" y1="54.9" x2="165.6" y2="59.2" stroke="#fefefe" stroke-width="0.63" stroke-opacity="0.9" stroke-linecap="round"/><polygon points="165.6,59.2 161.0,49.5 169.8,49.4" fill="#fefefe" fill-opacity="0.9"/>
<line x1="218.7" y1="55.1" x2="220.8" y2="59.0" stroke="#fefefe" stroke-width="0.63" stroke-opacity="0.9" stroke-linecap="round"/><polygon points="220.8,59.0 212.3,52.4 220.1,48.3" fill="#fefefe" fill-opacity="0.9"/>
<line x1="272.5" y1="55.5" x2="275.5" y2="58.6" stroke="#fefefe" stroke-width="0.63" stroke-opacity="0.9" stroke-linecap="round"/><polygon points="275.5,58.6 265.5,54.8 271.7,48.6" fill="#fefefe" fill-opacity="0.9"/>
<line x1="326.9" y1="55.3" x2="329.6" y2="58.7" stroke="#fefefe" stroke-width="0.63" stroke-opacity="0.9" stroke-linecap="round"/><polygon points="329.6,58.7 320.1,53.9 326.9,48.4" fill="#fefefe" fill-opacity="0.9"/>
<line x1="381.5" y1="55.1" x2="383.5" y2="59.0" stroke="#fefefe" stroke-width="0.63" stroke-opacity="0.9" stroke-linecap="round"/><polygon points="383.5,59.0 375.1,52.4 382.8,48.3" fill="#fefefe" fill-opacity="0.9"/>
<line x1="435.4" y1="55.3" x2="438.0" y2="58.8" stroke="#fefefe" stroke-width="0.63" stroke-opacity="0.9" stroke-linecap="round"/><polygon points="438.0,58.8 428.6,53.7 435.6,48.3" fill="#fefefe" fill-opacity="0.9"/>
<line x1="489.4" y1="55.5" x2="492.5" y2="58.6" stroke="#fefefe" stroke-width="0.63" stroke-opacity="0.9" stroke-linecap="round"/><polygon points="492.5,58.6 482.5,54.6 488.8,48.5" fill="#fefefe" fill-opacity="0.9"/>
<line x1="59.0" y1="110.3" x2="55.1" y2="112.2" stroke="#fefefe" stroke-width="0.63" stroke-opacity="0.9" stroke-linecap="round"/><polygon points="55.1,112.2 61.9,104.0 65.8,111.9" fill="#fefefe" fill-opacity="0.9"/>
<line x1="112.8" y1="109.7" x2="109.7" y2="112.8" stroke="#fbfbfb" stroke-width="0.63" stroke-opacity="0.9" stroke-linecap="round"/><polygon points="109.7,112.8 113.5,102.8 119.8,109.0" fill="#fbfbfb" fill-opacity="0.9"/>
<line x1="165.4" y1="108.8" x2="165.6" y2="113.8" stroke="#e1e1e1" stroke-width="0.63" stroke-opacity="0.9" stroke-linecap="round"/><polygon points="165.6,113.8 160.8,104.2 169.6,103.8" fill="#e1e1e1" fill-opacity="0.9"/>
<line x1="218.2" y1="109.8" x2="221.3" y2="112.8" stroke="#fdfdfd" stroke-width="0.63" stroke-opacity="0.9" stroke-linecap="round"/><polygon points="221.3,112.8 211.2,109.3 217.2,102.9" fill="#fdfdfd" fill-opacity="0.9"/>
<line x1="272.3" y1="109.9" x2="275.7" y2="112.6" stroke="#fefefe" stroke-width="0.63" stroke-opacity="0.9" stroke-linecap="round"/><polygon points="275.7,112.6 265.3,110.0 270.8,103.1" fill="#fefefe" fill-opacity="0.9"/>
<line x1="327.4" y1="109.3" x2="329.1" y2="113.3" stroke="#fefefe" stroke-width="0.63" stroke-opacity="0.9" stroke-linecap="round"/><polygon points="329.1,113.3 321.3,105.9 329.4,102.6" fill="#fefefe" fill-opacity="0.9"/>
<line x1="381.3" y1="109.5" x2="383.7" y2="113.1" stroke="#fefefe" stroke-width="0.63" stroke-opacity="0.9" stroke-linecap="round"/><polygon points="383.7,113.1 374.6,107.5 381.8,102.5" fill="#fefefe" fill-opacity="0.9"/>
<line x1="435.2" y1="109.8" x2="438.3" y2="112.8" stroke="#fefefe" stroke-width="0.63" stroke-opacity="0.9" stroke-linecap="round"/><polygon points="438.3,112.8 428.2,109.1 434.4,102.8" fill="#fefefe" fill-opacity="0.9"/>
<line x1="489.6" y1="109.6" x2="492.3" y2="113.0" stroke="#fefefe" stroke-width="0.63" stroke-opacity="0.9" stroke-linecap="round"/><polygon points="492.3,113.0 482.8,108.1 489.6,102.6" fill="#fefefe" fill-opacity="0.9"/>
<line x1="544.1" y1="109.4" x2="546.3" y2="113.1" stroke="#fefefe" stroke-width="0.63" stroke-opacity="0.9" stroke-linecap="round"/><polygon points="546.3,113.1 537.5,107.1 545.0,102.5" fill="#fefefe" fill-opacity="0.9"/>
<line x1="59.2" y1="165.6" x2="54.9" y2="165.5" stroke="#fefefe" stroke-width="0.63" stroke-opacity="0.9" stroke-linecap="round"/><polygon points="54.9,165.5 64.7,161.3 64.5,170.1" fill="#fefefe" fill-opacity="0.9"/>
<line x1="113.8" y1="165.6" x2="108.8" y2="165.4" stroke="#e1e1e1" stroke-width="0.63" stroke-opacity="0.9" stroke-linecap="round"/><polygon points="108.8,165.4 118.7,161.4 118.3,170.2" fill="#e1e1e1" fill-opacity="0.9"/>
<line x1="156.7" y1="174.3" x2="174.3" y2="156.7" stroke="#6c6c6c" stroke-width="0.63" stroke-opacity="0.9" stroke-linecap="round"/><polygon points="174.3,156.7 170.5,166.7 164.3,160.5" fill="#6c6c6c" fill-opacity="0.9"/>
<line x1="217.6" y1="165.4" x2="221.9" y2="165.6" stroke="#f0f0f0" stroke-width="0.63" stroke-opacity="0.9" stroke-linecap="round"/><polygon points="221.9,165.6 212.0,169.5 212.4,160.8" fill="#f0f0f0" fill-opacity="0.9"/>
<line x1="273.6" y1="163.4" x2="274.4" y2="167.6" stroke="#fefefe" stroke-width="0.63" stroke-opacity="0.9" stroke-linecap="round"/><polygon points="274.4,167.6 268.2,158.9 276.8,157.2" fill="#fefefe" fill-opacity="0.9"/>
<line x1="327.3" y1="163.6" x2="329.2" y2="167.5" stroke="#fefefe" stroke-width="0.63" stroke-opacity="0.9" stroke-linecap="round"/><polygon points="329.2,167.5 321.0,160.6 328.9,156.8" fill="#fefefe" fill-opacity="0.9"/>
<line x1="380.9" y1="164.0" x2="384.1" y2="167.0" stroke="#fefefe" stroke-width="0.63" stroke-opacity="0.9" stroke-linecap="round"/><polygon points="384.1,167.0 373.9,163.6 379.9,157.1" fill="#fefefe" fill-opacity="0.9"/>
<line x1="435.1" y1="164.1" x2="438.3" y2="167.0" stroke="#fefefe" stroke-width="0.63" stroke-opacity="0.9" stroke-linecap="round"/><polygon points="438.3,167.0 428.1,163.7 434.0,157.2" fill="#fefefe" fill-opacity="0.9"/>
<line x1="489.9" y1="163.6" x2="492.0" y2="167.4" stroke="#fefefe" stroke-width="0.63" stroke-opacity="0.9" stroke-linecap="round"/><polygon points="492.0,167.4 483.5,160.9 491.2,156.8" fill="#fefefe" fill-opacity="0.9"/>
<line x1="543.9" y1="163.8" x2="546.5" y2="167.2" stroke="#fefefe" stroke-width="0.63" stroke-opacity="0.9" stroke-linecap="round"/><polygon points="546.5,167.2 537.1,162.2 544.1,156.8" fill="#fefefe" fill-opacity="0.9"/>
<line x1="597.9" y1="164.0" x2="601.0" y2="167.0" stroke="#fefefe" stroke-width="0.63" stroke-opacity="0.9" stroke-linecap="round"/><polygon points="601.0,167.0 590.9,163.4 597.0,157.1" fill="#fefefe" fill-opacity="0.9"/>
<line x1="59.0" y1="220.8" x2="55.1" y2="218.7" stroke="#fefefe" stroke-width="0.63" stroke-opacity="0.9" stroke-linecap="round"/><polygon points="55.1,218.7 65.8,219.4 61.7,227.2" fill="#fefefe" fill-opacity="0.9"/>
<line x1="112.8" y1="221.4" x2="109.8" y2="218.2" stroke="#fdfdfd" stroke-width="0.63" stroke-opacity="0.9" stroke-linecap="round"/><polygon points="109.8,218.2 119.7,222.3 113.2,228.3" fill="#fdfdfd" fill-opacity="0.9"/>
<line x1="165.5" y1="221.9" x2="165.5" y2="217.6" stroke="#f2f2f2" stroke-width="0.63" stroke-opacity="0.9" stroke-linecap="round"/><polygon points="165.5,217.6 169.9,227.3 161.1,227.4" fill="#f2f2f2" fill-opacity="0.9"/>
<line x1="221.5" y1="221.0" x2="218.0" y2="218.5" stroke="#f4f4f4" stroke-width="0.63" stroke-opacity="0.9" stroke-linecap="round"/><polygon points="218.0,218.5 228.5,220.7 223.3,227.8" fill="#f4f4f4" fill-opacity="0.9"/>
<line x1="275.6" y1="215.7" x2="272.4" y2="223.9" stroke="#cbcbcb" stroke-width="0.63" stroke-opacity="0.9" stroke-linecap="round"/><polygon points="272.4,223.9 271.9,213.2 280.0,216.4" fill="#cbcbcb" fill-opacity="0.9"/>
<line x1="326.5" y1="218.4" x2="329.9" y2="221.1" stroke="#f2f2f2" stroke-width="0.63" stroke-opacity="0.9" stroke-linecap="round"/><polygon points="329.9,221.1 319.6,218.5 325.0,211.6" fill="#f2f2f2" fill-opacity="0.9"/>
<line x1="380.5" y1="218.8" x2="384.4" y2="220.7" stroke="#fefefe" stroke-width="0.63" stroke-opacity="0.9" stroke-linecap="round"/><polygon points="384.4,220.7 373.7,220.4 377.5,212.5" fill="#fefefe" fill-opacity="0.9"/>
<line x1="435.8" y1="217.8" x2="437.6" y2="221.7" stroke="#fefefe" stroke-width="0.63" stroke-opacity="0.9" stroke-linecap="round"/><polygon points="437.6,221.7 429.5,214.8 437.5,211.0" fill="#fefefe" fill-opacity="0.9"/>
<line x1="489.8" y1="218.0" x2="492.2" y2="221.6" stroke="#fefefe" stroke-width="0.63" stroke-opacity="0.9" stroke-linecap="round"/><polygon points="492.2,221.6 483.1,215.9 490.4,211.0" fill="#fefefe" fill-opacity="0.9"/>
<line x1="543.6" y1="218.3" x2="546.8" y2="221.2" stroke="#fefefe" stroke-width="0.63" stroke-opacity="0.9" stroke-linecap="round"/><polygon points="546.8,221.2 536.6,217.9 542.6,211.4" fill="#fefefe" fill-opacity="0.9"/>
<line x1="597.9" y1="218.3" x2="601.0" y2="221.3" stroke="#fefefe" stroke-width="0.63" stroke-opacity="0.9" stroke-linecap="round"/><polygon points="601.0,221.3 590.9,217.7 597.0,211.3" fill="#fefefe" fill-opacity="0.9"/>
<line x1="652.5" y1="217.9" x2="654.8" y2="221.6" stroke="#fefefe" stroke-width="0.63" stroke-opacity="0.9" stroke-linecap="round"/><polygon points="654.8,221.6 645.9,215.7 653.3,211.0" fill="#fefefe" fill-opacity="0.9"/>
<line x1="706.5" y1="218.1" x2="709.3" y2="221.4" stroke="#fefefe" stroke-width="0.63" stroke-opacity="0.9" stroke-linecap="round"/><polygon points="709.3,221.4 699.7,216.7 706.5,211.1" fill="#fefefe" fill-opacity="0.9"/>
<line x1="58.5" y1="275.6" x2="55.5" y2="272.4" stroke="#fefefe" stroke-width="0.63" stroke-opacity="0.9" stroke-linecap="round"/><polygon points="55.5,272.4 65.5,276.4 59.1,282.5" fill="#fefefe" fill-opacity="0.9"/>
<line x1="112.2" y1="276.0" x2="110.3" y2="272.0" stroke="#fefefe" stroke-width="0.63" stroke-opacity="0.9" stroke-linecap="round"/><polygon points="110.3,272.0 118.6,278.9 110.7,282.8" fill="#fefefe" fill-opacity="0.9"/>
<line x1="166.3" y1="276.0" x2="164.7" y2="272.0" stroke="#fefefe" stroke-width="0.63" stroke-opacity="0.9" stroke-linecap="round"/><polygon points="164.7,272.0 172.3,279.5 164.1,282.7" fill="#fefefe" fill-opacity="0.9"/>
<line x1="221.8" y1="274.8" x2="217.8" y2="273.2" stroke="#fdfdfd" stroke-width="0.63" stroke-opacity="0.9" stroke-linecap="round"/><polygon points="217.8,273.2 228.5,272.9 225.1,281.0" fill="#fdfdfd" fill-opacity="0.9"/>
<line x1="277.8" y1="280.3" x2="270.2" y2="267.7" stroke="#a8a8a8" stroke-width="0.63" stroke-opacity="0.9" stroke-linecap="round"/><polygon points="270.2,267.7 279.0,273.8 271.5,278.3" fill="#a8a8a8" fill-opacity="0.9"/>
<line x1="325.7" y1="275.3" x2="330.8" y2="272.7" stroke="#dddddd" stroke-width="0.63" stroke-opacity="0.9" stroke-linecap="round"/><polygon points="330.8,272.7 324.2,281.1 320.1,273.3" fill="#dddddd" fill-opacity="0.9"/>
<line x1="381.6" y1="272.0" x2="383.4" y2="276.0" stroke="#fefefe" stroke-width="0.63" stroke-opacity="0.9" stroke-linecap="round"/><polygon points="383.4,276.0 375.4,268.9 383.4,265.3" fill="#fefefe" fill-opacity="0.9"/>
<line x1="435.9" y1="272.0" x2="437.5" y2="276.0" stroke="#fefefe" stroke-width="0.63" stroke-opacity="0.9" stroke-linecap="round"/><polygon points="437.5,276.0 429.8,268.6 437.9,265.3" fill="#fefefe" fill-opacity="0.9"/>
<line x1="489.3" y1="272.6" x2="492.6" y2="275.4" stroke="#fefefe" stroke-width="0.63" stroke-opacity="0.9" stroke-linecap="round"/><polygon points="492.6,275.4 482.3,272.5 488.0,265.7" fill="#fefefe" fill-opacity="0.9"/>
<line x1="543.4" y1="272.8" x2="547.0" y2="275.2" stroke="#fefefe" stroke-width="0.63" stroke-opacity="0.9" stroke-linecap="round"/><polygon points="547.0,275.2 536.4,273.5 541.3,266.2" fill="#fefefe" fill-opacity="0.9"/>
<line x1="598.3" y1="272.1" x2="600.6" y2="275.9" stroke="#fefefe" stroke-width="0.63" stroke-opacity="0.9" stroke-linecap="round"/><polygon points="600.6,275.9 591.7,269.8 599.2,265.2" fill="#fefefe" fill-opacity="0.9"/>
<line x1="652.4" y1="272.3" x2="655.0" y2="275.7" stroke="#fefefe" stroke-width="0.63" stroke-opacity="0.9" stroke-linecap="round"/><polygon points="655.0,275.7 645.6,270.7 652.5,265.3" fill="#fefefe" fill-opacity="0.9"/>
<line x1="706.3" y1="272.5" x2="709.5" y2="275.5" stroke="#fefefe" stroke-width="0.63" stroke-opacity="0.9" stroke-linecap="round"/><polygon points="709.5,275.5 699.4,272.1 705.3,265.6" fill="#fefefe" fill-opacity="0.9"/>
<line x1="760.6" y1="272.5" x2="763.7" y2="275.5" stroke="#fefefe" stroke-width="0.63" stroke-opacity="0.9" stroke-linecap="round"/><polygon points="763.7,275.5 753.7,271.8 759.8,265.5" fill="#fefefe" fill-opacity="0.9"/>
<line x1="58.2" y1="330.1" x2="55.9" y2="326.4" stroke="#fefefe" stroke-width="0.63" stroke-opacity="0.9" stroke-linecap="round"/><polygon points="55.9,326.4 64.9,332.2 57.5,337.0" fill="#fefefe" fill-opacity="0.9"/>
<line x1="112.2" y1="330.2" x2="110.4" y2="326.3" stroke="#fefefe" stroke-width="0.63" stroke-opacity="0.9" stroke-linecap="round"/><polygon points="110.4,326.3 118.4,333.4 110.4,337.0" fill="#fefefe" fill-opacity="0.9"/>
<line x1="167.1" y1="329.7" x2="163.9" y2="326.8" stroke="#fefefe" stroke-width="0.63" stroke-opacity="0.9" stroke-linecap="round"/><polygon points="163.9,326.8 174.1,330.0 168.3,336.6" fill="#fefefe" fill-opacity="0.9"/>
<line x1="221.2" y1="329.9" x2="218.3" y2="326.6" stroke="#fefefe" stroke-width="0.63" stroke-opacity="0.9" stroke-linecap="round"/><polygon points="218.3,326.6 228.1,331.1 221.5,336.8" fill="#fefefe" fill-opacity="0.9"/>
<line x1="274.4" y1="330.4" x2="273.6" y2="326.1" stroke="#fefefe" stroke-width="0.63" stroke-opacity="0.9" stroke-linecap="round"/><polygon points="273.6,326.1 279.8,334.9 271.1,336.5" fill="#fefefe" fill-opacity="0.9"/>
<line x1="328.3" y1="330.4" x2="328.1" y2="326.1" stroke="#fefefe" stroke-width="0.63" stroke-opacity="0.9" stroke-linecap="round"/><polygon points="328.1,326.1 333.0,335.6 324.2,336.0" fill="#fefefe" fill-opacity="0.9"/>
<line x1="384.5" y1="327.4" x2="380.5" y2="329.0" stroke="#fafafa" stroke-width="0.63" stroke-opacity="0.9" stroke-linecap="round"/><polygon points="380.5,329.0 387.9,321.3 391.2,329.5" fill="#fafafa" fill-opacity="0.9"/>
<line x1="434.8" y1="327.3" x2="438.7" y2="329.2" stroke="#fbfbfb" stroke-width="0.63" stroke-opacity="0.9" stroke-linecap="round"/><polygon points="438.7,329.2 428.0,328.9 431.8,321.0" fill="#fbfbfb" fill-opacity="0.9"/>
<line x1="488.8" y1="327.8" x2="493.1" y2="328.7" stroke="#fefefe" stroke-width="0.63" stroke-opacity="0.9" stroke-linecap="round"/><polygon points="493.1,328.7 482.6,331.0 484.4,322.4" fill="#fefefe" fill-opacity="0.9"/>
<line x1="544.0" y1="326.5" x2="546.4" y2="330.0" stroke="#fefefe" stroke-width="0.63" stroke-opacity="0.9" stroke-linecap="round"/><polygon points="546.4,330.0 537.3,324.5 544.5,319.5" fill="#fefefe" fill-opacity="0.9"/>
<line x1="598.2" y1="326.4" x2="600.6" y2="330.1" stroke="#fefefe" stroke-width="0.63" stroke-opacity="0.9" stroke-linecap="round"/><polygon points="600.6,330.1 591.6,324.3 598.9,319.5" fill="#fefefe" fill-opacity="0.9"/>
<line x1="652.0" y1="326.8" x2="655.3" y2="329.7" stroke="#fefefe" stroke-width="0.63" stroke-opacity="0.9" stroke-linecap="round"/><polygon points="655.3,329.7 645.1,326.6 650.8,320.0" fill="#fefefe" fill-opacity="0.9"/>
<line x1="706.2" y1="326.9" x2="709.7" y2="329.5" stroke="#fefefe" stroke-width="0.63" stroke-opacity="0.9" stroke-linecap="round"/><polygon points="709.7,329.5 699.2,327.2 704.5,320.2" fill="#fefefe" fill-opacity="0.9"/>
<line x1="760.9" y1="326.5" x2="763.4" y2="330.0" stroke="#fefefe" stroke-width="0.63" stroke-opacity="0.9" stroke-linecap="round"/><polygon points="763.4,330.0 754.2,324.5 761.5,319.5" fill="#fefefe" fill-opacity="0.9"/>
<line x1="815.0" y1="326.6" x2="817.8" y2="329.9" stroke="#fefefe" stroke-width="0.63" stroke-opacity="0.9" stroke-linecap="round"/><polygon points="817.8,329.9 808.2,325.2 814.9,319.6" fill="#fefefe" fill-opacity="0.9"/>
<line x1="58.1" y1="384.4" x2="56.0" y2="380.6" stroke="#fefefe" stroke-width="0.63" stroke-opacity="0.9" stroke-linecap="round"/><polygon points="56.0,380.6 64.5,387.1 56.7,391.2" fill="#fefefe" fill-opacity="0.9"/>
<line x1="112.7" y1="384.2" x2="109.9" y2="380.8" stroke="#fefefe" stroke-width="0.63" stroke-opacity="0.9" stroke-linecap="round"/><polygon points="109.9,380.8 119.5,385.6 112.7,391.1" fill="#fefefe" fill-opacity="0.9"/>
<line x1="167.0" y1="384.1" x2="164.1" y2="380.9" stroke="#fefefe" stroke-width="0.63" stroke-opacity="0.9" stroke-linecap="round"/><polygon points="164.1,380.9 173.9,385.1 167.4,391.1" fill="#fefefe" fill-opacity="0.9"/>
<line x1="220.8" y1="384.4" x2="218.8" y2="380.6" stroke="#fefefe" stroke-width="0.63" stroke-opacity="0.9" stroke-linecap="round"/><polygon points="218.8,380.6 227.2,387.2 219.4,391.2" fill="#fefefe" fill-opacity="0.9"/>
<line x1="274.6" y1="384.6" x2="273.4" y2="380.4" stroke="#fefefe" stroke-width="0.63" stroke-opacity="0.9" stroke-linecap="round"/><polygon points="273.4,380.4 280.3,388.6 271.8,391.0" fill="#fefefe" fill-opacity="0.9"/>
<line x1="330.0" y1="383.8" x2="326.5" y2="381.2" stroke="#fefefe" stroke-width="0.63" stroke-opacity="0.9" stroke-linecap="round"/><polygon points="326.5,381.2 337.0,383.5 331.7,390.5" fill="#fefefe" fill-opacity="0.9"/>
<line x1="383.7" y1="384.3" x2="381.3" y2="380.7" stroke="#fdfdfd" stroke-width="0.63" stroke-opacity="0.9" stroke-linecap="round"/><polygon points="381.3,380.7 390.4,386.3 383.1,391.2" fill="#fdfdfd" fill-opacity="0.9"/>
<line x1="435.6" y1="384.4" x2="437.8" y2="380.6" stroke="#fdfdfd" stroke-width="0.63" stroke-opacity="0.9" stroke-linecap="round"/><polygon points="437.8,380.6 436.7,391.3 429.1,386.8" fill="#fdfdfd" fill-opacity="0.9"/>
<line x1="488.8" y1="382.6" x2="493.1" y2="382.4" stroke="#fefefe" stroke-width="0.63" stroke-opacity="0.9" stroke-linecap="round"/><polygon points="493.1,382.4 483.6,387.3 483.2,378.5" fill="#fefefe" fill-opacity="0.9"/>
<line x1="544.6" y1="380.4" x2="545.8" y2="384.6" stroke="#fefefe" stroke-width="0.63" stroke-opacity="0.9" stroke-linecap="round"/><polygon points="545.8,384.6 539.0,376.3 547.4,374.0" fill="#fefefe" fill-opacity="0.9"/>
<line x1="597.7" y1="381.2" x2="601.2" y2="383.8" stroke="#fefefe" stroke-width="0.63" stroke-opacity="0.9" stroke-linecap="round"/><polygon points="601.2,383.8 590.7,381.6 595.9,374.5" fill="#fefefe" fill-opacity="0.9"/>
<line x1="651.7" y1="381.6" x2="655.6" y2="383.4" stroke="#fefefe" stroke-width="0.63" stroke-opacity="0.9" stroke-linecap="round"/><polygon points="655.6,383.4 644.9,383.2 648.7,375.3" fill="#fefefe" fill-opacity="0.9"/>
<line x1="706.6" y1="380.8" x2="709.3" y2="384.2" stroke="#fefefe" stroke-width="0.63" stroke-opacity="0.9" stroke-linecap="round"/><polygon points="709.3,384.2 699.8,379.3 706.7,373.8" fill="#fefefe" fill-opacity="0.9"/>
<line x1="760.8" y1="380.8" x2="763.5" y2="384.2" stroke="#fefefe" stroke-width="0.63" stroke-opacity="0.9" stroke-linecap="round"/><polygon points="763.5,384.2 754.0,379.2 761.0,373.8" fill="#fefefe" fill-opacity="0.9"/>
<line x1="814.8" y1="381.1" x2="818.0" y2="383.9" stroke="#fefefe" stroke-width="0.63" stroke-opacity="0.9" stroke-linecap="round"/><polygon points="818.0,383.9 807.8,380.8 813.6,374.2" fill="#fefefe" fill-opacity="0.9"/>
<line x1="868.9" y1="381.1" x2="872.3" y2="383.8" stroke="#fefefe" stroke-width="0.63" stroke-opacity="0.9" stroke-linecap="round"/><polygon points="872.3,383.8 862.0,381.2 867.4,374.3" fill="#fefefe" fill-opacity="0.9"/>
<line x1="58.2" y1="438.5" x2="55.8" y2="434.9" stroke="#fefefe" stroke-width="0.63" stroke-opacity="0.9" stroke-linecap="round"/><polygon points="55.8,434.9 64.9,440.6 57.6,445.5" fill="#fefefe" fill-opacity="0.9"/>
<line x1="112.7" y1="438.3" x2="109.8" y2="435.1" stroke="#fefefe" stroke-width="0.63" stroke-opacity="0.9" stroke-linecap="round"/><polygon points="109.8,435.1 119.6,439.4 113.1,445.3" fill="#fefefe" fill-opacity="0.9"/>
<line x1="166.7" y1="438.5" x2="164.3" y2="434.9" stroke="#fefefe" stroke-width="0.63" stroke-opacity="0.9" stroke-linecap="round"/><polygon points="164.3,434.9 173.4,440.6 166.0,445.5" fill="#fefefe" fill-opacity="0.9"/>
<line x1="220.6" y1="438.7" x2="218.9" y2="434.7" stroke="#fefefe" stroke-width="0.63" stroke-opacity="0.9" stroke-linecap="round"/><polygon points="218.9,434.7 226.8,442.0 218.7,445.4" fill="#fefefe" fill-opacity="0.9"/>
<line x1="275.4" y1="438.4" x2="272.6" y2="435.0" stroke="#fefefe" stroke-width="0.63" stroke-opacity="0.9" stroke-linecap="round"/><polygon points="272.6,435.0 282.2,439.8 275.4,445.4" fill="#fefefe" fill-opacity="0.9"/>
<line x1="329.6" y1="438.4" x2="326.8" y2="435.1" stroke="#fefefe" stroke-width="0.63" stroke-opacity="0.9" stroke-linecap="round"/><polygon points="326.8,435.1 336.5,439.7 329.8,445.4" fill="#fefefe" fill-opacity="0.9"/>
<line x1="383.1" y1="438.8" x2="381.8" y2="434.6" stroke="#fefefe" stroke-width="0.63" stroke-opacity="0.9" stroke-linecap="round"/><polygon points="381.8,434.6 388.9,442.7 380.5,445.3" fill="#fefefe" fill-opacity="0.9"/>
<line x1="436.7" y1="438.9" x2="436.8" y2="434.6" stroke="#fefefe" stroke-width="0.63" stroke-opacity="0.9" stroke-linecap="round"/><polygon points="436.8,434.6 441.0,444.4 432.2,444.2" fill="#fefefe" fill-opacity="0.9"/>
<line x1="493.0" y1="437.4" x2="488.9" y2="436.1" stroke="#fefefe" stroke-width="0.63" stroke-opacity="0.9" stroke-linecap="round"/><polygon points="488.9,436.1 499.5,434.9 496.8,443.2" fill="#fefefe" fill-opacity="0.9"/>
<line x1="543.5" y1="438.1" x2="546.9" y2="435.4" stroke="#fefefe" stroke-width="0.63" stroke-opacity="0.9" stroke-linecap="round"/><polygon points="546.9,435.4 541.9,444.8 536.5,437.9" fill="#fefefe" fill-opacity="0.9"/>
<line x1="597.3" y1="436.9" x2="601.6" y2="436.5" stroke="#fefefe" stroke-width="0.63" stroke-opacity="0.9" stroke-linecap="round"/><polygon points="601.6,436.5 592.3,441.8 591.5,433.1" fill="#fefefe" fill-opacity="0.9"/>
<line x1="651.9" y1="435.5" x2="655.5" y2="438.0" stroke="#fefefe" stroke-width="0.63" stroke-opacity="0.9" stroke-linecap="round"/><polygon points="655.5,438.0 644.9,436.0 650.0,428.8" fill="#fefefe" fill-opacity="0.9"/>
<line x1="706.7" y1="434.9" x2="709.1" y2="438.5" stroke="#fefefe" stroke-width="0.63" stroke-opacity="0.9" stroke-linecap="round"/><polygon points="709.1,438.5 700.1,432.8 707.4,428.0" fill="#fefefe" fill-opacity="0.9"/>
<line x1="760.5" y1="435.4" x2="763.9" y2="438.1" stroke="#fefefe" stroke-width="0.63" stroke-opacity="0.9" stroke-linecap="round"/><polygon points="763.9,438.1 753.5,435.5 758.9,428.6" fill="#fefefe" fill-opacity="0.9"/>
<line x1="814.5" y1="435.6" x2="818.3" y2="437.8" stroke="#fefefe" stroke-width="0.63" stroke-opacity="0.9" stroke-linecap="round"/><polygon points="818.3,437.8 807.6,436.6 812.1,429.1" fill="#fefefe" fill-opacity="0.9"/>
<line x1="869.2" y1="435.1" x2="872.0" y2="438.4" stroke="#fefefe" stroke-width="0.63" stroke-opacity="0.9" stroke-linecap="round"/><polygon points="872.0,438.4 862.4,433.7 869.1,428.1" fill="#fefefe" fill-opacity="0.9"/>
<line x1="923.5" y1="435.1" x2="926.3" y2="438.4" stroke="#fefefe" stroke-width="0.63" stroke-opacity="0.9" stroke-linecap="round"/><polygon points="926.3,438.4 916.6,433.8 923.3,428.1" fill="#fefefe" fill-opacity="0.9"/>
<line x1="166.5" y1="492.9" x2="164.5" y2="489.0" stroke="#fefefe" stroke-width="0.63" stroke-opacity="0.9" stroke-linecap="round"/><polygon points="164.5,489.0 173.0,495.6 165.2,499.7" fill="#fefefe" fill-opacity="0.9"/>
<line x1="220.9" y1="492.8" x2="218.6" y2="489.1" stroke="#fefefe" stroke-width="0.63" stroke-opacity="0.9" stroke-linecap="round"/><polygon points="218.6,489.1 227.5,495.1 220.1,499.7" fill="#fefefe" fill-opacity="0.9"/>
<line x1="275.4" y1="492.6" x2="272.6" y2="489.3" stroke="#fefefe" stroke-width="0.63" stroke-opacity="0.9" stroke-linecap="round"/><polygon points="272.6,489.3 282.3,493.8 275.6,499.6" fill="#fefefe" fill-opacity="0.9"/>
<line x1="329.3" y1="492.9" x2="327.2" y2="489.1" stroke="#fefefe" stroke-width="0.63" stroke-opacity="0.9" stroke-linecap="round"/><polygon points="327.2,489.1 335.8,495.5 328.1,499.7" fill="#fefefe" fill-opacity="0.9"/>
<line x1="383.0" y1="493.1" x2="381.9" y2="488.9" stroke="#fefefe" stroke-width="0.63" stroke-opacity="0.9" stroke-linecap="round"/><polygon points="381.9,488.9 388.7,497.1 380.2,499.4" fill="#fefefe" fill-opacity="0.9"/>
<line x1="438.1" y1="492.6" x2="435.3" y2="489.3" stroke="#fefefe" stroke-width="0.63" stroke-opacity="0.9" stroke-linecap="round"/><polygon points="435.3,489.3 445.0,493.9 438.3,499.6" fill="#fefefe" fill-opacity="0.9"/>
<line x1="492.2" y1="492.7" x2="489.7" y2="489.2" stroke="#fefefe" stroke-width="0.63" stroke-opacity="0.9" stroke-linecap="round"/><polygon points="489.7,489.2 498.9,494.7 491.7,499.7" fill="#fefefe" fill-opacity="0.9"/>
<line x1="544.9" y1="493.1" x2="545.5" y2="488.8" stroke="#fefefe" stroke-width="0.63" stroke-opacity="0.9" stroke-linecap="round"/><polygon points="545.5,488.8 548.4,499.1 539.7,497.8" fill="#fefefe" fill-opacity="0.9"/>
<line x1="598.1" y1="492.7" x2="600.8" y2="489.3" stroke="#fefefe" stroke-width="0.63" stroke-opacity="0.9" stroke-linecap="round"/><polygon points="600.8,489.3 598.1,499.6 591.3,494.2" fill="#fefefe" fill-opacity="0.9"/>
<line x1="653.9" y1="488.8" x2="653.5" y2="493.1" stroke="#fefefe" stroke-width="0.63" stroke-opacity="0.9" stroke-linecap="round"/><polygon points="653.5,493.1 650.1,483.0 658.8,483.9" fill="#fefefe" fill-opacity="0.9"/>
<line x1="706.0" y1="489.9" x2="709.8" y2="492.0" stroke="#fefefe" stroke-width="0.63" stroke-opacity="0.9" stroke-linecap="round"/><polygon points="709.8,492.0 699.1,491.2 703.4,483.5" fill="#fefefe" fill-opacity="0.9"/>
<line x1="760.1" y1="490.3" x2="764.2" y2="491.6" stroke="#fefefe" stroke-width="0.63" stroke-opacity="0.9" stroke-linecap="round"/><polygon points="764.2,491.6 753.6,493.0 756.1,484.6" fill="#fefefe" fill-opacity="0.9"/>
<line x1="814.7" y1="489.6" x2="818.1" y2="492.3" stroke="#fefefe" stroke-width="0.63" stroke-opacity="0.9" stroke-linecap="round"/><polygon points="818.1,492.3 807.7,489.6 813.3,482.8" fill="#fefefe" fill-opacity="0.9"/>
<line x1="869.3" y1="489.3" x2="872.0" y2="492.7" stroke="#fefefe" stroke-width="0.63" stroke-opacity="0.9" stroke-linecap="round"/><polygon points="872.0,492.7 862.5,487.8 869.3,482.3" fill="#fefefe" fill-opacity="0.9"/>
<line x1="923.2" y1="489.6" x2="926.6" y2="492.3" stroke="#fefefe" stroke-width="0.63" stroke-opacity="0.9" stroke-linecap="round"/><polygon points="926.6,492.3 916.2,489.6 921.8,482.8" fill="#fefefe" fill-opacity="0.9"/>
<line x1="221.2" y1="546.9" x2="218.4" y2="543.5" stroke="#fefefe" stroke-width="0.63" stroke-opacity="0.9" stroke-linecap="round"/><polygon points="218.4,543.5 228.0,548.2 221.3,553.8" fill="#fefefe" fill-opacity="0.9"/>
<line x1="275.2" y1="547.0" x2="272.8" y2="543.4" stroke="#fefefe" stroke-width="0.63" stroke-opacity="0.9" stroke-linecap="round"/><polygon points="272.8,543.4 281.9,549.1 274.6,554.0" fill="#fefefe" fill-opacity="0.9"/>
<line x1="329.1" y1="547.2" x2="327.4" y2="543.2" stroke="#fefefe" stroke-width="0.63" stroke-opacity="0.9" stroke-linecap="round"/><polygon points="327.4,543.2 335.3,550.4 327.2,553.9" fill="#fefefe" fill-opacity="0.9"/>
<line x1="383.6" y1="547.1" x2="381.4" y2="543.3" stroke="#fefefe" stroke-width="0.63" stroke-opacity="0.9" stroke-linecap="round"/><polygon points="381.4,543.3 390.1,549.6 382.5,554.0" fill="#fefefe" fill-opacity="0.9"/>
<line x1="438.1" y1="546.9" x2="435.4" y2="543.5" stroke="#fefefe" stroke-width="0.63" stroke-opacity="0.9" stroke-linecap="round"/><polygon points="435.4,543.5 444.9,548.4 438.1,553.9" fill="#fefefe" fill-opacity="0.9"/>
<line x1="491.7" y1="547.2" x2="490.2" y2="543.2" stroke="#fefefe" stroke-width="0.63" stroke-opacity="0.9" stroke-linecap="round"/><polygon points="490.2,543.2 497.8,550.7 489.6,553.9" fill="#fefefe" fill-opacity="0.9"/>
<line x1="545.2" y1="547.4" x2="545.2" y2="543.0" stroke="#fefefe" stroke-width="0.63" stroke-opacity="0.9" stroke-linecap="round"/><polygon points="545.2,543.0 549.8,552.7 541.0,552.9" fill="#fefefe" fill-opacity="0.9"/>
<line x1="601.0" y1="546.7" x2="597.9" y2="543.7" stroke="#fefefe" stroke-width="0.63" stroke-opacity="0.9" stroke-linecap="round"/><polygon points="597.9,543.7 608.0,547.2 601.9,553.6" fill="#fefefe" fill-opacity="0.9"/>
<line x1="654.1" y1="547.3" x2="653.3" y2="543.1" stroke="#fefefe" stroke-width="0.63" stroke-opacity="0.9" stroke-linecap="round"/><polygon points="653.3,543.1 659.5,551.8 650.9,553.5" fill="#fefefe" fill-opacity="0.9"/>
<line x1="706.0" y1="546.3" x2="709.8" y2="544.1" stroke="#fefefe" stroke-width="0.63" stroke-opacity="0.9" stroke-linecap="round"/><polygon points="709.8,544.1 703.5,552.8 699.1,545.1" fill="#fefefe" fill-opacity="0.9"/>
<line x1="760.0" y1="545.1" x2="764.3" y2="545.3" stroke="#fefefe" stroke-width="0.63" stroke-opacity="0.9" stroke-linecap="round"/><polygon points="764.3,545.3 754.3,549.1 754.9,540.3" fill="#fefefe" fill-opacity="0.9"/>
<line x1="815.2" y1="543.4" x2="817.6" y2="547.0" stroke="#fefefe" stroke-width="0.63" stroke-opacity="0.9" stroke-linecap="round"/><polygon points="817.6,547.0 808.5,541.4 815.8,536.4" fill="#fefefe" fill-opacity="0.9"/>
<line x1="868.9" y1="544.0" x2="872.4" y2="546.4" stroke="#fefefe" stroke-width="0.63" stroke-opacity="0.9" stroke-linecap="round"/><polygon points="872.4,546.4 861.9,544.5 866.9,537.3" fill="#fefefe" fill-opacity="0.9"/>
<line x1="922.9" y1="544.3" x2="926.9" y2="546.1" stroke="#fefefe" stroke-width="0.63" stroke-opacity="0.9" stroke-linecap="round"/><polygon points="926.9,546.1 916.2,546.2 919.7,538.2" fill="#fefefe" fill-opacity="0.9"/>
<line x1="329.2" y1="601.4" x2="327.3" y2="597.5" stroke="#fefefe" stroke-width="0.63" stroke-opacity="0.9" stroke-linecap="round"/><polygon points="327.3,597.5 335.6,604.3 327.7,608.2" fill="#fefefe" fill-opacity="0.9"/>
<line x1="383.8" y1="601.1" x2="381.1" y2="597.8" stroke="#fefefe" stroke-width="0.63" stroke-opacity="0.9" stroke-linecap="round"/><polygon points="381.1,597.8 390.7,602.6 383.8,608.1" fill="#fefefe" fill-opacity="0.9"/>
<line x1="437.8" y1="601.3" x2="435.6" y2="597.6" stroke="#fefefe" stroke-width="0.63" stroke-opacity="0.9" stroke-linecap="round"/><polygon points="435.6,597.6 444.3,603.8 436.7,608.2" fill="#fefefe" fill-opacity="0.9"/>
<line x1="491.6" y1="601.5" x2="490.3" y2="597.4" stroke="#fefefe" stroke-width="0.63" stroke-opacity="0.9" stroke-linecap="round"/><polygon points="490.3,597.4 497.3,605.5 488.9,608.0" fill="#fefefe" fill-opacity="0.9"/>
<line x1="546.2" y1="601.4" x2="544.2" y2="597.5" stroke="#fefefe" stroke-width="0.63" stroke-opacity="0.9" stroke-linecap="round"/><polygon points="544.2,597.5 552.6,604.1 544.9,608.2" fill="#fefefe" fill-opacity="0.9"/>
<line x1="600.7" y1="601.2" x2="598.2" y2="597.7" stroke="#fefefe" stroke-width="0.63" stroke-opacity="0.9" stroke-linecap="round"/><polygon points="598.2,597.7 607.4,603.2 600.2,608.2" fill="#fefefe" fill-opacity="0.9"/>
<line x1="653.8" y1="601.6" x2="653.5" y2="597.3" stroke="#fefefe" stroke-width="0.63" stroke-opacity="0.9" stroke-linecap="round"/><polygon points="653.5,597.3 658.6,606.7 649.9,607.3" fill="#fefefe" fill-opacity="0.9"/>
<line x1="707.0" y1="601.4" x2="708.8" y2="597.5" stroke="#fefefe" stroke-width="0.63" stroke-opacity="0.9" stroke-linecap="round"/><polygon points="708.8,597.5 708.8,608.2 700.8,604.6" fill="#fefefe" fill-opacity="0.9"/>
<line x1="764.3" y1="599.1" x2="760.0" y2="599.8" stroke="#fefefe" stroke-width="0.63" stroke-opacity="0.9" stroke-linecap="round"/><polygon points="760.0,599.8 768.9,593.8 770.4,602.4" fill="#fefefe" fill-opacity="0.9"/>
<line x1="814.3" y1="599.0" x2="818.5" y2="599.9" stroke="#fefefe" stroke-width="0.63" stroke-opacity="0.9" stroke-linecap="round"/><polygon points="818.5,599.9 808.1,602.2 809.8,593.6" fill="#fefefe" fill-opacity="0.9"/>
<line x1="868.5" y1="599.3" x2="872.8" y2="599.6" stroke="#fefefe" stroke-width="0.63" stroke-opacity="0.9" stroke-linecap="round"/><polygon points="872.8,599.6 862.7,603.2 863.4,594.5" fill="#fefefe" fill-opacity="0.9"/>
<line x1="922.7" y1="599.3" x2="927.0" y2="599.5" stroke="#fefefe" stroke-width="0.63" stroke-opacity="0.9" stroke-linecap="round"/><polygon points="927.0,599.5 917.1,603.5 917.5,594.7" fill="#fefefe" fill-opacity="0.9"/>
<line x1="383.7" y1="655.5" x2="381.3" y2="651.9" stroke="#fefefe" stroke-width="0.63" stroke-opacity="0.9" stroke-linecap="round"/><polygon points="381.3,651.9 390.4,657.5 383.1,662.4" fill="#fefefe" fill-opacity="0.9"/>
<line x1="437.6" y1="655.7" x2="435.8" y2="651.7" stroke="#fefefe" stroke-width="0.63" stroke-opacity="0.9" stroke-linecap="round"/><polygon points="435.8,651.7 443.8,658.8 435.8,662.4" fill="#fefefe" fill-opacity="0.9"/>
<line x1="491.8" y1="655.7" x2="490.1" y2="651.7" stroke="#fefefe" stroke-width="0.63" stroke-opacity="0.9" stroke-linecap="round"/><polygon points="490.1,651.7 498.0,658.9 489.9,662.4" fill="#fefefe" fill-opacity="0.9"/>
<line x1="546.5" y1="655.4" x2="543.9" y2="651.9" stroke="#fefefe" stroke-width="0.63" stroke-opacity="0.9" stroke-linecap="round"/><polygon points="543.9,651.9 553.3,657.1 546.3,662.4" fill="#fefefe" fill-opacity="0.9"/>
<line x1="600.3" y1="655.7" x2="598.6" y2="651.7" stroke="#fefefe" stroke-width="0.63" stroke-opacity="0.9" stroke-linecap="round"/><polygon points="598.6,651.7 606.5,658.9 598.5,662.4" fill="#fefefe" fill-opacity="0.9"/>
<line x1="653.9" y1="655.8" x2="653.5" y2="651.5" stroke="#fefefe" stroke-width="0.63" stroke-opacity="0.9" stroke-linecap="round"/><polygon points="653.5,651.5 658.7,660.9 650.0,661.6" fill="#fefefe" fill-opacity="0.9"/>
<line x1="708.9" y1="655.6" x2="707.0" y2="651.7" stroke="#fefefe" stroke-width="0.63" stroke-opacity="0.9" stroke-linecap="round"/><polygon points="707.0,651.7 715.2,658.5 707.4,662.4" fill="#fefefe" fill-opacity="0.9"/>
<line x1="763.0" y1="655.7" x2="761.3" y2="651.7" stroke="#fefefe" stroke-width="0.63" stroke-opacity="0.9" stroke-linecap="round"/><polygon points="761.3,651.7 769.2,659.0 761.1,662.4" fill="#fefefe" fill-opacity="0.9"/>
<line x1="815.2" y1="655.5" x2="817.6" y2="651.9" stroke="#fefefe" stroke-width="0.63" stroke-opacity="0.9" stroke-linecap="round"/><polygon points="817.6,651.9 815.7,662.4 808.5,657.4" fill="#fefefe" fill-opacity="0.9"/>
<line x1="868.7" y1="654.7" x2="872.5" y2="652.6" stroke="#fefefe" stroke-width="0.63" stroke-opacity="0.9" stroke-linecap="round"/><polygon points="872.5,652.6 866.1,661.2 861.9,653.4" fill="#fefefe" fill-opacity="0.9"/>
<line x1="922.8" y1="654.4" x2="926.9" y2="653.0" stroke="#fefefe" stroke-width="0.63" stroke-opacity="0.9" stroke-linecap="round"/><polygon points="926.9,653.0 919.1,660.3 916.3,651.9" fill="#fefefe" fill-opacity="0.9"/>
<line x1="492.2" y1="709.7" x2="489.7" y2="706.2" stroke="#fefefe" stroke-width="0.63" stroke-opacity="0.9" stroke-linecap="round"/><polygon points="489.7,706.2 499.0,711.5 491.9,716.6" fill="#fefefe" fill-opacity="0.9"/>
<line x1="546.3" y1="709.8" x2="544.1" y2="706.1" stroke="#fefefe" stroke-width="0.63" stroke-opacity="0.9" stroke-linecap="round"/><polygon points="544.1,706.1 552.9,712.2 545.3,716.7" fill="#fefefe" fill-opacity="0.9"/>
<line x1="600.1" y1="710.0" x2="598.8" y2="705.9" stroke="#fefefe" stroke-width="0.63" stroke-opacity="0.9" stroke-linecap="round"/><polygon points="598.8,705.9 606.0,713.8 597.6,716.5" fill="#fefefe" fill-opacity="0.9"/>
<line x1="654.4" y1="710.0" x2="653.0" y2="705.9" stroke="#fefefe" stroke-width="0.63" stroke-opacity="0.9" stroke-linecap="round"/><polygon points="653.0,705.9 660.3,713.7 652.0,716.5" fill="#fefefe" fill-opacity="0.9"/>
<line x1="709.1" y1="709.7" x2="706.7" y2="706.1" stroke="#fefefe" stroke-width="0.63" stroke-opacity="0.9" stroke-linecap="round"/><polygon points="706.7,706.1 715.8,711.8 708.5,716.7" fill="#fefefe" fill-opacity="0.9"/>
<line x1="762.6" y1="710.0" x2="761.7" y2="705.8" stroke="#fefefe" stroke-width="0.63" stroke-opacity="0.9" stroke-linecap="round"/><polygon points="761.7,705.8 768.0,714.5 759.4,716.2" fill="#fefefe" fill-opacity="0.9"/>
<line x1="815.7" y1="710.0" x2="817.1" y2="705.9" stroke="#fefefe" stroke-width="0.63" stroke-opacity="0.9" stroke-linecap="round"/><polygon points="817.1,705.9 818.2,716.5 809.9,713.8" fill="#fefefe" fill-opacity="0.9"/>
<line x1="869.2" y1="709.6" x2="872.1" y2="706.3" stroke="#fefefe" stroke-width="0.63" stroke-opacity="0.9" stroke-linecap="round"/><polygon points="872.1,706.3 869.0,716.5 862.4,710.8" fill="#fefefe" fill-opacity="0.9"/>
<line x1="923.1" y1="709.2" x2="926.6" y2="706.7" stroke="#fefefe" stroke-width="0.63" stroke-opacity="0.9" stroke-linecap="round"/><polygon points="926.6,706.7 921.3,715.9 916.1,708.8" fill="#fefefe" fill-opacity="0.9"/>
<line x1="600.2" y1="764.2" x2="598.7" y2="760.1" stroke="#fefefe" stroke-width="0.63" stroke-opacity="0.9" stroke-linecap="round"/><polygon points="598.7,760.1 606.1,767.8 597.9,770.8" fill="#fefefe" fill-opacity="0.9"/>
<line x1="654.9" y1="764.0" x2="652.5" y2="760.4" stroke="#fefefe" stroke-width="0.63" stroke-opacity="0.9" stroke-linecap="round"/><polygon points="652.5,760.4 661.6,766.0 654.3,770.9" fill="#fefefe" fill-opacity="0.9"/>
<line x1="708.9" y1="764.1" x2="707.0" y2="760.2" stroke="#fefefe" stroke-width="0.63" stroke-opacity="0.9" stroke-linecap="round"/><polygon points="707.0,760.2 715.2,767.1 707.2,770.9" fill="#fefefe" fill-opacity="0.9"/>
<line x1="762.5" y1="764.3" x2="761.9" y2="760.0" stroke="#fefefe" stroke-width="0.63" stroke-opacity="0.9" stroke-linecap="round"/><polygon points="761.9,760.0 767.5,769.1 758.8,770.3" fill="#fefefe" fill-opacity="0.9"/>
<line x1="816.0" y1="764.3" x2="816.8" y2="760.0" stroke="#fefefe" stroke-width="0.63" stroke-opacity="0.9" stroke-linecap="round"/><polygon points="816.8,760.0 819.1,770.5 810.5,768.7" fill="#fefefe" fill-opacity="0.9"/>
<line x1="869.6" y1="764.1" x2="871.7" y2="760.3" stroke="#fefefe" stroke-width="0.63" stroke-opacity="0.9" stroke-linecap="round"/><polygon points="871.7,760.3 870.8,770.9 863.1,766.6" fill="#fefefe" fill-opacity="0.9"/>
<line x1="923.4" y1="763.8" x2="926.3" y2="760.6" stroke="#fefefe" stroke-width="0.63" stroke-opacity="0.9" stroke-linecap="round"/><polygon points="926.3,760.6 923.0,770.7 916.5,764.8" fill="#fefefe" fill-opacity="0.9"/>
<line x1="708.7" y1="818.4" x2="707.2" y2="814.4" stroke="#fefefe" stroke-width="0.63" stroke-opacity="0.9" stroke-linecap="round"/><polygon points="707.2,814.4 714.6,822.1 706.4,825.0" fill="#fefefe" fill-opacity="0.9"/>
<line x1="762.4" y1="818.6" x2="761.9" y2="814.2" stroke="#fefefe" stroke-width="0.63" stroke-opacity="0.9" stroke-linecap="round"/><polygon points="761.9,814.2 767.3,823.5 758.6,824.4" fill="#fefefe" fill-opacity="0.9"/>
<line x1="816.1" y1="818.5" x2="816.7" y2="814.3" stroke="#fefefe" stroke-width="0.63" stroke-opacity="0.9" stroke-linecap="round"/><polygon points="816.7,814.3 819.6,824.6 810.9,823.2" fill="#fefefe" fill-opacity="0.9"/>
<line x1="869.8" y1="818.4" x2="871.5" y2="814.4" stroke="#fefefe" stroke-width="0.63" stroke-opacity="0.9" stroke-linecap="round"/><polygon points="871.5,814.4 871.8,825.1 863.7,821.7" fill="#fefefe" fill-opacity="0.9"/>
</svg>