<?xml version="1.0" encoding="UTF-8"?>
<svg xmlns="http://www.w3.org/2000/svg" viewBox="0 0 1000 1000" preserveAspectRatio="none">
<line x1="58.6" y1="55.5" x2="55.5" y2="58.6" stroke="#fefefe" stroke-width="0.63" stroke-opacity="0.9" stroke-linecap="round"/><polygon points="55.5,58.6 59.3,48.6 65.5,54.8" fill="#fefefe" fill-opacity="0.9"/>
<line x1="112.2" y1="55.1" x2="110.3" y2="59.0" stroke="#fefefe" stroke-width="0.63" stroke-opacity="0.9" stroke-linecap="round"/><polygon points="110.3,59.0 110.7,48.3 118.6,52.2" fill="#fefefe" fill-opacity="0.9"/>
<line x1="165.5" y1="54.9" x2="165.6" y2="59.2" stroke="#fefefe" stroke-width="0.63" stroke-opacity="0.9" stroke-linecap="round"/><polygon points="165.6,59.2 161.0,49.5 169.8,49.4" fill="#fefefe" fill-opacity="0.9"/>
<line x1="218.8" y1="55.1" x2="220.8" y2="59.0" stroke="#fefefe" stroke-width="0.63" stroke-opacity="0.9" stroke-linecap="round"/><polygon points="220.8,59.0 212.3,52.4 220.1,48.3" fill="#fefefe" fill-opacity="0.9"/>
<line x1="272.6" y1="55.4" x2="275.4" y2="58.7" stroke="#fefefe" stroke-width="0.63" stroke-opacity="0.9" stroke-linecap="round"/><polygon points="275.4,58.7 265.8,53.9 272.6,48.4" fill="#fefefe" fill-opacity="0.9"/>
<line x1="327.5" y1="55.0" x2="328.9" y2="59.1" stroke="#fefefe" stroke-width="0.63" stroke-opacity="0.9" stroke-linecap="round"/><polygon points="328.9,59.1 321.6,51.3 329.9,48.4" fill="#fefefe" fill-opacity="0.9"/>
<line x1="381.5" y1="55.1" x2="383.4" y2="59.0" stroke="#fefefe" stroke-width="0.63" stroke-opacity="0.9" stroke-linecap="round"/><polygon points="383.4,59.0 375.2,52.2 383.1,48.3" fill="#fefefe" fill-opacity="0.9"/>
<line x1="435.4" y1="55.3" x2="438.0" y2="58.8" stroke="#fefefe" stroke-width="0.63" stroke-opacity="0.9" stroke-linecap="round"/><polygon points="438.0,58.8 428.6,53.6 435.7,48.3" fill="#fefefe" fill-opacity="0.9"/>
<line x1="489.7" y1="55.3" x2="492.2" y2="58.8" stroke="#fefefe" stroke-width="0.63" stroke-opacity="0.9" stroke-linecap="round"/><polygon points="492.2,58.8 483.0,53.4 490.1,48.3" fill="#fefefe" fill-opacity="0.9"/>
<line x1="59.0" y1="110.3" x2="55.1" y2="112.2" stroke="#fefefe" stroke-width="0.63" stroke-opacity="0.9" stroke-linecap="round"/><polygon points="55.1,112.2 61.9,104.0 65.8,111.9" fill="#fefefe" fill-opacity="0.9"/>
<line x1="112.8" y1="109.7" x2="109.7" y2="112.8" stroke="#fefefe" stroke-width="0.63" stroke-opacity="0.9" stroke-linecap="round"/><polygon points="109.7,112.8 113.5,102.8 119.8,109.0" fill="#fefefe" fill-opacity="0.9"/>
<line x1="165.4" y1="109.1" x2="165.6" y2="113.4" stroke="#fefefe" stroke-width="0.63" stroke-opacity="0.9" stroke-linecap="round"/><polygon points="165.6,113.4 160.8,103.9 169.6,103.5" fill="#fefefe" fill-opacity="0.9"/>
<line x1="218.3" y1="109.7" x2="221.3" y2="112.9" stroke="#fefefe" stroke-width="0.63" stroke-opacity="0.9" stroke-linecap="round"/><polygon points="221.3,112.9 211.3,108.8 217.7,102.7" fill="#fefefe" fill-opacity="0.9"/>
<line x1="273.4" y1="109.2" x2="274.6" y2="113.4" stroke="#fefefe" stroke-width="0.63" stroke-opacity="0.9" stroke-linecap="round"/><polygon points="274.6,113.4 267.5,105.3 275.9,102.7" fill="#fefefe" fill-opacity="0.9"/>
<line x1="327.6" y1="109.2" x2="328.9" y2="113.4" stroke="#fefefe" stroke-width="0.63" stroke-opacity="0.9" stroke-linecap="round"/><polygon points="328.9,113.4 321.8,105.3 330.2,102.7" fill="#fefefe" fill-opacity="0.9"/>
<line x1="381.3" y1="109.5" x2="383.7" y2="113.1" stroke="#fefefe" stroke-width="0.63" stroke-opacity="0.9" stroke-linecap="round"/><polygon points="383.7,113.1 374.6,107.4 381.9,102.5" fill="#fefefe" fill-opacity="0.9"/>
<line x1="435.3" y1="109.6" x2="438.1" y2="112.9" stroke="#fefefe" stroke-width="0.63" stroke-opacity="0.9" stroke-linecap="round"/><polygon points="438.1,112.9 428.5,108.3 435.2,102.6" fill="#fefefe" fill-opacity="0.9"/>
<line x1="490.1" y1="109.3" x2="491.9" y2="113.3" stroke="#fefefe" stroke-width="0.63" stroke-opacity="0.9" stroke-linecap="round"/><polygon points="491.9,113.3 483.8,106.2 491.8,102.6" fill="#fefefe" fill-opacity="0.9"/>
<line x1="544.1" y1="109.4" x2="546.3" y2="113.2" stroke="#fefefe" stroke-width="0.63" stroke-opacity="0.9" stroke-linecap="round"/><polygon points="546.3,113.2 537.6,107.0 545.1,102.5" fill="#fefefe" fill-opacity="0.9"/>
<line x1="59.2" y1="165.6" x2="54.9" y2="165.5" stroke="#fefefe" stroke-width="0.63" stroke-opacity="0.9" stroke-linecap="round"/><polygon points="54.9,165.5 64.7,161.3 64.5,170.1" fill="#fefefe" fill-opacity="0.9"/>
<line x1="113.4" y1="165.6" x2="109.1" y2="165.4" stroke="#fefefe" stroke-width="0.63" stroke-opacity="0.9" stroke-linecap="round"/><polygon points="109.1,165.4 119.0,161.4 118.7,170.2" fill="#fefefe" fill-opacity="0.9"/>
<line x1="164.0" y1="167.1" x2="167.0" y2="164.0" stroke="#fefefe" stroke-width="0.63" stroke-opacity="0.9" stroke-linecap="round"/><polygon points="167.0,164.0 163.3,174.0 157.1,167.8" fill="#fefefe" fill-opacity="0.9"/>
<line x1="218.2" y1="164.0" x2="221.3" y2="167.1" stroke="#fefefe" stroke-width="0.63" stroke-opacity="0.9" stroke-linecap="round"/><polygon points="221.3,167.1 211.3,163.2 217.5,157.0" fill="#fefefe" fill-opacity="0.9"/>
<line x1="274.2" y1="163.4" x2="273.8" y2="167.7" stroke="#fefefe" stroke-width="0.63" stroke-opacity="0.9" stroke-linecap="round"/><polygon points="273.8,167.7 270.4,157.5 279.2,158.4" fill="#fefefe" fill-opacity="0.9"/>
<line x1="327.3" y1="163.6" x2="329.2" y2="167.5" stroke="#fefefe" stroke-width="0.63" stroke-opacity="0.9" stroke-linecap="round"/><polygon points="329.2,167.5 321.0,160.5 329.0,156.8" fill="#fefefe" fill-opacity="0.9"/>
<line x1="381.0" y1="164.0" x2="384.0" y2="167.1" stroke="#fefefe" stroke-width="0.63" stroke-opacity="0.9" stroke-linecap="round"/><polygon points="384.0,167.1 374.0,163.1 380.4,157.0" fill="#fefefe" fill-opacity="0.9"/>
<line x1="435.9" y1="163.5" x2="437.6" y2="167.5" stroke="#fefefe" stroke-width="0.63" stroke-opacity="0.9" stroke-linecap="round"/><polygon points="437.6,167.5 429.7,160.3 437.7,156.8" fill="#fefefe" fill-opacity="0.9"/>
<line x1="490.0" y1="163.6" x2="491.9" y2="167.5" stroke="#fefefe" stroke-width="0.63" stroke-opacity="0.9" stroke-linecap="round"/><polygon points="491.9,167.5 483.8,160.5 491.7,156.8" fill="#fefefe" fill-opacity="0.9"/>
<line x1="543.9" y1="163.8" x2="546.5" y2="167.3" stroke="#fefefe" stroke-width="0.63" stroke-opacity="0.9" stroke-linecap="round"/><polygon points="546.5,167.3 537.1,162.1 544.1,156.8" fill="#fefefe" fill-opacity="0.9"/>
<line x1="598.0" y1="163.9" x2="600.8" y2="167.2" stroke="#fefefe" stroke-width="0.63" stroke-opacity="0.9" stroke-linecap="round"/><polygon points="600.8,167.2 591.2,162.6 597.8,156.9" fill="#fefefe" fill-opacity="0.9"/>
<line x1="652.7" y1="163.6" x2="654.7" y2="167.4" stroke="#fefefe" stroke-width="0.63" stroke-opacity="0.9" stroke-linecap="round"/><polygon points="654.7,167.4 646.2,160.9 654.0,156.8" fill="#fefefe" fill-opacity="0.9"/>
<line x1="59.0" y1="220.8" x2="55.1" y2="218.7" stroke="#fefefe" stroke-width="0.63" stroke-opacity="0.9" stroke-linecap="round"/><polygon points="55.1,218.7 65.8,219.4 61.7,227.2" fill="#fefefe" fill-opacity="0.9"/>
<line x1="112.8" y1="221.3" x2="109.8" y2="218.2" stroke="#fefefe" stroke-width="0.63" stroke-opacity="0.9" stroke-linecap="round"/><polygon points="109.8,218.2 119.7,222.3 113.3,228.3" fill="#fefefe" fill-opacity="0.9"/>
<line x1="166.1" y1="221.9" x2="165.0" y2="217.7" stroke="#fefefe" stroke-width="0.63" stroke-opacity="0.9" stroke-linecap="round"/><polygon points="165.0,217.7 171.7,226.0 163.2,228.2" fill="#fefefe" fill-opacity="0.9"/>
<line x1="221.8" y1="218.9" x2="217.8" y2="220.6" stroke="#fefefe" stroke-width="0.63" stroke-opacity="0.9" stroke-linecap="round"/><polygon points="217.8,220.6 225.1,212.8 228.5,220.9" fill="#fefefe" fill-opacity="0.9"/>
<line x1="274.8" y1="217.8" x2="273.2" y2="221.8" stroke="#fefefe" stroke-width="0.63" stroke-opacity="0.9" stroke-linecap="round"/><polygon points="273.2,221.8 272.8,211.1 281.0,214.4" fill="#fefefe" fill-opacity="0.9"/>
<line x1="326.6" y1="218.4" x2="329.9" y2="221.2" stroke="#fefefe" stroke-width="0.63" stroke-opacity="0.9" stroke-linecap="round"/><polygon points="329.9,221.2 319.6,218.2 325.3,211.5" fill="#fefefe" fill-opacity="0.9"/>
<line x1="381.3" y1="217.9" x2="383.6" y2="221.6" stroke="#fefefe" stroke-width="0.63" stroke-opacity="0.9" stroke-linecap="round"/><polygon points="383.6,221.6 374.7,215.7 382.1,211.0" fill="#fefefe" fill-opacity="0.9"/>
<line x1="436.2" y1="217.7" x2="437.2" y2="221.9" stroke="#fefefe" stroke-width="0.63" stroke-opacity="0.9" stroke-linecap="round"/><polygon points="437.2,221.9 430.6,213.5 439.1,211.3" fill="#fefefe" fill-opacity="0.9"/>
<line x1="489.8" y1="217.9" x2="492.2" y2="221.6" stroke="#fefefe" stroke-width="0.63" stroke-opacity="0.9" stroke-linecap="round"/><polygon points="492.2,221.6 483.1,215.8 490.5,211.0" fill="#fefefe" fill-opacity="0.9"/>
<line x1="543.7" y1="218.2" x2="546.7" y2="221.3" stroke="#fefefe" stroke-width="0.63" stroke-opacity="0.9" stroke-linecap="round"/><polygon points="546.7,221.3 536.8,217.4 543.1,211.3" fill="#fefefe" fill-opacity="0.9"/>
<line x1="598.4" y1="217.8" x2="600.4" y2="221.7" stroke="#fefefe" stroke-width="0.63" stroke-opacity="0.9" stroke-linecap="round"/><polygon points="600.4,221.7 592.0,215.1 599.8,211.0" fill="#fefefe" fill-opacity="0.9"/>
<line x1="652.6" y1="217.9" x2="654.8" y2="221.6" stroke="#fefefe" stroke-width="0.63" stroke-opacity="0.9" stroke-linecap="round"/><polygon points="654.8,221.6 646.1,215.4 653.7,211.0" fill="#fefefe" fill-opacity="0.9"/>
<line x1="706.5" y1="218.1" x2="709.3" y2="221.4" stroke="#fefefe" stroke-width="0.63" stroke-opacity="0.9" stroke-linecap="round"/><polygon points="709.3,221.4 699.7,216.7 706.5,211.1" fill="#fefefe" fill-opacity="0.9"/>
<line x1="58.5" y1="275.6" x2="55.5" y2="272.4" stroke="#fefefe" stroke-width="0.63" stroke-opacity="0.9" stroke-linecap="round"/><polygon points="55.5,272.4 65.5,276.4 59.2,282.5" fill="#fefefe" fill-opacity="0.9"/>
<line x1="112.4" y1="275.9" x2="110.2" y2="272.1" stroke="#fefefe" stroke-width="0.63" stroke-opacity="0.9" stroke-linecap="round"/><polygon points="110.2,272.1 118.9,278.3 111.3,282.8" fill="#fefefe" fill-opacity="0.9"/>
<line x1="167.4" y1="275.0" x2="163.6" y2="273.0" stroke="#fefefe" stroke-width="0.63" stroke-opacity="0.9" stroke-linecap="round"/><polygon points="163.6,273.0 174.3,273.6 170.2,281.4" fill="#fefefe" fill-opacity="0.9"/>
<line x1="221.8" y1="274.7" x2="217.7" y2="273.3" stroke="#fefefe" stroke-width="0.63" stroke-opacity="0.9" stroke-linecap="round"/><polygon points="217.7,273.3 228.4,272.3 225.5,280.6" fill="#fefefe" fill-opacity="0.9"/>
<line x1="275.1" y1="275.8" x2="272.9" y2="272.2" stroke="#fefefe" stroke-width="0.63" stroke-opacity="0.9" stroke-linecap="round"/><polygon points="272.9,272.2 281.7,278.1 274.3,282.8" fill="#fefefe" fill-opacity="0.9"/>
<line x1="326.2" y1="274.9" x2="330.2" y2="273.1" stroke="#fefefe" stroke-width="0.63" stroke-opacity="0.9" stroke-linecap="round"/><polygon points="330.2,273.1 323.0,281.0 319.5,272.9" fill="#fefefe" fill-opacity="0.9"/>
<line x1="383.2" y1="271.9" x2="381.8" y2="276.1" stroke="#fefefe" stroke-width="0.63" stroke-opacity="0.9" stroke-linecap="round"/><polygon points="381.8,276.1 380.7,265.4 389.0,268.2" fill="#fefefe" fill-opacity="0.9"/>
<line x1="435.9" y1="272.0" x2="437.5" y2="276.0" stroke="#fefefe" stroke-width="0.63" stroke-opacity="0.9" stroke-linecap="round"/><polygon points="437.5,276.0 429.9,268.5 438.1,265.3" fill="#fefefe" fill-opacity="0.9"/>
<line x1="489.3" y1="272.6" x2="492.6" y2="275.4" stroke="#fefefe" stroke-width="0.63" stroke-opacity="0.9" stroke-linecap="round"/><polygon points="492.6,275.4 482.4,272.2 488.2,265.7" fill="#fefefe" fill-opacity="0.9"/>
<line x1="544.0" y1="272.2" x2="546.4" y2="275.8" stroke="#fefefe" stroke-width="0.63" stroke-opacity="0.9" stroke-linecap="round"/><polygon points="546.4,275.8 537.4,270.0 544.8,265.2" fill="#fefefe" fill-opacity="0.9"/>
<line x1="598.6" y1="272.0" x2="600.3" y2="276.0" stroke="#fefefe" stroke-width="0.63" stroke-opacity="0.9" stroke-linecap="round"/><polygon points="600.3,276.0 592.3,268.8 600.4,265.3" fill="#fefefe" fill-opacity="0.9"/>
<line x1="652.4" y1="272.3" x2="655.0" y2="275.7" stroke="#fefefe" stroke-width="0.63" stroke-opacity="0.9" stroke-linecap="round"/><polygon points="655.0,275.7 645.6,270.6 652.6,265.3" fill="#fefefe" fill-opacity="0.9"/>
<line x1="706.4" y1="272.5" x2="709.4" y2="275.5" stroke="#fefefe" stroke-width="0.63" stroke-opacity="0.9" stroke-linecap="round"/><polygon points="709.4,275.5 699.5,271.6 705.7,265.5" fill="#fefefe" fill-opacity="0.9"/>
<line x1="761.1" y1="272.1" x2="763.3" y2="275.9" stroke="#fefefe" stroke-width="0.63" stroke-opacity="0.9" stroke-linecap="round"/><polygon points="763.3,275.9 754.5,269.7 762.1,265.2" fill="#fefefe" fill-opacity="0.9"/>
<line x1="815.2" y1="272.2" x2="817.6" y2="275.8" stroke="#fefefe" stroke-width="0.63" stroke-opacity="0.9" stroke-linecap="round"/><polygon points="817.6,275.8 808.6,270.0 815.9,265.2" fill="#fefefe" fill-opacity="0.9"/>
<line x1="58.3" y1="330.0" x2="55.8" y2="326.4" stroke="#fefefe" stroke-width="0.63" stroke-opacity="0.9" stroke-linecap="round"/><polygon points="55.8,326.4 65.0,332.0 57.7,337.0" fill="#fefefe" fill-opacity="0.9"/>
<line x1="112.8" y1="329.8" x2="109.8" y2="326.7" stroke="#fefefe" stroke-width="0.63" stroke-opacity="0.9" stroke-linecap="round"/><polygon points="109.8,326.7 119.7,330.6 113.4,336.7" fill="#fefefe" fill-opacity="0.9"/>
<line x1="167.3" y1="329.4" x2="163.7" y2="327.0" stroke="#fefefe" stroke-width="0.63" stroke-opacity="0.9" stroke-linecap="round"/><polygon points="163.7,327.0 174.3,328.8 169.4,336.1" fill="#fefefe" fill-opacity="0.9"/>
<line x1="221.2" y1="329.9" x2="218.3" y2="326.6" stroke="#fefefe" stroke-width="0.63" stroke-opacity="0.9" stroke-linecap="round"/><polygon points="218.3,326.6 228.1,331.0 221.5,336.8" fill="#fefefe" fill-opacity="0.9"/>
<line x1="274.6" y1="330.3" x2="273.4" y2="326.2" stroke="#fefefe" stroke-width="0.63" stroke-opacity="0.9" stroke-linecap="round"/><polygon points="273.4,326.2 280.5,334.2 272.1,336.8" fill="#fefefe" fill-opacity="0.9"/>
<line x1="330.4" y1="328.5" x2="326.1" y2="328.0" stroke="#fefefe" stroke-width="0.63" stroke-opacity="0.9" stroke-linecap="round"/><polygon points="326.1,328.0 336.3,324.7 335.3,333.5" fill="#fefefe" fill-opacity="0.9"/>
<line x1="384.5" y1="327.4" x2="380.5" y2="329.1" stroke="#f0f0f0" stroke-width="0.63" stroke-opacity="0.9" stroke-linecap="round"/><polygon points="380.5,329.1 387.8,321.2 391.2,329.3" fill="#f0f0f0" fill-opacity="0.9"/>
<line x1="434.5" y1="327.1" x2="438.9" y2="329.3" stroke="#e2e2e2" stroke-width="0.63" stroke-opacity="0.9" stroke-linecap="round"/><polygon points="438.9,329.3 428.2,328.9 432.2,321.0" fill="#e2e2e2" fill-opacity="0.9"/>
<line x1="489.1" y1="327.1" x2="492.8" y2="329.4" stroke="#fefefe" stroke-width="0.63" stroke-opacity="0.9" stroke-linecap="round"/><polygon points="492.8,329.4 482.2,327.9 486.9,320.5" fill="#fefefe" fill-opacity="0.9"/>
<line x1="544.8" y1="326.1" x2="545.6" y2="330.4" stroke="#fefefe" stroke-width="0.63" stroke-opacity="0.9" stroke-linecap="round"/><polygon points="545.6,330.4 539.5,321.6 548.1,320.0" fill="#fefefe" fill-opacity="0.9"/>
<line x1="598.3" y1="326.4" x2="600.6" y2="330.1" stroke="#fefefe" stroke-width="0.63" stroke-opacity="0.9" stroke-linecap="round"/><polygon points="600.6,330.1 591.7,324.2 599.1,319.5" fill="#fefefe" fill-opacity="0.9"/>
<line x1="652.1" y1="326.8" x2="655.3" y2="329.7" stroke="#fefefe" stroke-width="0.63" stroke-opacity="0.9" stroke-linecap="round"/><polygon points="655.3,329.7 645.1,326.4 651.0,319.9" fill="#fefefe" fill-opacity="0.9"/>
<line x1="706.7" y1="326.5" x2="709.2" y2="330.0" stroke="#fefefe" stroke-width="0.63" stroke-opacity="0.9" stroke-linecap="round"/><polygon points="709.2,330.0 700.0,324.5 707.2,319.5" fill="#fefefe" fill-opacity="0.9"/>
<line x1="761.1" y1="326.4" x2="763.2" y2="330.1" stroke="#fefefe" stroke-width="0.63" stroke-opacity="0.9" stroke-linecap="round"/><polygon points="763.2,330.1 754.6,323.8 762.2,319.5" fill="#fefefe" fill-opacity="0.9"/>
<line x1="815.0" y1="326.6" x2="817.8" y2="329.9" stroke="#fefefe" stroke-width="0.63" stroke-opacity="0.9" stroke-linecap="round"/><polygon points="817.8,329.9 808.2,325.2 815.0,319.6" fill="#fefefe" fill-opacity="0.9"/>
<line x1="869.1" y1="326.7" x2="872.2" y2="329.8" stroke="#fefefe" stroke-width="0.63" stroke-opacity="0.9" stroke-linecap="round"/><polygon points="872.2,329.8 862.2,325.9 868.4,319.7" fill="#fefefe" fill-opacity="0.9"/>
<line x1="58.3" y1="384.2" x2="55.7" y2="380.7" stroke="#fefefe" stroke-width="0.63" stroke-opacity="0.9" stroke-linecap="round"/><polygon points="55.7,380.7 65.1,386.0 58.0,391.2" fill="#fefefe" fill-opacity="0.9"/>
<line x1="113.0" y1="383.9" x2="109.6" y2="381.1" stroke="#fefefe" stroke-width="0.63" stroke-opacity="0.9" stroke-linecap="round"/><polygon points="109.6,381.1 119.9,383.9 114.4,390.7" fill="#fefefe" fill-opacity="0.9"/>
<line x1="167.0" y1="384.1" x2="164.0" y2="380.9" stroke="#fefefe" stroke-width="0.63" stroke-opacity="0.9" stroke-linecap="round"/><polygon points="164.0,380.9 173.9,385.0 167.5,391.0" fill="#fefefe" fill-opacity="0.9"/>
<line x1="220.8" y1="384.4" x2="218.7" y2="380.6" stroke="#fefefe" stroke-width="0.63" stroke-opacity="0.9" stroke-linecap="round"/><polygon points="218.7,380.6 227.3,386.9 219.7,391.3" fill="#fefefe" fill-opacity="0.9"/>
<line x1="275.6" y1="384.0" x2="272.4" y2="381.0" stroke="#fefefe" stroke-width="0.63" stroke-opacity="0.9" stroke-linecap="round"/><polygon points="272.4,381.0 282.5,384.6 276.4,390.9" fill="#fefefe" fill-opacity="0.9"/>
<line x1="330.2" y1="383.5" x2="326.3" y2="381.5" stroke="#fefefe" stroke-width="0.63" stroke-opacity="0.9" stroke-linecap="round"/><polygon points="326.3,381.5 337.0,382.2 332.9,389.9" fill="#fefefe" fill-opacity="0.9"/>
<line x1="383.7" y1="384.3" x2="381.2" y2="380.7" stroke="#fcfcfc" stroke-width="0.63" stroke-opacity="0.9" stroke-linecap="round"/><polygon points="381.2,380.7 390.4,386.2 383.2,391.2" fill="#fcfcfc" fill-opacity="0.9"/>
<line x1="435.8" y1="384.4" x2="437.7" y2="380.5" stroke="#f7f7f7" stroke-width="0.63" stroke-opacity="0.9" stroke-linecap="round"/><polygon points="437.7,380.5 437.4,391.2 429.5,387.5" fill="#f7f7f7" fill-opacity="0.9"/>
<line x1="492.3" y1="380.8" x2="489.6" y2="384.2" stroke="#f4f4f4" stroke-width="0.63" stroke-opacity="0.9" stroke-linecap="round"/><polygon points="489.6,384.2 492.2,373.8 499.1,379.2" fill="#f4f4f4" fill-opacity="0.9"/>
<line x1="544.5" y1="379.4" x2="545.9" y2="385.5" stroke="#dadada" stroke-width="0.63" stroke-opacity="0.9" stroke-linecap="round"/><polygon points="545.9,385.5 539.5,376.9 548.1,375.1" fill="#dadada" fill-opacity="0.9"/>
<line x1="597.7" y1="381.2" x2="601.2" y2="383.8" stroke="#fefefe" stroke-width="0.63" stroke-opacity="0.9" stroke-linecap="round"/><polygon points="601.2,383.8 590.7,381.4 596.0,374.4" fill="#fefefe" fill-opacity="0.9"/>
<line x1="652.1" y1="381.0" x2="655.3" y2="384.0" stroke="#fefefe" stroke-width="0.63" stroke-opacity="0.9" stroke-linecap="round"/><polygon points="655.3,384.0 645.1,380.5 651.1,374.1" fill="#fefefe" fill-opacity="0.9"/>
<line x1="707.1" y1="380.5" x2="708.8" y2="384.5" stroke="#fefefe" stroke-width="0.63" stroke-opacity="0.9" stroke-linecap="round"/><polygon points="708.8,384.5 700.9,377.2 709.0,373.8" fill="#fefefe" fill-opacity="0.9"/>
<line x1="760.8" y1="380.8" x2="763.5" y2="384.2" stroke="#fefefe" stroke-width="0.63" stroke-opacity="0.9" stroke-linecap="round"/><polygon points="763.5,384.2 754.1,379.1 761.1,373.8" fill="#fefefe" fill-opacity="0.9"/>
<line x1="814.8" y1="381.0" x2="818.0" y2="384.0" stroke="#fefefe" stroke-width="0.63" stroke-opacity="0.9" stroke-linecap="round"/><polygon points="818.0,384.0 807.8,380.6 813.8,374.1" fill="#fefefe" fill-opacity="0.9"/>
<line x1="869.4" y1="380.7" x2="871.9" y2="384.2" stroke="#fefefe" stroke-width="0.63" stroke-opacity="0.9" stroke-linecap="round"/><polygon points="871.9,384.2 862.6,378.9 869.7,373.8" fill="#fefefe" fill-opacity="0.9"/>
<line x1="923.7" y1="380.7" x2="926.1" y2="384.3" stroke="#fefefe" stroke-width="0.63" stroke-opacity="0.9" stroke-linecap="round"/><polygon points="926.1,384.3 917.1,378.5 924.4,373.7" fill="#fefefe" fill-opacity="0.9"/>
<line x1="112.8" y1="438.3" x2="109.8" y2="435.1" stroke="#fefefe" stroke-width="0.63" stroke-opacity="0.9" stroke-linecap="round"/><polygon points="109.8,435.1 119.7,439.2 113.3,445.3" fill="#fefefe" fill-opacity="0.9"/>
<line x1="166.7" y1="438.5" x2="164.3" y2="434.9" stroke="#fefefe" stroke-width="0.63" stroke-opacity="0.9" stroke-linecap="round"/><polygon points="164.3,434.9 173.4,440.6 166.1,445.5" fill="#fefefe" fill-opacity="0.9"/>
<line x1="221.0" y1="438.5" x2="218.5" y2="434.9" stroke="#fefefe" stroke-width="0.63" stroke-opacity="0.9" stroke-linecap="round"/><polygon points="218.5,434.9 227.7,440.4 220.5,445.5" fill="#fefefe" fill-opacity="0.9"/>
<line x1="275.7" y1="438.1" x2="272.3" y2="435.4" stroke="#fefefe" stroke-width="0.63" stroke-opacity="0.9" stroke-linecap="round"/><polygon points="272.3,435.4 282.7,437.9 277.3,444.8" fill="#fefefe" fill-opacity="0.9"/>
<line x1="329.7" y1="438.4" x2="326.8" y2="435.1" stroke="#fefefe" stroke-width="0.63" stroke-opacity="0.9" stroke-linecap="round"/><polygon points="326.8,435.1 336.5,439.6 329.9,445.3" fill="#fefefe" fill-opacity="0.9"/>
<line x1="383.2" y1="438.8" x2="381.7" y2="434.7" stroke="#fefefe" stroke-width="0.63" stroke-opacity="0.9" stroke-linecap="round"/><polygon points="381.7,434.7 389.2,442.4 380.9,445.4" fill="#fefefe" fill-opacity="0.9"/>
<line x1="438.4" y1="438.1" x2="435.0" y2="435.4" stroke="#fefefe" stroke-width="0.63" stroke-opacity="0.9" stroke-linecap="round"/><polygon points="435.0,435.4 445.4,437.9 440.0,444.9" fill="#fefefe" fill-opacity="0.9"/>
<line x1="494.5" y1="437.4" x2="487.4" y2="436.0" stroke="#d4d4d4" stroke-width="0.63" stroke-opacity="0.9" stroke-linecap="round"/><polygon points="487.4,436.0 497.8,433.6 496.2,442.2" fill="#d4d4d4" fill-opacity="0.9"/>
<line x1="535.3" y1="444.4" x2="555.1" y2="429.1" stroke="#6c6c6c" stroke-width="0.63" stroke-opacity="0.9" stroke-linecap="round"/><polygon points="555.1,429.1 550.0,438.5 544.6,431.6" fill="#6c6c6c" fill-opacity="0.9"/>
<line x1="597.3" y1="436.6" x2="601.6" y2="436.8" stroke="#f5f5f5" stroke-width="0.63" stroke-opacity="0.9" stroke-linecap="round"/><polygon points="601.6,436.8 591.7,440.8 592.0,432.1" fill="#f5f5f5" fill-opacity="0.9"/>
<line x1="653.4" y1="434.6" x2="654.0" y2="438.9" stroke="#fefefe" stroke-width="0.63" stroke-opacity="0.9" stroke-linecap="round"/><polygon points="654.0,438.9 648.4,429.7 657.1,428.6" fill="#fefefe" fill-opacity="0.9"/>
<line x1="706.8" y1="434.9" x2="709.0" y2="438.6" stroke="#fefefe" stroke-width="0.63" stroke-opacity="0.9" stroke-linecap="round"/><polygon points="709.0,438.6 700.2,432.5 707.7,427.9" fill="#fefefe" fill-opacity="0.9"/>
<line x1="760.5" y1="435.3" x2="763.8" y2="438.1" stroke="#fefefe" stroke-width="0.63" stroke-opacity="0.9" stroke-linecap="round"/><polygon points="763.8,438.1 753.5,435.3 759.1,428.5" fill="#fefefe" fill-opacity="0.9"/>
<line x1="814.9" y1="435.2" x2="817.9" y2="438.3" stroke="#fefefe" stroke-width="0.63" stroke-opacity="0.9" stroke-linecap="round"/><polygon points="817.9,438.3 807.9,434.4 814.2,428.2" fill="#fefefe" fill-opacity="0.9"/>
<line x1="869.6" y1="434.8" x2="871.7" y2="438.6" stroke="#fefefe" stroke-width="0.63" stroke-opacity="0.9" stroke-linecap="round"/><polygon points="871.7,438.6 863.1,432.3 870.7,427.9" fill="#fefefe" fill-opacity="0.9"/>
<line x1="923.5" y1="435.1" x2="926.3" y2="438.4" stroke="#fefefe" stroke-width="0.63" stroke-opacity="0.9" stroke-linecap="round"/><polygon points="926.3,438.4 916.6,433.7 923.4,428.1" fill="#fefefe" fill-opacity="0.9"/>
<line x1="166.7" y1="492.8" x2="164.4" y2="489.1" stroke="#fefefe" stroke-width="0.63" stroke-opacity="0.9" stroke-linecap="round"/><polygon points="164.4,489.1 173.3,495.0 165.9,499.7" fill="#fefefe" fill-opacity="0.9"/>
<line x1="221.3" y1="492.4" x2="218.2" y2="489.5" stroke="#fefefe" stroke-width="0.63" stroke-opacity="0.9" stroke-linecap="round"/><polygon points="218.2,489.5 228.3,493.0 222.3,499.4" fill="#fefefe" fill-opacity="0.9"/>
<line x1="275.5" y1="492.6" x2="272.5" y2="489.4" stroke="#fefefe" stroke-width="0.63" stroke-opacity="0.9" stroke-linecap="round"/><polygon points="272.5,489.4 282.4,493.6 275.8,499.5" fill="#fefefe" fill-opacity="0.9"/>
<line x1="329.3" y1="492.8" x2="327.2" y2="489.1" stroke="#fefefe" stroke-width="0.63" stroke-opacity="0.9" stroke-linecap="round"/><polygon points="327.2,489.1 335.8,495.4 328.2,499.7" fill="#fefefe" fill-opacity="0.9"/>
<line x1="383.7" y1="492.8" x2="381.3" y2="489.1" stroke="#fefefe" stroke-width="0.63" stroke-opacity="0.9" stroke-linecap="round"/><polygon points="381.3,489.1 390.3,495.0 382.9,499.7" fill="#fefefe" fill-opacity="0.9"/>
<line x1="438.5" y1="492.2" x2="434.9" y2="489.7" stroke="#fefefe" stroke-width="0.63" stroke-opacity="0.9" stroke-linecap="round"/><polygon points="434.9,489.7 445.5,491.7 440.4,498.9" fill="#fefefe" fill-opacity="0.9"/>
<line x1="492.2" y1="492.7" x2="489.7" y2="489.2" stroke="#fdfdfd" stroke-width="0.63" stroke-opacity="0.9" stroke-linecap="round"/><polygon points="489.7,489.2 499.0,494.6 491.8,499.7" fill="#fdfdfd" fill-opacity="0.9"/>
<line x1="545.0" y1="493.1" x2="545.4" y2="488.8" stroke="#f6f6f6" stroke-width="0.63" stroke-opacity="0.9" stroke-linecap="round"/><polygon points="545.4,488.8 548.9,498.9 540.2,498.1" fill="#f6f6f6" fill-opacity="0.9"/>
<line x1="601.6" y1="490.7" x2="597.3" y2="491.2" stroke="#f5f5f5" stroke-width="0.63" stroke-opacity="0.9" stroke-linecap="round"/><polygon points="597.3,491.2 606.6,485.8 607.4,494.6" fill="#f5f5f5" fill-opacity="0.9"/>
<line x1="654.5" y1="486.7" x2="652.8" y2="495.3" stroke="#cbcbcb" stroke-width="0.63" stroke-opacity="0.9" stroke-linecap="round"/><polygon points="652.8,495.3 650.4,484.8 659.0,486.6" fill="#cbcbcb" fill-opacity="0.9"/>
<line x1="706.0" y1="489.9" x2="709.8" y2="492.0" stroke="#f8f8f8" stroke-width="0.63" stroke-opacity="0.9" stroke-linecap="round"/><polygon points="709.8,492.0 699.1,491.1 703.5,483.4" fill="#f8f8f8" fill-opacity="0.9"/>
<line x1="760.2" y1="490.0" x2="764.1" y2="491.9" stroke="#fefefe" stroke-width="0.63" stroke-opacity="0.9" stroke-linecap="round"/><polygon points="764.1,491.9 753.4,491.5 757.4,483.6" fill="#fefefe" fill-opacity="0.9"/>
<line x1="815.5" y1="489.0" x2="817.3" y2="492.9" stroke="#fefefe" stroke-width="0.63" stroke-opacity="0.9" stroke-linecap="round"/><polygon points="817.3,492.9 809.3,485.8 817.3,482.2" fill="#fefefe" fill-opacity="0.9"/>
<line x1="869.3" y1="489.2" x2="872.0" y2="492.7" stroke="#fefefe" stroke-width="0.63" stroke-opacity="0.9" stroke-linecap="round"/><polygon points="872.0,492.7 862.5,487.6 869.5,482.3" fill="#fefefe" fill-opacity="0.9"/>
<line x1="923.2" y1="489.6" x2="926.6" y2="492.3" stroke="#fefefe" stroke-width="0.63" stroke-opacity="0.9" stroke-linecap="round"/><polygon points="926.6,492.3 916.2,489.6 921.8,482.8" fill="#fefefe" fill-opacity="0.9"/>
<line x1="221.2" y1="546.8" x2="218.3" y2="543.6" stroke="#fefefe" stroke-width="0.63" stroke-opacity="0.9" stroke-linecap="round"/><polygon points="218.3,543.6 228.1,547.8 221.7,553.8" fill="#fefefe" fill-opacity="0.9"/>
<line x1="275.2" y1="547.0" x2="272.8" y2="543.4" stroke="#fefefe" stroke-width="0.63" stroke-opacity="0.9" stroke-linecap="round"/><polygon points="272.8,543.4 281.9,549.0 274.6,554.0" fill="#fefefe" fill-opacity="0.9"/>
<line x1="329.3" y1="547.1" x2="327.2" y2="543.3" stroke="#fefefe" stroke-width="0.63" stroke-opacity="0.9" stroke-linecap="round"/><polygon points="327.2,543.3 335.8,549.6 328.2,554.0" fill="#fefefe" fill-opacity="0.9"/>
<line x1="384.1" y1="546.7" x2="380.9" y2="543.7" stroke="#fefefe" stroke-width="0.63" stroke-opacity="0.9" stroke-linecap="round"/><polygon points="380.9,543.7 391.0,547.1 385.1,553.6" fill="#fefefe" fill-opacity="0.9"/>
<line x1="438.1" y1="546.9" x2="435.3" y2="543.5" stroke="#fefefe" stroke-width="0.63" stroke-opacity="0.9" stroke-linecap="round"/><polygon points="435.3,543.5 445.0,548.2 438.3,553.8" fill="#fefefe" fill-opacity="0.9"/>
<line x1="491.8" y1="547.2" x2="490.1" y2="543.2" stroke="#fefefe" stroke-width="0.63" stroke-opacity="0.9" stroke-linecap="round"/><polygon points="490.1,543.2 497.9,550.6 489.8,553.9" fill="#fefefe" fill-opacity="0.9"/>
<line x1="546.3" y1="547.1" x2="544.1" y2="543.3" stroke="#fefefe" stroke-width="0.63" stroke-opacity="0.9" stroke-linecap="round"/><polygon points="544.1,543.3 552.7,549.7 545.1,554.0" fill="#fefefe" fill-opacity="0.9"/>
<line x1="601.4" y1="546.2" x2="597.5" y2="544.2" stroke="#fdfdfd" stroke-width="0.63" stroke-opacity="0.9" stroke-linecap="round"/><polygon points="597.5,544.2 608.2,544.8 604.2,552.6" fill="#fdfdfd" fill-opacity="0.9"/>
<line x1="654.6" y1="549.3" x2="652.8" y2="541.1" stroke="#cdcdcd" stroke-width="0.63" stroke-opacity="0.9" stroke-linecap="round"/><polygon points="652.8,541.1 659.1,549.7 650.5,551.6" fill="#cdcdcd" fill-opacity="0.9"/>
<line x1="706.0" y1="546.2" x2="709.8" y2="544.2" stroke="#f6f6f6" stroke-width="0.63" stroke-opacity="0.9" stroke-linecap="round"/><polygon points="709.8,544.2 703.4,552.7 699.1,545.0" fill="#f6f6f6" fill-opacity="0.9"/>
<line x1="761.9" y1="543.0" x2="762.4" y2="547.4" stroke="#fefefe" stroke-width="0.63" stroke-opacity="0.9" stroke-linecap="round"/><polygon points="762.4,547.4 757.0,538.1 765.8,537.2" fill="#fefefe" fill-opacity="0.9"/>
<line x1="815.3" y1="543.3" x2="817.5" y2="547.1" stroke="#fefefe" stroke-width="0.63" stroke-opacity="0.9" stroke-linecap="round"/><polygon points="817.5,547.1 808.9,540.7 816.5,536.4" fill="#fefefe" fill-opacity="0.9"/>
<line x1="868.9" y1="544.0" x2="872.4" y2="546.4" stroke="#fefefe" stroke-width="0.63" stroke-opacity="0.9" stroke-linecap="round"/><polygon points="872.4,546.4 861.9,544.4 866.9,537.2" fill="#fefefe" fill-opacity="0.9"/>
<line x1="922.9" y1="544.3" x2="926.9" y2="546.1" stroke="#fefefe" stroke-width="0.63" stroke-opacity="0.9" stroke-linecap="round"/><polygon points="926.9,546.1 916.2,546.2 919.7,538.2" fill="#fefefe" fill-opacity="0.9"/>
<line x1="329.7" y1="601.1" x2="326.8" y2="597.8" stroke="#fefefe" stroke-width="0.63" stroke-opacity="0.9" stroke-linecap="round"/><polygon points="326.8,597.8 336.6,602.2 330.0,608.0" fill="#fefefe" fill-opacity="0.9"/>
<line x1="383.9" y1="601.1" x2="381.0" y2="597.8" stroke="#fefefe" stroke-width="0.63" stroke-opacity="0.9" stroke-linecap="round"/><polygon points="381.0,597.8 390.8,602.2 384.2,608.0" fill="#fefefe" fill-opacity="0.9"/>
<line x1="437.8" y1="601.3" x2="435.6" y2="597.6" stroke="#fefefe" stroke-width="0.63" stroke-opacity="0.9" stroke-linecap="round"/><polygon points="435.6,597.6 444.4,603.8 436.8,608.2" fill="#fefefe" fill-opacity="0.9"/>
<line x1="491.9" y1="601.4" x2="490.0" y2="597.5" stroke="#fefefe" stroke-width="0.63" stroke-opacity="0.9" stroke-linecap="round"/><polygon points="490.0,597.5 498.2,604.4 490.2,608.2" fill="#fefefe" fill-opacity="0.9"/>
<line x1="546.8" y1="600.9" x2="543.6" y2="598.0" stroke="#fefefe" stroke-width="0.63" stroke-opacity="0.9" stroke-linecap="round"/><polygon points="543.6,598.0 553.8,601.1 548.0,607.7" fill="#fefefe" fill-opacity="0.9"/>
<line x1="600.7" y1="601.2" x2="598.2" y2="597.7" stroke="#fefefe" stroke-width="0.63" stroke-opacity="0.9" stroke-linecap="round"/><polygon points="598.2,597.7 607.5,603.0 600.4,608.2" fill="#fefefe" fill-opacity="0.9"/>
<line x1="653.9" y1="601.6" x2="653.5" y2="597.3" stroke="#fefefe" stroke-width="0.63" stroke-opacity="0.9" stroke-linecap="round"/><polygon points="653.5,597.3 658.8,606.5 650.1,607.4" fill="#fefefe" fill-opacity="0.9"/>
<line x1="708.9" y1="601.4" x2="706.9" y2="597.5" stroke="#fefefe" stroke-width="0.63" stroke-opacity="0.9" stroke-linecap="round"/><polygon points="706.9,597.5 715.3,604.2 707.4,608.2" fill="#fefefe" fill-opacity="0.9"/>
<line x1="764.2" y1="598.8" x2="760.1" y2="600.1" stroke="#fdfdfd" stroke-width="0.63" stroke-opacity="0.9" stroke-linecap="round"/><polygon points="760.1,600.1 768.1,593.0 770.7,601.4" fill="#fdfdfd" fill-opacity="0.9"/>
<line x1="814.3" y1="599.0" x2="818.5" y2="599.9" stroke="#fdfdfd" stroke-width="0.63" stroke-opacity="0.9" stroke-linecap="round"/><polygon points="818.5,599.9 808.1,602.2 809.9,593.6" fill="#fdfdfd" fill-opacity="0.9"/>
<line x1="868.5" y1="599.3" x2="872.8" y2="599.6" stroke="#fefefe" stroke-width="0.63" stroke-opacity="0.9" stroke-linecap="round"/><polygon points="872.8,599.6 862.7,603.2 863.4,594.5" fill="#fefefe" fill-opacity="0.9"/>
<line x1="922.7" y1="599.3" x2="927.0" y2="599.5" stroke="#fefefe" stroke-width="0.63" stroke-opacity="0.9" stroke-linecap="round"/><polygon points="927.0,599.5 917.1,603.5 917.5,594.7" fill="#fefefe" fill-opacity="0.9"/>
<line x1="383.7" y1="655.5" x2="381.3" y2="651.9" stroke="#fefefe" stroke-width="0.63" stroke-opacity="0.9" stroke-linecap="round"/><polygon points="381.3,651.9 390.4,657.5 383.1,662.4" fill="#fefefe" fill-opacity="0.9"/>
<line x1="437.7" y1="655.6" x2="435.7" y2="651.8" stroke="#fefefe" stroke-width="0.63" stroke-opacity="0.9" stroke-linecap="round"/><polygon points="435.7,651.8 444.1,658.4 436.3,662.4" fill="#fefefe" fill-opacity="0.9"/>
<line x1="492.4" y1="655.3" x2="489.5" y2="652.1" stroke="#fefefe" stroke-width="0.63" stroke-opacity="0.9" stroke-linecap="round"/><polygon points="489.5,652.1 499.3,656.4 492.7,662.3" fill="#fefefe" fill-opacity="0.9"/>
<line x1="546.6" y1="655.4" x2="543.8" y2="652.0" stroke="#fefefe" stroke-width="0.63" stroke-opacity="0.9" stroke-linecap="round"/><polygon points="543.8,652.0 553.4,656.7 546.7,662.3" fill="#fefefe" fill-opacity="0.9"/>
<line x1="600.3" y1="655.7" x2="598.5" y2="651.7" stroke="#fefefe" stroke-width="0.63" stroke-opacity="0.9" stroke-linecap="round"/><polygon points="598.5,651.7 606.6,658.8 598.6,662.4" fill="#fefefe" fill-opacity="0.9"/>
<line x1="654.4" y1="655.7" x2="653.0" y2="651.6" stroke="#fefefe" stroke-width="0.63" stroke-opacity="0.9" stroke-linecap="round"/><polygon points="653.0,651.6 660.2,659.5 651.9,662.3" fill="#fefefe" fill-opacity="0.9"/>
<line x1="709.6" y1="655.0" x2="706.2" y2="652.4" stroke="#fefefe" stroke-width="0.63" stroke-opacity="0.9" stroke-linecap="round"/><polygon points="706.2,652.4 716.6,654.9 711.2,661.8" fill="#fefefe" fill-opacity="0.9"/>
<line x1="763.0" y1="655.7" x2="761.3" y2="651.7" stroke="#fefefe" stroke-width="0.63" stroke-opacity="0.9" stroke-linecap="round"/><polygon points="761.3,651.7 769.3,658.8 761.2,662.4" fill="#fefefe" fill-opacity="0.9"/>
<line x1="815.2" y1="655.5" x2="817.6" y2="651.9" stroke="#fefefe" stroke-width="0.63" stroke-opacity="0.9" stroke-linecap="round"/><polygon points="817.6,651.9 815.7,662.4 808.5,657.4" fill="#fefefe" fill-opacity="0.9"/>
<line x1="868.7" y1="654.7" x2="872.5" y2="652.6" stroke="#fefefe" stroke-width="0.63" stroke-opacity="0.9" stroke-linecap="round"/><polygon points="872.5,652.6 866.1,661.2 861.9,653.4" fill="#fefefe" fill-opacity="0.9"/>
<line x1="922.8" y1="654.4" x2="926.9" y2="653.0" stroke="#fefefe" stroke-width="0.63" stroke-opacity="0.9" stroke-linecap="round"/><polygon points="926.9,653.0 919.1,660.3 916.3,651.9" fill="#fefefe" fill-opacity="0.9"/>
<line x1="438.0" y1="709.7" x2="435.4" y2="706.2" stroke="#fefefe" stroke-width="0.63" stroke-opacity="0.9" stroke-linecap="round"/><polygon points="435.4,706.2 444.7,711.5 437.6,716.6" fill="#fefefe" fill-opacity="0.9"/>
<line x1="492.4" y1="709.6" x2="489.5" y2="706.3" stroke="#fefefe" stroke-width="0.63" stroke-opacity="0.9" stroke-linecap="round"/><polygon points="489.5,706.3 499.2,710.8 492.6,716.5" fill="#fefefe" fill-opacity="0.9"/>
<line x1="546.3" y1="709.8" x2="544.1" y2="706.1" stroke="#fefefe" stroke-width="0.63" stroke-opacity="0.9" stroke-linecap="round"/><polygon points="544.1,706.1 552.9,712.1 545.4,716.7" fill="#fefefe" fill-opacity="0.9"/>
<line x1="600.3" y1="709.9" x2="598.6" y2="705.9" stroke="#fefefe" stroke-width="0.63" stroke-opacity="0.9" stroke-linecap="round"/><polygon points="598.6,705.9 606.4,713.3 598.3,716.6" fill="#fefefe" fill-opacity="0.9"/>
<line x1="655.1" y1="709.5" x2="652.2" y2="706.3" stroke="#fefefe" stroke-width="0.63" stroke-opacity="0.9" stroke-linecap="round"/><polygon points="652.2,706.3 662.0,710.6 655.5,716.5" fill="#fefefe" fill-opacity="0.9"/>
<line x1="709.2" y1="709.7" x2="706.6" y2="706.2" stroke="#fefefe" stroke-width="0.63" stroke-opacity="0.9" stroke-linecap="round"/><polygon points="706.6,706.2 716.0,711.5 708.9,716.6" fill="#fefefe" fill-opacity="0.9"/>
<line x1="762.6" y1="710.0" x2="761.7" y2="705.8" stroke="#fefefe" stroke-width="0.63" stroke-opacity="0.9" stroke-linecap="round"/><polygon points="761.7,705.8 768.0,714.5 759.4,716.3" fill="#fefefe" fill-opacity="0.9"/>
<line x1="815.7" y1="710.0" x2="817.1" y2="705.9" stroke="#fefefe" stroke-width="0.63" stroke-opacity="0.9" stroke-linecap="round"/><polygon points="817.1,705.9 818.2,716.5 809.9,713.8" fill="#fefefe" fill-opacity="0.9"/>
<line x1="869.2" y1="709.6" x2="872.1" y2="706.3" stroke="#fefefe" stroke-width="0.63" stroke-opacity="0.9" stroke-linecap="round"/><polygon points="872.1,706.3 869.0,716.5 862.4,710.8" fill="#fefefe" fill-opacity="0.9"/>
<line x1="923.1" y1="709.2" x2="926.6" y2="706.7" stroke="#fefefe" stroke-width="0.63" stroke-opacity="0.9" stroke-linecap="round"/><polygon points="926.6,706.7 921.3,715.9 916.1,708.8" fill="#fefefe" fill-opacity="0.9"/>
<line x1="546.2" y1="764.1" x2="544.2" y2="760.2" stroke="#fefefe" stroke-width="0.63" stroke-opacity="0.9" stroke-linecap="round"/><polygon points="544.2,760.2 552.5,767.0 544.7,770.9" fill="#fefefe" fill-opacity="0.9"/>
<line x1="600.7" y1="763.9" x2="598.2" y2="760.4" stroke="#fefefe" stroke-width="0.63" stroke-opacity="0.9" stroke-linecap="round"/><polygon points="598.2,760.4 607.4,765.8 600.2,770.9" fill="#fefefe" fill-opacity="0.9"/>
<line x1="655.0" y1="763.8" x2="652.3" y2="760.5" stroke="#fefefe" stroke-width="0.63" stroke-opacity="0.9" stroke-linecap="round"/><polygon points="652.3,760.5 661.9,765.3 655.0,770.8" fill="#fefefe" fill-opacity="0.9"/>
<line x1="708.9" y1="764.1" x2="707.0" y2="760.2" stroke="#fefefe" stroke-width="0.63" stroke-opacity="0.9" stroke-linecap="round"/><polygon points="707.0,760.2 715.2,767.1 707.3,770.9" fill="#fefefe" fill-opacity="0.9"/>
<line x1="762.5" y1="764.3" x2="761.9" y2="760.0" stroke="#fefefe" stroke-width="0.63" stroke-opacity="0.9" stroke-linecap="round"/><polygon points="761.9,760.0 767.5,769.1 758.8,770.3" fill="#fefefe" fill-opacity="0.9"/>
<line x1="816.0" y1="764.3" x2="816.8" y2="760.0" stroke="#fefefe" stroke-width="0.63" stroke-opacity="0.9" stroke-linecap="round"/><polygon points="816.8,760.0 819.1,770.5 810.5,768.7" fill="#fefefe" fill-opacity="0.9"/>
<line x1="869.6" y1="764.1" x2="871.7" y2="760.3" stroke="#fefefe" stroke-width="0.63" stroke-opacity="0.9" stroke-linecap="round"/><polygon points="871.7,760.3 870.8,770.9 863.1,766.6" fill="#fefefe" fill-opacity="0.9"/>
<line x1="923.4" y1="763.8" x2="926.3" y2="760.6" stroke="#fefefe" stroke-width="0.63" stroke-opacity="0.9" stroke-linecap="round"/><polygon points="926.3,760.6 923.0,770.7 916.5,764.8" fill="#fefefe" fill-opacity="0.9"/>
<line x1="600.8" y1="818.1" x2="598.1" y2="814.7" stroke="#fefefe" stroke-width="0.63" stroke-opacity="0.9" stroke-linecap="round"/><polygon points="598.1,814.7 607.7,819.5 600.9,825.1" fill="#fefefe" fill-opacity="0.9"/>
<line x1="654.8" y1="818.2" x2="652.5" y2="814.6" stroke="#fefefe" stroke-width="0.63" stroke-opacity="0.9" stroke-linecap="round"/><polygon points="652.5,814.6 661.4,820.6 653.9,825.2" fill="#fefefe" fill-opacity="0.9"/>
<line x1="708.7" y1="818.4" x2="707.2" y2="814.4" stroke="#fefefe" stroke-width="0.63" stroke-opacity="0.9" stroke-linecap="round"/><polygon points="707.2,814.4 714.6,822.1 706.4,825.0" fill="#fefefe" fill-opacity="0.9"/>
<line x1="762.4" y1="818.6" x2="761.9" y2="814.2" stroke="#fefefe" stroke-width="0.63" stroke-opacity="0.9" stroke-linecap="round"/><polygon points="761.9,814.2 767.3,823.5 758.6,824.4" fill="#fefefe" fill-opacity="0.9"/>
<line x1="816.1" y1="818.5" x2="816.7" y2="814.3" stroke="#fefefe" stroke-width="0.63" stroke-opacity="0.9" stroke-linecap="round"/><polygon points="816.7,814.3 819.6,824.6 810.9,823.2" fill="#fefefe" fill-opacity="0.9"/>
<line x1="869.8" y1="818.4" x2="871.5" y2="814.4" stroke="#fefefe" stroke-width="0.63" stroke-opacity="0.9" stroke-linecap="round"/><polygon points="871.5,814.4 871.8,825.1 863.7,821.7" fill="#fefefe" fill-opacity="0.9"/>
<line x1="923.7" y1="818.2" x2="926.1" y2="814.6" stroke="#fefefe" stroke-width="0.63" stroke-opacity="0.9" stroke-linecap="round"/><polygon points="926.1,814.6 924.3,825.2 917.0,820.2" fill="#fefefe" fill-opacity="0.9"/>
<line x1="708.5" y1="872.7" x2="707.3" y2="868.6" stroke="#fefefe" stroke-width="0.63" stroke-opacity="0.9" stroke-linecap="round"/><polygon points="707.3,868.6 714.2,876.7 705.8,879.1" fill="#fefefe" fill-opacity="0.9"/>
<line x1="762.3" y1="872.8" x2="762.0" y2="868.5" stroke="#fefefe" stroke-width="0.63" stroke-opacity="0.9" stroke-linecap="round"/><polygon points="762.0,868.5 767.2,877.9 758.4,878.6" fill="#fefefe" fill-opacity="0.9"/>
<line x1="816.1" y1="872.8" x2="816.7" y2="868.5" stroke="#fefefe" stroke-width="0.63" stroke-opacity="0.9" stroke-linecap="round"/><polygon points="816.7,868.5 819.8,878.7 811.1,877.6" fill="#fefefe" fill-opacity="0.9"/>
<line x1="870.0" y1="872.7" x2="871.3" y2="868.6" stroke="#fefefe" stroke-width="0.63" stroke-opacity="0.9" stroke-linecap="round"/><polygon points="871.3,868.6 872.4,879.2 864.1,876.5" fill="#fefefe" fill-opacity="0.9"/>
</svg>