<?xml version="1.0" encoding="UTF-8"?>
<svg xmlns="http://www.w3.org/2000/svg" viewBox="0 0 1000 1000" preserveAspectRatio="none">
<line x1="58.6" y1="55.5" x2="55.5" y2="58.6" stroke="#fefefe" stroke-width="0.63" stroke-opacity="0.9" stroke-linecap="round"/><polygon points="55.5,58.6 59.3,48.6 65.5,54.8" fill="#fefefe" fill-opacity="0.9"/>
<line x1="112.2" y1="55.1" x2="110.3" y2="59.0" stroke="#fefefe" stroke-width="0.63" stroke-opacity="0.9" stroke-linecap="round"/><polygon points="110.3,59.0 110.7,48.3 118.6,52.2" fill="#fefefe" fill-opacity="0.9"/>
<line x1="165.5" y1="54.9" x2="165.6" y2="59.2" stroke="#fefefe" stroke-width="0.63" stroke-opacity="0.9" stroke-linecap="round"/><polygon points="165.6,59.2 161.0,49.5 169.8,49.4" fill="#fefefe" fill-opacity="0.9"/>
<line x1="218.7" y1="55.1" x2="220.8" y2="59.0" stroke="#fefefe" stroke-width="0.63" stroke-opacity="0.9" stroke-linecap="round"/><polygon points="220.8,59.0 212.3,52.4 220.1,48.3" fill="#fefefe" fill-opacity="0.9"/>
<line x1="272.5" y1="55.5" x2="275.5" y2="58.6" stroke="#fefefe" stroke-width="0.63" stroke-opacity="0.9" stroke-linecap="round"/><polygon points="275.5,58.6 265.5,54.9 271.7,48.6" fill="#fefefe" fill-opacity="0.9"/>
<line x1="326.7" y1="55.5" x2="329.8" y2="58.6" stroke="#fefefe" stroke-width="0.63" stroke-opacity="0.9" stroke-linecap="round"/><polygon points="329.8,58.6 319.8,54.7 326.0,48.5" fill="#fefefe" fill-opacity="0.9"/>
<line x1="381.4" y1="55.1" x2="383.5" y2="58.9" stroke="#fefefe" stroke-width="0.63" stroke-opacity="0.9" stroke-linecap="round"/><polygon points="383.5,58.9 375.0,52.5 382.6,48.3" fill="#fefefe" fill-opacity="0.9"/>
<line x1="435.4" y1="55.3" x2="438.0" y2="58.8" stroke="#fefefe" stroke-width="0.63" stroke-opacity="0.9" stroke-linecap="round"/><polygon points="438.0,58.8 428.6,53.7 435.6,48.3" fill="#fefefe" fill-opacity="0.9"/>
<line x1="489.4" y1="55.5" x2="492.5" y2="58.6" stroke="#fefefe" stroke-width="0.63" stroke-opacity="0.9" stroke-linecap="round"/><polygon points="492.5,58.6 482.5,54.8 488.7,48.6" fill="#fefefe" fill-opacity="0.9"/>
<line x1="59.0" y1="110.3" x2="55.1" y2="112.2" stroke="#fefefe" stroke-width="0.63" stroke-opacity="0.9" stroke-linecap="round"/><polygon points="55.1,112.2 61.9,104.0 65.8,111.9" fill="#fefefe" fill-opacity="0.9"/>
<line x1="112.8" y1="109.7" x2="109.7" y2="112.8" stroke="#fbfbfb" stroke-width="0.63" stroke-opacity="0.9" stroke-linecap="round"/><polygon points="109.7,112.8 113.5,102.8 119.8,109.0" fill="#fbfbfb" fill-opacity="0.9"/>
<line x1="165.4" y1="108.8" x2="165.6" y2="113.8" stroke="#e1e1e1" stroke-width="0.63" stroke-opacity="0.9" stroke-linecap="round"/><polygon points="165.6,113.8 160.8,104.2 169.6,103.8" fill="#e1e1e1" fill-opacity="0.9"/>
<line x1="218.2" y1="109.8" x2="221.3" y2="112.8" stroke="#fdfdfd" stroke-width="0.63" stroke-opacity="0.9" stroke-linecap="round"/><polygon points="221.3,112.8 211.2,109.3 217.2,102.9" fill="#fdfdfd" fill-opacity="0.9"/>
<line x1="272.2" y1="110.1" x2="275.8" y2="112.5" stroke="#fefefe" stroke-width="0.63" stroke-opacity="0.9" stroke-linecap="round"/><polygon points="275.8,112.5 265.2,110.8 270.0,103.4" fill="#fefefe" fill-opacity="0.9"/>
<line x1="327.3" y1="109.3" x2="329.2" y2="113.2" stroke="#fefefe" stroke-width="0.63" stroke-opacity="0.9" stroke-linecap="round"/><polygon points="329.2,113.2 321.0,106.4 328.9,102.5" fill="#fefefe" fill-opacity="0.9"/>
<line x1="381.3" y1="109.5" x2="383.7" y2="113.1" stroke="#fefefe" stroke-width="0.63" stroke-opacity="0.9" stroke-linecap="round"/><polygon points="383.7,113.1 374.6,107.5 381.8,102.5" fill="#fefefe" fill-opacity="0.9"/>
<line x1="435.2" y1="109.8" x2="438.3" y2="112.8" stroke="#fefefe" stroke-width="0.63" stroke-opacity="0.9" stroke-linecap="round"/><polygon points="438.3,112.8 428.2,109.2 434.3,102.8" fill="#fefefe" fill-opacity="0.9"/>
<line x1="489.5" y1="109.7" x2="492.5" y2="112.8" stroke="#fefefe" stroke-width="0.63" stroke-opacity="0.9" stroke-linecap="round"/><polygon points="492.5,112.8 482.5,108.9 488.9,102.8" fill="#fefefe" fill-opacity="0.9"/>
<line x1="544.0" y1="109.4" x2="546.4" y2="113.1" stroke="#fefefe" stroke-width="0.63" stroke-opacity="0.9" stroke-linecap="round"/><polygon points="546.4,113.1 537.4,107.2 544.8,102.5" fill="#fefefe" fill-opacity="0.9"/>
<line x1="59.2" y1="165.6" x2="54.9" y2="165.5" stroke="#fefefe" stroke-width="0.63" stroke-opacity="0.9" stroke-linecap="round"/><polygon points="54.9,165.5 64.7,161.3 64.5,170.1" fill="#fefefe" fill-opacity="0.9"/>
<line x1="113.8" y1="165.6" x2="108.8" y2="165.4" stroke="#e1e1e1" stroke-width="0.63" stroke-opacity="0.9" stroke-linecap="round"/><polygon points="108.8,165.4 118.7,161.4 118.3,170.2" fill="#e1e1e1" fill-opacity="0.9"/>
<line x1="156.8" y1="174.3" x2="174.3" y2="156.7" stroke="#6d6d6d" stroke-width="0.63" stroke-opacity="0.9" stroke-linecap="round"/><polygon points="174.3,156.7 170.5,166.8 164.3,160.5" fill="#6d6d6d" fill-opacity="0.9"/>
<line x1="217.6" y1="165.5" x2="221.9" y2="165.5" stroke="#f1f1f1" stroke-width="0.63" stroke-opacity="0.9" stroke-linecap="round"/><polygon points="221.9,165.5 212.1,169.8 212.2,161.1" fill="#f1f1f1" fill-opacity="0.9"/>
<line x1="273.1" y1="163.5" x2="274.9" y2="167.5" stroke="#fefefe" stroke-width="0.63" stroke-opacity="0.9" stroke-linecap="round"/><polygon points="274.9,167.5 266.8,160.5 274.8,156.8" fill="#fefefe" fill-opacity="0.9"/>
<line x1="327.3" y1="163.6" x2="329.2" y2="167.5" stroke="#fefefe" stroke-width="0.63" stroke-opacity="0.9" stroke-linecap="round"/><polygon points="329.2,167.5 320.9,160.7 328.8,156.8" fill="#fefefe" fill-opacity="0.9"/>
<line x1="380.9" y1="164.1" x2="384.1" y2="167.0" stroke="#fefefe" stroke-width="0.63" stroke-opacity="0.9" stroke-linecap="round"/><polygon points="384.1,167.0 373.9,163.6 379.9,157.1" fill="#fefefe" fill-opacity="0.9"/>
<line x1="435.0" y1="164.2" x2="438.4" y2="166.8" stroke="#fefefe" stroke-width="0.63" stroke-opacity="0.9" stroke-linecap="round"/><polygon points="438.4,166.8 428.0,164.4 433.4,157.4" fill="#fefefe" fill-opacity="0.9"/>
<line x1="489.8" y1="163.7" x2="492.1" y2="167.4" stroke="#fefefe" stroke-width="0.63" stroke-opacity="0.9" stroke-linecap="round"/><polygon points="492.1,167.4 483.3,161.3 490.8,156.7" fill="#fefefe" fill-opacity="0.9"/>
<line x1="543.9" y1="163.8" x2="546.5" y2="167.2" stroke="#fefefe" stroke-width="0.63" stroke-opacity="0.9" stroke-linecap="round"/><polygon points="546.5,167.2 537.1,162.2 544.0,156.8" fill="#fefefe" fill-opacity="0.9"/>
<line x1="597.9" y1="164.0" x2="601.0" y2="167.0" stroke="#fefefe" stroke-width="0.63" stroke-opacity="0.9" stroke-linecap="round"/><polygon points="601.0,167.0 590.9,163.5 597.0,157.1" fill="#fefefe" fill-opacity="0.9"/>
<line x1="59.0" y1="220.8" x2="55.1" y2="218.7" stroke="#fefefe" stroke-width="0.63" stroke-opacity="0.9" stroke-linecap="round"/><polygon points="55.1,218.7 65.8,219.4 61.7,227.2" fill="#fefefe" fill-opacity="0.9"/>
<line x1="112.8" y1="221.4" x2="109.8" y2="218.2" stroke="#fdfdfd" stroke-width="0.63" stroke-opacity="0.9" stroke-linecap="round"/><polygon points="109.8,218.2 119.7,222.4 113.2,228.3" fill="#fdfdfd" fill-opacity="0.9"/>
<line x1="165.5" y1="221.9" x2="165.6" y2="217.6" stroke="#f2f2f2" stroke-width="0.63" stroke-opacity="0.9" stroke-linecap="round"/><polygon points="165.6,217.6 169.8,227.4 161.0,227.3" fill="#f2f2f2" fill-opacity="0.9"/>
<line x1="219.2" y1="221.8" x2="220.4" y2="217.7" stroke="#fafafa" stroke-width="0.63" stroke-opacity="0.9" stroke-linecap="round"/><polygon points="220.4,217.7 221.9,228.3 213.4,225.8" fill="#fafafa" fill-opacity="0.9"/>
<line x1="274.8" y1="217.7" x2="273.2" y2="221.8" stroke="#f6f6f6" stroke-width="0.63" stroke-opacity="0.9" stroke-linecap="round"/><polygon points="273.2,221.8 272.5,211.1 280.8,214.2" fill="#f6f6f6" fill-opacity="0.9"/>
<line x1="326.5" y1="218.4" x2="329.9" y2="221.1" stroke="#fdfdfd" stroke-width="0.63" stroke-opacity="0.9" stroke-linecap="round"/><polygon points="329.9,221.1 319.6,218.5 325.0,211.6" fill="#fdfdfd" fill-opacity="0.9"/>
<line x1="380.5" y1="218.9" x2="384.5" y2="220.6" stroke="#fefefe" stroke-width="0.63" stroke-opacity="0.9" stroke-linecap="round"/><polygon points="384.5,220.6 373.8,220.9 377.2,212.8" fill="#fefefe" fill-opacity="0.9"/>
<line x1="435.5" y1="217.9" x2="437.9" y2="221.6" stroke="#fefefe" stroke-width="0.63" stroke-opacity="0.9" stroke-linecap="round"/><polygon points="437.9,221.6 428.9,215.8 436.3,211.0" fill="#fefefe" fill-opacity="0.9"/>
<line x1="489.7" y1="218.0" x2="492.2" y2="221.6" stroke="#fefefe" stroke-width="0.63" stroke-opacity="0.9" stroke-linecap="round"/><polygon points="492.2,221.6 483.1,215.9 490.3,211.0" fill="#fefefe" fill-opacity="0.9"/>
<line x1="543.6" y1="218.3" x2="546.8" y2="221.2" stroke="#fefefe" stroke-width="0.63" stroke-opacity="0.9" stroke-linecap="round"/><polygon points="546.8,221.2 536.6,217.9 542.6,211.4" fill="#fefefe" fill-opacity="0.9"/>
<line x1="597.8" y1="218.4" x2="601.1" y2="221.1" stroke="#fefefe" stroke-width="0.63" stroke-opacity="0.9" stroke-linecap="round"/><polygon points="601.1,221.1 590.8,218.3 596.4,211.5" fill="#fefefe" fill-opacity="0.9"/>
<line x1="652.5" y1="218.0" x2="654.9" y2="221.6" stroke="#fefefe" stroke-width="0.63" stroke-opacity="0.9" stroke-linecap="round"/><polygon points="654.9,221.6 645.8,215.9 653.1,211.0" fill="#fefefe" fill-opacity="0.9"/>
<line x1="58.5" y1="275.6" x2="55.5" y2="272.4" stroke="#fefefe" stroke-width="0.63" stroke-opacity="0.9" stroke-linecap="round"/><polygon points="55.5,272.4 65.5,276.4 59.1,282.5" fill="#fefefe" fill-opacity="0.9"/>
<line x1="112.2" y1="276.0" x2="110.3" y2="272.0" stroke="#fefefe" stroke-width="0.63" stroke-opacity="0.9" stroke-linecap="round"/><polygon points="110.3,272.0 118.5,278.9 110.6,282.7" fill="#fefefe" fill-opacity="0.9"/>
<line x1="166.0" y1="276.1" x2="165.1" y2="271.9" stroke="#fefefe" stroke-width="0.63" stroke-opacity="0.9" stroke-linecap="round"/><polygon points="165.1,271.9 171.4,280.5 162.8,282.4" fill="#fefefe" fill-opacity="0.9"/>
<line x1="221.7" y1="275.0" x2="217.8" y2="273.0" stroke="#fefefe" stroke-width="0.63" stroke-opacity="0.9" stroke-linecap="round"/><polygon points="217.8,273.0 228.5,273.5 224.6,281.3" fill="#fefefe" fill-opacity="0.9"/>
<line x1="275.1" y1="275.9" x2="272.9" y2="272.1" stroke="#f4f4f4" stroke-width="0.63" stroke-opacity="0.9" stroke-linecap="round"/><polygon points="272.9,272.1 281.7,278.2 274.1,282.8" fill="#f4f4f4" fill-opacity="0.9"/>
<line x1="326.3" y1="275.0" x2="330.2" y2="273.0" stroke="#fcfcfc" stroke-width="0.63" stroke-opacity="0.9" stroke-linecap="round"/><polygon points="330.2,273.0 323.6,281.4 319.5,273.7" fill="#fcfcfc" fill-opacity="0.9"/>
<line x1="380.7" y1="272.7" x2="384.3" y2="275.3" stroke="#fefefe" stroke-width="0.63" stroke-opacity="0.9" stroke-linecap="round"/><polygon points="384.3,275.3 373.7,273.2 378.8,266.0" fill="#fefefe" fill-opacity="0.9"/>
<line x1="435.9" y1="272.0" x2="437.6" y2="276.0" stroke="#fefefe" stroke-width="0.63" stroke-opacity="0.9" stroke-linecap="round"/><polygon points="437.6,276.0 429.7,268.8 437.7,265.3" fill="#fefefe" fill-opacity="0.9"/>
<line x1="489.3" y1="272.6" x2="492.6" y2="275.4" stroke="#fefefe" stroke-width="0.63" stroke-opacity="0.9" stroke-linecap="round"/><polygon points="492.6,275.4 482.3,272.5 488.0,265.8" fill="#fefefe" fill-opacity="0.9"/>
<line x1="543.3" y1="272.9" x2="547.1" y2="275.1" stroke="#fefefe" stroke-width="0.63" stroke-opacity="0.9" stroke-linecap="round"/><polygon points="547.1,275.1 536.4,273.9 540.9,266.4" fill="#fefefe" fill-opacity="0.9"/>
<line x1="598.2" y1="272.3" x2="600.7" y2="275.7" stroke="#fefefe" stroke-width="0.63" stroke-opacity="0.9" stroke-linecap="round"/><polygon points="600.7,275.7 591.4,270.5 598.5,265.3" fill="#fefefe" fill-opacity="0.9"/>
<line x1="652.3" y1="272.3" x2="655.0" y2="275.7" stroke="#fefefe" stroke-width="0.63" stroke-opacity="0.9" stroke-linecap="round"/><polygon points="655.0,275.7 645.6,270.7 652.5,265.3" fill="#fefefe" fill-opacity="0.9"/>
<line x1="706.3" y1="272.5" x2="709.5" y2="275.5" stroke="#fefefe" stroke-width="0.63" stroke-opacity="0.9" stroke-linecap="round"/><polygon points="709.5,275.5 699.3,272.1 705.3,265.6" fill="#fefefe" fill-opacity="0.9"/>
<line x1="58.2" y1="330.1" x2="55.9" y2="326.4" stroke="#fefefe" stroke-width="0.63" stroke-opacity="0.9" stroke-linecap="round"/><polygon points="55.9,326.4 64.9,332.2 57.5,337.0" fill="#fefefe" fill-opacity="0.9"/>
<line x1="112.1" y1="330.3" x2="110.5" y2="326.2" stroke="#fefefe" stroke-width="0.63" stroke-opacity="0.9" stroke-linecap="round"/><polygon points="110.5,326.2 118.1,333.7 110.0,336.9" fill="#fefefe" fill-opacity="0.9"/>
<line x1="167.0" y1="329.8" x2="164.0" y2="326.7" stroke="#fefefe" stroke-width="0.63" stroke-opacity="0.9" stroke-linecap="round"/><polygon points="164.0,326.7 173.9,330.8 167.5,336.8" fill="#fefefe" fill-opacity="0.9"/>
<line x1="221.2" y1="329.9" x2="218.3" y2="326.6" stroke="#fefefe" stroke-width="0.63" stroke-opacity="0.9" stroke-linecap="round"/><polygon points="218.3,326.6 228.1,331.1 221.4,336.9" fill="#fefefe" fill-opacity="0.9"/>
<line x1="274.4" y1="330.4" x2="273.6" y2="326.1" stroke="#fefefe" stroke-width="0.63" stroke-opacity="0.9" stroke-linecap="round"/><polygon points="273.6,326.1 279.7,334.9 271.1,336.5" fill="#fefefe" fill-opacity="0.9"/>
<line x1="327.8" y1="330.4" x2="328.7" y2="326.1" stroke="#fefefe" stroke-width="0.63" stroke-opacity="0.9" stroke-linecap="round"/><polygon points="328.7,326.1 331.0,336.6 322.4,334.8" fill="#fefefe" fill-opacity="0.9"/>
<line x1="384.5" y1="327.5" x2="380.5" y2="329.0" stroke="#fefefe" stroke-width="0.63" stroke-opacity="0.9" stroke-linecap="round"/><polygon points="380.5,329.0 388.0,321.4 391.1,329.6" fill="#fefefe" fill-opacity="0.9"/>
<line x1="434.8" y1="327.3" x2="438.7" y2="329.2" stroke="#fefefe" stroke-width="0.63" stroke-opacity="0.9" stroke-linecap="round"/><polygon points="438.7,329.2 428.0,328.9 431.8,321.0" fill="#fefefe" fill-opacity="0.9"/>
<line x1="488.8" y1="327.8" x2="493.1" y2="328.6" stroke="#fefefe" stroke-width="0.63" stroke-opacity="0.9" stroke-linecap="round"/><polygon points="493.1,328.6 482.7,331.2 484.3,322.5" fill="#fefefe" fill-opacity="0.9"/>
<line x1="543.6" y1="326.8" x2="546.8" y2="329.7" stroke="#fefefe" stroke-width="0.63" stroke-opacity="0.9" stroke-linecap="round"/><polygon points="546.8,329.7 536.6,326.4 542.6,319.9" fill="#fefefe" fill-opacity="0.9"/>
<line x1="598.2" y1="326.4" x2="600.7" y2="330.0" stroke="#fefefe" stroke-width="0.63" stroke-opacity="0.9" stroke-linecap="round"/><polygon points="600.7,330.0 591.5,324.4 598.8,319.5" fill="#fefefe" fill-opacity="0.9"/>
<line x1="652.0" y1="326.8" x2="655.3" y2="329.7" stroke="#fefefe" stroke-width="0.63" stroke-opacity="0.9" stroke-linecap="round"/><polygon points="655.3,329.7 645.1,326.6 650.8,320.0" fill="#fefefe" fill-opacity="0.9"/>
<line x1="706.1" y1="327.0" x2="709.7" y2="329.5" stroke="#fefefe" stroke-width="0.63" stroke-opacity="0.9" stroke-linecap="round"/><polygon points="709.7,329.5 699.2,327.6 704.1,320.3" fill="#fefefe" fill-opacity="0.9"/>
<line x1="760.8" y1="326.5" x2="763.5" y2="329.9" stroke="#fefefe" stroke-width="0.63" stroke-opacity="0.9" stroke-linecap="round"/><polygon points="763.5,329.9 754.0,325.0 760.9,319.6" fill="#fefefe" fill-opacity="0.9"/>
<line x1="58.0" y1="384.4" x2="56.1" y2="380.5" stroke="#fefefe" stroke-width="0.63" stroke-opacity="0.9" stroke-linecap="round"/><polygon points="56.1,380.5 64.4,387.2 56.6,391.2" fill="#fefefe" fill-opacity="0.9"/>
<line x1="112.5" y1="384.3" x2="110.1" y2="380.7" stroke="#fefefe" stroke-width="0.63" stroke-opacity="0.9" stroke-linecap="round"/><polygon points="110.1,380.7 119.2,386.4 111.8,391.2" fill="#fefefe" fill-opacity="0.9"/>
<line x1="167.0" y1="384.1" x2="164.1" y2="380.9" stroke="#fefefe" stroke-width="0.63" stroke-opacity="0.9" stroke-linecap="round"/><polygon points="164.1,380.9 173.9,385.2 167.3,391.1" fill="#fefefe" fill-opacity="0.9"/>
<line x1="220.8" y1="384.4" x2="218.8" y2="380.6" stroke="#fefefe" stroke-width="0.63" stroke-opacity="0.9" stroke-linecap="round"/><polygon points="218.8,380.6 227.2,387.2 219.4,391.2" fill="#fefefe" fill-opacity="0.9"/>
<line x1="274.4" y1="384.6" x2="273.6" y2="380.4" stroke="#fefefe" stroke-width="0.63" stroke-opacity="0.9" stroke-linecap="round"/><polygon points="273.6,380.4 279.8,389.0 271.2,390.8" fill="#fefefe" fill-opacity="0.9"/>
<line x1="329.8" y1="384.0" x2="326.7" y2="381.0" stroke="#fefefe" stroke-width="0.63" stroke-opacity="0.9" stroke-linecap="round"/><polygon points="326.7,381.0 336.8,384.5 330.7,390.9" fill="#fefefe" fill-opacity="0.9"/>
<line x1="383.7" y1="384.3" x2="381.3" y2="380.7" stroke="#fefefe" stroke-width="0.63" stroke-opacity="0.9" stroke-linecap="round"/><polygon points="381.3,380.7 390.4,386.3 383.1,391.2" fill="#fefefe" fill-opacity="0.9"/>
<line x1="435.6" y1="384.3" x2="437.8" y2="380.6" stroke="#fefefe" stroke-width="0.63" stroke-opacity="0.9" stroke-linecap="round"/><polygon points="437.8,380.6 436.6,391.3 429.1,386.8" fill="#fefefe" fill-opacity="0.9"/>
<line x1="488.9" y1="383.2" x2="493.0" y2="381.8" stroke="#fefefe" stroke-width="0.63" stroke-opacity="0.9" stroke-linecap="round"/><polygon points="493.0,381.8 485.1,389.0 482.4,380.7" fill="#fefefe" fill-opacity="0.9"/>
<line x1="544.5" y1="380.4" x2="545.9" y2="384.5" stroke="#fefefe" stroke-width="0.63" stroke-opacity="0.9" stroke-linecap="round"/><polygon points="545.9,384.5 538.7,376.6 547.1,373.9" fill="#fefefe" fill-opacity="0.9"/>
<line x1="597.7" y1="381.2" x2="601.2" y2="383.8" stroke="#fefefe" stroke-width="0.63" stroke-opacity="0.9" stroke-linecap="round"/><polygon points="601.2,383.8 590.7,381.6 595.9,374.5" fill="#fefefe" fill-opacity="0.9"/>
<line x1="651.7" y1="381.6" x2="655.7" y2="383.3" stroke="#fefefe" stroke-width="0.63" stroke-opacity="0.9" stroke-linecap="round"/><polygon points="655.7,383.3 645.0,383.5 648.5,375.4" fill="#fefefe" fill-opacity="0.9"/>
<line x1="706.4" y1="381.0" x2="709.5" y2="384.0" stroke="#fefefe" stroke-width="0.63" stroke-opacity="0.9" stroke-linecap="round"/><polygon points="709.5,384.0 699.4,380.4 705.5,374.1" fill="#fefefe" fill-opacity="0.9"/>
<line x1="760.8" y1="380.8" x2="763.5" y2="384.2" stroke="#fefefe" stroke-width="0.63" stroke-opacity="0.9" stroke-linecap="round"/><polygon points="763.5,384.2 754.0,379.3 760.9,373.8" fill="#fefefe" fill-opacity="0.9"/>
<line x1="814.8" y1="381.1" x2="818.0" y2="383.9" stroke="#fefefe" stroke-width="0.63" stroke-opacity="0.9" stroke-linecap="round"/><polygon points="818.0,383.9 807.8,380.8 813.5,374.2" fill="#fefefe" fill-opacity="0.9"/>
<line x1="58.1" y1="438.6" x2="56.0" y2="434.8" stroke="#fefefe" stroke-width="0.63" stroke-opacity="0.9" stroke-linecap="round"/><polygon points="56.0,434.8 64.6,441.1 57.0,445.5" fill="#fefefe" fill-opacity="0.9"/>
<line x1="112.7" y1="438.4" x2="109.9" y2="435.1" stroke="#fefefe" stroke-width="0.63" stroke-opacity="0.9" stroke-linecap="round"/><polygon points="109.9,435.1 119.6,439.6 112.9,445.3" fill="#fefefe" fill-opacity="0.9"/>
<line x1="166.7" y1="438.5" x2="164.3" y2="434.9" stroke="#fefefe" stroke-width="0.63" stroke-opacity="0.9" stroke-linecap="round"/><polygon points="164.3,434.9 173.4,440.6 166.0,445.5" fill="#fefefe" fill-opacity="0.9"/>
<line x1="220.6" y1="438.7" x2="219.0" y2="434.7" stroke="#fefefe" stroke-width="0.63" stroke-opacity="0.9" stroke-linecap="round"/><polygon points="219.0,434.7 226.7,442.1 218.5,445.4" fill="#fefefe" fill-opacity="0.9"/>
<line x1="275.2" y1="438.6" x2="272.8" y2="434.9" stroke="#fefefe" stroke-width="0.63" stroke-opacity="0.9" stroke-linecap="round"/><polygon points="272.8,434.9 281.8,440.8 274.3,445.5" fill="#fefefe" fill-opacity="0.9"/>
<line x1="329.6" y1="438.4" x2="326.9" y2="435.0" stroke="#fefefe" stroke-width="0.63" stroke-opacity="0.9" stroke-linecap="round"/><polygon points="326.9,435.0 336.5,439.8 329.7,445.4" fill="#fefefe" fill-opacity="0.9"/>
<line x1="383.1" y1="438.8" x2="381.8" y2="434.6" stroke="#fefefe" stroke-width="0.63" stroke-opacity="0.9" stroke-linecap="round"/><polygon points="381.8,434.6 388.9,442.7 380.5,445.3" fill="#fefefe" fill-opacity="0.9"/>
<line x1="436.5" y1="438.9" x2="437.0" y2="434.6" stroke="#fefefe" stroke-width="0.63" stroke-opacity="0.9" stroke-linecap="round"/><polygon points="437.0,434.6 440.2,444.8 431.4,443.7" fill="#fefefe" fill-opacity="0.9"/>
<line x1="492.9" y1="437.6" x2="489.0" y2="435.8" stroke="#fefefe" stroke-width="0.63" stroke-opacity="0.9" stroke-linecap="round"/><polygon points="489.0,435.8 499.7,435.9 496.0,443.9" fill="#fefefe" fill-opacity="0.9"/>
<line x1="543.5" y1="438.1" x2="546.9" y2="435.4" stroke="#fefefe" stroke-width="0.63" stroke-opacity="0.9" stroke-linecap="round"/><polygon points="546.9,435.4 541.9,444.8 536.5,437.9" fill="#fefefe" fill-opacity="0.9"/>
<line x1="597.3" y1="437.0" x2="601.6" y2="436.5" stroke="#fefefe" stroke-width="0.63" stroke-opacity="0.9" stroke-linecap="round"/><polygon points="601.6,436.5 592.4,441.9 591.4,433.2" fill="#fefefe" fill-opacity="0.9"/>
<line x1="651.6" y1="436.0" x2="655.7" y2="437.5" stroke="#fefefe" stroke-width="0.63" stroke-opacity="0.9" stroke-linecap="round"/><polygon points="655.7,437.5 645.0,438.3 648.0,430.0" fill="#fefefe" fill-opacity="0.9"/>
<line x1="706.7" y1="434.9" x2="709.2" y2="438.5" stroke="#fefefe" stroke-width="0.63" stroke-opacity="0.9" stroke-linecap="round"/><polygon points="709.2,438.5 700.0,433.0 707.1,428.0" fill="#fefefe" fill-opacity="0.9"/>
<line x1="760.5" y1="435.4" x2="763.9" y2="438.1" stroke="#fefefe" stroke-width="0.63" stroke-opacity="0.9" stroke-linecap="round"/><polygon points="763.9,438.1 753.5,435.5 758.9,428.6" fill="#fefefe" fill-opacity="0.9"/>
<line x1="814.5" y1="435.7" x2="818.3" y2="437.8" stroke="#fefefe" stroke-width="0.63" stroke-opacity="0.9" stroke-linecap="round"/><polygon points="818.3,437.8 807.6,436.8 811.9,429.2" fill="#fefefe" fill-opacity="0.9"/>
<line x1="869.1" y1="435.2" x2="872.2" y2="438.2" stroke="#fefefe" stroke-width="0.63" stroke-opacity="0.9" stroke-linecap="round"/><polygon points="872.2,438.2 862.1,434.5 868.3,428.3" fill="#fefefe" fill-opacity="0.9"/>
<line x1="166.5" y1="492.9" x2="164.5" y2="489.0" stroke="#fefefe" stroke-width="0.63" stroke-opacity="0.9" stroke-linecap="round"/><polygon points="164.5,489.0 172.9,495.7 165.1,499.7" fill="#fefefe" fill-opacity="0.9"/>
<line x1="220.8" y1="492.9" x2="218.8" y2="489.0" stroke="#fefefe" stroke-width="0.63" stroke-opacity="0.9" stroke-linecap="round"/><polygon points="218.8,489.0 227.1,495.7 219.3,499.7" fill="#fefefe" fill-opacity="0.9"/>
<line x1="275.4" y1="492.6" x2="272.6" y2="489.3" stroke="#fefefe" stroke-width="0.63" stroke-opacity="0.9" stroke-linecap="round"/><polygon points="272.6,489.3 282.2,494.0 275.5,499.6" fill="#fefefe" fill-opacity="0.9"/>
<line x1="329.3" y1="492.9" x2="327.2" y2="489.1" stroke="#fefefe" stroke-width="0.63" stroke-opacity="0.9" stroke-linecap="round"/><polygon points="327.2,489.1 335.8,495.5 328.1,499.7" fill="#fefefe" fill-opacity="0.9"/>
<line x1="383.0" y1="493.1" x2="382.0" y2="488.8" stroke="#fefefe" stroke-width="0.63" stroke-opacity="0.9" stroke-linecap="round"/><polygon points="382.0,488.8 388.5,497.3 380.0,499.4" fill="#fefefe" fill-opacity="0.9"/>
<line x1="437.8" y1="492.8" x2="435.6" y2="489.1" stroke="#fefefe" stroke-width="0.63" stroke-opacity="0.9" stroke-linecap="round"/><polygon points="435.6,489.1 444.4,495.2 436.9,499.7" fill="#fefefe" fill-opacity="0.9"/>
<line x1="492.2" y1="492.7" x2="489.7" y2="489.2" stroke="#fefefe" stroke-width="0.63" stroke-opacity="0.9" stroke-linecap="round"/><polygon points="489.7,489.2 498.9,494.7 491.6,499.7" fill="#fefefe" fill-opacity="0.9"/>
<line x1="544.9" y1="493.1" x2="545.5" y2="488.8" stroke="#fefefe" stroke-width="0.63" stroke-opacity="0.9" stroke-linecap="round"/><polygon points="545.5,488.8 548.4,499.1 539.7,497.8" fill="#fefefe" fill-opacity="0.9"/>
<line x1="598.0" y1="492.6" x2="600.9" y2="489.4" stroke="#fefefe" stroke-width="0.63" stroke-opacity="0.9" stroke-linecap="round"/><polygon points="600.9,489.4 597.6,499.5 591.1,493.6" fill="#fefefe" fill-opacity="0.9"/>
<line x1="653.7" y1="488.8" x2="653.7" y2="493.1" stroke="#fefefe" stroke-width="0.63" stroke-opacity="0.9" stroke-linecap="round"/><polygon points="653.7,493.1 649.4,483.3 658.2,483.4" fill="#fefefe" fill-opacity="0.9"/>
<line x1="706.0" y1="489.9" x2="709.8" y2="492.0" stroke="#fefefe" stroke-width="0.63" stroke-opacity="0.9" stroke-linecap="round"/><polygon points="709.8,492.0 699.1,491.2 703.4,483.5" fill="#fefefe" fill-opacity="0.9"/>
<line x1="760.1" y1="490.4" x2="764.2" y2="491.5" stroke="#fefefe" stroke-width="0.63" stroke-opacity="0.9" stroke-linecap="round"/><polygon points="764.2,491.5 753.7,493.1 756.0,484.7" fill="#fefefe" fill-opacity="0.9"/>
<line x1="814.5" y1="489.9" x2="818.3" y2="492.0" stroke="#fefefe" stroke-width="0.63" stroke-opacity="0.9" stroke-linecap="round"/><polygon points="818.3,492.0 807.6,491.0 812.0,483.4" fill="#fefefe" fill-opacity="0.9"/>
<line x1="869.2" y1="489.3" x2="872.0" y2="492.6" stroke="#fefefe" stroke-width="0.63" stroke-opacity="0.9" stroke-linecap="round"/><polygon points="872.0,492.6 862.4,488.0 869.1,482.3" fill="#fefefe" fill-opacity="0.9"/>
<line x1="923.2" y1="489.6" x2="926.6" y2="492.3" stroke="#fefefe" stroke-width="0.63" stroke-opacity="0.9" stroke-linecap="round"/><polygon points="926.6,492.3 916.2,489.6 921.8,482.8" fill="#fefefe" fill-opacity="0.9"/>
<line x1="221.1" y1="546.9" x2="218.4" y2="543.5" stroke="#fefefe" stroke-width="0.63" stroke-opacity="0.9" stroke-linecap="round"/><polygon points="218.4,543.5 227.9,548.4 221.0,553.9" fill="#fefefe" fill-opacity="0.9"/>
<line x1="275.2" y1="547.0" x2="272.8" y2="543.4" stroke="#fefefe" stroke-width="0.63" stroke-opacity="0.9" stroke-linecap="round"/><polygon points="272.8,543.4 281.9,549.1 274.6,554.0" fill="#fefefe" fill-opacity="0.9"/>
<line x1="329.1" y1="547.2" x2="327.4" y2="543.2" stroke="#fefefe" stroke-width="0.63" stroke-opacity="0.9" stroke-linecap="round"/><polygon points="327.4,543.2 335.2,550.5 327.1,553.9" fill="#fefefe" fill-opacity="0.9"/>
<line x1="383.4" y1="547.2" x2="381.6" y2="543.2" stroke="#fefefe" stroke-width="0.63" stroke-opacity="0.9" stroke-linecap="round"/><polygon points="381.6,543.2 389.6,550.4 381.5,553.9" fill="#fefefe" fill-opacity="0.9"/>
<line x1="438.0" y1="546.9" x2="435.4" y2="543.5" stroke="#fefefe" stroke-width="0.63" stroke-opacity="0.9" stroke-linecap="round"/><polygon points="435.4,543.5 444.8,548.5 437.9,553.9" fill="#fefefe" fill-opacity="0.9"/>
<line x1="491.7" y1="547.2" x2="490.2" y2="543.2" stroke="#fefefe" stroke-width="0.63" stroke-opacity="0.9" stroke-linecap="round"/><polygon points="490.2,543.2 497.8,550.7 489.6,553.9" fill="#fefefe" fill-opacity="0.9"/>
<line x1="545.2" y1="547.4" x2="545.2" y2="543.0" stroke="#fefefe" stroke-width="0.63" stroke-opacity="0.9" stroke-linecap="round"/><polygon points="545.2,543.0 549.4,552.9 540.6,552.7" fill="#fefefe" fill-opacity="0.9"/>
<line x1="600.7" y1="547.0" x2="598.2" y2="543.4" stroke="#fefefe" stroke-width="0.63" stroke-opacity="0.9" stroke-linecap="round"/><polygon points="598.2,543.4 607.3,549.0 600.1,554.0" fill="#fefefe" fill-opacity="0.9"/>
<line x1="654.1" y1="547.3" x2="653.3" y2="543.1" stroke="#fefefe" stroke-width="0.63" stroke-opacity="0.9" stroke-linecap="round"/><polygon points="653.3,543.1 659.4,551.8 650.8,553.5" fill="#fefefe" fill-opacity="0.9"/>
<line x1="706.0" y1="546.3" x2="709.8" y2="544.1" stroke="#fefefe" stroke-width="0.63" stroke-opacity="0.9" stroke-linecap="round"/><polygon points="709.8,544.1 703.5,552.8 699.1,545.1" fill="#fefefe" fill-opacity="0.9"/>
<line x1="760.0" y1="545.4" x2="764.3" y2="545.0" stroke="#fefefe" stroke-width="0.63" stroke-opacity="0.9" stroke-linecap="round"/><polygon points="764.3,545.0 755.0,550.2 754.2,541.5" fill="#fefefe" fill-opacity="0.9"/>
<line x1="815.1" y1="543.5" x2="817.7" y2="546.9" stroke="#fefefe" stroke-width="0.63" stroke-opacity="0.9" stroke-linecap="round"/><polygon points="817.7,546.9 808.3,541.9 815.2,536.5" fill="#fefefe" fill-opacity="0.9"/>
<line x1="868.9" y1="544.0" x2="872.4" y2="546.4" stroke="#fefefe" stroke-width="0.63" stroke-opacity="0.9" stroke-linecap="round"/><polygon points="872.4,546.4 861.9,544.5 866.9,537.3" fill="#fefefe" fill-opacity="0.9"/>
<line x1="922.9" y1="544.3" x2="926.9" y2="546.1" stroke="#fefefe" stroke-width="0.63" stroke-opacity="0.9" stroke-linecap="round"/><polygon points="926.9,546.1 916.2,546.2 919.7,538.2" fill="#fefefe" fill-opacity="0.9"/>
<line x1="329.1" y1="601.4" x2="327.4" y2="597.5" stroke="#fefefe" stroke-width="0.63" stroke-opacity="0.9" stroke-linecap="round"/><polygon points="327.4,597.5 335.3,604.6 327.2,608.2" fill="#fefefe" fill-opacity="0.9"/>
<line x1="383.8" y1="601.2" x2="381.2" y2="597.7" stroke="#fefefe" stroke-width="0.63" stroke-opacity="0.9" stroke-linecap="round"/><polygon points="381.2,597.7 390.6,602.9 383.5,608.1" fill="#fefefe" fill-opacity="0.9"/>
<line x1="437.8" y1="601.3" x2="435.6" y2="597.6" stroke="#fefefe" stroke-width="0.63" stroke-opacity="0.9" stroke-linecap="round"/><polygon points="435.6,597.6 444.3,603.8 436.7,608.2" fill="#fefefe" fill-opacity="0.9"/>
<line x1="491.5" y1="601.5" x2="490.4" y2="597.4" stroke="#fefefe" stroke-width="0.63" stroke-opacity="0.9" stroke-linecap="round"/><polygon points="490.4,597.4 497.2,605.6 488.8,607.9" fill="#fefefe" fill-opacity="0.9"/>
<line x1="545.9" y1="601.5" x2="544.5" y2="597.4" stroke="#fefefe" stroke-width="0.63" stroke-opacity="0.9" stroke-linecap="round"/><polygon points="544.5,597.4 551.9,605.2 543.6,608.1" fill="#fefefe" fill-opacity="0.9"/>
<line x1="600.6" y1="601.2" x2="598.2" y2="597.6" stroke="#fefefe" stroke-width="0.63" stroke-opacity="0.9" stroke-linecap="round"/><polygon points="598.2,597.6 607.3,603.3 600.0,608.2" fill="#fefefe" fill-opacity="0.9"/>
<line x1="653.8" y1="601.6" x2="653.5" y2="597.3" stroke="#fefefe" stroke-width="0.63" stroke-opacity="0.9" stroke-linecap="round"/><polygon points="653.5,597.3 658.6,606.7 649.8,607.3" fill="#fefefe" fill-opacity="0.9"/>
<line x1="706.9" y1="601.4" x2="708.9" y2="597.5" stroke="#fefefe" stroke-width="0.63" stroke-opacity="0.9" stroke-linecap="round"/><polygon points="708.9,597.5 708.4,608.2 700.6,604.2" fill="#fefefe" fill-opacity="0.9"/>
<line x1="764.3" y1="599.4" x2="760.0" y2="599.4" stroke="#fefefe" stroke-width="0.63" stroke-opacity="0.9" stroke-linecap="round"/><polygon points="760.0,599.4 769.8,595.1 769.7,603.8" fill="#fefefe" fill-opacity="0.9"/>
<line x1="814.3" y1="599.0" x2="818.5" y2="599.9" stroke="#fefefe" stroke-width="0.63" stroke-opacity="0.9" stroke-linecap="round"/><polygon points="818.5,599.9 808.1,602.3 809.8,593.7" fill="#fefefe" fill-opacity="0.9"/>
<line x1="868.5" y1="599.3" x2="872.8" y2="599.6" stroke="#fefefe" stroke-width="0.63" stroke-opacity="0.9" stroke-linecap="round"/><polygon points="872.8,599.6 862.7,603.2 863.4,594.5" fill="#fefefe" fill-opacity="0.9"/>
<line x1="922.7" y1="599.3" x2="927.0" y2="599.5" stroke="#fefefe" stroke-width="0.63" stroke-opacity="0.9" stroke-linecap="round"/><polygon points="927.0,599.5 917.1,603.5 917.5,594.7" fill="#fefefe" fill-opacity="0.9"/>
<line x1="437.6" y1="655.7" x2="435.8" y2="651.7" stroke="#fefefe" stroke-width="0.63" stroke-opacity="0.9" stroke-linecap="round"/><polygon points="435.8,651.7 443.8,658.8 435.8,662.4" fill="#fefefe" fill-opacity="0.9"/>
<line x1="491.7" y1="655.7" x2="490.3" y2="651.6" stroke="#fefefe" stroke-width="0.63" stroke-opacity="0.9" stroke-linecap="round"/><polygon points="490.3,651.6 497.6,659.4 489.3,662.3" fill="#fefefe" fill-opacity="0.9"/>
<line x1="546.4" y1="655.5" x2="544.0" y2="651.9" stroke="#fefefe" stroke-width="0.63" stroke-opacity="0.9" stroke-linecap="round"/><polygon points="544.0,651.9 553.2,657.4 546.0,662.4" fill="#fefefe" fill-opacity="0.9"/>
<line x1="600.3" y1="655.7" x2="598.6" y2="651.7" stroke="#fefefe" stroke-width="0.63" stroke-opacity="0.9" stroke-linecap="round"/><polygon points="598.6,651.7 606.5,658.9 598.5,662.4" fill="#fefefe" fill-opacity="0.9"/>
<line x1="653.8" y1="655.8" x2="653.5" y2="651.5" stroke="#fefefe" stroke-width="0.63" stroke-opacity="0.9" stroke-linecap="round"/><polygon points="653.5,651.5 658.6,661.0 649.8,661.6" fill="#fefefe" fill-opacity="0.9"/>
<line x1="708.4" y1="655.8" x2="707.4" y2="651.6" stroke="#fefefe" stroke-width="0.63" stroke-opacity="0.9" stroke-linecap="round"/><polygon points="707.4,651.6 714.0,660.0 705.5,662.1" fill="#fefefe" fill-opacity="0.9"/>
<line x1="763.0" y1="655.7" x2="761.3" y2="651.7" stroke="#fefefe" stroke-width="0.63" stroke-opacity="0.9" stroke-linecap="round"/><polygon points="761.3,651.7 769.1,659.1 760.9,662.4" fill="#fefefe" fill-opacity="0.9"/>
<line x1="815.2" y1="655.5" x2="817.6" y2="651.9" stroke="#fefefe" stroke-width="0.63" stroke-opacity="0.9" stroke-linecap="round"/><polygon points="817.6,651.9 815.7,662.4 808.5,657.4" fill="#fefefe" fill-opacity="0.9"/>
<line x1="868.7" y1="654.7" x2="872.5" y2="652.6" stroke="#fefefe" stroke-width="0.63" stroke-opacity="0.9" stroke-linecap="round"/><polygon points="872.5,652.6 866.1,661.2 861.9,653.4" fill="#fefefe" fill-opacity="0.9"/>
<line x1="922.8" y1="654.4" x2="926.9" y2="653.0" stroke="#fefefe" stroke-width="0.63" stroke-opacity="0.9" stroke-linecap="round"/><polygon points="926.9,653.0 919.1,660.3 916.3,651.9" fill="#fefefe" fill-opacity="0.9"/>
<line x1="546.3" y1="709.8" x2="544.1" y2="706.1" stroke="#fefefe" stroke-width="0.63" stroke-opacity="0.9" stroke-linecap="round"/><polygon points="544.1,706.1 552.8,712.2 545.3,716.7" fill="#fefefe" fill-opacity="0.9"/>
<line x1="600.1" y1="710.0" x2="598.8" y2="705.9" stroke="#fefefe" stroke-width="0.63" stroke-opacity="0.9" stroke-linecap="round"/><polygon points="598.8,705.9 606.0,713.8 597.6,716.5" fill="#fefefe" fill-opacity="0.9"/>
<line x1="654.2" y1="710.0" x2="653.2" y2="705.8" stroke="#fefefe" stroke-width="0.63" stroke-opacity="0.9" stroke-linecap="round"/><polygon points="653.2,705.8 659.7,714.3 651.1,716.3" fill="#fefefe" fill-opacity="0.9"/>
<line x1="709.1" y1="709.8" x2="706.8" y2="706.1" stroke="#fefefe" stroke-width="0.63" stroke-opacity="0.9" stroke-linecap="round"/><polygon points="706.8,706.1 715.6,712.1 708.2,716.7" fill="#fefefe" fill-opacity="0.9"/>
<line x1="762.6" y1="710.0" x2="761.7" y2="705.8" stroke="#fefefe" stroke-width="0.63" stroke-opacity="0.9" stroke-linecap="round"/><polygon points="761.7,705.8 768.0,714.5 759.4,716.2" fill="#fefefe" fill-opacity="0.9"/>
<line x1="815.7" y1="710.0" x2="817.1" y2="705.9" stroke="#fefefe" stroke-width="0.63" stroke-opacity="0.9" stroke-linecap="round"/><polygon points="817.1,705.9 818.2,716.5 809.9,713.8" fill="#fefefe" fill-opacity="0.9"/>
<line x1="869.2" y1="709.6" x2="872.1" y2="706.3" stroke="#fefefe" stroke-width="0.63" stroke-opacity="0.9" stroke-linecap="round"/><polygon points="872.1,706.3 869.0,716.5 862.4,710.8" fill="#fefefe" fill-opacity="0.9"/>
<line x1="923.1" y1="709.2" x2="926.6" y2="706.7" stroke="#fefefe" stroke-width="0.63" stroke-opacity="0.9" stroke-linecap="round"/><polygon points="926.6,706.7 921.3,715.9 916.1,708.8" fill="#fefefe" fill-opacity="0.9"/>
<line x1="654.8" y1="764.0" x2="652.6" y2="760.3" stroke="#fefefe" stroke-width="0.63" stroke-opacity="0.9" stroke-linecap="round"/><polygon points="652.6,760.3 661.4,766.4 653.8,770.9" fill="#fefefe" fill-opacity="0.9"/>
<line x1="708.9" y1="764.1" x2="707.0" y2="760.2" stroke="#fefefe" stroke-width="0.63" stroke-opacity="0.9" stroke-linecap="round"/><polygon points="707.0,760.2 715.2,767.1 707.2,770.9" fill="#fefefe" fill-opacity="0.9"/>
<line x1="762.5" y1="764.3" x2="761.9" y2="760.0" stroke="#fefefe" stroke-width="0.63" stroke-opacity="0.9" stroke-linecap="round"/><polygon points="761.9,760.0 767.5,769.1 758.8,770.3" fill="#fefefe" fill-opacity="0.9"/>
<line x1="816.0" y1="764.3" x2="816.8" y2="760.0" stroke="#fefefe" stroke-width="0.63" stroke-opacity="0.9" stroke-linecap="round"/><polygon points="816.8,760.0 819.1,770.5 810.5,768.7" fill="#fefefe" fill-opacity="0.9"/>
<line x1="869.6" y1="764.1" x2="871.7" y2="760.3" stroke="#fefefe" stroke-width="0.63" stroke-opacity="0.9" stroke-linecap="round"/><polygon points="871.7,760.3 870.8,770.9 863.1,766.6" fill="#fefefe" fill-opacity="0.9"/>
<line x1="923.4" y1="763.8" x2="926.3" y2="760.6" stroke="#fefefe" stroke-width="0.63" stroke-opacity="0.9" stroke-linecap="round"/><polygon points="926.3,760.6 923.0,770.7 916.5,764.8" fill="#fefefe" fill-opacity="0.9"/>
<line x1="762.4" y1="818.6" x2="761.9" y2="814.2" stroke="#fefefe" stroke-width="0.63" stroke-opacity="0.9" stroke-linecap="round"/><polygon points="761.9,814.2 767.3,823.5 758.6,824.4" fill="#fefefe" fill-opacity="0.9"/>
<line x1="816.1" y1="818.5" x2="816.7" y2="814.3" stroke="#fefefe" stroke-width="0.63" stroke-opacity="0.9" stroke-linecap="round"/><polygon points="816.7,814.3 819.6,824.6 810.9,823.2" fill="#fefefe" fill-opacity="0.9"/>
</svg>