<?xml version="1.0" encoding="UTF-8"?>
<svg xmlns="http://www.w3.org/2000/svg" viewBox="0 0 1000 1000" preserveAspectRatio="none">
<line x1="58.6" y1="55.5" x2="55.5" y2="58.6" stroke="#fefefe" stroke-width="0.63" stroke-opacity="0.9" stroke-linecap="round"/><polygon points="55.5,58.6 59.3,48.6 65.5,54.8" fill="#fefefe" fill-opacity="0.9"/>
<line x1="112.2" y1="55.1" x2="110.3" y2="59.0" stroke="#fefefe" stroke-width="0.63" stroke-opacity="0.9" stroke-linecap="round"/><polygon points="110.3,59.0 110.7,48.3 118.6,52.2" fill="#fefefe" fill-opacity="0.9"/>
<line x1="165.5" y1="54.9" x2="165.6" y2="59.2" stroke="#fefefe" stroke-width="0.63" stroke-opacity="0.9" stroke-linecap="round"/><polygon points="165.6,59.2 161.0,49.5 169.8,49.4" fill="#fefefe" fill-opacity="0.9"/>
<line x1="218.8" y1="55.1" x2="220.8" y2="59.0" stroke="#fefefe" stroke-width="0.63" stroke-opacity="0.9" stroke-linecap="round"/><polygon points="220.8,59.0 212.4,52.3 220.2,48.3" fill="#fefefe" fill-opacity="0.9"/>
<line x1="272.8" y1="55.3" x2="275.2" y2="58.8" stroke="#fefefe" stroke-width="0.63" stroke-opacity="0.9" stroke-linecap="round"/><polygon points="275.2,58.8 266.1,53.3 273.3,48.3" fill="#fefefe" fill-opacity="0.9"/>
<line x1="327.6" y1="55.0" x2="328.8" y2="59.1" stroke="#fefefe" stroke-width="0.63" stroke-opacity="0.9" stroke-linecap="round"/><polygon points="328.8,59.1 321.9,51.0 330.3,48.5" fill="#fefefe" fill-opacity="0.9"/>
<line x1="381.5" y1="55.1" x2="383.4" y2="59.0" stroke="#fefefe" stroke-width="0.63" stroke-opacity="0.9" stroke-linecap="round"/><polygon points="383.4,59.0 375.2,52.2 383.1,48.3" fill="#fefefe" fill-opacity="0.9"/>
<line x1="435.4" y1="55.3" x2="438.0" y2="58.8" stroke="#fefefe" stroke-width="0.63" stroke-opacity="0.9" stroke-linecap="round"/><polygon points="438.0,58.8 428.7,53.5 435.7,48.3" fill="#fefefe" fill-opacity="0.9"/>
<line x1="59.0" y1="110.3" x2="55.1" y2="112.2" stroke="#fefefe" stroke-width="0.63" stroke-opacity="0.9" stroke-linecap="round"/><polygon points="55.1,112.2 61.9,104.0 65.8,111.9" fill="#fefefe" fill-opacity="0.9"/>
<line x1="112.8" y1="109.7" x2="109.7" y2="112.8" stroke="#fefefe" stroke-width="0.63" stroke-opacity="0.9" stroke-linecap="round"/><polygon points="109.7,112.8 113.5,102.8 119.8,109.0" fill="#fefefe" fill-opacity="0.9"/>
<line x1="165.4" y1="109.1" x2="165.6" y2="113.4" stroke="#fefefe" stroke-width="0.63" stroke-opacity="0.9" stroke-linecap="round"/><polygon points="165.6,113.4 160.8,103.9 169.6,103.5" fill="#fefefe" fill-opacity="0.9"/>
<line x1="218.3" y1="109.6" x2="221.2" y2="112.9" stroke="#fefefe" stroke-width="0.63" stroke-opacity="0.9" stroke-linecap="round"/><polygon points="221.2,112.9 211.5,108.4 218.1,102.7" fill="#fefefe" fill-opacity="0.9"/>
<line x1="273.7" y1="109.1" x2="274.3" y2="113.4" stroke="#fefefe" stroke-width="0.63" stroke-opacity="0.9" stroke-linecap="round"/><polygon points="274.3,113.4 268.5,104.5 277.2,103.1" fill="#fefefe" fill-opacity="0.9"/>
<line x1="327.6" y1="109.2" x2="328.9" y2="113.4" stroke="#fefefe" stroke-width="0.63" stroke-opacity="0.9" stroke-linecap="round"/><polygon points="328.9,113.4 321.8,105.3 330.3,102.7" fill="#fefefe" fill-opacity="0.9"/>
<line x1="381.3" y1="109.5" x2="383.7" y2="113.1" stroke="#fefefe" stroke-width="0.63" stroke-opacity="0.9" stroke-linecap="round"/><polygon points="383.7,113.1 374.6,107.4 381.9,102.5" fill="#fefefe" fill-opacity="0.9"/>
<line x1="435.4" y1="109.5" x2="438.0" y2="113.0" stroke="#fefefe" stroke-width="0.63" stroke-opacity="0.9" stroke-linecap="round"/><polygon points="438.0,113.0 428.7,107.7 435.8,102.6" fill="#fefefe" fill-opacity="0.9"/>
<line x1="490.1" y1="109.3" x2="491.8" y2="113.3" stroke="#fefefe" stroke-width="0.63" stroke-opacity="0.9" stroke-linecap="round"/><polygon points="491.8,113.3 484.0,105.9 492.2,102.6" fill="#fefefe" fill-opacity="0.9"/>
<line x1="544.1" y1="109.4" x2="546.3" y2="113.2" stroke="#fefefe" stroke-width="0.63" stroke-opacity="0.9" stroke-linecap="round"/><polygon points="546.3,113.2 537.6,106.9 545.2,102.5" fill="#fefefe" fill-opacity="0.9"/>
<line x1="59.2" y1="165.6" x2="54.9" y2="165.5" stroke="#fefefe" stroke-width="0.63" stroke-opacity="0.9" stroke-linecap="round"/><polygon points="54.9,165.5 64.7,161.3 64.5,170.1" fill="#fefefe" fill-opacity="0.9"/>
<line x1="113.4" y1="165.6" x2="109.1" y2="165.4" stroke="#fefefe" stroke-width="0.63" stroke-opacity="0.9" stroke-linecap="round"/><polygon points="109.1,165.4 119.0,161.4 118.7,170.2" fill="#fefefe" fill-opacity="0.9"/>
<line x1="164.0" y1="167.1" x2="167.0" y2="164.0" stroke="#fefefe" stroke-width="0.63" stroke-opacity="0.9" stroke-linecap="round"/><polygon points="167.0,164.0 163.3,174.0 157.1,167.9" fill="#fefefe" fill-opacity="0.9"/>
<line x1="219.3" y1="163.4" x2="220.2" y2="167.6" stroke="#fefefe" stroke-width="0.63" stroke-opacity="0.9" stroke-linecap="round"/><polygon points="220.2,167.6 213.9,159.0 222.5,157.2" fill="#fefefe" fill-opacity="0.9"/>
<line x1="274.3" y1="163.4" x2="273.7" y2="167.7" stroke="#fefefe" stroke-width="0.63" stroke-opacity="0.9" stroke-linecap="round"/><polygon points="273.7,167.7 270.6,157.4 279.3,158.5" fill="#fefefe" fill-opacity="0.9"/>
<line x1="327.3" y1="163.6" x2="329.2" y2="167.5" stroke="#fefefe" stroke-width="0.63" stroke-opacity="0.9" stroke-linecap="round"/><polygon points="329.2,167.5 321.0,160.5 329.0,156.8" fill="#fefefe" fill-opacity="0.9"/>
<line x1="381.0" y1="163.9" x2="383.9" y2="167.1" stroke="#fefefe" stroke-width="0.63" stroke-opacity="0.9" stroke-linecap="round"/><polygon points="383.9,167.1 374.2,162.7 380.8,156.9" fill="#fefefe" fill-opacity="0.9"/>
<line x1="436.0" y1="163.5" x2="437.4" y2="167.6" stroke="#fefefe" stroke-width="0.63" stroke-opacity="0.9" stroke-linecap="round"/><polygon points="437.4,167.6 430.2,159.7 438.5,156.9" fill="#fefefe" fill-opacity="0.9"/>
<line x1="490.1" y1="163.6" x2="491.9" y2="167.5" stroke="#fefefe" stroke-width="0.63" stroke-opacity="0.9" stroke-linecap="round"/><polygon points="491.9,167.5 483.8,160.5 491.8,156.8" fill="#fefefe" fill-opacity="0.9"/>
<line x1="543.9" y1="163.8" x2="546.5" y2="167.3" stroke="#fefefe" stroke-width="0.63" stroke-opacity="0.9" stroke-linecap="round"/><polygon points="546.5,167.3 537.1,162.1 544.2,156.8" fill="#fefefe" fill-opacity="0.9"/>
<line x1="598.1" y1="163.8" x2="600.7" y2="167.3" stroke="#fefefe" stroke-width="0.63" stroke-opacity="0.9" stroke-linecap="round"/><polygon points="600.7,167.3 591.4,162.1 598.4,156.8" fill="#fefefe" fill-opacity="0.9"/>
<line x1="652.7" y1="163.6" x2="654.6" y2="167.5" stroke="#fefefe" stroke-width="0.63" stroke-opacity="0.9" stroke-linecap="round"/><polygon points="654.6,167.5 646.4,160.7 654.2,156.8" fill="#fefefe" fill-opacity="0.9"/>
<line x1="59.0" y1="220.8" x2="55.1" y2="218.7" stroke="#fefefe" stroke-width="0.63" stroke-opacity="0.9" stroke-linecap="round"/><polygon points="55.1,218.7 65.8,219.4 61.7,227.2" fill="#fefefe" fill-opacity="0.9"/>
<line x1="112.8" y1="221.3" x2="109.8" y2="218.2" stroke="#fefefe" stroke-width="0.63" stroke-opacity="0.9" stroke-linecap="round"/><polygon points="109.8,218.2 119.7,222.2 113.3,228.3" fill="#fefefe" fill-opacity="0.9"/>
<line x1="166.5" y1="221.7" x2="164.5" y2="217.8" stroke="#fefefe" stroke-width="0.63" stroke-opacity="0.9" stroke-linecap="round"/><polygon points="164.5,217.8 172.9,224.5 165.1,228.5" fill="#fefefe" fill-opacity="0.9"/>
<line x1="221.7" y1="218.9" x2="217.8" y2="220.6" stroke="#fefefe" stroke-width="0.63" stroke-opacity="0.9" stroke-linecap="round"/><polygon points="217.8,220.6 224.9,212.7 228.5,220.7" fill="#fefefe" fill-opacity="0.9"/>
<line x1="274.8" y1="217.8" x2="273.2" y2="221.8" stroke="#fefefe" stroke-width="0.63" stroke-opacity="0.9" stroke-linecap="round"/><polygon points="273.2,221.8 272.9,211.1 281.0,214.4" fill="#fefefe" fill-opacity="0.9"/>
<line x1="326.6" y1="218.3" x2="329.9" y2="221.2" stroke="#fefefe" stroke-width="0.63" stroke-opacity="0.9" stroke-linecap="round"/><polygon points="329.9,221.2 319.6,218.0 325.4,211.4" fill="#fefefe" fill-opacity="0.9"/>
<line x1="381.8" y1="217.7" x2="383.2" y2="221.8" stroke="#fefefe" stroke-width="0.63" stroke-opacity="0.9" stroke-linecap="round"/><polygon points="383.2,221.8 375.9,213.9 384.3,211.2" fill="#fefefe" fill-opacity="0.9"/>
<line x1="436.2" y1="217.6" x2="437.2" y2="221.9" stroke="#fefefe" stroke-width="0.63" stroke-opacity="0.9" stroke-linecap="round"/><polygon points="437.2,221.9 430.7,213.4 439.3,211.4" fill="#fefefe" fill-opacity="0.9"/>
<line x1="489.8" y1="217.9" x2="492.1" y2="221.6" stroke="#fefefe" stroke-width="0.63" stroke-opacity="0.9" stroke-linecap="round"/><polygon points="492.1,221.6 483.1,215.8 490.5,211.0" fill="#fefefe" fill-opacity="0.9"/>
<line x1="543.8" y1="218.1" x2="546.6" y2="221.4" stroke="#fefefe" stroke-width="0.63" stroke-opacity="0.9" stroke-linecap="round"/><polygon points="546.6,221.4 536.9,217.0 543.4,211.2" fill="#fefefe" fill-opacity="0.9"/>
<line x1="598.6" y1="217.8" x2="600.3" y2="221.7" stroke="#fefefe" stroke-width="0.63" stroke-opacity="0.9" stroke-linecap="round"/><polygon points="600.3,221.7 592.4,214.6 600.4,211.0" fill="#fefefe" fill-opacity="0.9"/>
<line x1="652.6" y1="217.9" x2="654.8" y2="221.6" stroke="#fefefe" stroke-width="0.63" stroke-opacity="0.9" stroke-linecap="round"/><polygon points="654.8,221.6 646.1,215.3 653.7,211.0" fill="#fefefe" fill-opacity="0.9"/>
<line x1="706.6" y1="218.1" x2="709.3" y2="221.4" stroke="#fefefe" stroke-width="0.63" stroke-opacity="0.9" stroke-linecap="round"/><polygon points="709.3,221.4 699.7,216.6 706.6,211.1" fill="#fefefe" fill-opacity="0.9"/>
<line x1="58.6" y1="275.6" x2="55.5" y2="272.4" stroke="#fefefe" stroke-width="0.63" stroke-opacity="0.9" stroke-linecap="round"/><polygon points="55.5,272.4 65.5,276.4 59.2,282.5" fill="#fefefe" fill-opacity="0.9"/>
<line x1="112.5" y1="275.8" x2="110.1" y2="272.2" stroke="#fefefe" stroke-width="0.63" stroke-opacity="0.9" stroke-linecap="round"/><polygon points="110.1,272.2 119.1,277.9 111.8,282.8" fill="#fefefe" fill-opacity="0.9"/>
<line x1="167.6" y1="274.8" x2="163.5" y2="273.2" stroke="#fefefe" stroke-width="0.63" stroke-opacity="0.9" stroke-linecap="round"/><polygon points="163.5,273.2 174.2,272.5 171.1,280.8" fill="#fefefe" fill-opacity="0.9"/>
<line x1="221.8" y1="274.7" x2="217.7" y2="273.3" stroke="#fefefe" stroke-width="0.63" stroke-opacity="0.9" stroke-linecap="round"/><polygon points="217.7,273.3 228.4,272.2 225.6,280.6" fill="#fefefe" fill-opacity="0.9"/>
<line x1="275.2" y1="275.8" x2="272.8" y2="272.2" stroke="#fefefe" stroke-width="0.63" stroke-opacity="0.9" stroke-linecap="round"/><polygon points="272.8,272.2 281.8,278.0 274.4,282.8" fill="#fefefe" fill-opacity="0.9"/>
<line x1="326.1" y1="274.5" x2="330.3" y2="273.5" stroke="#fefefe" stroke-width="0.63" stroke-opacity="0.9" stroke-linecap="round"/><polygon points="330.3,273.5 321.9,280.1 319.8,271.6" fill="#fefefe" fill-opacity="0.9"/>
<line x1="383.2" y1="272.0" x2="381.7" y2="276.0" stroke="#fefefe" stroke-width="0.63" stroke-opacity="0.9" stroke-linecap="round"/><polygon points="381.7,276.0 381.0,265.3 389.3,268.4" fill="#fefefe" fill-opacity="0.9"/>
<line x1="435.9" y1="272.0" x2="437.5" y2="276.0" stroke="#fefefe" stroke-width="0.63" stroke-opacity="0.9" stroke-linecap="round"/><polygon points="437.5,276.0 429.9,268.5 438.1,265.3" fill="#fefefe" fill-opacity="0.9"/>
<line x1="489.4" y1="272.5" x2="492.5" y2="275.5" stroke="#fefefe" stroke-width="0.63" stroke-opacity="0.9" stroke-linecap="round"/><polygon points="492.5,275.5 482.4,272.0 488.4,265.6" fill="#fefefe" fill-opacity="0.9"/>
<line x1="544.3" y1="272.0" x2="546.1" y2="276.0" stroke="#fefefe" stroke-width="0.63" stroke-opacity="0.9" stroke-linecap="round"/><polygon points="546.1,276.0 538.1,268.9 546.1,265.3" fill="#fefefe" fill-opacity="0.9"/>
<line x1="598.6" y1="272.0" x2="600.3" y2="276.0" stroke="#fefefe" stroke-width="0.63" stroke-opacity="0.9" stroke-linecap="round"/><polygon points="600.3,276.0 592.4,268.8 600.5,265.3" fill="#fefefe" fill-opacity="0.9"/>
<line x1="652.4" y1="272.3" x2="655.0" y2="275.7" stroke="#fefefe" stroke-width="0.63" stroke-opacity="0.9" stroke-linecap="round"/><polygon points="655.0,275.7 645.6,270.6 652.6,265.3" fill="#fefefe" fill-opacity="0.9"/>
<line x1="706.5" y1="272.4" x2="709.4" y2="275.6" stroke="#fefefe" stroke-width="0.63" stroke-opacity="0.9" stroke-linecap="round"/><polygon points="709.4,275.6 699.6,271.3 706.1,265.4" fill="#fefefe" fill-opacity="0.9"/>
<line x1="761.2" y1="272.1" x2="763.2" y2="275.9" stroke="#fefefe" stroke-width="0.63" stroke-opacity="0.9" stroke-linecap="round"/><polygon points="763.2,275.9 754.7,269.3 762.5,265.2" fill="#fefefe" fill-opacity="0.9"/>
<line x1="815.2" y1="272.2" x2="817.6" y2="275.8" stroke="#fefefe" stroke-width="0.63" stroke-opacity="0.9" stroke-linecap="round"/><polygon points="817.6,275.8 808.6,270.0 816.0,265.2" fill="#fefefe" fill-opacity="0.9"/>
<line x1="58.3" y1="330.0" x2="55.8" y2="326.5" stroke="#fefefe" stroke-width="0.63" stroke-opacity="0.9" stroke-linecap="round"/><polygon points="55.8,326.5 65.0,331.9 57.9,337.0" fill="#fefefe" fill-opacity="0.9"/>
<line x1="113.0" y1="329.6" x2="109.6" y2="326.9" stroke="#fefefe" stroke-width="0.63" stroke-opacity="0.9" stroke-linecap="round"/><polygon points="109.6,326.9 119.9,329.6 114.4,336.4" fill="#fefefe" fill-opacity="0.9"/>
<line x1="167.3" y1="329.4" x2="163.7" y2="327.1" stroke="#fefefe" stroke-width="0.63" stroke-opacity="0.9" stroke-linecap="round"/><polygon points="163.7,327.1 174.3,328.7 169.5,336.1" fill="#fefefe" fill-opacity="0.9"/>
<line x1="221.2" y1="329.9" x2="218.3" y2="326.6" stroke="#fefefe" stroke-width="0.63" stroke-opacity="0.9" stroke-linecap="round"/><polygon points="218.3,326.6 228.1,331.0 221.6,336.8" fill="#fefefe" fill-opacity="0.9"/>
<line x1="274.8" y1="330.2" x2="273.2" y2="326.2" stroke="#fefefe" stroke-width="0.63" stroke-opacity="0.9" stroke-linecap="round"/><polygon points="273.2,326.2 281.0,333.6 272.9,336.9" fill="#fefefe" fill-opacity="0.9"/>
<line x1="330.4" y1="328.2" x2="326.1" y2="328.3" stroke="#fefefe" stroke-width="0.63" stroke-opacity="0.9" stroke-linecap="round"/><polygon points="326.1,328.3 335.8,323.8 335.9,332.6" fill="#fefefe" fill-opacity="0.9"/>
<line x1="384.5" y1="327.4" x2="380.5" y2="329.1" stroke="#fefefe" stroke-width="0.63" stroke-opacity="0.9" stroke-linecap="round"/><polygon points="380.5,329.1 387.8,321.2 391.2,329.3" fill="#fefefe" fill-opacity="0.9"/>
<line x1="434.8" y1="327.2" x2="438.6" y2="329.2" stroke="#fefefe" stroke-width="0.63" stroke-opacity="0.9" stroke-linecap="round"/><polygon points="438.6,329.2 428.0,328.7 432.0,320.9" fill="#fefefe" fill-opacity="0.9"/>
<line x1="489.5" y1="326.6" x2="492.4" y2="329.9" stroke="#fefefe" stroke-width="0.63" stroke-opacity="0.9" stroke-linecap="round"/><polygon points="492.4,329.9 482.6,325.5 489.2,319.6" fill="#fefefe" fill-opacity="0.9"/>
<line x1="544.9" y1="326.1" x2="545.5" y2="330.4" stroke="#fefefe" stroke-width="0.63" stroke-opacity="0.9" stroke-linecap="round"/><polygon points="545.5,330.4 539.7,321.4 548.4,320.1" fill="#fefefe" fill-opacity="0.9"/>
<line x1="598.3" y1="326.4" x2="600.6" y2="330.1" stroke="#fefefe" stroke-width="0.63" stroke-opacity="0.9" stroke-linecap="round"/><polygon points="600.6,330.1 591.7,324.2 599.1,319.5" fill="#fefefe" fill-opacity="0.9"/>
<line x1="652.1" y1="326.7" x2="655.2" y2="329.7" stroke="#fefefe" stroke-width="0.63" stroke-opacity="0.9" stroke-linecap="round"/><polygon points="655.2,329.7 645.2,326.2 651.2,319.8" fill="#fefefe" fill-opacity="0.9"/>
<line x1="706.9" y1="326.3" x2="709.0" y2="330.1" stroke="#fefefe" stroke-width="0.63" stroke-opacity="0.9" stroke-linecap="round"/><polygon points="709.0,330.1 700.4,323.6 708.2,319.5" fill="#fefefe" fill-opacity="0.9"/>
<line x1="761.1" y1="326.3" x2="763.2" y2="330.1" stroke="#fefefe" stroke-width="0.63" stroke-opacity="0.9" stroke-linecap="round"/><polygon points="763.2,330.1 754.6,323.7 762.3,319.5" fill="#fefefe" fill-opacity="0.9"/>
<line x1="815.0" y1="326.6" x2="817.8" y2="329.9" stroke="#fefefe" stroke-width="0.63" stroke-opacity="0.9" stroke-linecap="round"/><polygon points="817.8,329.9 808.2,325.2 815.0,319.6" fill="#fefefe" fill-opacity="0.9"/>
<line x1="869.2" y1="326.6" x2="872.1" y2="329.8" stroke="#fefefe" stroke-width="0.63" stroke-opacity="0.9" stroke-linecap="round"/><polygon points="872.1,329.8 862.3,325.6 868.8,319.7" fill="#fefefe" fill-opacity="0.9"/>
<line x1="58.5" y1="384.1" x2="55.6" y2="380.8" stroke="#fefefe" stroke-width="0.63" stroke-opacity="0.9" stroke-linecap="round"/><polygon points="55.6,380.8 65.3,385.3 58.7,391.1" fill="#fefefe" fill-opacity="0.9"/>
<line x1="113.0" y1="383.8" x2="109.6" y2="381.1" stroke="#fefefe" stroke-width="0.63" stroke-opacity="0.9" stroke-linecap="round"/><polygon points="109.6,381.1 120.0,383.7 114.5,390.6" fill="#fefefe" fill-opacity="0.9"/>
<line x1="167.0" y1="384.1" x2="164.0" y2="380.9" stroke="#fefefe" stroke-width="0.63" stroke-opacity="0.9" stroke-linecap="round"/><polygon points="164.0,380.9 173.9,385.0 167.5,391.0" fill="#fefefe" fill-opacity="0.9"/>
<line x1="220.9" y1="384.3" x2="218.6" y2="380.6" stroke="#fefefe" stroke-width="0.63" stroke-opacity="0.9" stroke-linecap="round"/><polygon points="218.6,380.6 227.4,386.7 219.9,391.3" fill="#fefefe" fill-opacity="0.9"/>
<line x1="275.8" y1="383.7" x2="272.2" y2="381.2" stroke="#fefefe" stroke-width="0.63" stroke-opacity="0.9" stroke-linecap="round"/><polygon points="272.2,381.2 282.7,383.2 277.7,390.4" fill="#fefefe" fill-opacity="0.9"/>
<line x1="330.2" y1="383.5" x2="326.3" y2="381.5" stroke="#fefefe" stroke-width="0.63" stroke-opacity="0.9" stroke-linecap="round"/><polygon points="326.3,381.5 337.0,382.1 332.9,389.9" fill="#fefefe" fill-opacity="0.9"/>
<line x1="383.7" y1="384.3" x2="381.2" y2="380.7" stroke="#fefefe" stroke-width="0.63" stroke-opacity="0.9" stroke-linecap="round"/><polygon points="381.2,380.7 390.4,386.2 383.3,391.2" fill="#fefefe" fill-opacity="0.9"/>
<line x1="436.0" y1="384.5" x2="437.5" y2="380.4" stroke="#fefefe" stroke-width="0.63" stroke-opacity="0.9" stroke-linecap="round"/><polygon points="437.5,380.4 438.2,391.1 430.0,388.1" fill="#fefefe" fill-opacity="0.9"/>
<line x1="492.4" y1="380.8" x2="489.5" y2="384.1" stroke="#fdfdfd" stroke-width="0.63" stroke-opacity="0.9" stroke-linecap="round"/><polygon points="489.5,384.1 492.6,373.9 499.2,379.6" fill="#fdfdfd" fill-opacity="0.9"/>
<line x1="544.7" y1="380.4" x2="545.7" y2="384.6" stroke="#f6f6f6" stroke-width="0.63" stroke-opacity="0.9" stroke-linecap="round"/><polygon points="545.7,384.6 539.3,376.0 547.9,374.1" fill="#f6f6f6" fill-opacity="0.9"/>
<line x1="597.7" y1="381.2" x2="601.2" y2="383.8" stroke="#fefefe" stroke-width="0.63" stroke-opacity="0.9" stroke-linecap="round"/><polygon points="601.2,383.8 590.7,381.3 596.1,374.4" fill="#fefefe" fill-opacity="0.9"/>
<line x1="652.4" y1="380.7" x2="655.0" y2="384.2" stroke="#fefefe" stroke-width="0.63" stroke-opacity="0.9" stroke-linecap="round"/><polygon points="655.0,384.2 645.6,379.0 652.7,373.8" fill="#fefefe" fill-opacity="0.9"/>
<line x1="707.1" y1="380.5" x2="708.7" y2="384.5" stroke="#fefefe" stroke-width="0.63" stroke-opacity="0.9" stroke-linecap="round"/><polygon points="708.7,384.5 701.0,377.1 709.2,373.8" fill="#fefefe" fill-opacity="0.9"/>
<line x1="760.9" y1="380.8" x2="763.5" y2="384.2" stroke="#fefefe" stroke-width="0.63" stroke-opacity="0.9" stroke-linecap="round"/><polygon points="763.5,384.2 754.1,379.1 761.1,373.8" fill="#fefefe" fill-opacity="0.9"/>
<line x1="814.8" y1="381.0" x2="818.0" y2="384.0" stroke="#fefefe" stroke-width="0.63" stroke-opacity="0.9" stroke-linecap="round"/><polygon points="818.0,384.0 807.9,380.4 814.0,374.0" fill="#fefefe" fill-opacity="0.9"/>
<line x1="869.5" y1="380.6" x2="871.8" y2="384.3" stroke="#fefefe" stroke-width="0.63" stroke-opacity="0.9" stroke-linecap="round"/><polygon points="871.8,384.3 862.9,378.3 870.5,373.7" fill="#fefefe" fill-opacity="0.9"/>
<line x1="923.7" y1="380.7" x2="926.1" y2="384.3" stroke="#fefefe" stroke-width="0.63" stroke-opacity="0.9" stroke-linecap="round"/><polygon points="926.1,384.3 917.1,378.5 924.5,373.7" fill="#fefefe" fill-opacity="0.9"/>
<line x1="112.8" y1="438.3" x2="109.8" y2="435.1" stroke="#fefefe" stroke-width="0.63" stroke-opacity="0.9" stroke-linecap="round"/><polygon points="109.8,435.1 119.7,439.2 113.3,445.3" fill="#fefefe" fill-opacity="0.9"/>
<line x1="166.7" y1="438.5" x2="164.3" y2="434.9" stroke="#fefefe" stroke-width="0.63" stroke-opacity="0.9" stroke-linecap="round"/><polygon points="164.3,434.9 173.4,440.5 166.2,445.5" fill="#fefefe" fill-opacity="0.9"/>
<line x1="221.2" y1="438.4" x2="218.3" y2="435.1" stroke="#fefefe" stroke-width="0.63" stroke-opacity="0.9" stroke-linecap="round"/><polygon points="218.3,435.1 228.1,439.5 221.5,445.3" fill="#fefefe" fill-opacity="0.9"/>
<line x1="275.7" y1="438.0" x2="272.3" y2="435.4" stroke="#fefefe" stroke-width="0.63" stroke-opacity="0.9" stroke-linecap="round"/><polygon points="272.3,435.4 282.7,437.7 277.5,444.8" fill="#fefefe" fill-opacity="0.9"/>
<line x1="329.7" y1="438.4" x2="326.8" y2="435.1" stroke="#fefefe" stroke-width="0.63" stroke-opacity="0.9" stroke-linecap="round"/><polygon points="326.8,435.1 336.5,439.6 329.9,445.3" fill="#fefefe" fill-opacity="0.9"/>
<line x1="383.3" y1="438.7" x2="381.7" y2="434.7" stroke="#fefefe" stroke-width="0.63" stroke-opacity="0.9" stroke-linecap="round"/><polygon points="381.7,434.7 389.4,442.1 381.3,445.4" fill="#fefefe" fill-opacity="0.9"/>
<line x1="438.7" y1="437.6" x2="434.7" y2="435.8" stroke="#fefefe" stroke-width="0.63" stroke-opacity="0.9" stroke-linecap="round"/><polygon points="434.7,435.8 445.4,435.8 441.8,443.8" fill="#fefefe" fill-opacity="0.9"/>
<line x1="493.1" y1="437.1" x2="488.8" y2="436.3" stroke="#f4f4f4" stroke-width="0.63" stroke-opacity="0.9" stroke-linecap="round"/><polygon points="488.8,436.3 499.2,433.8 497.6,442.4" fill="#f4f4f4" fill-opacity="0.9"/>
<line x1="541.6" y1="439.5" x2="548.8" y2="433.9" stroke="#c9c9c9" stroke-width="0.63" stroke-opacity="0.9" stroke-linecap="round"/><polygon points="548.8,433.9 543.8,443.4 538.4,436.5" fill="#c9c9c9" fill-opacity="0.9"/>
<line x1="597.3" y1="436.3" x2="601.6" y2="437.1" stroke="#fbfbfb" stroke-width="0.63" stroke-opacity="0.9" stroke-linecap="round"/><polygon points="601.6,437.1 591.2,439.7 592.7,431.1" fill="#fbfbfb" fill-opacity="0.9"/>
<line x1="653.6" y1="434.6" x2="653.8" y2="438.9" stroke="#fdfdfd" stroke-width="0.63" stroke-opacity="0.9" stroke-linecap="round"/><polygon points="653.8,438.9 649.0,429.3 657.7,428.9" fill="#fdfdfd" fill-opacity="0.9"/>
<line x1="706.8" y1="434.9" x2="709.0" y2="438.6" stroke="#fefefe" stroke-width="0.63" stroke-opacity="0.9" stroke-linecap="round"/><polygon points="709.0,438.6 700.2,432.5 707.8,427.9" fill="#fefefe" fill-opacity="0.9"/>
<line x1="760.5" y1="435.3" x2="763.8" y2="438.1" stroke="#fefefe" stroke-width="0.63" stroke-opacity="0.9" stroke-linecap="round"/><polygon points="763.8,438.1 753.5,435.2 759.2,428.5" fill="#fefefe" fill-opacity="0.9"/>
<line x1="815.1" y1="435.0" x2="817.7" y2="438.5" stroke="#fefefe" stroke-width="0.63" stroke-opacity="0.9" stroke-linecap="round"/><polygon points="817.7,438.5 808.3,433.3 815.3,428.0" fill="#fefefe" fill-opacity="0.9"/>
<line x1="869.6" y1="434.8" x2="871.7" y2="438.6" stroke="#fefefe" stroke-width="0.63" stroke-opacity="0.9" stroke-linecap="round"/><polygon points="871.7,438.6 863.1,432.2 870.9,427.9" fill="#fefefe" fill-opacity="0.9"/>
<line x1="923.5" y1="435.1" x2="926.3" y2="438.4" stroke="#fefefe" stroke-width="0.63" stroke-opacity="0.9" stroke-linecap="round"/><polygon points="926.3,438.4 916.6,433.7 923.4,428.1" fill="#fefefe" fill-opacity="0.9"/>
<line x1="166.8" y1="492.7" x2="164.3" y2="489.2" stroke="#fefefe" stroke-width="0.63" stroke-opacity="0.9" stroke-linecap="round"/><polygon points="164.3,489.2 173.5,494.6 166.3,499.7" fill="#fefefe" fill-opacity="0.9"/>
<line x1="221.4" y1="492.4" x2="218.1" y2="489.5" stroke="#fefefe" stroke-width="0.63" stroke-opacity="0.9" stroke-linecap="round"/><polygon points="218.1,489.5 228.4,492.7 222.6,499.3" fill="#fefefe" fill-opacity="0.9"/>
<line x1="275.5" y1="492.6" x2="272.5" y2="489.4" stroke="#fefefe" stroke-width="0.63" stroke-opacity="0.9" stroke-linecap="round"/><polygon points="272.5,489.4 282.4,493.6 275.9,499.5" fill="#fefefe" fill-opacity="0.9"/>
<line x1="329.3" y1="492.8" x2="327.1" y2="489.1" stroke="#fefefe" stroke-width="0.63" stroke-opacity="0.9" stroke-linecap="round"/><polygon points="327.1,489.1 335.9,495.3 328.3,499.7" fill="#fefefe" fill-opacity="0.9"/>
<line x1="383.9" y1="492.6" x2="381.0" y2="489.3" stroke="#fefefe" stroke-width="0.63" stroke-opacity="0.9" stroke-linecap="round"/><polygon points="381.0,489.3 390.8,493.8 384.2,499.6" fill="#fefefe" fill-opacity="0.9"/>
<line x1="438.5" y1="492.2" x2="434.9" y2="489.8" stroke="#fefefe" stroke-width="0.63" stroke-opacity="0.9" stroke-linecap="round"/><polygon points="434.9,489.8 445.5,491.5 440.6,498.8" fill="#fefefe" fill-opacity="0.9"/>
<line x1="492.2" y1="492.7" x2="489.7" y2="489.2" stroke="#fefefe" stroke-width="0.63" stroke-opacity="0.9" stroke-linecap="round"/><polygon points="489.7,489.2 499.0,494.5 491.9,499.7" fill="#fefefe" fill-opacity="0.9"/>
<line x1="545.1" y1="493.1" x2="545.3" y2="488.8" stroke="#fdfdfd" stroke-width="0.63" stroke-opacity="0.9" stroke-linecap="round"/><polygon points="545.3,488.8 549.3,498.7 540.5,498.4" fill="#fdfdfd" fill-opacity="0.9"/>
<line x1="601.5" y1="490.4" x2="597.4" y2="491.6" stroke="#f3f3f3" stroke-width="0.63" stroke-opacity="0.9" stroke-linecap="round"/><polygon points="597.4,491.6 605.5,484.6 608.0,493.1" fill="#f3f3f3" fill-opacity="0.9"/>
<line x1="655.4" y1="482.7" x2="652.0" y2="499.2" stroke="#9c9c9c" stroke-width="0.63" stroke-opacity="0.9" stroke-linecap="round"/><polygon points="652.0,499.2 649.7,488.7 658.3,490.5" fill="#9c9c9c" fill-opacity="0.9"/>
<line x1="706.0" y1="489.9" x2="709.8" y2="492.0" stroke="#f1f1f1" stroke-width="0.63" stroke-opacity="0.9" stroke-linecap="round"/><polygon points="709.8,492.0 699.1,491.0 703.5,483.4" fill="#f1f1f1" fill-opacity="0.9"/>
<line x1="760.4" y1="489.7" x2="763.9" y2="492.2" stroke="#fefefe" stroke-width="0.63" stroke-opacity="0.9" stroke-linecap="round"/><polygon points="763.9,492.2 753.4,490.2 758.5,483.0" fill="#fefefe" fill-opacity="0.9"/>
<line x1="815.6" y1="488.9" x2="817.2" y2="493.0" stroke="#fefefe" stroke-width="0.63" stroke-opacity="0.9" stroke-linecap="round"/><polygon points="817.2,493.0 809.6,485.4 817.8,482.3" fill="#fefefe" fill-opacity="0.9"/>
<line x1="869.3" y1="489.2" x2="872.0" y2="492.7" stroke="#fefefe" stroke-width="0.63" stroke-opacity="0.9" stroke-linecap="round"/><polygon points="872.0,492.7 862.5,487.6 869.5,482.3" fill="#fefefe" fill-opacity="0.9"/>
<line x1="923.2" y1="489.6" x2="926.6" y2="492.3" stroke="#fefefe" stroke-width="0.63" stroke-opacity="0.9" stroke-linecap="round"/><polygon points="926.6,492.3 916.2,489.6 921.8,482.8" fill="#fefefe" fill-opacity="0.9"/>
<line x1="221.2" y1="546.8" x2="218.3" y2="543.6" stroke="#fefefe" stroke-width="0.63" stroke-opacity="0.9" stroke-linecap="round"/><polygon points="218.3,543.6 228.1,547.8 221.7,553.8" fill="#fefefe" fill-opacity="0.9"/>
<line x1="275.2" y1="547.0" x2="272.8" y2="543.4" stroke="#fefefe" stroke-width="0.63" stroke-opacity="0.9" stroke-linecap="round"/><polygon points="272.8,543.4 281.9,549.0 274.7,553.9" fill="#fefefe" fill-opacity="0.9"/>
<line x1="329.4" y1="547.0" x2="327.0" y2="543.4" stroke="#fefefe" stroke-width="0.63" stroke-opacity="0.9" stroke-linecap="round"/><polygon points="327.0,543.4 336.1,549.1 328.8,554.0" fill="#fefefe" fill-opacity="0.9"/>
<line x1="384.1" y1="546.6" x2="380.8" y2="543.8" stroke="#fefefe" stroke-width="0.63" stroke-opacity="0.9" stroke-linecap="round"/><polygon points="380.8,543.8 391.1,546.8 385.4,553.5" fill="#fefefe" fill-opacity="0.9"/>
<line x1="438.1" y1="546.9" x2="435.3" y2="543.5" stroke="#fefefe" stroke-width="0.63" stroke-opacity="0.9" stroke-linecap="round"/><polygon points="435.3,543.5 445.0,548.1 438.3,553.8" fill="#fefefe" fill-opacity="0.9"/>
<line x1="491.8" y1="547.2" x2="490.1" y2="543.2" stroke="#fefefe" stroke-width="0.63" stroke-opacity="0.9" stroke-linecap="round"/><polygon points="490.1,543.2 498.0,550.4 489.9,553.9" fill="#fefefe" fill-opacity="0.9"/>
<line x1="546.7" y1="546.8" x2="543.7" y2="543.6" stroke="#fefefe" stroke-width="0.63" stroke-opacity="0.9" stroke-linecap="round"/><polygon points="543.7,543.6 553.6,547.8 547.1,553.8" fill="#fefefe" fill-opacity="0.9"/>
<line x1="601.4" y1="546.2" x2="597.5" y2="544.2" stroke="#fafafa" stroke-width="0.63" stroke-opacity="0.9" stroke-linecap="round"/><polygon points="597.5,544.2 608.2,544.6 604.3,552.5" fill="#fafafa" fill-opacity="0.9"/>
<line x1="655.4" y1="553.3" x2="651.9" y2="537.1" stroke="#9d9d9d" stroke-width="0.63" stroke-opacity="0.9" stroke-linecap="round"/><polygon points="651.9,537.1 658.3,545.7 649.7,547.6" fill="#9d9d9d" fill-opacity="0.9"/>
<line x1="705.5" y1="546.5" x2="710.4" y2="543.9" stroke="#dedede" stroke-width="0.63" stroke-opacity="0.9" stroke-linecap="round"/><polygon points="710.4,543.9 703.8,552.4 699.7,544.6" fill="#dedede" fill-opacity="0.9"/>
<line x1="762.4" y1="543.0" x2="761.9" y2="547.4" stroke="#fcfcfc" stroke-width="0.63" stroke-opacity="0.9" stroke-linecap="round"/><polygon points="761.9,547.4 758.6,537.2 767.3,538.1" fill="#fcfcfc" fill-opacity="0.9"/>
<line x1="815.4" y1="543.3" x2="817.4" y2="547.1" stroke="#fdfdfd" stroke-width="0.63" stroke-opacity="0.9" stroke-linecap="round"/><polygon points="817.4,547.1 808.9,540.7 816.6,536.4" fill="#fdfdfd" fill-opacity="0.9"/>
<line x1="868.9" y1="544.0" x2="872.4" y2="546.4" stroke="#fefefe" stroke-width="0.63" stroke-opacity="0.9" stroke-linecap="round"/><polygon points="872.4,546.4 861.9,544.4 866.9,537.2" fill="#fefefe" fill-opacity="0.9"/>
<line x1="922.9" y1="544.3" x2="926.9" y2="546.1" stroke="#fefefe" stroke-width="0.63" stroke-opacity="0.9" stroke-linecap="round"/><polygon points="926.9,546.1 916.2,546.2 919.7,538.2" fill="#fefefe" fill-opacity="0.9"/>
<line x1="329.8" y1="601.0" x2="326.7" y2="597.9" stroke="#fefefe" stroke-width="0.63" stroke-opacity="0.9" stroke-linecap="round"/><polygon points="326.7,597.9 336.7,601.7 330.5,607.9" fill="#fefefe" fill-opacity="0.9"/>
<line x1="383.9" y1="601.1" x2="381.0" y2="597.8" stroke="#fefefe" stroke-width="0.63" stroke-opacity="0.9" stroke-linecap="round"/><polygon points="381.0,597.8 390.8,602.2 384.2,608.0" fill="#fefefe" fill-opacity="0.9"/>
<line x1="437.8" y1="601.3" x2="435.6" y2="597.6" stroke="#fefefe" stroke-width="0.63" stroke-opacity="0.9" stroke-linecap="round"/><polygon points="435.6,597.6 444.4,603.7 436.8,608.2" fill="#fefefe" fill-opacity="0.9"/>
<line x1="492.1" y1="601.3" x2="489.8" y2="597.6" stroke="#fefefe" stroke-width="0.63" stroke-opacity="0.9" stroke-linecap="round"/><polygon points="489.8,597.6 498.6,603.7 491.1,608.2" fill="#fefefe" fill-opacity="0.9"/>
<line x1="546.9" y1="600.8" x2="543.5" y2="598.1" stroke="#fefefe" stroke-width="0.63" stroke-opacity="0.9" stroke-linecap="round"/><polygon points="543.5,598.1 553.9,600.8 548.4,607.6" fill="#fefefe" fill-opacity="0.9"/>
<line x1="600.7" y1="601.2" x2="598.2" y2="597.7" stroke="#fefefe" stroke-width="0.63" stroke-opacity="0.9" stroke-linecap="round"/><polygon points="598.2,597.7 607.5,603.0 600.4,608.2" fill="#fefefe" fill-opacity="0.9"/>
<line x1="654.0" y1="601.6" x2="653.4" y2="597.3" stroke="#fefefe" stroke-width="0.63" stroke-opacity="0.9" stroke-linecap="round"/><polygon points="653.4,597.3 659.0,606.4 650.3,607.5" fill="#fefefe" fill-opacity="0.9"/>
<line x1="709.7" y1="600.7" x2="706.1" y2="598.2" stroke="#fdfdfd" stroke-width="0.63" stroke-opacity="0.9" stroke-linecap="round"/><polygon points="706.1,598.2 716.7,600.1 711.8,607.3" fill="#fdfdfd" fill-opacity="0.9"/>
<line x1="765.9" y1="598.3" x2="758.4" y2="600.6" stroke="#d1d1d1" stroke-width="0.63" stroke-opacity="0.9" stroke-linecap="round"/><polygon points="758.4,600.6 766.4,593.5 769.1,601.9" fill="#d1d1d1" fill-opacity="0.9"/>
<line x1="813.7" y1="598.9" x2="819.1" y2="600.0" stroke="#dedede" stroke-width="0.63" stroke-opacity="0.9" stroke-linecap="round"/><polygon points="819.1,600.0 808.6,602.3 810.4,593.7" fill="#dedede" fill-opacity="0.9"/>
<line x1="868.5" y1="599.3" x2="872.8" y2="599.6" stroke="#fefefe" stroke-width="0.63" stroke-opacity="0.9" stroke-linecap="round"/><polygon points="872.8,599.6 862.7,603.2 863.4,594.5" fill="#fefefe" fill-opacity="0.9"/>
<line x1="922.7" y1="599.3" x2="927.0" y2="599.5" stroke="#fefefe" stroke-width="0.63" stroke-opacity="0.9" stroke-linecap="round"/><polygon points="927.0,599.5 917.1,603.5 917.5,594.7" fill="#fefefe" fill-opacity="0.9"/>
<line x1="383.7" y1="655.5" x2="381.3" y2="651.9" stroke="#fefefe" stroke-width="0.63" stroke-opacity="0.9" stroke-linecap="round"/><polygon points="381.3,651.9 390.4,657.5 383.2,662.4" fill="#fefefe" fill-opacity="0.9"/>
<line x1="437.8" y1="655.6" x2="435.7" y2="651.8" stroke="#fefefe" stroke-width="0.63" stroke-opacity="0.9" stroke-linecap="round"/><polygon points="435.7,651.8 444.3,658.1 436.6,662.5" fill="#fefefe" fill-opacity="0.9"/>
<line x1="492.5" y1="655.2" x2="489.4" y2="652.2" stroke="#fefefe" stroke-width="0.63" stroke-opacity="0.9" stroke-linecap="round"/><polygon points="489.4,652.2 499.4,655.9 493.3,662.1" fill="#fefefe" fill-opacity="0.9"/>
<line x1="546.6" y1="655.3" x2="543.8" y2="652.0" stroke="#fefefe" stroke-width="0.63" stroke-opacity="0.9" stroke-linecap="round"/><polygon points="543.8,652.0 553.4,656.7 546.7,662.3" fill="#fefefe" fill-opacity="0.9"/>
<line x1="600.4" y1="655.6" x2="598.5" y2="651.7" stroke="#fefefe" stroke-width="0.63" stroke-opacity="0.9" stroke-linecap="round"/><polygon points="598.5,651.7 606.6,658.7 598.6,662.4" fill="#fefefe" fill-opacity="0.9"/>
<line x1="654.7" y1="655.6" x2="652.7" y2="651.7" stroke="#fefefe" stroke-width="0.63" stroke-opacity="0.9" stroke-linecap="round"/><polygon points="652.7,651.7 661.0,658.4 653.2,662.4" fill="#fefefe" fill-opacity="0.9"/>
<line x1="709.7" y1="654.9" x2="706.2" y2="652.4" stroke="#fefefe" stroke-width="0.63" stroke-opacity="0.9" stroke-linecap="round"/><polygon points="706.2,652.4 716.7,654.5 711.6,661.7" fill="#fefefe" fill-opacity="0.9"/>
<line x1="763.0" y1="655.7" x2="761.3" y2="651.7" stroke="#f9f9f9" stroke-width="0.63" stroke-opacity="0.9" stroke-linecap="round"/><polygon points="761.3,651.7 769.3,658.8 761.3,662.4" fill="#f9f9f9" fill-opacity="0.9"/>
<line x1="815.2" y1="655.5" x2="817.6" y2="651.9" stroke="#fcfcfc" stroke-width="0.63" stroke-opacity="0.9" stroke-linecap="round"/><polygon points="817.6,651.9 815.7,662.4 808.5,657.4" fill="#fcfcfc" fill-opacity="0.9"/>
<line x1="868.7" y1="654.7" x2="872.5" y2="652.6" stroke="#fefefe" stroke-width="0.63" stroke-opacity="0.9" stroke-linecap="round"/><polygon points="872.5,652.6 866.1,661.2 861.9,653.4" fill="#fefefe" fill-opacity="0.9"/>
<line x1="922.8" y1="654.4" x2="926.9" y2="653.0" stroke="#fefefe" stroke-width="0.63" stroke-opacity="0.9" stroke-linecap="round"/><polygon points="926.9,653.0 919.1,660.3 916.3,651.9" fill="#fefefe" fill-opacity="0.9"/>
<line x1="438.1" y1="709.6" x2="435.3" y2="706.3" stroke="#fefefe" stroke-width="0.63" stroke-opacity="0.9" stroke-linecap="round"/><polygon points="435.3,706.3 445.0,710.9 438.2,716.6" fill="#fefefe" fill-opacity="0.9"/>
<line x1="492.4" y1="709.6" x2="489.5" y2="706.3" stroke="#fefefe" stroke-width="0.63" stroke-opacity="0.9" stroke-linecap="round"/><polygon points="489.5,706.3 499.3,710.8 492.6,716.5" fill="#fefefe" fill-opacity="0.9"/>
<line x1="546.3" y1="709.8" x2="544.1" y2="706.1" stroke="#fefefe" stroke-width="0.63" stroke-opacity="0.9" stroke-linecap="round"/><polygon points="544.1,706.1 552.9,712.1 545.4,716.7" fill="#fefefe" fill-opacity="0.9"/>
<line x1="600.4" y1="709.9" x2="598.5" y2="706.0" stroke="#fefefe" stroke-width="0.63" stroke-opacity="0.9" stroke-linecap="round"/><polygon points="598.5,706.0 606.7,712.9 598.7,716.7" fill="#fefefe" fill-opacity="0.9"/>
<line x1="655.2" y1="709.4" x2="652.1" y2="706.4" stroke="#fefefe" stroke-width="0.63" stroke-opacity="0.9" stroke-linecap="round"/><polygon points="652.1,706.4 662.2,710.1 656.1,716.4" fill="#fefefe" fill-opacity="0.9"/>
<line x1="709.2" y1="709.7" x2="706.6" y2="706.2" stroke="#fefefe" stroke-width="0.63" stroke-opacity="0.9" stroke-linecap="round"/><polygon points="706.6,706.2 716.0,711.4 708.9,716.6" fill="#fefefe" fill-opacity="0.9"/>
<line x1="762.6" y1="710.0" x2="761.7" y2="705.8" stroke="#fefefe" stroke-width="0.63" stroke-opacity="0.9" stroke-linecap="round"/><polygon points="761.7,705.8 768.0,714.4 759.4,716.3" fill="#fefefe" fill-opacity="0.9"/>
<line x1="815.7" y1="710.0" x2="817.1" y2="705.9" stroke="#fefefe" stroke-width="0.63" stroke-opacity="0.9" stroke-linecap="round"/><polygon points="817.1,705.9 818.2,716.5 809.9,713.8" fill="#fefefe" fill-opacity="0.9"/>
<line x1="869.2" y1="709.6" x2="872.1" y2="706.3" stroke="#fefefe" stroke-width="0.63" stroke-opacity="0.9" stroke-linecap="round"/><polygon points="872.1,706.3 869.0,716.5 862.4,710.8" fill="#fefefe" fill-opacity="0.9"/>
<line x1="923.1" y1="709.2" x2="926.6" y2="706.7" stroke="#fefefe" stroke-width="0.63" stroke-opacity="0.9" stroke-linecap="round"/><polygon points="926.6,706.7 921.3,715.9 916.1,708.8" fill="#fefefe" fill-opacity="0.9"/>
<line x1="546.2" y1="764.1" x2="544.2" y2="760.2" stroke="#fefefe" stroke-width="0.63" stroke-opacity="0.9" stroke-linecap="round"/><polygon points="544.2,760.2 552.6,766.8 544.8,770.9" fill="#fefefe" fill-opacity="0.9"/>
<line x1="600.8" y1="763.8" x2="598.1" y2="760.5" stroke="#fefefe" stroke-width="0.63" stroke-opacity="0.9" stroke-linecap="round"/><polygon points="598.1,760.5 607.7,765.2 600.9,770.8" fill="#fefefe" fill-opacity="0.9"/>
<line x1="655.1" y1="763.8" x2="652.3" y2="760.5" stroke="#fefefe" stroke-width="0.63" stroke-opacity="0.9" stroke-linecap="round"/><polygon points="652.3,760.5 661.9,765.3 655.1,770.8" fill="#fefefe" fill-opacity="0.9"/>
<line x1="708.9" y1="764.1" x2="707.0" y2="760.2" stroke="#fefefe" stroke-width="0.63" stroke-opacity="0.9" stroke-linecap="round"/><polygon points="707.0,760.2 715.2,767.1 707.3,770.9" fill="#fefefe" fill-opacity="0.9"/>
<line x1="762.5" y1="764.3" x2="761.9" y2="760.0" stroke="#fefefe" stroke-width="0.63" stroke-opacity="0.9" stroke-linecap="round"/><polygon points="761.9,760.0 767.5,769.1 758.8,770.3" fill="#fefefe" fill-opacity="0.9"/>
<line x1="816.0" y1="764.3" x2="816.8" y2="760.0" stroke="#fefefe" stroke-width="0.63" stroke-opacity="0.9" stroke-linecap="round"/><polygon points="816.8,760.0 819.1,770.5 810.5,768.7" fill="#fefefe" fill-opacity="0.9"/>
<line x1="869.6" y1="764.1" x2="871.7" y2="760.3" stroke="#fefefe" stroke-width="0.63" stroke-opacity="0.9" stroke-linecap="round"/><polygon points="871.7,760.3 870.8,770.9 863.1,766.6" fill="#fefefe" fill-opacity="0.9"/>
<line x1="923.4" y1="763.8" x2="926.3" y2="760.6" stroke="#fefefe" stroke-width="0.63" stroke-opacity="0.9" stroke-linecap="round"/><polygon points="926.3,760.6 923.0,770.7 916.5,764.8" fill="#fefefe" fill-opacity="0.9"/>
<line x1="600.8" y1="818.1" x2="598.0" y2="814.7" stroke="#fefefe" stroke-width="0.63" stroke-opacity="0.9" stroke-linecap="round"/><polygon points="598.0,814.7 607.7,819.4 601.0,825.0" fill="#fefefe" fill-opacity="0.9"/>
<line x1="654.8" y1="818.2" x2="652.5" y2="814.6" stroke="#fefefe" stroke-width="0.63" stroke-opacity="0.9" stroke-linecap="round"/><polygon points="652.5,814.6 661.4,820.6 653.9,825.2" fill="#fefefe" fill-opacity="0.9"/>
<line x1="708.7" y1="818.4" x2="707.2" y2="814.4" stroke="#fefefe" stroke-width="0.63" stroke-opacity="0.9" stroke-linecap="round"/><polygon points="707.2,814.4 714.6,822.1 706.4,825.0" fill="#fefefe" fill-opacity="0.9"/>
<line x1="762.4" y1="818.6" x2="761.9" y2="814.2" stroke="#fefefe" stroke-width="0.63" stroke-opacity="0.9" stroke-linecap="round"/><polygon points="761.9,814.2 767.3,823.5 758.6,824.4" fill="#fefefe" fill-opacity="0.9"/>
<line x1="816.1" y1="818.5" x2="816.7" y2="814.3" stroke="#fefefe" stroke-width="0.63" stroke-opacity="0.9" stroke-linecap="round"/><polygon points="816.7,814.3 819.6,824.6 810.9,823.2" fill="#fefefe" fill-opacity="0.9"/>
<line x1="869.8" y1="818.4" x2="871.5" y2="814.4" stroke="#fefefe" stroke-width="0.63" stroke-opacity="0.9" stroke-linecap="round"/><polygon points="871.5,814.4 871.8,825.1 863.7,821.7" fill="#fefefe" fill-opacity="0.9"/>
<line x1="923.7" y1="818.2" x2="926.1" y2="814.6" stroke="#fefefe" stroke-width="0.63" stroke-opacity="0.9" stroke-linecap="round"/><polygon points="926.1,814.6 924.3,825.2 917.0,820.2" fill="#fefefe" fill-opacity="0.9"/>
<line x1="708.5" y1="872.7" x2="707.3" y2="868.6" stroke="#fefefe" stroke-width="0.63" stroke-opacity="0.9" stroke-linecap="round"/><polygon points="707.3,868.6 714.2,876.7 705.8,879.1" fill="#fefefe" fill-opacity="0.9"/>
<line x1="762.3" y1="872.8" x2="762.0" y2="868.5" stroke="#fefefe" stroke-width="0.63" stroke-opacity="0.9" stroke-linecap="round"/><polygon points="762.0,868.5 767.2,877.9 758.4,878.6" fill="#fefefe" fill-opacity="0.9"/>
<line x1="816.1" y1="872.8" x2="816.7" y2="868.5" stroke="#fefefe" stroke-width="0.63" stroke-opacity="0.9" stroke-linecap="round"/><polygon points="816.7,868.5 819.8,878.7 811.1,877.6" fill="#fefefe" fill-opacity="0.9"/>
<line x1="870.0" y1="872.7" x2="871.3" y2="868.6" stroke="#fefefe" stroke-width="0.63" stroke-opacity="0.9" stroke-linecap="round"/><polygon points="871.3,868.6 872.4,879.2 864.1,876.5" fill="#fefefe" fill-opacity="0.9"/>
</svg>