<?xml version="1.0" encoding="UTF-8"?>
<svg xmlns="http://www.w3.org/2000/svg" viewBox="0 0 1000 1000" preserveAspectRatio="none">
<line x1="58.6" y1="55.5" x2="55.5" y2="58.6" stroke="#fefefe" stroke-width="0.63" stroke-opacity="0.9" stroke-linecap="round"/><polygon points="55.5,58.6 59.3,48.6 65.5,54.8" fill="#fefefe" fill-opacity="0.9"/>
<line x1="112.2" y1="55.1" x2="110.3" y2="59.0" stroke="#fefefe" stroke-width="0.63" stroke-opacity="0.9" stroke-linecap="round"/><polygon points="110.3,59.0 110.7,48.3 118.6,52.2" fill="#fefefe" fill-opacity="0.9"/>
<line x1="165.5" y1="54.9" x2="165.6" y2="59.2" stroke="#fefefe" stroke-width="0.63" stroke-opacity="0.9" stroke-linecap="round"/><polygon points="165.6,59.2 161.0,49.5 169.8,49.4" fill="#fefefe" fill-opacity="0.9"/>
<line x1="218.7" y1="55.1" x2="220.8" y2="59.0" stroke="#fefefe" stroke-width="0.63" stroke-opacity="0.9" stroke-linecap="round"/><polygon points="220.8,59.0 212.3,52.4 220.1,48.3" fill="#fefefe" fill-opacity="0.9"/>
<line x1="272.6" y1="55.4" x2="275.4" y2="58.7" stroke="#fefefe" stroke-width="0.63" stroke-opacity="0.9" stroke-linecap="round"/><polygon points="275.4,58.7 265.7,54.3 272.2,48.5" fill="#fefefe" fill-opacity="0.9"/>
<line x1="327.4" y1="55.0" x2="329.1" y2="59.0" stroke="#fefefe" stroke-width="0.63" stroke-opacity="0.9" stroke-linecap="round"/><polygon points="329.1,59.0 321.2,51.8 329.3,48.3" fill="#fefefe" fill-opacity="0.9"/>
<line x1="381.5" y1="55.1" x2="383.4" y2="59.0" stroke="#fefefe" stroke-width="0.63" stroke-opacity="0.9" stroke-linecap="round"/><polygon points="383.4,59.0 375.2,52.2 383.0,48.3" fill="#fefefe" fill-opacity="0.9"/>
<line x1="435.4" y1="55.3" x2="438.0" y2="58.8" stroke="#fefefe" stroke-width="0.63" stroke-opacity="0.9" stroke-linecap="round"/><polygon points="438.0,58.8 428.6,53.6 435.6,48.3" fill="#fefefe" fill-opacity="0.9"/>
<line x1="489.6" y1="55.4" x2="492.3" y2="58.7" stroke="#fefefe" stroke-width="0.63" stroke-opacity="0.9" stroke-linecap="round"/><polygon points="492.3,58.7 482.8,53.9 489.6,48.4" fill="#fefefe" fill-opacity="0.9"/>
<line x1="59.0" y1="110.3" x2="55.1" y2="112.2" stroke="#fefefe" stroke-width="0.63" stroke-opacity="0.9" stroke-linecap="round"/><polygon points="55.1,112.2 61.9,104.0 65.8,111.9" fill="#fefefe" fill-opacity="0.9"/>
<line x1="112.8" y1="109.7" x2="109.7" y2="112.8" stroke="#fefefe" stroke-width="0.63" stroke-opacity="0.9" stroke-linecap="round"/><polygon points="109.7,112.8 113.5,102.8 119.8,109.0" fill="#fefefe" fill-opacity="0.9"/>
<line x1="165.4" y1="109.1" x2="165.6" y2="113.4" stroke="#fefefe" stroke-width="0.63" stroke-opacity="0.9" stroke-linecap="round"/><polygon points="165.6,113.4 160.8,103.9 169.6,103.5" fill="#fefefe" fill-opacity="0.9"/>
<line x1="218.2" y1="109.7" x2="221.3" y2="112.8" stroke="#fefefe" stroke-width="0.63" stroke-opacity="0.9" stroke-linecap="round"/><polygon points="221.3,112.8 211.3,109.0 217.5,102.8" fill="#fefefe" fill-opacity="0.9"/>
<line x1="273.0" y1="109.4" x2="275.0" y2="113.2" stroke="#fefefe" stroke-width="0.63" stroke-opacity="0.9" stroke-linecap="round"/><polygon points="275.0,113.2 266.6,106.6 274.3,102.5" fill="#fefefe" fill-opacity="0.9"/>
<line x1="327.6" y1="109.2" x2="328.9" y2="113.3" stroke="#fefefe" stroke-width="0.63" stroke-opacity="0.9" stroke-linecap="round"/><polygon points="328.9,113.3 321.7,105.4 330.1,102.7" fill="#fefefe" fill-opacity="0.9"/>
<line x1="381.3" y1="109.5" x2="383.7" y2="113.1" stroke="#fefefe" stroke-width="0.63" stroke-opacity="0.9" stroke-linecap="round"/><polygon points="383.7,113.1 374.6,107.4 381.9,102.5" fill="#fefefe" fill-opacity="0.9"/>
<line x1="435.3" y1="109.7" x2="438.2" y2="112.9" stroke="#fefefe" stroke-width="0.63" stroke-opacity="0.9" stroke-linecap="round"/><polygon points="438.2,112.9 428.3,108.7 434.8,102.7" fill="#fefefe" fill-opacity="0.9"/>
<line x1="490.0" y1="109.4" x2="492.0" y2="113.2" stroke="#fefefe" stroke-width="0.63" stroke-opacity="0.9" stroke-linecap="round"/><polygon points="492.0,113.2 483.6,106.5 491.4,102.5" fill="#fefefe" fill-opacity="0.9"/>
<line x1="544.1" y1="109.4" x2="546.3" y2="113.1" stroke="#fefefe" stroke-width="0.63" stroke-opacity="0.9" stroke-linecap="round"/><polygon points="546.3,113.1 537.6,107.0 545.1,102.5" fill="#fefefe" fill-opacity="0.9"/>
<line x1="59.2" y1="165.6" x2="54.9" y2="165.5" stroke="#fefefe" stroke-width="0.63" stroke-opacity="0.9" stroke-linecap="round"/><polygon points="54.9,165.5 64.7,161.3 64.5,170.1" fill="#fefefe" fill-opacity="0.9"/>
<line x1="113.4" y1="165.6" x2="109.1" y2="165.4" stroke="#fefefe" stroke-width="0.63" stroke-opacity="0.9" stroke-linecap="round"/><polygon points="109.1,165.4 119.0,161.4 118.7,170.2" fill="#fefefe" fill-opacity="0.9"/>
<line x1="164.0" y1="167.1" x2="167.1" y2="164.0" stroke="#fefefe" stroke-width="0.63" stroke-opacity="0.9" stroke-linecap="round"/><polygon points="167.1,164.0 163.3,174.0 157.0,167.8" fill="#fefefe" fill-opacity="0.9"/>
<line x1="217.7" y1="164.7" x2="221.8" y2="166.3" stroke="#fefefe" stroke-width="0.63" stroke-opacity="0.9" stroke-linecap="round"/><polygon points="221.8,166.3 211.1,166.8 214.3,158.6" fill="#fefefe" fill-opacity="0.9"/>
<line x1="274.1" y1="163.4" x2="273.9" y2="167.7" stroke="#fefefe" stroke-width="0.63" stroke-opacity="0.9" stroke-linecap="round"/><polygon points="273.9,167.7 270.1,157.6 278.9,158.2" fill="#fefefe" fill-opacity="0.9"/>
<line x1="327.3" y1="163.6" x2="329.2" y2="167.5" stroke="#fefefe" stroke-width="0.63" stroke-opacity="0.9" stroke-linecap="round"/><polygon points="329.2,167.5 321.0,160.5 329.0,156.8" fill="#fefefe" fill-opacity="0.9"/>
<line x1="380.9" y1="164.0" x2="384.0" y2="167.0" stroke="#fefefe" stroke-width="0.63" stroke-opacity="0.9" stroke-linecap="round"/><polygon points="384.0,167.0 374.0,163.3 380.1,157.1" fill="#fefefe" fill-opacity="0.9"/>
<line x1="435.6" y1="163.7" x2="437.8" y2="167.4" stroke="#fefefe" stroke-width="0.63" stroke-opacity="0.9" stroke-linecap="round"/><polygon points="437.8,167.4 429.1,161.2 436.6,156.7" fill="#fefefe" fill-opacity="0.9"/>
<line x1="490.0" y1="163.6" x2="491.9" y2="167.5" stroke="#fefefe" stroke-width="0.63" stroke-opacity="0.9" stroke-linecap="round"/><polygon points="491.9,167.5 483.7,160.6 491.7,156.8" fill="#fefefe" fill-opacity="0.9"/>
<line x1="543.9" y1="163.8" x2="546.5" y2="167.2" stroke="#fefefe" stroke-width="0.63" stroke-opacity="0.9" stroke-linecap="round"/><polygon points="546.5,167.2 537.1,162.1 544.1,156.8" fill="#fefefe" fill-opacity="0.9"/>
<line x1="598.0" y1="163.9" x2="600.9" y2="167.1" stroke="#fefefe" stroke-width="0.63" stroke-opacity="0.9" stroke-linecap="round"/><polygon points="600.9,167.1 591.0,163.0 597.5,157.0" fill="#fefefe" fill-opacity="0.9"/>
<line x1="652.6" y1="163.6" x2="654.8" y2="167.4" stroke="#fefefe" stroke-width="0.63" stroke-opacity="0.9" stroke-linecap="round"/><polygon points="654.8,167.4 646.1,161.2 653.7,156.7" fill="#fefefe" fill-opacity="0.9"/>
<line x1="59.0" y1="220.8" x2="55.1" y2="218.7" stroke="#fefefe" stroke-width="0.63" stroke-opacity="0.9" stroke-linecap="round"/><polygon points="55.1,218.7 65.8,219.4 61.7,227.2" fill="#fefefe" fill-opacity="0.9"/>
<line x1="112.8" y1="221.3" x2="109.8" y2="218.2" stroke="#fefefe" stroke-width="0.63" stroke-opacity="0.9" stroke-linecap="round"/><polygon points="109.8,218.2 119.7,222.3 113.2,228.3" fill="#fefefe" fill-opacity="0.9"/>
<line x1="165.8" y1="221.9" x2="165.2" y2="217.6" stroke="#fefefe" stroke-width="0.63" stroke-opacity="0.9" stroke-linecap="round"/><polygon points="165.2,217.6 170.8,226.7 162.1,227.8" fill="#fefefe" fill-opacity="0.9"/>
<line x1="221.8" y1="219.0" x2="217.7" y2="220.5" stroke="#fefefe" stroke-width="0.63" stroke-opacity="0.9" stroke-linecap="round"/><polygon points="217.7,220.5 225.4,213.0 228.4,221.3" fill="#fefefe" fill-opacity="0.9"/>
<line x1="274.8" y1="217.8" x2="273.2" y2="221.8" stroke="#f7f7f7" stroke-width="0.63" stroke-opacity="0.9" stroke-linecap="round"/><polygon points="273.2,221.8 272.8,211.1 280.9,214.4" fill="#f7f7f7" fill-opacity="0.9"/>
<line x1="326.6" y1="218.4" x2="329.9" y2="221.1" stroke="#fdfdfd" stroke-width="0.63" stroke-opacity="0.9" stroke-linecap="round"/><polygon points="329.9,221.1 319.6,218.4 325.1,211.6" fill="#fdfdfd" fill-opacity="0.9"/>
<line x1="380.9" y1="218.2" x2="384.0" y2="221.3" stroke="#fefefe" stroke-width="0.63" stroke-opacity="0.9" stroke-linecap="round"/><polygon points="384.0,221.3 374.0,217.6 380.1,211.3" fill="#fefefe" fill-opacity="0.9"/>
<line x1="436.1" y1="217.7" x2="437.3" y2="221.9" stroke="#fefefe" stroke-width="0.63" stroke-opacity="0.9" stroke-linecap="round"/><polygon points="437.3,221.9 430.5,213.6 438.9,211.3" fill="#fefefe" fill-opacity="0.9"/>
<line x1="489.8" y1="217.9" x2="492.2" y2="221.6" stroke="#fefefe" stroke-width="0.63" stroke-opacity="0.9" stroke-linecap="round"/><polygon points="492.2,221.6 483.1,215.8 490.4,211.0" fill="#fefefe" fill-opacity="0.9"/>
<line x1="543.6" y1="218.2" x2="546.8" y2="221.3" stroke="#fefefe" stroke-width="0.63" stroke-opacity="0.9" stroke-linecap="round"/><polygon points="546.8,221.3 536.7,217.6 542.8,211.3" fill="#fefefe" fill-opacity="0.9"/>
<line x1="598.3" y1="217.9" x2="600.6" y2="221.6" stroke="#fefefe" stroke-width="0.63" stroke-opacity="0.9" stroke-linecap="round"/><polygon points="600.6,221.6 591.6,215.8 599.0,211.0" fill="#fefefe" fill-opacity="0.9"/>
<line x1="652.6" y1="217.9" x2="654.8" y2="221.6" stroke="#fefefe" stroke-width="0.63" stroke-opacity="0.9" stroke-linecap="round"/><polygon points="654.8,221.6 646.1,215.4 653.7,211.0" fill="#fefefe" fill-opacity="0.9"/>
<line x1="706.5" y1="218.1" x2="709.3" y2="221.4" stroke="#fefefe" stroke-width="0.63" stroke-opacity="0.9" stroke-linecap="round"/><polygon points="709.3,221.4 699.7,216.7 706.5,211.1" fill="#fefefe" fill-opacity="0.9"/>
<line x1="58.5" y1="275.6" x2="55.5" y2="272.4" stroke="#fefefe" stroke-width="0.63" stroke-opacity="0.9" stroke-linecap="round"/><polygon points="55.5,272.4 65.5,276.4 59.1,282.5" fill="#fefefe" fill-opacity="0.9"/>
<line x1="112.3" y1="275.9" x2="110.3" y2="272.1" stroke="#fefefe" stroke-width="0.63" stroke-opacity="0.9" stroke-linecap="round"/><polygon points="110.3,272.1 118.7,278.6 111.0,282.8" fill="#fefefe" fill-opacity="0.9"/>
<line x1="167.2" y1="275.3" x2="163.8" y2="272.7" stroke="#fefefe" stroke-width="0.63" stroke-opacity="0.9" stroke-linecap="round"/><polygon points="163.8,272.7 174.2,275.2 168.9,282.1" fill="#fefefe" fill-opacity="0.9"/>
<line x1="221.8" y1="274.7" x2="217.7" y2="273.3" stroke="#fefefe" stroke-width="0.63" stroke-opacity="0.9" stroke-linecap="round"/><polygon points="217.7,273.3 228.4,272.4 225.5,280.7" fill="#fefefe" fill-opacity="0.9"/>
<line x1="275.1" y1="275.8" x2="272.9" y2="272.2" stroke="#f4f4f4" stroke-width="0.63" stroke-opacity="0.9" stroke-linecap="round"/><polygon points="272.9,272.2 281.7,278.2 274.2,282.8" fill="#f4f4f4" fill-opacity="0.9"/>
<line x1="326.3" y1="274.9" x2="330.2" y2="273.1" stroke="#f9f9f9" stroke-width="0.63" stroke-opacity="0.9" stroke-linecap="round"/><polygon points="330.2,273.1 323.3,281.3 319.5,273.4" fill="#f9f9f9" fill-opacity="0.9"/>
<line x1="383.0" y1="271.9" x2="382.0" y2="276.1" stroke="#fcfcfc" stroke-width="0.63" stroke-opacity="0.9" stroke-linecap="round"/><polygon points="382.0,276.1 380.0,265.6 388.6,267.7" fill="#fcfcfc" fill-opacity="0.9"/>
<line x1="435.9" y1="272.0" x2="437.5" y2="276.0" stroke="#fdfdfd" stroke-width="0.63" stroke-opacity="0.9" stroke-linecap="round"/><polygon points="437.5,276.0 429.9,268.5 438.1,265.3" fill="#fdfdfd" fill-opacity="0.9"/>
<line x1="489.3" y1="272.6" x2="492.6" y2="275.4" stroke="#fefefe" stroke-width="0.63" stroke-opacity="0.9" stroke-linecap="round"/><polygon points="492.6,275.4 482.3,272.3 488.1,265.7" fill="#fefefe" fill-opacity="0.9"/>
<line x1="543.8" y1="272.4" x2="546.6" y2="275.6" stroke="#fefefe" stroke-width="0.63" stroke-opacity="0.9" stroke-linecap="round"/><polygon points="546.6,275.6 536.9,271.3 543.4,265.4" fill="#fefefe" fill-opacity="0.9"/>
<line x1="598.5" y1="272.0" x2="600.4" y2="276.0" stroke="#fefefe" stroke-width="0.63" stroke-opacity="0.9" stroke-linecap="round"/><polygon points="600.4,276.0 592.3,269.0 600.2,265.3" fill="#fefefe" fill-opacity="0.9"/>
<line x1="652.4" y1="272.3" x2="655.0" y2="275.7" stroke="#fefefe" stroke-width="0.63" stroke-opacity="0.9" stroke-linecap="round"/><polygon points="655.0,275.7 645.6,270.6 652.6,265.3" fill="#fefefe" fill-opacity="0.9"/>
<line x1="706.4" y1="272.5" x2="709.5" y2="275.5" stroke="#fefefe" stroke-width="0.63" stroke-opacity="0.9" stroke-linecap="round"/><polygon points="709.5,275.5 699.4,271.9 705.5,265.6" fill="#fefefe" fill-opacity="0.9"/>
<line x1="760.9" y1="272.2" x2="763.4" y2="275.8" stroke="#fefefe" stroke-width="0.63" stroke-opacity="0.9" stroke-linecap="round"/><polygon points="763.4,275.8 754.2,270.2 761.5,265.3" fill="#fefefe" fill-opacity="0.9"/>
<line x1="58.2" y1="330.0" x2="55.8" y2="326.4" stroke="#fefefe" stroke-width="0.63" stroke-opacity="0.9" stroke-linecap="round"/><polygon points="55.8,326.4 64.9,332.1 57.6,337.0" fill="#fefefe" fill-opacity="0.9"/>
<line x1="112.6" y1="330.0" x2="110.0" y2="326.5" stroke="#fefefe" stroke-width="0.63" stroke-opacity="0.9" stroke-linecap="round"/><polygon points="110.0,326.5 119.4,331.6 112.4,336.9" fill="#fefefe" fill-opacity="0.9"/>
<line x1="167.3" y1="329.5" x2="163.7" y2="327.0" stroke="#fefefe" stroke-width="0.63" stroke-opacity="0.9" stroke-linecap="round"/><polygon points="163.7,327.0 174.3,328.9 169.3,336.2" fill="#fefefe" fill-opacity="0.9"/>
<line x1="221.2" y1="329.9" x2="218.3" y2="326.6" stroke="#fefefe" stroke-width="0.63" stroke-opacity="0.9" stroke-linecap="round"/><polygon points="218.3,326.6 228.1,331.0 221.5,336.8" fill="#fefefe" fill-opacity="0.9"/>
<line x1="274.5" y1="330.3" x2="273.5" y2="326.1" stroke="#fefefe" stroke-width="0.63" stroke-opacity="0.9" stroke-linecap="round"/><polygon points="273.5,326.1 280.1,334.5 271.6,336.7" fill="#fefefe" fill-opacity="0.9"/>
<line x1="330.3" y1="329.0" x2="326.2" y2="327.5" stroke="#fdfdfd" stroke-width="0.63" stroke-opacity="0.9" stroke-linecap="round"/><polygon points="326.2,327.5 336.9,326.7 333.9,335.0" fill="#fdfdfd" fill-opacity="0.9"/>
<line x1="389.3" y1="325.4" x2="375.7" y2="331.1" stroke="#a8a8a8" stroke-width="0.63" stroke-opacity="0.9" stroke-linecap="round"/><polygon points="375.7,331.1 383.0,323.3 386.4,331.4" fill="#a8a8a8" fill-opacity="0.9"/>
<line x1="429.8" y1="324.8" x2="443.7" y2="331.7" stroke="#a3a3a3" stroke-width="0.63" stroke-opacity="0.9" stroke-linecap="round"/><polygon points="443.7,331.7 433.0,331.3 436.9,323.4" fill="#a3a3a3" fill-opacity="0.9"/>
<line x1="489.0" y1="327.4" x2="493.0" y2="329.1" stroke="#fdfdfd" stroke-width="0.63" stroke-opacity="0.9" stroke-linecap="round"/><polygon points="493.0,329.1 482.3,329.4 485.6,321.3" fill="#fdfdfd" fill-opacity="0.9"/>
<line x1="544.7" y1="326.1" x2="545.7" y2="330.3" stroke="#fefefe" stroke-width="0.63" stroke-opacity="0.9" stroke-linecap="round"/><polygon points="545.7,330.3 539.1,321.9 547.6,319.8" fill="#fefefe" fill-opacity="0.9"/>
<line x1="598.3" y1="326.4" x2="600.6" y2="330.1" stroke="#fefefe" stroke-width="0.63" stroke-opacity="0.9" stroke-linecap="round"/><polygon points="600.6,330.1 591.6,324.2 599.0,319.5" fill="#fefefe" fill-opacity="0.9"/>
<line x1="652.1" y1="326.8" x2="655.3" y2="329.7" stroke="#fefefe" stroke-width="0.63" stroke-opacity="0.9" stroke-linecap="round"/><polygon points="655.3,329.7 645.1,326.5 650.9,319.9" fill="#fefefe" fill-opacity="0.9"/>
<line x1="706.5" y1="326.6" x2="709.3" y2="329.9" stroke="#fefefe" stroke-width="0.63" stroke-opacity="0.9" stroke-linecap="round"/><polygon points="709.3,329.9 699.6,325.4 706.2,319.6" fill="#fefefe" fill-opacity="0.9"/>
<line x1="761.1" y1="326.4" x2="763.3" y2="330.1" stroke="#fefefe" stroke-width="0.63" stroke-opacity="0.9" stroke-linecap="round"/><polygon points="763.3,330.1 754.5,323.9 762.1,319.5" fill="#fefefe" fill-opacity="0.9"/>
<line x1="815.0" y1="326.6" x2="817.8" y2="329.9" stroke="#fefefe" stroke-width="0.63" stroke-opacity="0.9" stroke-linecap="round"/><polygon points="817.8,329.9 808.2,325.2 814.9,319.6" fill="#fefefe" fill-opacity="0.9"/>
<line x1="869.1" y1="326.7" x2="872.2" y2="329.7" stroke="#fefefe" stroke-width="0.63" stroke-opacity="0.9" stroke-linecap="round"/><polygon points="872.2,329.7 862.1,326.1 868.2,319.8" fill="#fefefe" fill-opacity="0.9"/>
<line x1="58.2" y1="384.3" x2="55.9" y2="380.7" stroke="#fefefe" stroke-width="0.63" stroke-opacity="0.9" stroke-linecap="round"/><polygon points="55.9,380.7 64.9,386.5 57.5,391.2" fill="#fefefe" fill-opacity="0.9"/>
<line x1="112.9" y1="383.9" x2="109.6" y2="381.1" stroke="#fefefe" stroke-width="0.63" stroke-opacity="0.9" stroke-linecap="round"/><polygon points="109.6,381.1 119.9,384.2 114.1,390.8" fill="#fefefe" fill-opacity="0.9"/>
<line x1="167.0" y1="384.1" x2="164.0" y2="380.9" stroke="#fefefe" stroke-width="0.63" stroke-opacity="0.9" stroke-linecap="round"/><polygon points="164.0,380.9 173.9,385.1 167.5,391.0" fill="#fefefe" fill-opacity="0.9"/>
<line x1="220.8" y1="384.4" x2="218.7" y2="380.6" stroke="#fefefe" stroke-width="0.63" stroke-opacity="0.9" stroke-linecap="round"/><polygon points="218.7,380.6 227.3,387.0 219.5,391.3" fill="#fefefe" fill-opacity="0.9"/>
<line x1="275.3" y1="384.2" x2="272.7" y2="380.7" stroke="#fefefe" stroke-width="0.63" stroke-opacity="0.9" stroke-linecap="round"/><polygon points="272.7,380.7 282.0,386.1 274.8,391.2" fill="#fefefe" fill-opacity="0.9"/>
<line x1="330.1" y1="383.5" x2="326.3" y2="381.4" stroke="#fefefe" stroke-width="0.63" stroke-opacity="0.9" stroke-linecap="round"/><polygon points="326.3,381.4 337.0,382.4 332.7,390.0" fill="#fefefe" fill-opacity="0.9"/>
<line x1="383.9" y1="384.5" x2="381.1" y2="380.5" stroke="#e2e2e2" stroke-width="0.63" stroke-opacity="0.9" stroke-linecap="round"/><polygon points="381.1,380.5 390.3,386.0 383.0,391.0" fill="#e2e2e2" fill-opacity="0.9"/>
<line x1="435.2" y1="385.3" x2="438.2" y2="379.7" stroke="#dadada" stroke-width="0.63" stroke-opacity="0.9" stroke-linecap="round"/><polygon points="438.2,379.7 437.5,390.4 429.7,386.3" fill="#dadada" fill-opacity="0.9"/>
<line x1="492.1" y1="380.6" x2="489.8" y2="384.3" stroke="#f3f3f3" stroke-width="0.63" stroke-opacity="0.9" stroke-linecap="round"/><polygon points="489.8,384.3 491.2,373.7 498.7,378.3" fill="#f3f3f3" fill-opacity="0.9"/>
<line x1="544.6" y1="380.0" x2="545.8" y2="384.9" stroke="#e1e1e1" stroke-width="0.63" stroke-opacity="0.9" stroke-linecap="round"/><polygon points="545.8,384.9 539.3,376.4 547.9,374.4" fill="#e1e1e1" fill-opacity="0.9"/>
<line x1="597.7" y1="381.2" x2="601.2" y2="383.8" stroke="#fefefe" stroke-width="0.63" stroke-opacity="0.9" stroke-linecap="round"/><polygon points="601.2,383.8 590.7,381.5 596.0,374.4" fill="#fefefe" fill-opacity="0.9"/>
<line x1="651.9" y1="381.2" x2="655.5" y2="383.7" stroke="#fefefe" stroke-width="0.63" stroke-opacity="0.9" stroke-linecap="round"/><polygon points="655.5,383.7 644.9,381.7 650.0,374.5" fill="#fefefe" fill-opacity="0.9"/>
<line x1="707.0" y1="380.5" x2="708.9" y2="384.4" stroke="#fefefe" stroke-width="0.63" stroke-opacity="0.9" stroke-linecap="round"/><polygon points="708.9,384.4 700.7,377.5 708.6,373.7" fill="#fefefe" fill-opacity="0.9"/>
<line x1="760.8" y1="380.8" x2="763.5" y2="384.2" stroke="#fefefe" stroke-width="0.63" stroke-opacity="0.9" stroke-linecap="round"/><polygon points="763.5,384.2 754.1,379.1 761.0,373.8" fill="#fefefe" fill-opacity="0.9"/>
<line x1="814.8" y1="381.0" x2="818.0" y2="383.9" stroke="#fefefe" stroke-width="0.63" stroke-opacity="0.9" stroke-linecap="round"/><polygon points="818.0,383.9 807.8,380.7 813.7,374.1" fill="#fefefe" fill-opacity="0.9"/>
<line x1="869.2" y1="380.8" x2="872.1" y2="384.1" stroke="#fefefe" stroke-width="0.63" stroke-opacity="0.9" stroke-linecap="round"/><polygon points="872.1,384.1 862.3,379.6 869.0,373.9" fill="#fefefe" fill-opacity="0.9"/>
<line x1="923.7" y1="380.7" x2="926.1" y2="384.3" stroke="#fefefe" stroke-width="0.63" stroke-opacity="0.9" stroke-linecap="round"/><polygon points="926.1,384.3 917.0,378.6 924.3,373.7" fill="#fefefe" fill-opacity="0.9"/>
<line x1="112.8" y1="438.3" x2="109.8" y2="435.1" stroke="#fefefe" stroke-width="0.63" stroke-opacity="0.9" stroke-linecap="round"/><polygon points="109.8,435.1 119.7,439.2 113.3,445.3" fill="#fefefe" fill-opacity="0.9"/>
<line x1="166.7" y1="438.5" x2="164.3" y2="434.9" stroke="#fefefe" stroke-width="0.63" stroke-opacity="0.9" stroke-linecap="round"/><polygon points="164.3,434.9 173.4,440.6 166.1,445.5" fill="#fefefe" fill-opacity="0.9"/>
<line x1="220.8" y1="438.6" x2="218.7" y2="434.8" stroke="#fefefe" stroke-width="0.63" stroke-opacity="0.9" stroke-linecap="round"/><polygon points="218.7,434.8 227.4,441.1 219.8,445.5" fill="#fefefe" fill-opacity="0.9"/>
<line x1="275.7" y1="438.1" x2="272.3" y2="435.3" stroke="#fefefe" stroke-width="0.63" stroke-opacity="0.9" stroke-linecap="round"/><polygon points="272.3,435.3 282.6,438.2 277.0,445.0" fill="#fefefe" fill-opacity="0.9"/>
<line x1="329.7" y1="438.4" x2="326.8" y2="435.1" stroke="#fefefe" stroke-width="0.63" stroke-opacity="0.9" stroke-linecap="round"/><polygon points="326.8,435.1 336.5,439.6 329.9,445.3" fill="#fefefe" fill-opacity="0.9"/>
<line x1="383.2" y1="438.8" x2="381.8" y2="434.7" stroke="#fefefe" stroke-width="0.63" stroke-opacity="0.9" stroke-linecap="round"/><polygon points="381.8,434.7 389.1,442.5 380.7,445.3" fill="#fefefe" fill-opacity="0.9"/>
<line x1="437.9" y1="438.5" x2="435.5" y2="434.9" stroke="#fefefe" stroke-width="0.63" stroke-opacity="0.9" stroke-linecap="round"/><polygon points="435.5,434.9 444.6,440.6 437.3,445.5" fill="#fefefe" fill-opacity="0.9"/>
<line x1="493.9" y1="437.3" x2="488.1" y2="436.1" stroke="#dcdcdc" stroke-width="0.63" stroke-opacity="0.9" stroke-linecap="round"/><polygon points="488.1,436.1 498.5,433.8 496.7,442.4" fill="#dcdcdc" fill-opacity="0.9"/>
<line x1="538.4" y1="442.0" x2="552.0" y2="431.5" stroke="#9a9a9a" stroke-width="0.63" stroke-opacity="0.9" stroke-linecap="round"/><polygon points="552.0,431.5 547.0,440.9 541.6,434.0" fill="#9a9a9a" fill-opacity="0.9"/>
<line x1="597.3" y1="436.8" x2="601.6" y2="436.6" stroke="#fafafa" stroke-width="0.63" stroke-opacity="0.9" stroke-linecap="round"/><polygon points="601.6,436.6 592.0,441.4 591.7,432.6" fill="#fafafa" fill-opacity="0.9"/>
<line x1="653.1" y1="434.6" x2="654.3" y2="438.8" stroke="#fefefe" stroke-width="0.63" stroke-opacity="0.9" stroke-linecap="round"/><polygon points="654.3,438.8 647.4,430.6 655.9,428.2" fill="#fefefe" fill-opacity="0.9"/>
<line x1="706.8" y1="434.9" x2="709.1" y2="438.6" stroke="#fefefe" stroke-width="0.63" stroke-opacity="0.9" stroke-linecap="round"/><polygon points="709.1,438.6 700.2,432.5 707.7,427.9" fill="#fefefe" fill-opacity="0.9"/>
<line x1="760.5" y1="435.4" x2="763.9" y2="438.1" stroke="#fefefe" stroke-width="0.63" stroke-opacity="0.9" stroke-linecap="round"/><polygon points="763.9,438.1 753.5,435.4 759.0,428.5" fill="#fefefe" fill-opacity="0.9"/>
<line x1="814.7" y1="435.3" x2="818.1" y2="438.1" stroke="#fefefe" stroke-width="0.63" stroke-opacity="0.9" stroke-linecap="round"/><polygon points="818.1,438.1 807.7,435.3 813.3,428.5" fill="#fefefe" fill-opacity="0.9"/>
<line x1="869.5" y1="434.9" x2="871.8" y2="438.6" stroke="#fefefe" stroke-width="0.63" stroke-opacity="0.9" stroke-linecap="round"/><polygon points="871.8,438.6 863.0,432.5 870.5,427.9" fill="#fefefe" fill-opacity="0.9"/>
<line x1="923.5" y1="435.1" x2="926.3" y2="438.4" stroke="#fefefe" stroke-width="0.63" stroke-opacity="0.9" stroke-linecap="round"/><polygon points="926.3,438.4 916.6,433.7 923.4,428.1" fill="#fefefe" fill-opacity="0.9"/>
<line x1="166.6" y1="492.8" x2="164.4" y2="489.1" stroke="#fefefe" stroke-width="0.63" stroke-opacity="0.9" stroke-linecap="round"/><polygon points="164.4,489.1 173.1,495.3 165.6,499.7" fill="#fefefe" fill-opacity="0.9"/>
<line x1="221.3" y1="492.5" x2="218.3" y2="489.4" stroke="#fefefe" stroke-width="0.63" stroke-opacity="0.9" stroke-linecap="round"/><polygon points="218.3,489.4 228.2,493.4 221.8,499.5" fill="#fefefe" fill-opacity="0.9"/>
<line x1="275.5" y1="492.6" x2="272.5" y2="489.3" stroke="#fefefe" stroke-width="0.63" stroke-opacity="0.9" stroke-linecap="round"/><polygon points="272.5,489.3 282.3,493.7 275.8,499.5" fill="#fefefe" fill-opacity="0.9"/>
<line x1="329.3" y1="492.8" x2="327.2" y2="489.1" stroke="#fefefe" stroke-width="0.63" stroke-opacity="0.9" stroke-linecap="round"/><polygon points="327.2,489.1 335.8,495.4 328.1,499.7" fill="#fefefe" fill-opacity="0.9"/>
<line x1="383.4" y1="492.9" x2="381.5" y2="489.0" stroke="#fefefe" stroke-width="0.63" stroke-opacity="0.9" stroke-linecap="round"/><polygon points="381.5,489.0 389.7,495.9 381.8,499.7" fill="#fefefe" fill-opacity="0.9"/>
<line x1="438.5" y1="492.3" x2="435.0" y2="489.7" stroke="#fefefe" stroke-width="0.63" stroke-opacity="0.9" stroke-linecap="round"/><polygon points="435.0,489.7 445.4,492.0 440.1,499.0" fill="#fefefe" fill-opacity="0.9"/>
<line x1="492.2" y1="492.7" x2="489.7" y2="489.2" stroke="#fefefe" stroke-width="0.63" stroke-opacity="0.9" stroke-linecap="round"/><polygon points="489.7,489.2 499.0,494.6 491.8,499.7" fill="#fefefe" fill-opacity="0.9"/>
<line x1="544.9" y1="493.1" x2="545.5" y2="488.8" stroke="#fafafa" stroke-width="0.63" stroke-opacity="0.9" stroke-linecap="round"/><polygon points="545.5,488.8 548.7,499.0 539.9,498.0" fill="#fafafa" fill-opacity="0.9"/>
<line x1="601.2" y1="492.3" x2="597.7" y2="489.7" stroke="#fdfdfd" stroke-width="0.63" stroke-opacity="0.9" stroke-linecap="round"/><polygon points="597.7,489.7 608.1,492.0 602.9,499.0" fill="#fdfdfd" fill-opacity="0.9"/>
<line x1="654.1" y1="488.8" x2="653.3" y2="493.1" stroke="#fafafa" stroke-width="0.63" stroke-opacity="0.9" stroke-linecap="round"/><polygon points="653.3,493.1 650.8,482.7 659.4,484.3" fill="#fafafa" fill-opacity="0.9"/>
<line x1="706.0" y1="489.9" x2="709.8" y2="492.0" stroke="#fefefe" stroke-width="0.63" stroke-opacity="0.9" stroke-linecap="round"/><polygon points="709.8,492.0 699.1,491.1 703.4,483.4" fill="#fefefe" fill-opacity="0.9"/>
<line x1="760.1" y1="490.2" x2="764.2" y2="491.8" stroke="#fefefe" stroke-width="0.63" stroke-opacity="0.9" stroke-linecap="round"/><polygon points="764.2,491.8 753.5,492.2 756.7,484.1" fill="#fefefe" fill-opacity="0.9"/>
<line x1="815.3" y1="489.1" x2="817.5" y2="492.9" stroke="#fefefe" stroke-width="0.63" stroke-opacity="0.9" stroke-linecap="round"/><polygon points="817.5,492.9 808.9,486.5 816.6,482.2" fill="#fefefe" fill-opacity="0.9"/>
<line x1="869.3" y1="489.2" x2="872.0" y2="492.7" stroke="#fefefe" stroke-width="0.63" stroke-opacity="0.9" stroke-linecap="round"/><polygon points="872.0,492.7 862.5,487.6 869.5,482.3" fill="#fefefe" fill-opacity="0.9"/>
<line x1="923.2" y1="489.6" x2="926.6" y2="492.3" stroke="#fefefe" stroke-width="0.63" stroke-opacity="0.9" stroke-linecap="round"/><polygon points="926.6,492.3 916.2,489.6 921.8,482.8" fill="#fefefe" fill-opacity="0.9"/>
<line x1="221.2" y1="546.8" x2="218.3" y2="543.6" stroke="#fefefe" stroke-width="0.63" stroke-opacity="0.9" stroke-linecap="round"/><polygon points="218.3,543.6 228.1,547.9 221.6,553.8" fill="#fefefe" fill-opacity="0.9"/>
<line x1="275.2" y1="547.0" x2="272.8" y2="543.4" stroke="#fefefe" stroke-width="0.63" stroke-opacity="0.9" stroke-linecap="round"/><polygon points="272.8,543.4 281.9,549.0 274.6,554.0" fill="#fefefe" fill-opacity="0.9"/>
<line x1="329.2" y1="547.1" x2="327.3" y2="543.3" stroke="#fefefe" stroke-width="0.63" stroke-opacity="0.9" stroke-linecap="round"/><polygon points="327.3,543.3 335.6,550.0 327.7,554.0" fill="#fefefe" fill-opacity="0.9"/>
<line x1="384.0" y1="546.8" x2="381.0" y2="543.6" stroke="#fefefe" stroke-width="0.63" stroke-opacity="0.9" stroke-linecap="round"/><polygon points="381.0,543.6 390.9,547.6 384.6,553.7" fill="#fefefe" fill-opacity="0.9"/>
<line x1="438.1" y1="546.9" x2="435.3" y2="543.5" stroke="#fefefe" stroke-width="0.63" stroke-opacity="0.9" stroke-linecap="round"/><polygon points="435.3,543.5 445.0,548.2 438.2,553.8" fill="#fefefe" fill-opacity="0.9"/>
<line x1="491.8" y1="547.2" x2="490.2" y2="543.2" stroke="#fefefe" stroke-width="0.63" stroke-opacity="0.9" stroke-linecap="round"/><polygon points="490.2,543.2 497.9,550.6 489.7,553.9" fill="#fefefe" fill-opacity="0.9"/>
<line x1="545.8" y1="547.3" x2="544.6" y2="543.1" stroke="#fefefe" stroke-width="0.63" stroke-opacity="0.9" stroke-linecap="round"/><polygon points="544.6,543.1 551.7,551.1 543.3,553.8" fill="#fefefe" fill-opacity="0.9"/>
<line x1="601.3" y1="546.3" x2="597.5" y2="544.1" stroke="#fefefe" stroke-width="0.63" stroke-opacity="0.9" stroke-linecap="round"/><polygon points="597.5,544.1 608.2,545.1 603.9,552.8" fill="#fefefe" fill-opacity="0.9"/>
<line x1="654.1" y1="547.3" x2="653.2" y2="543.1" stroke="#fbfbfb" stroke-width="0.63" stroke-opacity="0.9" stroke-linecap="round"/><polygon points="653.2,543.1 659.5,551.7 650.9,553.5" fill="#fbfbfb" fill-opacity="0.9"/>
<line x1="706.0" y1="546.3" x2="709.8" y2="544.1" stroke="#fefefe" stroke-width="0.63" stroke-opacity="0.9" stroke-linecap="round"/><polygon points="709.8,544.1 703.4,552.7 699.1,545.1" fill="#fefefe" fill-opacity="0.9"/>
<line x1="761.2" y1="543.3" x2="763.2" y2="547.1" stroke="#fefefe" stroke-width="0.63" stroke-opacity="0.9" stroke-linecap="round"/><polygon points="763.2,547.1 754.7,540.5 762.5,536.4" fill="#fefefe" fill-opacity="0.9"/>
<line x1="815.3" y1="543.3" x2="817.5" y2="547.1" stroke="#fefefe" stroke-width="0.63" stroke-opacity="0.9" stroke-linecap="round"/><polygon points="817.5,547.1 808.8,540.8 816.4,536.4" fill="#fefefe" fill-opacity="0.9"/>
<line x1="868.9" y1="544.0" x2="872.4" y2="546.4" stroke="#fefefe" stroke-width="0.63" stroke-opacity="0.9" stroke-linecap="round"/><polygon points="872.4,546.4 861.9,544.4 866.9,537.2" fill="#fefefe" fill-opacity="0.9"/>
<line x1="922.9" y1="544.3" x2="926.9" y2="546.1" stroke="#fefefe" stroke-width="0.63" stroke-opacity="0.9" stroke-linecap="round"/><polygon points="926.9,546.1 916.2,546.2 919.7,538.2" fill="#fefefe" fill-opacity="0.9"/>
<line x1="275.1" y1="601.3" x2="272.9" y2="597.6" stroke="#fefefe" stroke-width="0.63" stroke-opacity="0.9" stroke-linecap="round"/><polygon points="272.9,597.6 281.6,603.9 273.9,608.2" fill="#fefefe" fill-opacity="0.9"/>
<line x1="329.6" y1="601.2" x2="326.9" y2="597.7" stroke="#fefefe" stroke-width="0.63" stroke-opacity="0.9" stroke-linecap="round"/><polygon points="326.9,597.7 336.4,602.8 329.4,608.1" fill="#fefefe" fill-opacity="0.9"/>
<line x1="383.9" y1="601.1" x2="381.1" y2="597.8" stroke="#fefefe" stroke-width="0.63" stroke-opacity="0.9" stroke-linecap="round"/><polygon points="381.1,597.8 390.8,602.3 384.2,608.0" fill="#fefefe" fill-opacity="0.9"/>
<line x1="437.8" y1="601.3" x2="435.6" y2="597.6" stroke="#fefefe" stroke-width="0.63" stroke-opacity="0.9" stroke-linecap="round"/><polygon points="435.6,597.6 444.3,603.8 436.8,608.2" fill="#fefefe" fill-opacity="0.9"/>
<line x1="491.7" y1="601.5" x2="490.2" y2="597.4" stroke="#fefefe" stroke-width="0.63" stroke-opacity="0.9" stroke-linecap="round"/><polygon points="490.2,597.4 497.8,604.9 489.6,608.1" fill="#fefefe" fill-opacity="0.9"/>
<line x1="546.7" y1="601.0" x2="543.7" y2="597.9" stroke="#fefefe" stroke-width="0.63" stroke-opacity="0.9" stroke-linecap="round"/><polygon points="543.7,597.9 553.7,601.7 547.5,607.9" fill="#fefefe" fill-opacity="0.9"/>
<line x1="600.7" y1="601.2" x2="598.2" y2="597.7" stroke="#fefefe" stroke-width="0.63" stroke-opacity="0.9" stroke-linecap="round"/><polygon points="598.2,597.7 607.5,603.0 600.3,608.2" fill="#fefefe" fill-opacity="0.9"/>
<line x1="653.9" y1="601.6" x2="653.5" y2="597.3" stroke="#fefefe" stroke-width="0.63" stroke-opacity="0.9" stroke-linecap="round"/><polygon points="653.5,597.3 658.7,606.6 650.0,607.4" fill="#fefefe" fill-opacity="0.9"/>
<line x1="707.9" y1="601.6" x2="707.9" y2="597.3" stroke="#fefefe" stroke-width="0.63" stroke-opacity="0.9" stroke-linecap="round"/><polygon points="707.9,597.3 712.4,607.0 703.6,607.1" fill="#fefefe" fill-opacity="0.9"/>
<line x1="764.2" y1="598.8" x2="760.1" y2="600.0" stroke="#fefefe" stroke-width="0.63" stroke-opacity="0.9" stroke-linecap="round"/><polygon points="760.1,600.0 768.2,593.1 770.7,601.5" fill="#fefefe" fill-opacity="0.9"/>
<line x1="814.3" y1="599.0" x2="818.5" y2="599.9" stroke="#fefefe" stroke-width="0.63" stroke-opacity="0.9" stroke-linecap="round"/><polygon points="818.5,599.9 808.1,602.2 809.9,593.6" fill="#fefefe" fill-opacity="0.9"/>
<line x1="868.5" y1="599.3" x2="872.8" y2="599.6" stroke="#fefefe" stroke-width="0.63" stroke-opacity="0.9" stroke-linecap="round"/><polygon points="872.8,599.6 862.7,603.2 863.4,594.5" fill="#fefefe" fill-opacity="0.9"/>
<line x1="922.7" y1="599.3" x2="927.0" y2="599.5" stroke="#fefefe" stroke-width="0.63" stroke-opacity="0.9" stroke-linecap="round"/><polygon points="927.0,599.5 917.1,603.5 917.5,594.7" fill="#fefefe" fill-opacity="0.9"/>
<line x1="383.7" y1="655.5" x2="381.3" y2="651.9" stroke="#fefefe" stroke-width="0.63" stroke-opacity="0.9" stroke-linecap="round"/><polygon points="381.3,651.9 390.4,657.5 383.1,662.4" fill="#fefefe" fill-opacity="0.9"/>
<line x1="437.7" y1="655.6" x2="435.8" y2="651.7" stroke="#fefefe" stroke-width="0.63" stroke-opacity="0.9" stroke-linecap="round"/><polygon points="435.8,651.7 444.0,658.6 436.1,662.4" fill="#fefefe" fill-opacity="0.9"/>
<line x1="492.3" y1="655.4" x2="489.7" y2="652.0" stroke="#fefefe" stroke-width="0.63" stroke-opacity="0.9" stroke-linecap="round"/><polygon points="489.7,652.0 499.0,657.1 492.0,662.4" fill="#fefefe" fill-opacity="0.9"/>
<line x1="546.6" y1="655.4" x2="543.8" y2="652.0" stroke="#fefefe" stroke-width="0.63" stroke-opacity="0.9" stroke-linecap="round"/><polygon points="543.8,652.0 553.4,656.8 546.6,662.3" fill="#fefefe" fill-opacity="0.9"/>
<line x1="600.3" y1="655.7" x2="598.6" y2="651.7" stroke="#fefefe" stroke-width="0.63" stroke-opacity="0.9" stroke-linecap="round"/><polygon points="598.6,651.7 606.6,658.8 598.5,662.4" fill="#fefefe" fill-opacity="0.9"/>
<line x1="654.1" y1="655.8" x2="653.2" y2="651.6" stroke="#fefefe" stroke-width="0.63" stroke-opacity="0.9" stroke-linecap="round"/><polygon points="653.2,651.6 659.6,660.2 651.0,662.0" fill="#fefefe" fill-opacity="0.9"/>
<line x1="709.5" y1="655.1" x2="706.3" y2="652.2" stroke="#fefefe" stroke-width="0.63" stroke-opacity="0.9" stroke-linecap="round"/><polygon points="706.3,652.2 716.5,655.5 710.7,662.0" fill="#fefefe" fill-opacity="0.9"/>
<line x1="763.0" y1="655.7" x2="761.3" y2="651.7" stroke="#fefefe" stroke-width="0.63" stroke-opacity="0.9" stroke-linecap="round"/><polygon points="761.3,651.7 769.3,658.8 761.2,662.4" fill="#fefefe" fill-opacity="0.9"/>
<line x1="815.2" y1="655.5" x2="817.6" y2="651.9" stroke="#fefefe" stroke-width="0.63" stroke-opacity="0.9" stroke-linecap="round"/><polygon points="817.6,651.9 815.7,662.4 808.5,657.4" fill="#fefefe" fill-opacity="0.9"/>
<line x1="868.7" y1="654.7" x2="872.5" y2="652.6" stroke="#fefefe" stroke-width="0.63" stroke-opacity="0.9" stroke-linecap="round"/><polygon points="872.5,652.6 866.1,661.2 861.9,653.4" fill="#fefefe" fill-opacity="0.9"/>
<line x1="922.8" y1="654.4" x2="926.9" y2="653.0" stroke="#fefefe" stroke-width="0.63" stroke-opacity="0.9" stroke-linecap="round"/><polygon points="926.9,653.0 919.1,660.3 916.3,651.9" fill="#fefefe" fill-opacity="0.9"/>
<line x1="437.9" y1="709.8" x2="435.6" y2="706.1" stroke="#fefefe" stroke-width="0.63" stroke-opacity="0.9" stroke-linecap="round"/><polygon points="435.6,706.1 444.5,712.1 437.0,716.7" fill="#fefefe" fill-opacity="0.9"/>
<line x1="492.4" y1="709.6" x2="489.6" y2="706.3" stroke="#fefefe" stroke-width="0.63" stroke-opacity="0.9" stroke-linecap="round"/><polygon points="489.6,706.3 499.2,710.9 492.5,716.6" fill="#fefefe" fill-opacity="0.9"/>
<line x1="546.3" y1="709.8" x2="544.1" y2="706.1" stroke="#fefefe" stroke-width="0.63" stroke-opacity="0.9" stroke-linecap="round"/><polygon points="544.1,706.1 552.9,712.2 545.4,716.7" fill="#fefefe" fill-opacity="0.9"/>
<line x1="600.2" y1="710.0" x2="598.7" y2="705.9" stroke="#fefefe" stroke-width="0.63" stroke-opacity="0.9" stroke-linecap="round"/><polygon points="598.7,705.9 606.2,713.5 598.0,716.6" fill="#fefefe" fill-opacity="0.9"/>
<line x1="655.0" y1="709.7" x2="652.4" y2="706.2" stroke="#fefefe" stroke-width="0.63" stroke-opacity="0.9" stroke-linecap="round"/><polygon points="652.4,706.2 661.7,711.4 654.7,716.6" fill="#fefefe" fill-opacity="0.9"/>
<line x1="709.2" y1="709.7" x2="706.6" y2="706.2" stroke="#fefefe" stroke-width="0.63" stroke-opacity="0.9" stroke-linecap="round"/><polygon points="706.6,706.2 715.9,711.5 708.8,716.6" fill="#fefefe" fill-opacity="0.9"/>
<line x1="762.6" y1="710.0" x2="761.7" y2="705.8" stroke="#fefefe" stroke-width="0.63" stroke-opacity="0.9" stroke-linecap="round"/><polygon points="761.7,705.8 768.0,714.5 759.4,716.3" fill="#fefefe" fill-opacity="0.9"/>
<line x1="815.7" y1="710.0" x2="817.1" y2="705.9" stroke="#fefefe" stroke-width="0.63" stroke-opacity="0.9" stroke-linecap="round"/><polygon points="817.1,705.9 818.2,716.5 809.9,713.8" fill="#fefefe" fill-opacity="0.9"/>
<line x1="869.2" y1="709.6" x2="872.1" y2="706.3" stroke="#fefefe" stroke-width="0.63" stroke-opacity="0.9" stroke-linecap="round"/><polygon points="872.1,706.3 869.0,716.5 862.4,710.8" fill="#fefefe" fill-opacity="0.9"/>
<line x1="923.1" y1="709.2" x2="926.6" y2="706.7" stroke="#fefefe" stroke-width="0.63" stroke-opacity="0.9" stroke-linecap="round"/><polygon points="926.6,706.7 921.3,715.9 916.1,708.8" fill="#fefefe" fill-opacity="0.9"/>
<line x1="546.1" y1="764.1" x2="544.3" y2="760.2" stroke="#fefefe" stroke-width="0.63" stroke-opacity="0.9" stroke-linecap="round"/><polygon points="544.3,760.2 552.5,767.1 544.6,770.9" fill="#fefefe" fill-opacity="0.9"/>
<line x1="600.5" y1="764.0" x2="598.4" y2="760.3" stroke="#fefefe" stroke-width="0.63" stroke-opacity="0.9" stroke-linecap="round"/><polygon points="598.4,760.3 607.0,766.5 599.4,770.9" fill="#fefefe" fill-opacity="0.9"/>
<line x1="655.0" y1="763.9" x2="652.3" y2="760.5" stroke="#fefefe" stroke-width="0.63" stroke-opacity="0.9" stroke-linecap="round"/><polygon points="652.3,760.5 661.8,765.4 654.9,770.8" fill="#fefefe" fill-opacity="0.9"/>
<line x1="708.9" y1="764.1" x2="707.0" y2="760.2" stroke="#fefefe" stroke-width="0.63" stroke-opacity="0.9" stroke-linecap="round"/><polygon points="707.0,760.2 715.2,767.1 707.3,770.9" fill="#fefefe" fill-opacity="0.9"/>
<line x1="762.5" y1="764.3" x2="761.9" y2="760.0" stroke="#fefefe" stroke-width="0.63" stroke-opacity="0.9" stroke-linecap="round"/><polygon points="761.9,760.0 767.5,769.1 758.8,770.3" fill="#fefefe" fill-opacity="0.9"/>
<line x1="816.0" y1="764.3" x2="816.8" y2="760.0" stroke="#fefefe" stroke-width="0.63" stroke-opacity="0.9" stroke-linecap="round"/><polygon points="816.8,760.0 819.1,770.5 810.5,768.7" fill="#fefefe" fill-opacity="0.9"/>
<line x1="869.6" y1="764.1" x2="871.7" y2="760.3" stroke="#fefefe" stroke-width="0.63" stroke-opacity="0.9" stroke-linecap="round"/><polygon points="871.7,760.3 870.8,770.9 863.1,766.6" fill="#fefefe" fill-opacity="0.9"/>
<line x1="923.4" y1="763.8" x2="926.3" y2="760.6" stroke="#fefefe" stroke-width="0.63" stroke-opacity="0.9" stroke-linecap="round"/><polygon points="926.3,760.6 923.0,770.7 916.5,764.8" fill="#fefefe" fill-opacity="0.9"/>
<line x1="654.8" y1="818.2" x2="652.5" y2="814.6" stroke="#fefefe" stroke-width="0.63" stroke-opacity="0.9" stroke-linecap="round"/><polygon points="652.5,814.6 661.4,820.6 653.9,825.2" fill="#fefefe" fill-opacity="0.9"/>
<line x1="708.7" y1="818.4" x2="707.2" y2="814.4" stroke="#fefefe" stroke-width="0.63" stroke-opacity="0.9" stroke-linecap="round"/><polygon points="707.2,814.4 714.6,822.1 706.4,825.0" fill="#fefefe" fill-opacity="0.9"/>
<line x1="762.4" y1="818.6" x2="761.9" y2="814.2" stroke="#fefefe" stroke-width="0.63" stroke-opacity="0.9" stroke-linecap="round"/><polygon points="761.9,814.2 767.3,823.5 758.6,824.4" fill="#fefefe" fill-opacity="0.9"/>
<line x1="816.1" y1="818.5" x2="816.7" y2="814.3" stroke="#fefefe" stroke-width="0.63" stroke-opacity="0.9" stroke-linecap="round"/><polygon points="816.7,814.3 819.6,824.6 810.9,823.2" fill="#fefefe" fill-opacity="0.9"/>
<line x1="869.8" y1="818.4" x2="871.5" y2="814.4" stroke="#fefefe" stroke-width="0.63" stroke-opacity="0.9" stroke-linecap="round"/><polygon points="871.5,814.4 871.8,825.1 863.7,821.7" fill="#fefefe" fill-opacity="0.9"/>
<line x1="923.7" y1="818.2" x2="926.1" y2="814.6" stroke="#fefefe" stroke-width="0.63" stroke-opacity="0.9" stroke-linecap="round"/><polygon points="926.1,814.6 924.3,825.2 917.0,820.2" fill="#fefefe" fill-opacity="0.9"/>
<line x1="708.5" y1="872.7" x2="707.3" y2="868.6" stroke="#fefefe" stroke-width="0.63" stroke-opacity="0.9" stroke-linecap="round"/><polygon points="707.3,868.6 714.2,876.7 705.8,879.1" fill="#fefefe" fill-opacity="0.9"/>
<line x1="762.3" y1="872.8" x2="762.0" y2="868.5" stroke="#fefefe" stroke-width="0.63" stroke-opacity="0.9" stroke-linecap="round"/><polygon points="762.0,868.5 767.2,877.9 758.4,878.6" fill="#fefefe" fill-opacity="0.9"/>
<line x1="816.1" y1="872.8" x2="816.7" y2="868.5" stroke="#fefefe" stroke-width="0.63" stroke-opacity="0.9" stroke-linecap="round"/><polygon points="816.7,868.5 819.8,878.7 811.1,877.6" fill="#fefefe" fill-opacity="0.9"/>
</svg>