<?xml version="1.0" encoding="UTF-8"?>
<svg xmlns="http://www.w3.org/2000/svg" viewBox="0 0 1000 1000" preserveAspectRatio="none">
<line x1="58.6" y1="55.5" x2="55.5" y2="58.6" stroke="#fefefe" stroke-width="0.63" stroke-opacity="0.9" stroke-linecap="round"/><polygon points="55.5,58.6 59.3,48.6 65.5,54.8" fill="#fefefe" fill-opacity="0.9"/>
<line x1="112.2" y1="55.1" x2="110.3" y2="59.0" stroke="#fefefe" stroke-width="0.63" stroke-opacity="0.9" stroke-linecap="round"/><polygon points="110.3,59.0 110.7,48.3 118.6,52.2" fill="#fefefe" fill-opacity="0.9"/>
<line x1="165.5" y1="54.9" x2="165.6" y2="59.2" stroke="#fefefe" stroke-width="0.63" stroke-opacity="0.9" stroke-linecap="round"/><polygon points="165.6,59.2 161.0,49.5 169.8,49.4" fill="#fefefe" fill-opacity="0.9"/>
<line x1="218.8" y1="55.1" x2="220.7" y2="59.0" stroke="#fefefe" stroke-width="0.63" stroke-opacity="0.9" stroke-linecap="round"/><polygon points="220.7,59.0 212.4,52.2 220.3,48.3" fill="#fefefe" fill-opacity="0.9"/>
<line x1="273.2" y1="55.0" x2="274.8" y2="59.1" stroke="#fefefe" stroke-width="0.63" stroke-opacity="0.9" stroke-linecap="round"/><polygon points="274.8,59.1 267.1,51.6 275.3,48.4" fill="#fefefe" fill-opacity="0.9"/>
<line x1="327.7" y1="54.9" x2="328.7" y2="59.2" stroke="#fefefe" stroke-width="0.63" stroke-opacity="0.9" stroke-linecap="round"/><polygon points="328.7,59.2 322.2,50.7 330.8,48.6" fill="#fefefe" fill-opacity="0.9"/>
<line x1="381.5" y1="55.1" x2="383.4" y2="59.0" stroke="#fefefe" stroke-width="0.63" stroke-opacity="0.9" stroke-linecap="round"/><polygon points="383.4,59.0 375.2,52.1 383.1,48.3" fill="#fefefe" fill-opacity="0.9"/>
<line x1="59.0" y1="110.3" x2="55.1" y2="112.2" stroke="#fefefe" stroke-width="0.63" stroke-opacity="0.9" stroke-linecap="round"/><polygon points="55.1,112.2 61.9,104.0 65.8,111.9" fill="#fefefe" fill-opacity="0.9"/>
<line x1="112.8" y1="109.7" x2="109.7" y2="112.8" stroke="#fefefe" stroke-width="0.63" stroke-opacity="0.9" stroke-linecap="round"/><polygon points="109.7,112.8 113.5,102.8 119.8,109.0" fill="#fefefe" fill-opacity="0.9"/>
<line x1="165.4" y1="109.1" x2="165.6" y2="113.4" stroke="#fefefe" stroke-width="0.63" stroke-opacity="0.9" stroke-linecap="round"/><polygon points="165.6,113.4 160.9,103.8 169.7,103.5" fill="#fefefe" fill-opacity="0.9"/>
<line x1="218.7" y1="109.4" x2="220.8" y2="113.2" stroke="#fefefe" stroke-width="0.63" stroke-opacity="0.9" stroke-linecap="round"/><polygon points="220.8,113.2 212.2,106.9 219.8,102.5" fill="#fefefe" fill-opacity="0.9"/>
<line x1="274.0" y1="109.1" x2="274.0" y2="113.4" stroke="#fefefe" stroke-width="0.63" stroke-opacity="0.9" stroke-linecap="round"/><polygon points="274.0,113.4 269.6,103.7 278.4,103.7" fill="#fefefe" fill-opacity="0.9"/>
<line x1="327.6" y1="109.2" x2="328.8" y2="113.4" stroke="#fefefe" stroke-width="0.63" stroke-opacity="0.9" stroke-linecap="round"/><polygon points="328.8,113.4 321.9,105.2 330.3,102.8" fill="#fefefe" fill-opacity="0.9"/>
<line x1="381.3" y1="109.5" x2="383.6" y2="113.1" stroke="#fefefe" stroke-width="0.63" stroke-opacity="0.9" stroke-linecap="round"/><polygon points="383.6,113.1 374.7,107.2 382.1,102.5" fill="#fefefe" fill-opacity="0.9"/>
<line x1="435.8" y1="109.3" x2="437.6" y2="113.2" stroke="#fefefe" stroke-width="0.63" stroke-opacity="0.9" stroke-linecap="round"/><polygon points="437.6,113.2 429.5,106.3 437.5,102.5" fill="#fefefe" fill-opacity="0.9"/>
<line x1="490.2" y1="109.2" x2="491.7" y2="113.3" stroke="#fefefe" stroke-width="0.63" stroke-opacity="0.9" stroke-linecap="round"/><polygon points="491.7,113.3 484.2,105.7 492.5,102.6" fill="#fefefe" fill-opacity="0.9"/>
<line x1="59.2" y1="165.6" x2="54.9" y2="165.5" stroke="#fefefe" stroke-width="0.63" stroke-opacity="0.9" stroke-linecap="round"/><polygon points="54.9,165.5 64.7,161.3 64.5,170.1" fill="#fefefe" fill-opacity="0.9"/>
<line x1="113.4" y1="165.6" x2="109.1" y2="165.4" stroke="#fefefe" stroke-width="0.63" stroke-opacity="0.9" stroke-linecap="round"/><polygon points="109.1,165.4 119.0,161.4 118.7,170.2" fill="#fefefe" fill-opacity="0.9"/>
<line x1="164.0" y1="167.1" x2="167.0" y2="163.9" stroke="#fefefe" stroke-width="0.63" stroke-opacity="0.9" stroke-linecap="round"/><polygon points="167.0,163.9 163.5,174.1 157.1,168.0" fill="#fefefe" fill-opacity="0.9"/>
<line x1="220.7" y1="163.6" x2="218.8" y2="167.5" stroke="#fefefe" stroke-width="0.63" stroke-opacity="0.9" stroke-linecap="round"/><polygon points="218.8,167.5 219.0,156.8 226.9,160.5" fill="#fefefe" fill-opacity="0.9"/>
<line x1="274.3" y1="163.4" x2="273.7" y2="167.7" stroke="#fefefe" stroke-width="0.63" stroke-opacity="0.9" stroke-linecap="round"/><polygon points="273.7,167.7 270.7,157.4 279.4,158.6" fill="#fefefe" fill-opacity="0.9"/>
<line x1="327.3" y1="163.5" x2="329.1" y2="167.5" stroke="#fefefe" stroke-width="0.63" stroke-opacity="0.9" stroke-linecap="round"/><polygon points="329.1,167.5 321.1,160.4 329.1,156.8" fill="#fefefe" fill-opacity="0.9"/>
<line x1="381.4" y1="163.7" x2="383.6" y2="167.4" stroke="#fefefe" stroke-width="0.63" stroke-opacity="0.9" stroke-linecap="round"/><polygon points="383.6,167.4 374.8,161.3 382.3,156.7" fill="#fefefe" fill-opacity="0.9"/>
<line x1="436.3" y1="163.4" x2="437.2" y2="167.6" stroke="#fefefe" stroke-width="0.63" stroke-opacity="0.9" stroke-linecap="round"/><polygon points="437.2,167.6 430.9,159.0 439.5,157.2" fill="#fefefe" fill-opacity="0.9"/>
<line x1="490.1" y1="163.5" x2="491.9" y2="167.5" stroke="#fefefe" stroke-width="0.63" stroke-opacity="0.9" stroke-linecap="round"/><polygon points="491.9,167.5 483.8,160.4 491.8,156.8" fill="#fefefe" fill-opacity="0.9"/>
<line x1="543.9" y1="163.8" x2="546.5" y2="167.3" stroke="#fefefe" stroke-width="0.63" stroke-opacity="0.9" stroke-linecap="round"/><polygon points="546.5,167.3 537.2,161.9 544.3,156.8" fill="#fefefe" fill-opacity="0.9"/>
<line x1="598.4" y1="163.6" x2="600.5" y2="167.4" stroke="#fefefe" stroke-width="0.63" stroke-opacity="0.9" stroke-linecap="round"/><polygon points="600.5,167.4 592.0,160.9 599.8,156.8" fill="#fefefe" fill-opacity="0.9"/>
<line x1="59.0" y1="220.8" x2="55.1" y2="218.7" stroke="#fefefe" stroke-width="0.63" stroke-opacity="0.9" stroke-linecap="round"/><polygon points="55.1,218.7 65.8,219.4 61.7,227.2" fill="#fefefe" fill-opacity="0.9"/>
<line x1="112.8" y1="221.3" x2="109.7" y2="218.2" stroke="#fefefe" stroke-width="0.63" stroke-opacity="0.9" stroke-linecap="round"/><polygon points="109.7,218.2 119.8,222.0 113.6,228.2" fill="#fefefe" fill-opacity="0.9"/>
<line x1="167.5" y1="220.6" x2="163.5" y2="218.9" stroke="#fefefe" stroke-width="0.63" stroke-opacity="0.9" stroke-linecap="round"/><polygon points="163.5,218.9 174.2,218.7 170.8,226.8" fill="#fefefe" fill-opacity="0.9"/>
<line x1="221.7" y1="218.8" x2="217.8" y2="220.7" stroke="#fefefe" stroke-width="0.63" stroke-opacity="0.9" stroke-linecap="round"/><polygon points="217.8,220.7 224.8,212.6 228.5,220.5" fill="#fefefe" fill-opacity="0.9"/>
<line x1="274.8" y1="217.8" x2="273.2" y2="221.8" stroke="#fefefe" stroke-width="0.63" stroke-opacity="0.9" stroke-linecap="round"/><polygon points="273.2,221.8 272.9,211.1 281.0,214.4" fill="#fefefe" fill-opacity="0.9"/>
<line x1="326.8" y1="218.2" x2="329.7" y2="221.4" stroke="#fefefe" stroke-width="0.63" stroke-opacity="0.9" stroke-linecap="round"/><polygon points="329.7,221.4 319.9,217.1 326.4,211.2" fill="#fefefe" fill-opacity="0.9"/>
<line x1="382.5" y1="217.6" x2="382.4" y2="221.9" stroke="#fefefe" stroke-width="0.63" stroke-opacity="0.9" stroke-linecap="round"/><polygon points="382.4,221.9 378.3,212.0 387.1,212.3" fill="#fefefe" fill-opacity="0.9"/>
<line x1="436.3" y1="217.6" x2="437.2" y2="221.9" stroke="#fefefe" stroke-width="0.63" stroke-opacity="0.9" stroke-linecap="round"/><polygon points="437.2,221.9 430.8,213.3 439.4,211.4" fill="#fefefe" fill-opacity="0.9"/>
<line x1="489.8" y1="217.9" x2="492.1" y2="221.6" stroke="#fefefe" stroke-width="0.63" stroke-opacity="0.9" stroke-linecap="round"/><polygon points="492.1,221.6 483.2,215.7 490.6,211.0" fill="#fefefe" fill-opacity="0.9"/>
<line x1="544.0" y1="217.9" x2="546.4" y2="221.6" stroke="#fefefe" stroke-width="0.63" stroke-opacity="0.9" stroke-linecap="round"/><polygon points="546.4,221.6 537.4,215.8 544.8,211.0" fill="#fefefe" fill-opacity="0.9"/>
<line x1="598.7" y1="217.7" x2="600.2" y2="221.8" stroke="#fefefe" stroke-width="0.63" stroke-opacity="0.9" stroke-linecap="round"/><polygon points="600.2,221.8 592.8,214.1 601.0,211.1" fill="#fefefe" fill-opacity="0.9"/>
<line x1="652.6" y1="217.9" x2="654.7" y2="221.6" stroke="#fefefe" stroke-width="0.63" stroke-opacity="0.9" stroke-linecap="round"/><polygon points="654.7,221.6 646.1,215.3 653.8,211.0" fill="#fefefe" fill-opacity="0.9"/>
<line x1="706.6" y1="218.0" x2="709.3" y2="221.5" stroke="#fefefe" stroke-width="0.63" stroke-opacity="0.9" stroke-linecap="round"/><polygon points="709.3,221.5 699.8,216.5 706.7,211.1" fill="#fefefe" fill-opacity="0.9"/>
<line x1="58.6" y1="275.5" x2="55.5" y2="272.5" stroke="#fefefe" stroke-width="0.63" stroke-opacity="0.9" stroke-linecap="round"/><polygon points="55.5,272.5 65.5,276.3 59.3,282.5" fill="#fefefe" fill-opacity="0.9"/>
<line x1="112.8" y1="275.5" x2="109.7" y2="272.5" stroke="#fefefe" stroke-width="0.63" stroke-opacity="0.9" stroke-linecap="round"/><polygon points="109.7,272.5 119.8,276.1 113.7,282.4" fill="#fefefe" fill-opacity="0.9"/>
<line x1="167.6" y1="274.5" x2="163.4" y2="273.5" stroke="#fefefe" stroke-width="0.63" stroke-opacity="0.9" stroke-linecap="round"/><polygon points="163.4,273.5 173.9,271.5 171.9,280.1" fill="#fefefe" fill-opacity="0.9"/>
<line x1="221.8" y1="274.7" x2="217.7" y2="273.3" stroke="#fefefe" stroke-width="0.63" stroke-opacity="0.9" stroke-linecap="round"/><polygon points="217.7,273.3 228.3,272.2 225.6,280.5" fill="#fefefe" fill-opacity="0.9"/>
<line x1="275.2" y1="275.8" x2="272.8" y2="272.2" stroke="#fefefe" stroke-width="0.63" stroke-opacity="0.9" stroke-linecap="round"/><polygon points="272.8,272.2 282.0,277.7 274.8,282.7" fill="#fefefe" fill-opacity="0.9"/>
<line x1="329.6" y1="272.3" x2="326.9" y2="275.7" stroke="#fefefe" stroke-width="0.63" stroke-opacity="0.9" stroke-linecap="round"/><polygon points="326.9,275.7 329.6,265.3 336.4,270.9" fill="#fefefe" fill-opacity="0.9"/>
<line x1="383.3" y1="272.0" x2="381.6" y2="276.0" stroke="#fefefe" stroke-width="0.63" stroke-opacity="0.9" stroke-linecap="round"/><polygon points="381.6,276.0 381.3,265.3 389.5,268.7" fill="#fefefe" fill-opacity="0.9"/>
<line x1="436.0" y1="272.0" x2="437.5" y2="276.0" stroke="#fefefe" stroke-width="0.63" stroke-opacity="0.9" stroke-linecap="round"/><polygon points="437.5,276.0 429.9,268.4 438.2,265.3" fill="#fefefe" fill-opacity="0.9"/>
<line x1="489.6" y1="272.3" x2="492.4" y2="275.7" stroke="#fefefe" stroke-width="0.63" stroke-opacity="0.9" stroke-linecap="round"/><polygon points="492.4,275.7 482.7,271.1 489.4,265.4" fill="#fefefe" fill-opacity="0.9"/>
<line x1="544.8" y1="271.9" x2="545.6" y2="276.1" stroke="#fefefe" stroke-width="0.63" stroke-opacity="0.9" stroke-linecap="round"/><polygon points="545.6,276.1 539.3,267.5 547.9,265.7" fill="#fefefe" fill-opacity="0.9"/>
<line x1="598.6" y1="272.0" x2="600.3" y2="276.0" stroke="#fefefe" stroke-width="0.63" stroke-opacity="0.9" stroke-linecap="round"/><polygon points="600.3,276.0 592.5,268.7 600.6,265.3" fill="#fefefe" fill-opacity="0.9"/>
<line x1="652.4" y1="272.3" x2="655.0" y2="275.7" stroke="#fefefe" stroke-width="0.63" stroke-opacity="0.9" stroke-linecap="round"/><polygon points="655.0,275.7 645.6,270.5 652.7,265.3" fill="#fefefe" fill-opacity="0.9"/>
<line x1="706.7" y1="272.2" x2="709.1" y2="275.8" stroke="#fefefe" stroke-width="0.63" stroke-opacity="0.9" stroke-linecap="round"/><polygon points="709.1,275.8 700.0,270.2 707.3,265.3" fill="#fefefe" fill-opacity="0.9"/>
<line x1="761.3" y1="272.0" x2="763.1" y2="276.0" stroke="#fefefe" stroke-width="0.63" stroke-opacity="0.9" stroke-linecap="round"/><polygon points="763.1,276.0 755.0,268.9 763.0,265.3" fill="#fefefe" fill-opacity="0.9"/>
<line x1="58.4" y1="329.9" x2="55.7" y2="326.6" stroke="#fefefe" stroke-width="0.63" stroke-opacity="0.9" stroke-linecap="round"/><polygon points="55.7,326.6 65.3,331.3 58.5,336.9" fill="#fefefe" fill-opacity="0.9"/>
<line x1="113.2" y1="329.3" x2="109.4" y2="327.2" stroke="#fefefe" stroke-width="0.63" stroke-opacity="0.9" stroke-linecap="round"/><polygon points="109.4,327.2 120.1,328.2 115.7,335.8" fill="#fefefe" fill-opacity="0.9"/>
<line x1="167.4" y1="329.4" x2="163.7" y2="327.1" stroke="#fefefe" stroke-width="0.63" stroke-opacity="0.9" stroke-linecap="round"/><polygon points="163.7,327.1 174.3,328.6 169.6,336.0" fill="#fefefe" fill-opacity="0.9"/>
<line x1="221.2" y1="329.8" x2="218.3" y2="326.6" stroke="#fefefe" stroke-width="0.63" stroke-opacity="0.9" stroke-linecap="round"/><polygon points="218.3,326.6 228.1,330.8 221.7,336.8" fill="#fefefe" fill-opacity="0.9"/>
<line x1="275.5" y1="329.8" x2="272.5" y2="326.7" stroke="#fefefe" stroke-width="0.63" stroke-opacity="0.9" stroke-linecap="round"/><polygon points="272.5,326.7 282.4,330.7 276.0,336.8" fill="#fefefe" fill-opacity="0.9"/>
<line x1="330.4" y1="328.0" x2="326.1" y2="328.5" stroke="#fefefe" stroke-width="0.63" stroke-opacity="0.9" stroke-linecap="round"/><polygon points="326.1,328.5 335.3,323.1 336.2,331.8" fill="#fefefe" fill-opacity="0.9"/>
<line x1="384.5" y1="327.4" x2="380.5" y2="329.1" stroke="#fefefe" stroke-width="0.63" stroke-opacity="0.9" stroke-linecap="round"/><polygon points="380.5,329.1 387.8,321.2 391.2,329.3" fill="#fefefe" fill-opacity="0.9"/>
<line x1="434.8" y1="327.1" x2="438.6" y2="329.3" stroke="#fefefe" stroke-width="0.63" stroke-opacity="0.9" stroke-linecap="round"/><polygon points="438.6,329.3 427.9,328.2 432.4,320.6" fill="#fefefe" fill-opacity="0.9"/>
<line x1="490.8" y1="326.1" x2="491.1" y2="330.4" stroke="#fefefe" stroke-width="0.63" stroke-opacity="0.9" stroke-linecap="round"/><polygon points="491.1,330.4 486.1,320.9 494.9,320.4" fill="#fefefe" fill-opacity="0.9"/>
<line x1="545.0" y1="326.1" x2="545.4" y2="330.4" stroke="#fefefe" stroke-width="0.63" stroke-opacity="0.9" stroke-linecap="round"/><polygon points="545.4,330.4 540.0,321.2 548.7,320.2" fill="#fefefe" fill-opacity="0.9"/>
<line x1="598.3" y1="326.4" x2="600.6" y2="330.1" stroke="#fefefe" stroke-width="0.63" stroke-opacity="0.9" stroke-linecap="round"/><polygon points="600.6,330.1 591.7,324.1 599.1,319.5" fill="#fefefe" fill-opacity="0.9"/>
<line x1="652.3" y1="326.6" x2="655.1" y2="329.9" stroke="#fefefe" stroke-width="0.63" stroke-opacity="0.9" stroke-linecap="round"/><polygon points="655.1,329.9 645.4,325.3 652.1,319.6" fill="#fefefe" fill-opacity="0.9"/>
<line x1="707.2" y1="326.2" x2="708.7" y2="330.3" stroke="#fefefe" stroke-width="0.63" stroke-opacity="0.9" stroke-linecap="round"/><polygon points="708.7,330.3 701.2,322.6 709.5,319.6" fill="#fefefe" fill-opacity="0.9"/>
<line x1="761.1" y1="326.3" x2="763.2" y2="330.1" stroke="#fefefe" stroke-width="0.63" stroke-opacity="0.9" stroke-linecap="round"/><polygon points="763.2,330.1 754.7,323.7 762.4,319.5" fill="#fefefe" fill-opacity="0.9"/>
<line x1="815.0" y1="326.5" x2="817.8" y2="329.9" stroke="#fefefe" stroke-width="0.63" stroke-opacity="0.9" stroke-linecap="round"/><polygon points="817.8,329.9 808.2,325.1 815.1,319.6" fill="#fefefe" fill-opacity="0.9"/>
<line x1="869.4" y1="326.5" x2="871.9" y2="330.0" stroke="#fefefe" stroke-width="0.63" stroke-opacity="0.9" stroke-linecap="round"/><polygon points="871.9,330.0 862.7,324.6 869.8,319.5" fill="#fefefe" fill-opacity="0.9"/>
<line x1="113.0" y1="383.8" x2="109.5" y2="381.2" stroke="#fefefe" stroke-width="0.63" stroke-opacity="0.9" stroke-linecap="round"/><polygon points="109.5,381.2 120.0,383.6 114.7,390.6" fill="#fefefe" fill-opacity="0.9"/>
<line x1="167.0" y1="384.1" x2="164.0" y2="380.9" stroke="#fefefe" stroke-width="0.63" stroke-opacity="0.9" stroke-linecap="round"/><polygon points="164.0,380.9 173.9,385.0 167.5,391.0" fill="#fefefe" fill-opacity="0.9"/>
<line x1="221.1" y1="384.2" x2="218.4" y2="380.8" stroke="#fefefe" stroke-width="0.63" stroke-opacity="0.9" stroke-linecap="round"/><polygon points="218.4,380.8 227.9,385.8 220.9,391.2" fill="#fefefe" fill-opacity="0.9"/>
<line x1="276.0" y1="383.4" x2="272.0" y2="381.6" stroke="#fefefe" stroke-width="0.63" stroke-opacity="0.9" stroke-linecap="round"/><polygon points="272.0,381.6 282.7,381.5 279.2,389.6" fill="#fefefe" fill-opacity="0.9"/>
<line x1="330.2" y1="383.5" x2="326.3" y2="381.5" stroke="#fefefe" stroke-width="0.63" stroke-opacity="0.9" stroke-linecap="round"/><polygon points="326.3,381.5 337.0,382.0 333.0,389.8" fill="#fefefe" fill-opacity="0.9"/>
<line x1="383.8" y1="384.2" x2="381.2" y2="380.7" stroke="#fefefe" stroke-width="0.63" stroke-opacity="0.9" stroke-linecap="round"/><polygon points="381.2,380.7 390.5,386.0 383.4,391.2" fill="#fefefe" fill-opacity="0.9"/>
<line x1="437.6" y1="384.4" x2="435.8" y2="380.5" stroke="#fefefe" stroke-width="0.63" stroke-opacity="0.9" stroke-linecap="round"/><polygon points="435.8,380.5 443.9,387.5 435.9,391.2" fill="#fefefe" fill-opacity="0.9"/>
<line x1="492.4" y1="380.9" x2="489.5" y2="384.1" stroke="#fefefe" stroke-width="0.63" stroke-opacity="0.9" stroke-linecap="round"/><polygon points="489.5,384.1 492.9,373.9 499.3,379.9" fill="#fefefe" fill-opacity="0.9"/>
<line x1="544.8" y1="380.4" x2="545.6" y2="384.6" stroke="#fefefe" stroke-width="0.63" stroke-opacity="0.9" stroke-linecap="round"/><polygon points="545.6,384.6 539.4,375.9 548.0,374.2" fill="#fefefe" fill-opacity="0.9"/>
<line x1="597.8" y1="381.1" x2="601.1" y2="383.9" stroke="#fefefe" stroke-width="0.63" stroke-opacity="0.9" stroke-linecap="round"/><polygon points="601.1,383.9 590.8,380.8 596.6,374.2" fill="#fefefe" fill-opacity="0.9"/>
<line x1="653.1" y1="380.4" x2="654.3" y2="384.6" stroke="#fefefe" stroke-width="0.63" stroke-opacity="0.9" stroke-linecap="round"/><polygon points="654.3,384.6 647.4,376.4 655.8,374.0" fill="#fefefe" fill-opacity="0.9"/>
<line x1="707.2" y1="380.4" x2="708.7" y2="384.5" stroke="#fefefe" stroke-width="0.63" stroke-opacity="0.9" stroke-linecap="round"/><polygon points="708.7,384.5 701.2,376.9 709.4,373.8" fill="#fefefe" fill-opacity="0.9"/>
<line x1="760.9" y1="380.7" x2="763.5" y2="384.2" stroke="#fefefe" stroke-width="0.63" stroke-opacity="0.9" stroke-linecap="round"/><polygon points="763.5,384.2 754.1,379.0 761.1,373.8" fill="#fefefe" fill-opacity="0.9"/>
<line x1="815.0" y1="380.8" x2="817.8" y2="384.1" stroke="#fefefe" stroke-width="0.63" stroke-opacity="0.9" stroke-linecap="round"/><polygon points="817.8,384.1 808.1,379.6 814.8,373.9" fill="#fefefe" fill-opacity="0.9"/>
<line x1="869.7" y1="380.5" x2="871.6" y2="384.4" stroke="#fefefe" stroke-width="0.63" stroke-opacity="0.9" stroke-linecap="round"/><polygon points="871.6,384.4 863.4,377.5 871.4,373.7" fill="#fefefe" fill-opacity="0.9"/>
<line x1="923.7" y1="380.6" x2="926.0" y2="384.3" stroke="#fefefe" stroke-width="0.63" stroke-opacity="0.9" stroke-linecap="round"/><polygon points="926.0,384.3 917.1,378.4 924.5,373.7" fill="#fefefe" fill-opacity="0.9"/>
<line x1="166.8" y1="438.5" x2="164.2" y2="435.0" stroke="#fefefe" stroke-width="0.63" stroke-opacity="0.9" stroke-linecap="round"/><polygon points="164.2,435.0 173.6,440.2 166.5,445.4" fill="#fefefe" fill-opacity="0.9"/>
<line x1="221.5" y1="438.0" x2="218.0" y2="435.4" stroke="#fefefe" stroke-width="0.63" stroke-opacity="0.9" stroke-linecap="round"/><polygon points="218.0,435.4 228.5,437.8 223.1,444.8" fill="#fefefe" fill-opacity="0.9"/>
<line x1="275.8" y1="438.0" x2="272.2" y2="435.5" stroke="#fefefe" stroke-width="0.63" stroke-opacity="0.9" stroke-linecap="round"/><polygon points="272.2,435.5 282.7,437.6 277.6,444.7" fill="#fefefe" fill-opacity="0.9"/>
<line x1="329.7" y1="438.3" x2="326.8" y2="435.1" stroke="#fefefe" stroke-width="0.63" stroke-opacity="0.9" stroke-linecap="round"/><polygon points="326.8,435.1 336.6,439.5 330.0,445.3" fill="#fefefe" fill-opacity="0.9"/>
<line x1="383.6" y1="438.6" x2="381.3" y2="434.9" stroke="#fefefe" stroke-width="0.63" stroke-opacity="0.9" stroke-linecap="round"/><polygon points="381.3,434.9 390.2,440.8 382.8,445.5" fill="#fefefe" fill-opacity="0.9"/>
<line x1="438.9" y1="437.1" x2="434.6" y2="436.3" stroke="#fefefe" stroke-width="0.63" stroke-opacity="0.9" stroke-linecap="round"/><polygon points="434.6,436.3 445.0,433.8 443.3,442.5" fill="#fefefe" fill-opacity="0.9"/>
<line x1="493.1" y1="437.1" x2="488.8" y2="436.3" stroke="#fefefe" stroke-width="0.63" stroke-opacity="0.9" stroke-linecap="round"/><polygon points="488.8,436.3 499.2,433.7 497.7,442.3" fill="#fefefe" fill-opacity="0.9"/>
<line x1="543.5" y1="438.1" x2="546.9" y2="435.4" stroke="#fefefe" stroke-width="0.63" stroke-opacity="0.9" stroke-linecap="round"/><polygon points="546.9,435.4 541.9,444.9 536.5,437.9" fill="#fefefe" fill-opacity="0.9"/>
<line x1="598.3" y1="434.9" x2="600.6" y2="438.6" stroke="#fefefe" stroke-width="0.63" stroke-opacity="0.9" stroke-linecap="round"/><polygon points="600.6,438.6 591.7,432.5 599.2,427.9" fill="#fefefe" fill-opacity="0.9"/>
<line x1="653.8" y1="434.6" x2="653.6" y2="438.9" stroke="#fefefe" stroke-width="0.63" stroke-opacity="0.9" stroke-linecap="round"/><polygon points="653.6,438.9 649.5,429.0 658.3,429.3" fill="#fefefe" fill-opacity="0.9"/>
<line x1="706.8" y1="434.9" x2="709.0" y2="438.6" stroke="#fefefe" stroke-width="0.63" stroke-opacity="0.9" stroke-linecap="round"/><polygon points="709.0,438.6 700.3,432.4 707.8,427.9" fill="#fefefe" fill-opacity="0.9"/>
<line x1="760.6" y1="435.2" x2="763.7" y2="438.2" stroke="#fefefe" stroke-width="0.63" stroke-opacity="0.9" stroke-linecap="round"/><polygon points="763.7,438.2 753.6,434.7 759.7,428.3" fill="#fefefe" fill-opacity="0.9"/>
<line x1="815.5" y1="434.7" x2="817.3" y2="438.7" stroke="#fefefe" stroke-width="0.63" stroke-opacity="0.9" stroke-linecap="round"/><polygon points="817.3,438.7 809.4,431.5 817.4,428.0" fill="#fefefe" fill-opacity="0.9"/>
<line x1="869.6" y1="434.8" x2="871.6" y2="438.6" stroke="#fefefe" stroke-width="0.63" stroke-opacity="0.9" stroke-linecap="round"/><polygon points="871.6,438.6 863.2,432.0 871.0,428.0" fill="#fefefe" fill-opacity="0.9"/>
<line x1="923.5" y1="435.1" x2="926.3" y2="438.4" stroke="#fefefe" stroke-width="0.63" stroke-opacity="0.9" stroke-linecap="round"/><polygon points="926.3,438.4 916.6,433.7 923.4,428.1" fill="#fefefe" fill-opacity="0.9"/>
<line x1="221.4" y1="492.3" x2="218.1" y2="489.6" stroke="#fefefe" stroke-width="0.63" stroke-opacity="0.9" stroke-linecap="round"/><polygon points="218.1,489.6 228.4,492.4 222.9,499.2" fill="#fefefe" fill-opacity="0.9"/>
<line x1="275.5" y1="492.6" x2="272.5" y2="489.4" stroke="#fefefe" stroke-width="0.63" stroke-opacity="0.9" stroke-linecap="round"/><polygon points="272.5,489.4 282.4,493.6 275.9,499.5" fill="#fefefe" fill-opacity="0.9"/>
<line x1="329.4" y1="492.8" x2="327.0" y2="489.2" stroke="#fefefe" stroke-width="0.63" stroke-opacity="0.9" stroke-linecap="round"/><polygon points="327.0,489.2 336.1,494.9 328.8,499.7" fill="#fefefe" fill-opacity="0.9"/>
<line x1="384.3" y1="492.2" x2="380.7" y2="489.7" stroke="#fefefe" stroke-width="0.63" stroke-opacity="0.9" stroke-linecap="round"/><polygon points="380.7,489.7 391.2,491.6 386.3,498.8" fill="#fefefe" fill-opacity="0.9"/>
<line x1="438.5" y1="492.1" x2="434.9" y2="489.8" stroke="#fefefe" stroke-width="0.63" stroke-opacity="0.9" stroke-linecap="round"/><polygon points="434.9,489.8 445.5,491.4 440.7,498.8" fill="#fefefe" fill-opacity="0.9"/>
<line x1="492.2" y1="492.7" x2="489.7" y2="489.2" stroke="#fefefe" stroke-width="0.63" stroke-opacity="0.9" stroke-linecap="round"/><polygon points="489.7,489.2 499.0,494.5 491.9,499.7" fill="#fefefe" fill-opacity="0.9"/>
<line x1="545.7" y1="493.1" x2="544.7" y2="488.8" stroke="#fefefe" stroke-width="0.63" stroke-opacity="0.9" stroke-linecap="round"/><polygon points="544.7,488.8 551.2,497.3 542.7,499.4" fill="#fefefe" fill-opacity="0.9"/>
<line x1="601.5" y1="490.1" x2="597.4" y2="491.8" stroke="#fefefe" stroke-width="0.63" stroke-opacity="0.9" stroke-linecap="round"/><polygon points="597.4,491.8 604.8,484.0 608.1,492.2" fill="#fefefe" fill-opacity="0.9"/>
<line x1="654.1" y1="488.8" x2="653.2" y2="493.1" stroke="#fafafa" stroke-width="0.63" stroke-opacity="0.9" stroke-linecap="round"/><polygon points="653.2,493.1 651.0,482.6 659.6,484.5" fill="#fafafa" fill-opacity="0.9"/>
<line x1="706.1" y1="489.8" x2="709.8" y2="492.1" stroke="#fefefe" stroke-width="0.63" stroke-opacity="0.9" stroke-linecap="round"/><polygon points="709.8,492.1 699.1,490.8 703.7,483.3" fill="#fefefe" fill-opacity="0.9"/>
<line x1="761.1" y1="489.1" x2="763.2" y2="492.9" stroke="#fefefe" stroke-width="0.63" stroke-opacity="0.9" stroke-linecap="round"/><polygon points="763.2,492.9 754.7,486.4 762.4,482.2" fill="#fefefe" fill-opacity="0.9"/>
<line x1="815.7" y1="488.9" x2="817.1" y2="493.0" stroke="#fefefe" stroke-width="0.63" stroke-opacity="0.9" stroke-linecap="round"/><polygon points="817.1,493.0 809.9,485.0 818.3,482.4" fill="#fefefe" fill-opacity="0.9"/>
<line x1="869.3" y1="489.2" x2="871.9" y2="492.7" stroke="#fefefe" stroke-width="0.63" stroke-opacity="0.9" stroke-linecap="round"/><polygon points="871.9,492.7 862.6,487.6 869.6,482.3" fill="#fefefe" fill-opacity="0.9"/>
<line x1="923.2" y1="489.6" x2="926.6" y2="492.3" stroke="#fefefe" stroke-width="0.63" stroke-opacity="0.9" stroke-linecap="round"/><polygon points="926.6,492.3 916.2,489.6 921.8,482.8" fill="#fefefe" fill-opacity="0.9"/>
<line x1="275.3" y1="547.0" x2="272.7" y2="543.4" stroke="#fefefe" stroke-width="0.63" stroke-opacity="0.9" stroke-linecap="round"/><polygon points="272.7,543.4 282.0,548.9 274.8,553.9" fill="#fefefe" fill-opacity="0.9"/>
<line x1="329.8" y1="546.8" x2="326.7" y2="543.6" stroke="#fefefe" stroke-width="0.63" stroke-opacity="0.9" stroke-linecap="round"/><polygon points="326.7,543.6 336.7,547.6 330.4,553.7" fill="#fefefe" fill-opacity="0.9"/>
<line x1="384.2" y1="546.5" x2="380.8" y2="543.9" stroke="#fefefe" stroke-width="0.63" stroke-opacity="0.9" stroke-linecap="round"/><polygon points="380.8,543.9 391.2,546.5 385.7,553.4" fill="#fefefe" fill-opacity="0.9"/>
<line x1="438.1" y1="546.8" x2="435.3" y2="543.6" stroke="#fefefe" stroke-width="0.63" stroke-opacity="0.9" stroke-linecap="round"/><polygon points="435.3,543.6 445.0,548.1 438.3,553.8" fill="#fefefe" fill-opacity="0.9"/>
<line x1="492.0" y1="547.1" x2="489.9" y2="543.3" stroke="#fefefe" stroke-width="0.63" stroke-opacity="0.9" stroke-linecap="round"/><polygon points="489.9,543.3 498.4,549.9 490.6,554.0" fill="#fefefe" fill-opacity="0.9"/>
<line x1="547.1" y1="546.2" x2="543.3" y2="544.2" stroke="#fefefe" stroke-width="0.63" stroke-opacity="0.9" stroke-linecap="round"/><polygon points="543.3,544.2 554.0,544.7 550.0,552.5" fill="#fefefe" fill-opacity="0.9"/>
<line x1="601.4" y1="546.1" x2="597.5" y2="544.3" stroke="#fefefe" stroke-width="0.63" stroke-opacity="0.9" stroke-linecap="round"/><polygon points="597.5,544.3 608.2,544.4 604.5,552.4" fill="#fefefe" fill-opacity="0.9"/>
<line x1="654.2" y1="547.3" x2="653.2" y2="543.1" stroke="#fafafa" stroke-width="0.63" stroke-opacity="0.9" stroke-linecap="round"/><polygon points="653.2,543.1 659.6,551.6 651.1,553.6" fill="#fafafa" fill-opacity="0.9"/>
<line x1="705.9" y1="546.0" x2="709.9" y2="544.4" stroke="#fdfdfd" stroke-width="0.63" stroke-opacity="0.9" stroke-linecap="round"/><polygon points="709.9,544.4 702.5,552.1 699.2,544.0" fill="#fdfdfd" fill-opacity="0.9"/>
<line x1="762.7" y1="543.1" x2="761.6" y2="547.3" stroke="#fbfbfb" stroke-width="0.63" stroke-opacity="0.9" stroke-linecap="round"/><polygon points="761.6,547.3 759.9,536.7 768.4,539.0" fill="#fbfbfb" fill-opacity="0.9"/>
<line x1="815.4" y1="543.3" x2="817.4" y2="547.1" stroke="#fdfdfd" stroke-width="0.63" stroke-opacity="0.9" stroke-linecap="round"/><polygon points="817.4,547.1 808.9,540.6 816.6,536.4" fill="#fdfdfd" fill-opacity="0.9"/>
<line x1="868.9" y1="544.0" x2="872.4" y2="546.4" stroke="#fefefe" stroke-width="0.63" stroke-opacity="0.9" stroke-linecap="round"/><polygon points="872.4,546.4 861.9,544.4 866.9,537.2" fill="#fefefe" fill-opacity="0.9"/>
<line x1="922.9" y1="544.3" x2="926.9" y2="546.1" stroke="#fefefe" stroke-width="0.63" stroke-opacity="0.9" stroke-linecap="round"/><polygon points="926.9,546.1 916.2,546.2 919.7,538.2" fill="#fefefe" fill-opacity="0.9"/>
<line x1="329.9" y1="600.9" x2="326.6" y2="598.0" stroke="#fefefe" stroke-width="0.63" stroke-opacity="0.9" stroke-linecap="round"/><polygon points="326.6,598.0 336.8,601.2 331.0,607.8" fill="#fefefe" fill-opacity="0.9"/>
<line x1="383.9" y1="601.1" x2="381.0" y2="597.8" stroke="#fefefe" stroke-width="0.63" stroke-opacity="0.9" stroke-linecap="round"/><polygon points="381.0,597.8 390.8,602.2 384.3,608.0" fill="#fefefe" fill-opacity="0.9"/>
<line x1="437.9" y1="601.3" x2="435.6" y2="597.6" stroke="#fefefe" stroke-width="0.63" stroke-opacity="0.9" stroke-linecap="round"/><polygon points="435.6,597.6 444.5,603.5 437.0,608.2" fill="#fefefe" fill-opacity="0.9"/>
<line x1="492.5" y1="601.0" x2="489.4" y2="597.9" stroke="#fefefe" stroke-width="0.63" stroke-opacity="0.9" stroke-linecap="round"/><polygon points="489.4,597.9 499.4,601.7 493.3,607.9" fill="#fefefe" fill-opacity="0.9"/>
<line x1="546.9" y1="600.7" x2="543.5" y2="598.1" stroke="#fefefe" stroke-width="0.63" stroke-opacity="0.9" stroke-linecap="round"/><polygon points="543.5,598.1 553.9,600.5 548.7,607.5" fill="#fefefe" fill-opacity="0.9"/>
<line x1="600.7" y1="601.2" x2="598.1" y2="597.7" stroke="#fefefe" stroke-width="0.63" stroke-opacity="0.9" stroke-linecap="round"/><polygon points="598.1,597.7 607.5,602.9 600.4,608.2" fill="#fefefe" fill-opacity="0.9"/>
<line x1="654.2" y1="601.5" x2="653.2" y2="597.3" stroke="#fefefe" stroke-width="0.63" stroke-opacity="0.9" stroke-linecap="round"/><polygon points="653.2,597.3 659.8,605.7 651.3,607.9" fill="#fefefe" fill-opacity="0.9"/>
<line x1="710.1" y1="599.7" x2="705.8" y2="599.2" stroke="#fdfdfd" stroke-width="0.63" stroke-opacity="0.9" stroke-linecap="round"/><polygon points="705.8,599.2 715.9,595.8 715.0,604.6" fill="#fdfdfd" fill-opacity="0.9"/>
<line x1="769.5" y1="597.1" x2="754.8" y2="601.8" stroke="#a3a3a3" stroke-width="0.63" stroke-opacity="0.9" stroke-linecap="round"/><polygon points="754.8,601.8 762.7,594.6 765.4,603.0" fill="#a3a3a3" fill-opacity="0.9"/>
<line x1="812.2" y1="598.6" x2="820.6" y2="600.3" stroke="#cccccc" stroke-width="0.63" stroke-opacity="0.9" stroke-linecap="round"/><polygon points="820.6,600.3 810.1,602.6 811.9,594.0" fill="#cccccc" fill-opacity="0.9"/>
<line x1="868.5" y1="599.3" x2="872.8" y2="599.6" stroke="#fefefe" stroke-width="0.63" stroke-opacity="0.9" stroke-linecap="round"/><polygon points="872.8,599.6 862.7,603.2 863.4,594.5" fill="#fefefe" fill-opacity="0.9"/>
<line x1="922.7" y1="599.3" x2="927.0" y2="599.5" stroke="#fefefe" stroke-width="0.63" stroke-opacity="0.9" stroke-linecap="round"/><polygon points="927.0,599.5 917.1,603.5 917.5,594.7" fill="#fefefe" fill-opacity="0.9"/>
<line x1="383.7" y1="655.5" x2="381.2" y2="651.9" stroke="#fefefe" stroke-width="0.63" stroke-opacity="0.9" stroke-linecap="round"/><polygon points="381.2,651.9 390.4,657.4 383.2,662.4" fill="#fefefe" fill-opacity="0.9"/>
<line x1="438.0" y1="655.4" x2="435.4" y2="651.9" stroke="#fefefe" stroke-width="0.63" stroke-opacity="0.9" stroke-linecap="round"/><polygon points="435.4,651.9 444.8,657.1 437.8,662.4" fill="#fefefe" fill-opacity="0.9"/>
<line x1="492.6" y1="655.1" x2="489.3" y2="652.3" stroke="#fefefe" stroke-width="0.63" stroke-opacity="0.9" stroke-linecap="round"/><polygon points="489.3,652.3 499.6,655.3 493.8,662.0" fill="#fefefe" fill-opacity="0.9"/>
<line x1="546.6" y1="655.3" x2="543.8" y2="652.0" stroke="#fefefe" stroke-width="0.63" stroke-opacity="0.9" stroke-linecap="round"/><polygon points="543.8,652.0 553.4,656.7 546.7,662.3" fill="#fefefe" fill-opacity="0.9"/>
<line x1="600.4" y1="655.6" x2="598.5" y2="651.7" stroke="#fefefe" stroke-width="0.63" stroke-opacity="0.9" stroke-linecap="round"/><polygon points="598.5,651.7 606.8,658.5 598.9,662.4" fill="#fefefe" fill-opacity="0.9"/>
<line x1="655.3" y1="655.1" x2="652.1" y2="652.2" stroke="#fefefe" stroke-width="0.63" stroke-opacity="0.9" stroke-linecap="round"/><polygon points="652.1,652.2 662.2,655.6 656.3,662.0" fill="#fefefe" fill-opacity="0.9"/>
<line x1="709.7" y1="654.9" x2="706.1" y2="652.5" stroke="#fefefe" stroke-width="0.63" stroke-opacity="0.9" stroke-linecap="round"/><polygon points="706.1,652.5 716.7,654.2 711.9,661.5" fill="#fefefe" fill-opacity="0.9"/>
<line x1="763.0" y1="655.7" x2="761.3" y2="651.7" stroke="#f3f3f3" stroke-width="0.63" stroke-opacity="0.9" stroke-linecap="round"/><polygon points="761.3,651.7 769.3,658.8 761.3,662.4" fill="#f3f3f3" fill-opacity="0.9"/>
<line x1="815.2" y1="655.5" x2="817.6" y2="651.9" stroke="#f7f7f7" stroke-width="0.63" stroke-opacity="0.9" stroke-linecap="round"/><polygon points="817.6,651.9 815.7,662.4 808.5,657.4" fill="#f7f7f7" fill-opacity="0.9"/>
<line x1="868.7" y1="654.7" x2="872.5" y2="652.6" stroke="#fefefe" stroke-width="0.63" stroke-opacity="0.9" stroke-linecap="round"/><polygon points="872.5,652.6 866.1,661.2 861.9,653.4" fill="#fefefe" fill-opacity="0.9"/>
<line x1="922.8" y1="654.4" x2="926.9" y2="653.0" stroke="#fefefe" stroke-width="0.63" stroke-opacity="0.9" stroke-linecap="round"/><polygon points="926.9,653.0 919.1,660.3 916.3,651.9" fill="#fefefe" fill-opacity="0.9"/>
<line x1="492.4" y1="709.5" x2="489.5" y2="706.3" stroke="#fefefe" stroke-width="0.63" stroke-opacity="0.9" stroke-linecap="round"/><polygon points="489.5,706.3 499.3,710.7 492.7,716.5" fill="#fefefe" fill-opacity="0.9"/>
<line x1="546.3" y1="709.8" x2="544.1" y2="706.1" stroke="#fefefe" stroke-width="0.63" stroke-opacity="0.9" stroke-linecap="round"/><polygon points="544.1,706.1 552.9,712.1 545.5,716.7" fill="#fefefe" fill-opacity="0.9"/>
<line x1="600.7" y1="709.7" x2="598.2" y2="706.2" stroke="#fefefe" stroke-width="0.63" stroke-opacity="0.9" stroke-linecap="round"/><polygon points="598.2,706.2 607.4,711.5 600.3,716.7" fill="#fefefe" fill-opacity="0.9"/>
<line x1="655.3" y1="709.3" x2="652.0" y2="706.5" stroke="#fefefe" stroke-width="0.63" stroke-opacity="0.9" stroke-linecap="round"/><polygon points="652.0,706.5 662.3,709.5 656.6,716.2" fill="#fefefe" fill-opacity="0.9"/>
<line x1="709.2" y1="709.7" x2="706.6" y2="706.2" stroke="#fefefe" stroke-width="0.63" stroke-opacity="0.9" stroke-linecap="round"/><polygon points="706.6,706.2 716.0,711.4 708.9,716.6" fill="#fefefe" fill-opacity="0.9"/>
<line x1="762.6" y1="710.0" x2="761.7" y2="705.8" stroke="#fefefe" stroke-width="0.63" stroke-opacity="0.9" stroke-linecap="round"/><polygon points="761.7,705.8 768.0,714.4 759.4,716.3" fill="#fefefe" fill-opacity="0.9"/>
<line x1="815.7" y1="710.0" x2="817.1" y2="705.9" stroke="#fefefe" stroke-width="0.63" stroke-opacity="0.9" stroke-linecap="round"/><polygon points="817.1,705.9 818.2,716.5 809.9,713.8" fill="#fefefe" fill-opacity="0.9"/>
<line x1="869.2" y1="709.6" x2="872.1" y2="706.3" stroke="#fefefe" stroke-width="0.63" stroke-opacity="0.9" stroke-linecap="round"/><polygon points="872.1,706.3 869.0,716.5 862.4,710.8" fill="#fefefe" fill-opacity="0.9"/>
<line x1="923.1" y1="709.2" x2="926.6" y2="706.7" stroke="#fefefe" stroke-width="0.63" stroke-opacity="0.9" stroke-linecap="round"/><polygon points="926.6,706.7 921.3,715.9 916.1,708.8" fill="#fefefe" fill-opacity="0.9"/>
<line x1="546.3" y1="764.0" x2="544.1" y2="760.3" stroke="#fefefe" stroke-width="0.63" stroke-opacity="0.9" stroke-linecap="round"/><polygon points="544.1,760.3 552.9,766.3 545.5,770.9" fill="#fefefe" fill-opacity="0.9"/>
<line x1="601.0" y1="763.7" x2="597.9" y2="760.6" stroke="#fefefe" stroke-width="0.63" stroke-opacity="0.9" stroke-linecap="round"/><polygon points="597.9,760.6 607.9,764.3 601.8,770.6" fill="#fefefe" fill-opacity="0.9"/>
<line x1="655.1" y1="763.8" x2="652.3" y2="760.5" stroke="#fefefe" stroke-width="0.63" stroke-opacity="0.9" stroke-linecap="round"/><polygon points="652.3,760.5 661.9,765.2 655.1,770.8" fill="#fefefe" fill-opacity="0.9"/>
<line x1="708.9" y1="764.1" x2="707.0" y2="760.2" stroke="#fefefe" stroke-width="0.63" stroke-opacity="0.9" stroke-linecap="round"/><polygon points="707.0,760.2 715.2,767.1 707.3,770.9" fill="#fefefe" fill-opacity="0.9"/>
<line x1="762.5" y1="764.3" x2="761.9" y2="760.0" stroke="#fefefe" stroke-width="0.63" stroke-opacity="0.9" stroke-linecap="round"/><polygon points="761.9,760.0 767.5,769.1 758.8,770.3" fill="#fefefe" fill-opacity="0.9"/>
<line x1="816.0" y1="764.3" x2="816.8" y2="760.0" stroke="#fefefe" stroke-width="0.63" stroke-opacity="0.9" stroke-linecap="round"/><polygon points="816.8,760.0 819.1,770.5 810.5,768.7" fill="#fefefe" fill-opacity="0.9"/>
<line x1="869.6" y1="764.1" x2="871.7" y2="760.3" stroke="#fefefe" stroke-width="0.63" stroke-opacity="0.9" stroke-linecap="round"/><polygon points="871.7,760.3 870.8,770.9 863.1,766.6" fill="#fefefe" fill-opacity="0.9"/>
<line x1="923.4" y1="763.8" x2="926.3" y2="760.6" stroke="#fefefe" stroke-width="0.63" stroke-opacity="0.9" stroke-linecap="round"/><polygon points="926.3,760.6 923.0,770.7 916.5,764.8" fill="#fefefe" fill-opacity="0.9"/>
<line x1="600.9" y1="818.0" x2="598.0" y2="814.8" stroke="#fefefe" stroke-width="0.63" stroke-opacity="0.9" stroke-linecap="round"/><polygon points="598.0,814.8 607.7,819.3 601.1,825.0" fill="#fefefe" fill-opacity="0.9"/>
<line x1="654.8" y1="818.2" x2="652.5" y2="814.6" stroke="#fefefe" stroke-width="0.63" stroke-opacity="0.9" stroke-linecap="round"/><polygon points="652.5,814.6 661.4,820.6 653.9,825.2" fill="#fefefe" fill-opacity="0.9"/>
<line x1="708.7" y1="818.4" x2="707.2" y2="814.4" stroke="#fefefe" stroke-width="0.63" stroke-opacity="0.9" stroke-linecap="round"/><polygon points="707.2,814.4 714.6,822.1 706.4,825.0" fill="#fefefe" fill-opacity="0.9"/>
<line x1="762.4" y1="818.6" x2="761.9" y2="814.2" stroke="#fefefe" stroke-width="0.63" stroke-opacity="0.9" stroke-linecap="round"/><polygon points="761.9,814.2 767.3,823.5 758.6,824.4" fill="#fefefe" fill-opacity="0.9"/>
<line x1="816.1" y1="818.5" x2="816.7" y2="814.3" stroke="#fefefe" stroke-width="0.63" stroke-opacity="0.9" stroke-linecap="round"/><polygon points="816.7,814.3 819.6,824.6 810.9,823.2" fill="#fefefe" fill-opacity="0.9"/>
<line x1="869.8" y1="818.4" x2="871.5" y2="814.4" stroke="#fefefe" stroke-width="0.63" stroke-opacity="0.9" stroke-linecap="round"/><polygon points="871.5,814.4 871.8,825.1 863.7,821.7" fill="#fefefe" fill-opacity="0.9"/>
<line x1="923.7" y1="818.2" x2="926.1" y2="814.6" stroke="#fefefe" stroke-width="0.63" stroke-opacity="0.9" stroke-linecap="round"/><polygon points="926.1,814.6 924.3,825.2 917.0,820.2" fill="#fefefe" fill-opacity="0.9"/>
<line x1="708.5" y1="872.7" x2="707.3" y2="868.6" stroke="#fefefe" stroke-width="0.63" stroke-opacity="0.9" stroke-linecap="round"/><polygon points="707.3,868.6 714.2,876.7 705.8,879.1" fill="#fefefe" fill-opacity="0.9"/>
<line x1="762.3" y1="872.8" x2="762.0" y2="868.5" stroke="#fefefe" stroke-width="0.63" stroke-opacity="0.9" stroke-linecap="round"/><polygon points="762.0,868.5 767.2,877.9 758.4,878.6" fill="#fefefe" fill-opacity="0.9"/>
<line x1="816.1" y1="872.8" x2="816.7" y2="868.5" stroke="#fefefe" stroke-width="0.63" stroke-opacity="0.9" stroke-linecap="round"/><polygon points="816.7,868.5 819.8,878.7 811.1,877.6" fill="#fefefe" fill-opacity="0.9"/>
<line x1="870.0" y1="872.7" x2="871.3" y2="868.6" stroke="#fefefe" stroke-width="0.63" stroke-opacity="0.9" stroke-linecap="round"/><polygon points="871.3,868.6 872.4,879.2 864.1,876.5" fill="#fefefe" fill-opacity="0.9"/>
</svg>