<?xml version="1.0" encoding="UTF-8"?>
<svg xmlns="http://www.w3.org/2000/svg" viewBox="0 0 1000 1000" preserveAspectRatio="none">
<line x1="58.6" y1="55.5" x2="55.5" y2="58.6" stroke="#fefefe" stroke-width="0.63" stroke-opacity="0.9" stroke-linecap="round"/><polygon points="55.5,58.6 59.3,48.6 65.5,54.8" fill="#fefefe" fill-opacity="0.9"/>
<line x1="112.2" y1="55.1" x2="110.3" y2="59.0" stroke="#fefefe" stroke-width="0.63" stroke-opacity="0.9" stroke-linecap="round"/><polygon points="110.3,59.0 110.7,48.3 118.6,52.2" fill="#fefefe" fill-opacity="0.9"/>
<line x1="165.5" y1="54.9" x2="165.6" y2="59.2" stroke="#fefefe" stroke-width="0.63" stroke-opacity="0.9" stroke-linecap="round"/><polygon points="165.6,59.2 161.0,49.5 169.8,49.4" fill="#fefefe" fill-opacity="0.9"/>
<line x1="218.8" y1="55.1" x2="220.7" y2="59.0" stroke="#fefefe" stroke-width="0.63" stroke-opacity="0.9" stroke-linecap="round"/><polygon points="220.7,59.0 212.4,52.3 220.2,48.3" fill="#fefefe" fill-opacity="0.9"/>
<line x1="273.1" y1="55.1" x2="274.9" y2="59.0" stroke="#fefefe" stroke-width="0.63" stroke-opacity="0.9" stroke-linecap="round"/><polygon points="274.9,59.0 266.8,52.1 274.7,48.3" fill="#fefefe" fill-opacity="0.9"/>
<line x1="327.7" y1="54.9" x2="328.8" y2="59.1" stroke="#fefefe" stroke-width="0.63" stroke-opacity="0.9" stroke-linecap="round"/><polygon points="328.8,59.1 322.2,50.7 330.7,48.6" fill="#fefefe" fill-opacity="0.9"/>
<line x1="381.5" y1="55.1" x2="383.4" y2="59.0" stroke="#fefefe" stroke-width="0.63" stroke-opacity="0.9" stroke-linecap="round"/><polygon points="383.4,59.0 375.2,52.1 383.1,48.3" fill="#fefefe" fill-opacity="0.9"/>
<line x1="435.5" y1="55.3" x2="438.0" y2="58.8" stroke="#fefefe" stroke-width="0.63" stroke-opacity="0.9" stroke-linecap="round"/><polygon points="438.0,58.8 428.8,53.4 435.9,48.3" fill="#fefefe" fill-opacity="0.9"/>
<line x1="59.0" y1="110.3" x2="55.1" y2="112.2" stroke="#fefefe" stroke-width="0.63" stroke-opacity="0.9" stroke-linecap="round"/><polygon points="55.1,112.2 61.9,104.0 65.8,111.9" fill="#fefefe" fill-opacity="0.9"/>
<line x1="112.8" y1="109.7" x2="109.7" y2="112.8" stroke="#fefefe" stroke-width="0.63" stroke-opacity="0.9" stroke-linecap="round"/><polygon points="109.7,112.8 113.5,102.8 119.8,109.0" fill="#fefefe" fill-opacity="0.9"/>
<line x1="165.4" y1="109.1" x2="165.6" y2="113.4" stroke="#fefefe" stroke-width="0.63" stroke-opacity="0.9" stroke-linecap="round"/><polygon points="165.6,113.4 160.9,103.8 169.6,103.5" fill="#fefefe" fill-opacity="0.9"/>
<line x1="218.6" y1="109.5" x2="221.0" y2="113.1" stroke="#fefefe" stroke-width="0.63" stroke-opacity="0.9" stroke-linecap="round"/><polygon points="221.0,113.1 211.9,107.4 219.2,102.5" fill="#fefefe" fill-opacity="0.9"/>
<line x1="274.0" y1="109.1" x2="274.0" y2="113.4" stroke="#fefefe" stroke-width="0.63" stroke-opacity="0.9" stroke-linecap="round"/><polygon points="274.0,113.4 269.4,103.8 278.2,103.6" fill="#fefefe" fill-opacity="0.9"/>
<line x1="327.6" y1="109.2" x2="328.9" y2="113.4" stroke="#fefefe" stroke-width="0.63" stroke-opacity="0.9" stroke-linecap="round"/><polygon points="328.9,113.4 321.9,105.2 330.3,102.8" fill="#fefefe" fill-opacity="0.9"/>
<line x1="381.3" y1="109.5" x2="383.7" y2="113.1" stroke="#fefefe" stroke-width="0.63" stroke-opacity="0.9" stroke-linecap="round"/><polygon points="383.7,113.1 374.7,107.3 382.0,102.5" fill="#fefefe" fill-opacity="0.9"/>
<line x1="435.7" y1="109.4" x2="437.7" y2="113.2" stroke="#fefefe" stroke-width="0.63" stroke-opacity="0.9" stroke-linecap="round"/><polygon points="437.7,113.2 429.3,106.7 437.0,102.5" fill="#fefefe" fill-opacity="0.9"/>
<line x1="490.2" y1="109.2" x2="491.7" y2="113.3" stroke="#fefefe" stroke-width="0.63" stroke-opacity="0.9" stroke-linecap="round"/><polygon points="491.7,113.3 484.2,105.7 492.4,102.6" fill="#fefefe" fill-opacity="0.9"/>
<line x1="544.1" y1="109.4" x2="546.3" y2="113.2" stroke="#fefefe" stroke-width="0.63" stroke-opacity="0.9" stroke-linecap="round"/><polygon points="546.3,113.2 537.6,106.9 545.2,102.5" fill="#fefefe" fill-opacity="0.9"/>
<line x1="59.2" y1="165.6" x2="54.9" y2="165.5" stroke="#fefefe" stroke-width="0.63" stroke-opacity="0.9" stroke-linecap="round"/><polygon points="54.9,165.5 64.7,161.3 64.5,170.1" fill="#fefefe" fill-opacity="0.9"/>
<line x1="113.4" y1="165.6" x2="109.1" y2="165.4" stroke="#fefefe" stroke-width="0.63" stroke-opacity="0.9" stroke-linecap="round"/><polygon points="109.1,165.4 119.0,161.4 118.7,170.2" fill="#fefefe" fill-opacity="0.9"/>
<line x1="164.0" y1="167.1" x2="167.0" y2="164.0" stroke="#fefefe" stroke-width="0.63" stroke-opacity="0.9" stroke-linecap="round"/><polygon points="167.0,164.0 163.4,174.0 157.1,168.0" fill="#fefefe" fill-opacity="0.9"/>
<line x1="220.5" y1="163.5" x2="219.0" y2="167.6" stroke="#fefefe" stroke-width="0.63" stroke-opacity="0.9" stroke-linecap="round"/><polygon points="219.0,167.6 218.2,156.9 226.5,159.9" fill="#fefefe" fill-opacity="0.9"/>
<line x1="274.3" y1="163.4" x2="273.7" y2="167.7" stroke="#fefefe" stroke-width="0.63" stroke-opacity="0.9" stroke-linecap="round"/><polygon points="273.7,167.7 270.7,157.4 279.4,158.6" fill="#fefefe" fill-opacity="0.9"/>
<line x1="327.3" y1="163.6" x2="329.1" y2="167.5" stroke="#fefefe" stroke-width="0.63" stroke-opacity="0.9" stroke-linecap="round"/><polygon points="329.1,167.5 321.1,160.5 329.0,156.8" fill="#fefefe" fill-opacity="0.9"/>
<line x1="381.3" y1="163.7" x2="383.7" y2="167.3" stroke="#fefefe" stroke-width="0.63" stroke-opacity="0.9" stroke-linecap="round"/><polygon points="383.7,167.3 374.6,161.7 381.8,156.8" fill="#fefefe" fill-opacity="0.9"/>
<line x1="436.2" y1="163.4" x2="437.2" y2="167.6" stroke="#fefefe" stroke-width="0.63" stroke-opacity="0.9" stroke-linecap="round"/><polygon points="437.2,167.6 430.7,159.1 439.3,157.1" fill="#fefefe" fill-opacity="0.9"/>
<line x1="490.1" y1="163.5" x2="491.9" y2="167.5" stroke="#fefefe" stroke-width="0.63" stroke-opacity="0.9" stroke-linecap="round"/><polygon points="491.9,167.5 483.8,160.4 491.8,156.8" fill="#fefefe" fill-opacity="0.9"/>
<line x1="543.9" y1="163.8" x2="546.5" y2="167.3" stroke="#fefefe" stroke-width="0.63" stroke-opacity="0.9" stroke-linecap="round"/><polygon points="546.5,167.3 537.2,162.0 544.3,156.8" fill="#fefefe" fill-opacity="0.9"/>
<line x1="598.3" y1="163.6" x2="600.5" y2="167.4" stroke="#fefefe" stroke-width="0.63" stroke-opacity="0.9" stroke-linecap="round"/><polygon points="600.5,167.4 591.8,161.2 599.4,156.7" fill="#fefefe" fill-opacity="0.9"/>
<line x1="59.0" y1="220.8" x2="55.1" y2="218.7" stroke="#fefefe" stroke-width="0.63" stroke-opacity="0.9" stroke-linecap="round"/><polygon points="55.1,218.7 65.8,219.4 61.7,227.2" fill="#fefefe" fill-opacity="0.9"/>
<line x1="112.8" y1="221.3" x2="109.8" y2="218.2" stroke="#fefefe" stroke-width="0.63" stroke-opacity="0.9" stroke-linecap="round"/><polygon points="109.8,218.2 119.7,222.1 113.5,228.2" fill="#fefefe" fill-opacity="0.9"/>
<line x1="167.3" y1="220.9" x2="163.7" y2="218.6" stroke="#fefefe" stroke-width="0.63" stroke-opacity="0.9" stroke-linecap="round"/><polygon points="163.7,218.6 174.3,220.2 169.5,227.6" fill="#fefefe" fill-opacity="0.9"/>
<line x1="221.7" y1="218.8" x2="217.8" y2="220.7" stroke="#fefefe" stroke-width="0.63" stroke-opacity="0.9" stroke-linecap="round"/><polygon points="217.8,220.7 224.8,212.6 228.5,220.6" fill="#fefefe" fill-opacity="0.9"/>
<line x1="274.8" y1="217.8" x2="273.2" y2="221.8" stroke="#fefefe" stroke-width="0.63" stroke-opacity="0.9" stroke-linecap="round"/><polygon points="273.2,221.8 272.9,211.1 281.0,214.4" fill="#fefefe" fill-opacity="0.9"/>
<line x1="326.7" y1="218.2" x2="329.8" y2="221.3" stroke="#fefefe" stroke-width="0.63" stroke-opacity="0.9" stroke-linecap="round"/><polygon points="329.8,221.3 319.8,217.4 326.0,211.3" fill="#fefefe" fill-opacity="0.9"/>
<line x1="382.4" y1="217.6" x2="382.6" y2="221.9" stroke="#fefefe" stroke-width="0.63" stroke-opacity="0.9" stroke-linecap="round"/><polygon points="382.6,221.9 377.8,212.3 386.6,212.0" fill="#fefefe" fill-opacity="0.9"/>
<line x1="436.3" y1="217.6" x2="437.2" y2="221.9" stroke="#fefefe" stroke-width="0.63" stroke-opacity="0.9" stroke-linecap="round"/><polygon points="437.2,221.9 430.8,213.3 439.4,211.4" fill="#fefefe" fill-opacity="0.9"/>
<line x1="489.8" y1="217.9" x2="492.1" y2="221.6" stroke="#fefefe" stroke-width="0.63" stroke-opacity="0.9" stroke-linecap="round"/><polygon points="492.1,221.6 483.2,215.8 490.5,211.0" fill="#fefefe" fill-opacity="0.9"/>
<line x1="543.9" y1="218.0" x2="546.5" y2="221.5" stroke="#fefefe" stroke-width="0.63" stroke-opacity="0.9" stroke-linecap="round"/><polygon points="546.5,221.5 537.2,216.1 544.3,211.0" fill="#fefefe" fill-opacity="0.9"/>
<line x1="598.7" y1="217.7" x2="600.2" y2="221.8" stroke="#fefefe" stroke-width="0.63" stroke-opacity="0.9" stroke-linecap="round"/><polygon points="600.2,221.8 592.7,214.2 600.9,211.1" fill="#fefefe" fill-opacity="0.9"/>
<line x1="652.6" y1="217.9" x2="654.7" y2="221.6" stroke="#fefefe" stroke-width="0.63" stroke-opacity="0.9" stroke-linecap="round"/><polygon points="654.7,221.6 646.1,215.3 653.8,211.0" fill="#fefefe" fill-opacity="0.9"/>
<line x1="706.6" y1="218.1" x2="709.3" y2="221.5" stroke="#fefefe" stroke-width="0.63" stroke-opacity="0.9" stroke-linecap="round"/><polygon points="709.3,221.5 699.8,216.5 706.7,211.1" fill="#fefefe" fill-opacity="0.9"/>
<line x1="58.6" y1="275.5" x2="55.5" y2="272.5" stroke="#fefefe" stroke-width="0.63" stroke-opacity="0.9" stroke-linecap="round"/><polygon points="55.5,272.5 65.5,276.3 59.2,282.5" fill="#fefefe" fill-opacity="0.9"/>
<line x1="112.7" y1="275.6" x2="109.8" y2="272.4" stroke="#fefefe" stroke-width="0.63" stroke-opacity="0.9" stroke-linecap="round"/><polygon points="109.8,272.4 119.6,276.7 113.1,282.6" fill="#fefefe" fill-opacity="0.9"/>
<line x1="167.6" y1="274.6" x2="163.4" y2="273.4" stroke="#fefefe" stroke-width="0.63" stroke-opacity="0.9" stroke-linecap="round"/><polygon points="163.4,273.4 174.0,271.7 171.7,280.2" fill="#fefefe" fill-opacity="0.9"/>
<line x1="221.8" y1="274.7" x2="217.7" y2="273.3" stroke="#fefefe" stroke-width="0.63" stroke-opacity="0.9" stroke-linecap="round"/><polygon points="217.7,273.3 228.3,272.2 225.6,280.5" fill="#fefefe" fill-opacity="0.9"/>
<line x1="275.2" y1="275.8" x2="272.8" y2="272.2" stroke="#fefefe" stroke-width="0.63" stroke-opacity="0.9" stroke-linecap="round"/><polygon points="272.8,272.2 281.9,277.8 274.6,282.8" fill="#fefefe" fill-opacity="0.9"/>
<line x1="329.2" y1="272.1" x2="327.3" y2="275.9" stroke="#fefefe" stroke-width="0.63" stroke-opacity="0.9" stroke-linecap="round"/><polygon points="327.3,275.9 327.7,265.2 335.5,269.1" fill="#fefefe" fill-opacity="0.9"/>
<line x1="383.3" y1="272.0" x2="381.7" y2="276.0" stroke="#fefefe" stroke-width="0.63" stroke-opacity="0.9" stroke-linecap="round"/><polygon points="381.7,276.0 381.3,265.3 389.4,268.6" fill="#fefefe" fill-opacity="0.9"/>
<line x1="436.0" y1="272.0" x2="437.5" y2="276.0" stroke="#fefefe" stroke-width="0.63" stroke-opacity="0.9" stroke-linecap="round"/><polygon points="437.5,276.0 429.9,268.4 438.2,265.3" fill="#fefefe" fill-opacity="0.9"/>
<line x1="489.5" y1="272.4" x2="492.4" y2="275.6" stroke="#fefefe" stroke-width="0.63" stroke-opacity="0.9" stroke-linecap="round"/><polygon points="492.4,275.6 482.6,271.4 489.1,265.4" fill="#fefefe" fill-opacity="0.9"/>
<line x1="544.7" y1="271.9" x2="545.7" y2="276.1" stroke="#fefefe" stroke-width="0.63" stroke-opacity="0.9" stroke-linecap="round"/><polygon points="545.7,276.1 539.1,267.7 547.6,265.6" fill="#fefefe" fill-opacity="0.9"/>
<line x1="598.6" y1="272.0" x2="600.3" y2="276.0" stroke="#fefefe" stroke-width="0.63" stroke-opacity="0.9" stroke-linecap="round"/><polygon points="600.3,276.0 592.4,268.7 600.6,265.3" fill="#fefefe" fill-opacity="0.9"/>
<line x1="652.4" y1="272.3" x2="655.0" y2="275.7" stroke="#fefefe" stroke-width="0.63" stroke-opacity="0.9" stroke-linecap="round"/><polygon points="655.0,275.7 645.6,270.5 652.7,265.3" fill="#fefefe" fill-opacity="0.9"/>
<line x1="706.6" y1="272.3" x2="709.2" y2="275.7" stroke="#fefefe" stroke-width="0.63" stroke-opacity="0.9" stroke-linecap="round"/><polygon points="709.2,275.7 699.9,270.5 706.9,265.3" fill="#fefefe" fill-opacity="0.9"/>
<line x1="761.2" y1="272.0" x2="763.1" y2="276.0" stroke="#fefefe" stroke-width="0.63" stroke-opacity="0.9" stroke-linecap="round"/><polygon points="763.1,276.0 755.0,269.0 762.9,265.3" fill="#fefefe" fill-opacity="0.9"/>
<line x1="815.2" y1="272.2" x2="817.6" y2="275.8" stroke="#fefefe" stroke-width="0.63" stroke-opacity="0.9" stroke-linecap="round"/><polygon points="817.6,275.8 808.6,270.0 816.0,265.2" fill="#fefefe" fill-opacity="0.9"/>
<line x1="58.4" y1="329.9" x2="55.7" y2="326.5" stroke="#fefefe" stroke-width="0.63" stroke-opacity="0.9" stroke-linecap="round"/><polygon points="55.7,326.5 65.2,331.5 58.3,336.9" fill="#fefefe" fill-opacity="0.9"/>
<line x1="113.1" y1="329.4" x2="109.4" y2="327.1" stroke="#fefefe" stroke-width="0.63" stroke-opacity="0.9" stroke-linecap="round"/><polygon points="109.4,327.1 120.1,328.4 115.5,335.9" fill="#fefefe" fill-opacity="0.9"/>
<line x1="167.4" y1="329.4" x2="163.7" y2="327.1" stroke="#fefefe" stroke-width="0.63" stroke-opacity="0.9" stroke-linecap="round"/><polygon points="163.7,327.1 174.3,328.6 169.6,336.0" fill="#fefefe" fill-opacity="0.9"/>
<line x1="221.2" y1="329.8" x2="218.3" y2="326.6" stroke="#fefefe" stroke-width="0.63" stroke-opacity="0.9" stroke-linecap="round"/><polygon points="218.3,326.6 228.1,330.9 221.6,336.8" fill="#fefefe" fill-opacity="0.9"/>
<line x1="275.3" y1="330.0" x2="272.7" y2="326.5" stroke="#fefefe" stroke-width="0.63" stroke-opacity="0.9" stroke-linecap="round"/><polygon points="272.7,326.5 282.1,331.7 275.0,337.0" fill="#fefefe" fill-opacity="0.9"/>
<line x1="330.4" y1="328.0" x2="326.1" y2="328.4" stroke="#fefefe" stroke-width="0.63" stroke-opacity="0.9" stroke-linecap="round"/><polygon points="326.1,328.4 335.4,323.2 336.2,331.9" fill="#fefefe" fill-opacity="0.9"/>
<line x1="384.5" y1="327.4" x2="380.5" y2="329.1" stroke="#fefefe" stroke-width="0.63" stroke-opacity="0.9" stroke-linecap="round"/><polygon points="380.5,329.1 387.8,321.2 391.2,329.3" fill="#fefefe" fill-opacity="0.9"/>
<line x1="434.8" y1="327.2" x2="438.6" y2="329.3" stroke="#fefefe" stroke-width="0.63" stroke-opacity="0.9" stroke-linecap="round"/><polygon points="438.6,329.3 427.9,328.4 432.2,320.7" fill="#fefefe" fill-opacity="0.9"/>
<line x1="490.5" y1="326.1" x2="491.4" y2="330.4" stroke="#fefefe" stroke-width="0.63" stroke-opacity="0.9" stroke-linecap="round"/><polygon points="491.4,330.4 485.1,321.7 493.7,319.9" fill="#fefefe" fill-opacity="0.9"/>
<line x1="544.9" y1="326.1" x2="545.5" y2="330.4" stroke="#fefefe" stroke-width="0.63" stroke-opacity="0.9" stroke-linecap="round"/><polygon points="545.5,330.4 539.9,321.2 548.7,320.2" fill="#fefefe" fill-opacity="0.9"/>
<line x1="598.3" y1="326.4" x2="600.6" y2="330.1" stroke="#fefefe" stroke-width="0.63" stroke-opacity="0.9" stroke-linecap="round"/><polygon points="600.6,330.1 591.7,324.1 599.1,319.5" fill="#fefefe" fill-opacity="0.9"/>
<line x1="652.2" y1="326.6" x2="655.1" y2="329.8" stroke="#fefefe" stroke-width="0.63" stroke-opacity="0.9" stroke-linecap="round"/><polygon points="655.1,329.8 645.3,325.6 651.8,319.7" fill="#fefefe" fill-opacity="0.9"/>
<line x1="707.1" y1="326.2" x2="708.7" y2="330.3" stroke="#fefefe" stroke-width="0.63" stroke-opacity="0.9" stroke-linecap="round"/><polygon points="708.7,330.3 701.0,322.8 709.2,319.6" fill="#fefefe" fill-opacity="0.9"/>
<line x1="761.1" y1="326.3" x2="763.2" y2="330.1" stroke="#fefefe" stroke-width="0.63" stroke-opacity="0.9" stroke-linecap="round"/><polygon points="763.2,330.1 754.7,323.7 762.4,319.5" fill="#fefefe" fill-opacity="0.9"/>
<line x1="815.0" y1="326.6" x2="817.8" y2="329.9" stroke="#fefefe" stroke-width="0.63" stroke-opacity="0.9" stroke-linecap="round"/><polygon points="817.8,329.9 808.2,325.1 815.0,319.6" fill="#fefefe" fill-opacity="0.9"/>
<line x1="869.3" y1="326.5" x2="872.0" y2="330.0" stroke="#fefefe" stroke-width="0.63" stroke-opacity="0.9" stroke-linecap="round"/><polygon points="872.0,330.0 862.5,324.9 869.5,319.5" fill="#fefefe" fill-opacity="0.9"/>
<line x1="113.0" y1="383.8" x2="109.6" y2="381.2" stroke="#fefefe" stroke-width="0.63" stroke-opacity="0.9" stroke-linecap="round"/><polygon points="109.6,381.2 120.0,383.6 114.7,390.6" fill="#fefefe" fill-opacity="0.9"/>
<line x1="167.0" y1="384.1" x2="164.0" y2="380.9" stroke="#fefefe" stroke-width="0.63" stroke-opacity="0.9" stroke-linecap="round"/><polygon points="164.0,380.9 173.9,385.0 167.5,391.0" fill="#fefefe" fill-opacity="0.9"/>
<line x1="221.0" y1="384.2" x2="218.5" y2="380.7" stroke="#fefefe" stroke-width="0.63" stroke-opacity="0.9" stroke-linecap="round"/><polygon points="218.5,380.7 227.7,386.1 220.6,391.2" fill="#fefefe" fill-opacity="0.9"/>
<line x1="276.0" y1="383.4" x2="272.0" y2="381.5" stroke="#fefefe" stroke-width="0.63" stroke-opacity="0.9" stroke-linecap="round"/><polygon points="272.0,381.5 282.7,381.8 278.9,389.7" fill="#fefefe" fill-opacity="0.9"/>
<line x1="330.2" y1="383.5" x2="326.3" y2="381.5" stroke="#fefefe" stroke-width="0.63" stroke-opacity="0.9" stroke-linecap="round"/><polygon points="326.3,381.5 337.0,382.0 333.0,389.9" fill="#fefefe" fill-opacity="0.9"/>
<line x1="383.7" y1="384.2" x2="381.2" y2="380.7" stroke="#fefefe" stroke-width="0.63" stroke-opacity="0.9" stroke-linecap="round"/><polygon points="381.2,380.7 390.5,386.1 383.4,391.2" fill="#fefefe" fill-opacity="0.9"/>
<line x1="436.9" y1="384.6" x2="436.5" y2="380.3" stroke="#fefefe" stroke-width="0.63" stroke-opacity="0.9" stroke-linecap="round"/><polygon points="436.5,380.3 441.8,389.7 433.0,390.4" fill="#fefefe" fill-opacity="0.9"/>
<line x1="492.4" y1="380.9" x2="489.5" y2="384.1" stroke="#fefefe" stroke-width="0.63" stroke-opacity="0.9" stroke-linecap="round"/><polygon points="489.5,384.1 492.9,373.9 499.3,379.9" fill="#fefefe" fill-opacity="0.9"/>
<line x1="544.8" y1="380.4" x2="545.6" y2="384.6" stroke="#fefefe" stroke-width="0.63" stroke-opacity="0.9" stroke-linecap="round"/><polygon points="545.6,384.6 539.3,375.9 547.9,374.1" fill="#fefefe" fill-opacity="0.9"/>
<line x1="597.8" y1="381.1" x2="601.1" y2="383.9" stroke="#fefefe" stroke-width="0.63" stroke-opacity="0.9" stroke-linecap="round"/><polygon points="601.1,383.9 590.8,381.0 596.4,374.2" fill="#fefefe" fill-opacity="0.9"/>
<line x1="652.9" y1="380.4" x2="654.4" y2="384.5" stroke="#fefefe" stroke-width="0.63" stroke-opacity="0.9" stroke-linecap="round"/><polygon points="654.4,384.5 646.9,376.9 655.1,373.8" fill="#fefefe" fill-opacity="0.9"/>
<line x1="707.2" y1="380.4" x2="708.7" y2="384.5" stroke="#fefefe" stroke-width="0.63" stroke-opacity="0.9" stroke-linecap="round"/><polygon points="708.7,384.5 701.1,376.9 709.4,373.8" fill="#fefefe" fill-opacity="0.9"/>
<line x1="760.9" y1="380.7" x2="763.5" y2="384.2" stroke="#fefefe" stroke-width="0.63" stroke-opacity="0.9" stroke-linecap="round"/><polygon points="763.5,384.2 754.1,379.1 761.1,373.8" fill="#fefefe" fill-opacity="0.9"/>
<line x1="814.9" y1="380.9" x2="817.9" y2="384.1" stroke="#fefefe" stroke-width="0.63" stroke-opacity="0.9" stroke-linecap="round"/><polygon points="817.9,384.1 808.0,379.8 814.5,373.9" fill="#fefefe" fill-opacity="0.9"/>
<line x1="869.7" y1="380.5" x2="871.6" y2="384.4" stroke="#fefefe" stroke-width="0.63" stroke-opacity="0.9" stroke-linecap="round"/><polygon points="871.6,384.4 863.3,377.6 871.2,373.7" fill="#fefefe" fill-opacity="0.9"/>
<line x1="923.7" y1="380.6" x2="926.0" y2="384.3" stroke="#fefefe" stroke-width="0.63" stroke-opacity="0.9" stroke-linecap="round"/><polygon points="926.0,384.3 917.1,378.4 924.5,373.7" fill="#fefefe" fill-opacity="0.9"/>
<line x1="166.8" y1="438.5" x2="164.2" y2="435.0" stroke="#fefefe" stroke-width="0.63" stroke-opacity="0.9" stroke-linecap="round"/><polygon points="164.2,435.0 173.5,440.3 166.4,445.4" fill="#fefefe" fill-opacity="0.9"/>
<line x1="221.4" y1="438.1" x2="218.1" y2="435.3" stroke="#fefefe" stroke-width="0.63" stroke-opacity="0.9" stroke-linecap="round"/><polygon points="218.1,435.3 228.4,438.2 222.8,445.0" fill="#fefefe" fill-opacity="0.9"/>
<line x1="275.8" y1="438.0" x2="272.2" y2="435.5" stroke="#fefefe" stroke-width="0.63" stroke-opacity="0.9" stroke-linecap="round"/><polygon points="272.2,435.5 282.7,437.6 277.6,444.7" fill="#fefefe" fill-opacity="0.9"/>
<line x1="329.7" y1="438.4" x2="326.8" y2="435.1" stroke="#fefefe" stroke-width="0.63" stroke-opacity="0.9" stroke-linecap="round"/><polygon points="326.8,435.1 336.5,439.5 329.9,445.3" fill="#fefefe" fill-opacity="0.9"/>
<line x1="383.5" y1="438.6" x2="381.4" y2="434.8" stroke="#fefefe" stroke-width="0.63" stroke-opacity="0.9" stroke-linecap="round"/><polygon points="381.4,434.8 390.0,441.3 382.3,445.5" fill="#fefefe" fill-opacity="0.9"/>
<line x1="438.8" y1="437.2" x2="434.6" y2="436.2" stroke="#fefefe" stroke-width="0.63" stroke-opacity="0.9" stroke-linecap="round"/><polygon points="434.6,436.2 445.1,434.2 443.1,442.7" fill="#fefefe" fill-opacity="0.9"/>
<line x1="493.1" y1="437.1" x2="488.8" y2="436.3" stroke="#fefefe" stroke-width="0.63" stroke-opacity="0.9" stroke-linecap="round"/><polygon points="488.8,436.3 499.2,433.7 497.7,442.4" fill="#fefefe" fill-opacity="0.9"/>
<line x1="543.5" y1="438.1" x2="546.9" y2="435.4" stroke="#fefefe" stroke-width="0.63" stroke-opacity="0.9" stroke-linecap="round"/><polygon points="546.9,435.4 541.9,444.9 536.5,437.9" fill="#fefefe" fill-opacity="0.9"/>
<line x1="597.8" y1="435.3" x2="601.1" y2="438.1" stroke="#fefefe" stroke-width="0.63" stroke-opacity="0.9" stroke-linecap="round"/><polygon points="601.1,438.1 590.8,435.0 596.6,428.4" fill="#fefefe" fill-opacity="0.9"/>
<line x1="653.7" y1="434.6" x2="653.6" y2="438.9" stroke="#fefefe" stroke-width="0.63" stroke-opacity="0.9" stroke-linecap="round"/><polygon points="653.6,438.9 649.5,429.0 658.2,429.2" fill="#fefefe" fill-opacity="0.9"/>
<line x1="706.8" y1="434.9" x2="709.0" y2="438.6" stroke="#fefefe" stroke-width="0.63" stroke-opacity="0.9" stroke-linecap="round"/><polygon points="709.0,438.6 700.3,432.5 707.8,427.9" fill="#fefefe" fill-opacity="0.9"/>
<line x1="760.6" y1="435.3" x2="763.8" y2="438.2" stroke="#fefefe" stroke-width="0.63" stroke-opacity="0.9" stroke-linecap="round"/><polygon points="763.8,438.2 753.6,434.9 759.5,428.4" fill="#fefefe" fill-opacity="0.9"/>
<line x1="815.4" y1="434.8" x2="817.4" y2="438.7" stroke="#fefefe" stroke-width="0.63" stroke-opacity="0.9" stroke-linecap="round"/><polygon points="817.4,438.7 809.1,431.8 817.0,428.0" fill="#fefefe" fill-opacity="0.9"/>
<line x1="869.6" y1="434.8" x2="871.7" y2="438.6" stroke="#fefefe" stroke-width="0.63" stroke-opacity="0.9" stroke-linecap="round"/><polygon points="871.7,438.6 863.2,432.1 871.0,428.0" fill="#fefefe" fill-opacity="0.9"/>
<line x1="923.5" y1="435.1" x2="926.3" y2="438.4" stroke="#fefefe" stroke-width="0.63" stroke-opacity="0.9" stroke-linecap="round"/><polygon points="926.3,438.4 916.6,433.7 923.4,428.1" fill="#fefefe" fill-opacity="0.9"/>
<line x1="221.4" y1="492.3" x2="218.1" y2="489.6" stroke="#fefefe" stroke-width="0.63" stroke-opacity="0.9" stroke-linecap="round"/><polygon points="218.1,489.6 228.4,492.4 222.8,499.2" fill="#fefefe" fill-opacity="0.9"/>
<line x1="275.5" y1="492.6" x2="272.5" y2="489.4" stroke="#fefefe" stroke-width="0.63" stroke-opacity="0.9" stroke-linecap="round"/><polygon points="272.5,489.4 282.4,493.6 275.9,499.5" fill="#fefefe" fill-opacity="0.9"/>
<line x1="329.4" y1="492.8" x2="327.1" y2="489.1" stroke="#fefefe" stroke-width="0.63" stroke-opacity="0.9" stroke-linecap="round"/><polygon points="327.1,489.1 336.0,495.0 328.6,499.7" fill="#fefefe" fill-opacity="0.9"/>
<line x1="384.2" y1="492.3" x2="380.7" y2="489.7" stroke="#fefefe" stroke-width="0.63" stroke-opacity="0.9" stroke-linecap="round"/><polygon points="380.7,489.7 391.2,492.0 385.9,499.0" fill="#fefefe" fill-opacity="0.9"/>
<line x1="438.5" y1="492.1" x2="434.9" y2="489.8" stroke="#fefefe" stroke-width="0.63" stroke-opacity="0.9" stroke-linecap="round"/><polygon points="434.9,489.8 445.5,491.4 440.7,498.8" fill="#fefefe" fill-opacity="0.9"/>
<line x1="492.2" y1="492.7" x2="489.7" y2="489.2" stroke="#fefefe" stroke-width="0.63" stroke-opacity="0.9" stroke-linecap="round"/><polygon points="489.7,489.2 499.0,494.5 491.9,499.7" fill="#fefefe" fill-opacity="0.9"/>
<line x1="545.5" y1="493.1" x2="544.9" y2="488.8" stroke="#fefefe" stroke-width="0.63" stroke-opacity="0.9" stroke-linecap="round"/><polygon points="544.9,488.8 550.6,497.9 541.9,499.1" fill="#fefefe" fill-opacity="0.9"/>
<line x1="601.5" y1="490.2" x2="597.4" y2="491.7" stroke="#fdfdfd" stroke-width="0.63" stroke-opacity="0.9" stroke-linecap="round"/><polygon points="597.4,491.7 604.9,484.1 608.1,492.3" fill="#fdfdfd" fill-opacity="0.9"/>
<line x1="654.2" y1="488.5" x2="653.2" y2="493.4" stroke="#e2e2e2" stroke-width="0.63" stroke-opacity="0.9" stroke-linecap="round"/><polygon points="653.2,493.4 650.9,482.9 659.5,484.7" fill="#e2e2e2" fill-opacity="0.9"/>
<line x1="706.1" y1="489.9" x2="709.8" y2="492.1" stroke="#fdfdfd" stroke-width="0.63" stroke-opacity="0.9" stroke-linecap="round"/><polygon points="709.8,492.1 699.1,490.9 703.6,483.3" fill="#fdfdfd" fill-opacity="0.9"/>
<line x1="760.9" y1="489.2" x2="763.4" y2="492.7" stroke="#fefefe" stroke-width="0.63" stroke-opacity="0.9" stroke-linecap="round"/><polygon points="763.4,492.7 754.2,487.4 761.3,482.2" fill="#fefefe" fill-opacity="0.9"/>
<line x1="815.7" y1="488.9" x2="817.1" y2="493.0" stroke="#fefefe" stroke-width="0.63" stroke-opacity="0.9" stroke-linecap="round"/><polygon points="817.1,493.0 809.9,485.1 818.2,482.4" fill="#fefefe" fill-opacity="0.9"/>
<line x1="869.3" y1="489.2" x2="871.9" y2="492.7" stroke="#fefefe" stroke-width="0.63" stroke-opacity="0.9" stroke-linecap="round"/><polygon points="871.9,492.7 862.6,487.6 869.6,482.3" fill="#fefefe" fill-opacity="0.9"/>
<line x1="923.2" y1="489.6" x2="926.6" y2="492.3" stroke="#fefefe" stroke-width="0.63" stroke-opacity="0.9" stroke-linecap="round"/><polygon points="926.6,492.3 916.2,489.6 921.8,482.8" fill="#fefefe" fill-opacity="0.9"/>
<line x1="275.2" y1="547.0" x2="272.8" y2="543.4" stroke="#fefefe" stroke-width="0.63" stroke-opacity="0.9" stroke-linecap="round"/><polygon points="272.8,543.4 282.0,548.9 274.8,553.9" fill="#fefefe" fill-opacity="0.9"/>
<line x1="329.7" y1="546.8" x2="326.8" y2="543.6" stroke="#fefefe" stroke-width="0.63" stroke-opacity="0.9" stroke-linecap="round"/><polygon points="326.8,543.6 336.6,548.0 330.0,553.8" fill="#fefefe" fill-opacity="0.9"/>
<line x1="384.2" y1="546.6" x2="380.8" y2="543.8" stroke="#fefefe" stroke-width="0.63" stroke-opacity="0.9" stroke-linecap="round"/><polygon points="380.8,543.8 391.2,546.5 385.7,553.4" fill="#fefefe" fill-opacity="0.9"/>
<line x1="438.1" y1="546.9" x2="435.3" y2="543.5" stroke="#fefefe" stroke-width="0.63" stroke-opacity="0.9" stroke-linecap="round"/><polygon points="435.3,543.5 445.0,548.1 438.3,553.8" fill="#fefefe" fill-opacity="0.9"/>
<line x1="491.9" y1="547.1" x2="490.0" y2="543.3" stroke="#fefefe" stroke-width="0.63" stroke-opacity="0.9" stroke-linecap="round"/><polygon points="490.0,543.3 498.3,550.1 490.4,554.0" fill="#fefefe" fill-opacity="0.9"/>
<line x1="547.1" y1="546.3" x2="543.3" y2="544.1" stroke="#fefefe" stroke-width="0.63" stroke-opacity="0.9" stroke-linecap="round"/><polygon points="543.3,544.1 554.0,545.3 549.5,552.8" fill="#fefefe" fill-opacity="0.9"/>
<line x1="601.4" y1="546.1" x2="597.5" y2="544.3" stroke="#fefefe" stroke-width="0.63" stroke-opacity="0.9" stroke-linecap="round"/><polygon points="597.5,544.3 608.2,544.5 604.4,552.4" fill="#fefefe" fill-opacity="0.9"/>
<line x1="654.2" y1="547.6" x2="653.1" y2="542.8" stroke="#e2e2e2" stroke-width="0.63" stroke-opacity="0.9" stroke-linecap="round"/><polygon points="653.1,542.8 659.6,551.4 651.0,553.3" fill="#e2e2e2" fill-opacity="0.9"/>
<line x1="705.9" y1="546.1" x2="709.9" y2="544.3" stroke="#f8f8f8" stroke-width="0.63" stroke-opacity="0.9" stroke-linecap="round"/><polygon points="709.9,544.3 702.9,552.4 699.2,544.4" fill="#f8f8f8" fill-opacity="0.9"/>
<line x1="762.7" y1="543.1" x2="761.6" y2="547.3" stroke="#f7f7f7" stroke-width="0.63" stroke-opacity="0.9" stroke-linecap="round"/><polygon points="761.6,547.3 759.7,536.8 768.2,538.9" fill="#f7f7f7" fill-opacity="0.9"/>
<line x1="815.4" y1="543.3" x2="817.4" y2="547.1" stroke="#fdfdfd" stroke-width="0.63" stroke-opacity="0.9" stroke-linecap="round"/><polygon points="817.4,547.1 808.9,540.6 816.6,536.4" fill="#fdfdfd" fill-opacity="0.9"/>
<line x1="868.9" y1="544.0" x2="872.4" y2="546.4" stroke="#fefefe" stroke-width="0.63" stroke-opacity="0.9" stroke-linecap="round"/><polygon points="872.4,546.4 861.9,544.4 866.9,537.2" fill="#fefefe" fill-opacity="0.9"/>
<line x1="922.9" y1="544.3" x2="926.9" y2="546.1" stroke="#fefefe" stroke-width="0.63" stroke-opacity="0.9" stroke-linecap="round"/><polygon points="926.9,546.1 916.2,546.2 919.7,538.2" fill="#fefefe" fill-opacity="0.9"/>
<line x1="329.8" y1="600.9" x2="326.6" y2="598.0" stroke="#fefefe" stroke-width="0.63" stroke-opacity="0.9" stroke-linecap="round"/><polygon points="326.6,598.0 336.8,601.3 330.9,607.8" fill="#fefefe" fill-opacity="0.9"/>
<line x1="383.9" y1="601.1" x2="381.0" y2="597.8" stroke="#fefefe" stroke-width="0.63" stroke-opacity="0.9" stroke-linecap="round"/><polygon points="381.0,597.8 390.8,602.2 384.3,608.0" fill="#fefefe" fill-opacity="0.9"/>
<line x1="437.9" y1="601.3" x2="435.6" y2="597.6" stroke="#fefefe" stroke-width="0.63" stroke-opacity="0.9" stroke-linecap="round"/><polygon points="435.6,597.6 444.4,603.6 437.0,608.2" fill="#fefefe" fill-opacity="0.9"/>
<line x1="492.4" y1="601.1" x2="489.5" y2="597.8" stroke="#fefefe" stroke-width="0.63" stroke-opacity="0.9" stroke-linecap="round"/><polygon points="489.5,597.8 499.3,602.2 492.7,608.0" fill="#fefefe" fill-opacity="0.9"/>
<line x1="546.9" y1="600.7" x2="543.5" y2="598.1" stroke="#fefefe" stroke-width="0.63" stroke-opacity="0.9" stroke-linecap="round"/><polygon points="543.5,598.1 553.9,600.5 548.6,607.5" fill="#fefefe" fill-opacity="0.9"/>
<line x1="600.7" y1="601.2" x2="598.2" y2="597.7" stroke="#fefefe" stroke-width="0.63" stroke-opacity="0.9" stroke-linecap="round"/><polygon points="598.2,597.7 607.5,602.9 600.4,608.2" fill="#fefefe" fill-opacity="0.9"/>
<line x1="654.1" y1="601.6" x2="653.2" y2="597.3" stroke="#fefefe" stroke-width="0.63" stroke-opacity="0.9" stroke-linecap="round"/><polygon points="653.2,597.3 659.5,606.0 650.9,607.8" fill="#fefefe" fill-opacity="0.9"/>
<line x1="710.1" y1="599.8" x2="705.8" y2="599.1" stroke="#fdfdfd" stroke-width="0.63" stroke-opacity="0.9" stroke-linecap="round"/><polygon points="705.8,599.1 716.1,596.4 714.7,605.1" fill="#fdfdfd" fill-opacity="0.9"/>
<line x1="770.6" y1="596.7" x2="753.7" y2="602.1" stroke="#969696" stroke-width="0.63" stroke-opacity="0.9" stroke-linecap="round"/><polygon points="753.7,602.1 761.7,595.0 764.3,603.4" fill="#969696" fill-opacity="0.9"/>
<line x1="809.2" y1="597.9" x2="823.6" y2="600.9" stroke="#a9a9a9" stroke-width="0.63" stroke-opacity="0.9" stroke-linecap="round"/><polygon points="823.6,600.9 813.1,603.2 814.9,594.6" fill="#a9a9a9" fill-opacity="0.9"/>
<line x1="868.5" y1="599.3" x2="872.8" y2="599.6" stroke="#fefefe" stroke-width="0.63" stroke-opacity="0.9" stroke-linecap="round"/><polygon points="872.8,599.6 862.7,603.2 863.4,594.5" fill="#fefefe" fill-opacity="0.9"/>
<line x1="922.7" y1="599.3" x2="927.0" y2="599.5" stroke="#fefefe" stroke-width="0.63" stroke-opacity="0.9" stroke-linecap="round"/><polygon points="927.0,599.5 917.1,603.5 917.5,594.7" fill="#fefefe" fill-opacity="0.9"/>
<line x1="383.7" y1="655.5" x2="381.2" y2="651.9" stroke="#fefefe" stroke-width="0.63" stroke-opacity="0.9" stroke-linecap="round"/><polygon points="381.2,651.9 390.4,657.4 383.2,662.4" fill="#fefefe" fill-opacity="0.9"/>
<line x1="438.0" y1="655.5" x2="435.5" y2="651.9" stroke="#fefefe" stroke-width="0.63" stroke-opacity="0.9" stroke-linecap="round"/><polygon points="435.5,651.9 444.6,657.4 437.4,662.4" fill="#fefefe" fill-opacity="0.9"/>
<line x1="492.6" y1="655.1" x2="489.3" y2="652.2" stroke="#fefefe" stroke-width="0.63" stroke-opacity="0.9" stroke-linecap="round"/><polygon points="489.3,652.2 499.6,655.4 493.7,662.0" fill="#fefefe" fill-opacity="0.9"/>
<line x1="546.6" y1="655.3" x2="543.8" y2="652.0" stroke="#fefefe" stroke-width="0.63" stroke-opacity="0.9" stroke-linecap="round"/><polygon points="543.8,652.0 553.4,656.7 546.7,662.3" fill="#fefefe" fill-opacity="0.9"/>
<line x1="600.4" y1="655.6" x2="598.5" y2="651.7" stroke="#fefefe" stroke-width="0.63" stroke-opacity="0.9" stroke-linecap="round"/><polygon points="598.5,651.7 606.7,658.6 598.8,662.4" fill="#fefefe" fill-opacity="0.9"/>
<line x1="655.2" y1="655.3" x2="652.2" y2="652.1" stroke="#fefefe" stroke-width="0.63" stroke-opacity="0.9" stroke-linecap="round"/><polygon points="652.2,652.1 662.1,656.3 655.6,662.2" fill="#fefefe" fill-opacity="0.9"/>
<line x1="709.7" y1="654.9" x2="706.1" y2="652.5" stroke="#fefefe" stroke-width="0.63" stroke-opacity="0.9" stroke-linecap="round"/><polygon points="706.1,652.5 716.7,654.2 711.8,661.5" fill="#fefefe" fill-opacity="0.9"/>
<line x1="763.2" y1="655.9" x2="761.1" y2="651.4" stroke="#e1e1e1" stroke-width="0.63" stroke-opacity="0.9" stroke-linecap="round"/><polygon points="761.1,651.4 769.2,658.5 761.1,662.1" fill="#e1e1e1" fill-opacity="0.9"/>
<line x1="815.2" y1="655.5" x2="817.6" y2="651.9" stroke="#f4f4f4" stroke-width="0.63" stroke-opacity="0.9" stroke-linecap="round"/><polygon points="817.6,651.9 815.7,662.4 808.5,657.4" fill="#f4f4f4" fill-opacity="0.9"/>
<line x1="868.7" y1="654.7" x2="872.5" y2="652.6" stroke="#fefefe" stroke-width="0.63" stroke-opacity="0.9" stroke-linecap="round"/><polygon points="872.5,652.6 866.1,661.2 861.9,653.4" fill="#fefefe" fill-opacity="0.9"/>
<line x1="922.8" y1="654.4" x2="926.9" y2="653.0" stroke="#fefefe" stroke-width="0.63" stroke-opacity="0.9" stroke-linecap="round"/><polygon points="926.9,653.0 919.1,660.3 916.3,651.9" fill="#fefefe" fill-opacity="0.9"/>
<line x1="492.4" y1="709.5" x2="489.5" y2="706.3" stroke="#fefefe" stroke-width="0.63" stroke-opacity="0.9" stroke-linecap="round"/><polygon points="489.5,706.3 499.3,710.7 492.7,716.5" fill="#fefefe" fill-opacity="0.9"/>
<line x1="546.3" y1="709.8" x2="544.1" y2="706.1" stroke="#fefefe" stroke-width="0.63" stroke-opacity="0.9" stroke-linecap="round"/><polygon points="544.1,706.1 552.9,712.1 545.4,716.7" fill="#fefefe" fill-opacity="0.9"/>
<line x1="600.6" y1="709.7" x2="598.3" y2="706.1" stroke="#fefefe" stroke-width="0.63" stroke-opacity="0.9" stroke-linecap="round"/><polygon points="598.3,706.1 607.2,711.9 599.8,716.7" fill="#fefefe" fill-opacity="0.9"/>
<line x1="655.3" y1="709.3" x2="652.0" y2="706.5" stroke="#fefefe" stroke-width="0.63" stroke-opacity="0.9" stroke-linecap="round"/><polygon points="652.0,706.5 662.3,709.6 656.5,716.2" fill="#fefefe" fill-opacity="0.9"/>
<line x1="709.2" y1="709.7" x2="706.6" y2="706.2" stroke="#fefefe" stroke-width="0.63" stroke-opacity="0.9" stroke-linecap="round"/><polygon points="706.6,706.2 716.0,711.4 708.9,716.6" fill="#fefefe" fill-opacity="0.9"/>
<line x1="762.6" y1="710.0" x2="761.7" y2="705.8" stroke="#fefefe" stroke-width="0.63" stroke-opacity="0.9" stroke-linecap="round"/><polygon points="761.7,705.8 768.0,714.4 759.4,716.3" fill="#fefefe" fill-opacity="0.9"/>
<line x1="815.7" y1="710.0" x2="817.1" y2="705.9" stroke="#fefefe" stroke-width="0.63" stroke-opacity="0.9" stroke-linecap="round"/><polygon points="817.1,705.9 818.2,716.5 809.9,713.8" fill="#fefefe" fill-opacity="0.9"/>
<line x1="869.2" y1="709.6" x2="872.1" y2="706.3" stroke="#fefefe" stroke-width="0.63" stroke-opacity="0.9" stroke-linecap="round"/><polygon points="872.1,706.3 869.0,716.5 862.4,710.8" fill="#fefefe" fill-opacity="0.9"/>
<line x1="923.1" y1="709.2" x2="926.6" y2="706.7" stroke="#fefefe" stroke-width="0.63" stroke-opacity="0.9" stroke-linecap="round"/><polygon points="926.6,706.7 921.3,715.9 916.1,708.8" fill="#fefefe" fill-opacity="0.9"/>
<line x1="546.3" y1="764.0" x2="544.1" y2="760.3" stroke="#fefefe" stroke-width="0.63" stroke-opacity="0.9" stroke-linecap="round"/><polygon points="544.1,760.3 552.8,766.5 545.3,770.9" fill="#fefefe" fill-opacity="0.9"/>
<line x1="601.0" y1="763.7" x2="597.9" y2="760.6" stroke="#fefefe" stroke-width="0.63" stroke-opacity="0.9" stroke-linecap="round"/><polygon points="597.9,760.6 607.9,764.5 601.7,770.6" fill="#fefefe" fill-opacity="0.9"/>
<line x1="655.1" y1="763.8" x2="652.3" y2="760.5" stroke="#fefefe" stroke-width="0.63" stroke-opacity="0.9" stroke-linecap="round"/><polygon points="652.3,760.5 661.9,765.2 655.1,770.8" fill="#fefefe" fill-opacity="0.9"/>
<line x1="708.9" y1="764.1" x2="707.0" y2="760.2" stroke="#fefefe" stroke-width="0.63" stroke-opacity="0.9" stroke-linecap="round"/><polygon points="707.0,760.2 715.2,767.1 707.3,770.9" fill="#fefefe" fill-opacity="0.9"/>
<line x1="762.5" y1="764.3" x2="761.9" y2="760.0" stroke="#fefefe" stroke-width="0.63" stroke-opacity="0.9" stroke-linecap="round"/><polygon points="761.9,760.0 767.5,769.1 758.8,770.3" fill="#fefefe" fill-opacity="0.9"/>
<line x1="816.0" y1="764.3" x2="816.8" y2="760.0" stroke="#fefefe" stroke-width="0.63" stroke-opacity="0.9" stroke-linecap="round"/><polygon points="816.8,760.0 819.1,770.5 810.5,768.7" fill="#fefefe" fill-opacity="0.9"/>
<line x1="869.6" y1="764.1" x2="871.7" y2="760.3" stroke="#fefefe" stroke-width="0.63" stroke-opacity="0.9" stroke-linecap="round"/><polygon points="871.7,760.3 870.8,770.9 863.1,766.6" fill="#fefefe" fill-opacity="0.9"/>
<line x1="923.4" y1="763.8" x2="926.3" y2="760.6" stroke="#fefefe" stroke-width="0.63" stroke-opacity="0.9" stroke-linecap="round"/><polygon points="926.3,760.6 923.0,770.7 916.5,764.8" fill="#fefefe" fill-opacity="0.9"/>
<line x1="600.9" y1="818.0" x2="598.0" y2="814.8" stroke="#fefefe" stroke-width="0.63" stroke-opacity="0.9" stroke-linecap="round"/><polygon points="598.0,814.8 607.7,819.3 601.1,825.0" fill="#fefefe" fill-opacity="0.9"/>
<line x1="654.8" y1="818.2" x2="652.5" y2="814.6" stroke="#fefefe" stroke-width="0.63" stroke-opacity="0.9" stroke-linecap="round"/><polygon points="652.5,814.6 661.4,820.6 653.9,825.2" fill="#fefefe" fill-opacity="0.9"/>
<line x1="708.7" y1="818.4" x2="707.2" y2="814.4" stroke="#fefefe" stroke-width="0.63" stroke-opacity="0.9" stroke-linecap="round"/><polygon points="707.2,814.4 714.6,822.1 706.4,825.0" fill="#fefefe" fill-opacity="0.9"/>
<line x1="762.4" y1="818.6" x2="761.9" y2="814.2" stroke="#fefefe" stroke-width="0.63" stroke-opacity="0.9" stroke-linecap="round"/><polygon points="761.9,814.2 767.3,823.5 758.6,824.4" fill="#fefefe" fill-opacity="0.9"/>
<line x1="816.1" y1="818.5" x2="816.7" y2="814.3" stroke="#fefefe" stroke-width="0.63" stroke-opacity="0.9" stroke-linecap="round"/><polygon points="816.7,814.3 819.6,824.6 810.9,823.2" fill="#fefefe" fill-opacity="0.9"/>
<line x1="869.8" y1="818.4" x2="871.5" y2="814.4" stroke="#fefefe" stroke-width="0.63" stroke-opacity="0.9" stroke-linecap="round"/><polygon points="871.5,814.4 871.8,825.1 863.7,821.7" fill="#fefefe" fill-opacity="0.9"/>
<line x1="923.7" y1="818.2" x2="926.1" y2="814.6" stroke="#fefefe" stroke-width="0.63" stroke-opacity="0.9" stroke-linecap="round"/><polygon points="926.1,814.6 924.3,825.2 917.0,820.2" fill="#fefefe" fill-opacity="0.9"/>
<line x1="654.6" y1="872.6" x2="652.7" y2="868.7" stroke="#fefefe" stroke-width="0.63" stroke-opacity="0.9" stroke-linecap="round"/><polygon points="652.7,868.7 661.0,875.5 653.1,879.4" fill="#fefefe" fill-opacity="0.9"/>
<line x1="708.5" y1="872.7" x2="707.3" y2="868.6" stroke="#fefefe" stroke-width="0.63" stroke-opacity="0.9" stroke-linecap="round"/><polygon points="707.3,868.6 714.2,876.7 705.8,879.1" fill="#fefefe" fill-opacity="0.9"/>
<line x1="762.3" y1="872.8" x2="762.0" y2="868.5" stroke="#fefefe" stroke-width="0.63" stroke-opacity="0.9" stroke-linecap="round"/><polygon points="762.0,868.5 767.2,877.9 758.4,878.6" fill="#fefefe" fill-opacity="0.9"/>
<line x1="816.1" y1="872.8" x2="816.7" y2="868.5" stroke="#fefefe" stroke-width="0.63" stroke-opacity="0.9" stroke-linecap="round"/><polygon points="816.7,868.5 819.8,878.7 811.1,877.6" fill="#fefefe" fill-opacity="0.9"/>
<line x1="870.0" y1="872.7" x2="871.3" y2="868.6" stroke="#fefefe" stroke-width="0.63" stroke-opacity="0.9" stroke-linecap="round"/><polygon points="871.3,868.6 872.4,879.2 864.1,876.5" fill="#fefefe" fill-opacity="0.9"/>
</svg>