<?xml version="1.0" encoding="UTF-8"?>
<svg xmlns="http://www.w3.org/2000/svg" viewBox="0 0 1000 1000" preserveAspectRatio="none">
<line x1="58.6" y1="55.5" x2="55.5" y2="58.6" stroke="#fefefe" stroke-width="0.63" stroke-opacity="0.9" stroke-linecap="round"/><polygon points="55.5,58.6 59.3,48.6 65.5,54.8" fill="#fefefe" fill-opacity="0.9"/>
<line x1="112.2" y1="55.1" x2="110.3" y2="59.0" stroke="#fefefe" stroke-width="0.63" stroke-opacity="0.9" stroke-linecap="round"/><polygon points="110.3,59.0 110.7,48.3 118.6,52.2" fill="#fefefe" fill-opacity="0.9"/>
<line x1="165.5" y1="54.9" x2="165.6" y2="59.2" stroke="#fefefe" stroke-width="0.63" stroke-opacity="0.9" stroke-linecap="round"/><polygon points="165.6,59.2 161.0,49.5 169.8,49.4" fill="#fefefe" fill-opacity="0.9"/>
<line x1="218.7" y1="55.1" x2="220.8" y2="59.0" stroke="#fefefe" stroke-width="0.63" stroke-opacity="0.9" stroke-linecap="round"/><polygon points="220.8,59.0 212.3,52.4 220.1,48.3" fill="#fefefe" fill-opacity="0.9"/>
<line x1="272.5" y1="55.5" x2="275.5" y2="58.6" stroke="#fefefe" stroke-width="0.63" stroke-opacity="0.9" stroke-linecap="round"/><polygon points="275.5,58.6 265.5,54.8 271.7,48.6" fill="#fefefe" fill-opacity="0.9"/>
<line x1="326.8" y1="55.4" x2="329.7" y2="58.7" stroke="#fefefe" stroke-width="0.63" stroke-opacity="0.9" stroke-linecap="round"/><polygon points="329.7,58.7 319.9,54.3 326.5,48.5" fill="#fefefe" fill-opacity="0.9"/>
<line x1="381.5" y1="55.1" x2="383.5" y2="58.9" stroke="#fefefe" stroke-width="0.63" stroke-opacity="0.9" stroke-linecap="round"/><polygon points="383.5,58.9 375.0,52.4 382.7,48.3" fill="#fefefe" fill-opacity="0.9"/>
<line x1="435.4" y1="55.3" x2="438.0" y2="58.8" stroke="#fefefe" stroke-width="0.63" stroke-opacity="0.9" stroke-linecap="round"/><polygon points="438.0,58.8 428.6,53.7 435.6,48.3" fill="#fefefe" fill-opacity="0.9"/>
<line x1="489.4" y1="55.5" x2="492.5" y2="58.6" stroke="#fefefe" stroke-width="0.63" stroke-opacity="0.9" stroke-linecap="round"/><polygon points="492.5,58.6 482.5,54.7 488.8,48.5" fill="#fefefe" fill-opacity="0.9"/>
<line x1="59.0" y1="110.3" x2="55.1" y2="112.2" stroke="#fefefe" stroke-width="0.63" stroke-opacity="0.9" stroke-linecap="round"/><polygon points="55.1,112.2 61.9,104.0 65.8,111.9" fill="#fefefe" fill-opacity="0.9"/>
<line x1="112.8" y1="109.7" x2="109.7" y2="112.8" stroke="#fafafa" stroke-width="0.63" stroke-opacity="0.9" stroke-linecap="round"/><polygon points="109.7,112.8 113.5,102.8 119.8,109.0" fill="#fafafa" fill-opacity="0.9"/>
<line x1="165.4" y1="108.5" x2="165.6" y2="114.0" stroke="#dedede" stroke-width="0.63" stroke-opacity="0.9" stroke-linecap="round"/><polygon points="165.6,114.0 160.8,104.5 169.6,104.1" fill="#dedede" fill-opacity="0.9"/>
<line x1="218.2" y1="109.8" x2="221.3" y2="112.8" stroke="#fdfdfd" stroke-width="0.63" stroke-opacity="0.9" stroke-linecap="round"/><polygon points="221.3,112.8 211.2,109.3 217.2,102.9" fill="#fdfdfd" fill-opacity="0.9"/>
<line x1="272.2" y1="110.0" x2="275.8" y2="112.5" stroke="#fefefe" stroke-width="0.63" stroke-opacity="0.9" stroke-linecap="round"/><polygon points="275.8,112.5 265.3,110.4 270.4,103.3" fill="#fefefe" fill-opacity="0.9"/>
<line x1="327.4" y1="109.3" x2="329.1" y2="113.3" stroke="#fefefe" stroke-width="0.63" stroke-opacity="0.9" stroke-linecap="round"/><polygon points="329.1,113.3 321.2,106.1 329.2,102.6" fill="#fefefe" fill-opacity="0.9"/>
<line x1="381.3" y1="109.5" x2="383.7" y2="113.1" stroke="#fefefe" stroke-width="0.63" stroke-opacity="0.9" stroke-linecap="round"/><polygon points="383.7,113.1 374.6,107.5 381.8,102.5" fill="#fefefe" fill-opacity="0.9"/>
<line x1="435.2" y1="109.8" x2="438.3" y2="112.8" stroke="#fefefe" stroke-width="0.63" stroke-opacity="0.9" stroke-linecap="round"/><polygon points="438.3,112.8 428.2,109.1 434.3,102.8" fill="#fefefe" fill-opacity="0.9"/>
<line x1="489.5" y1="109.7" x2="492.4" y2="112.9" stroke="#fefefe" stroke-width="0.63" stroke-opacity="0.9" stroke-linecap="round"/><polygon points="492.4,112.9 482.6,108.5 489.2,102.7" fill="#fefefe" fill-opacity="0.9"/>
<line x1="544.1" y1="109.4" x2="546.3" y2="113.1" stroke="#fefefe" stroke-width="0.63" stroke-opacity="0.9" stroke-linecap="round"/><polygon points="546.3,113.1 537.5,107.2 544.9,102.5" fill="#fefefe" fill-opacity="0.9"/>
<line x1="59.2" y1="165.6" x2="54.9" y2="165.5" stroke="#fefefe" stroke-width="0.63" stroke-opacity="0.9" stroke-linecap="round"/><polygon points="54.9,165.5 64.7,161.3 64.5,170.1" fill="#fefefe" fill-opacity="0.9"/>
<line x1="114.0" y1="165.6" x2="108.5" y2="165.4" stroke="#dedede" stroke-width="0.63" stroke-opacity="0.9" stroke-linecap="round"/><polygon points="108.5,165.4 118.5,161.4 118.1,170.2" fill="#dedede" fill-opacity="0.9"/>
<line x1="156.3" y1="174.8" x2="174.8" y2="156.3" stroke="#656565" stroke-width="0.63" stroke-opacity="0.9" stroke-linecap="round"/><polygon points="174.8,156.3 171.0,166.3 164.7,160.1" fill="#656565" fill-opacity="0.9"/>
<line x1="217.3" y1="165.5" x2="222.2" y2="165.6" stroke="#e2e2e2" stroke-width="0.63" stroke-opacity="0.9" stroke-linecap="round"/><polygon points="222.2,165.6 212.4,169.7 212.6,160.9" fill="#e2e2e2" fill-opacity="0.9"/>
<line x1="273.4" y1="163.4" x2="274.6" y2="167.6" stroke="#fefefe" stroke-width="0.63" stroke-opacity="0.9" stroke-linecap="round"/><polygon points="274.6,167.6 267.6,159.6 275.9,157.0" fill="#fefefe" fill-opacity="0.9"/>
<line x1="327.3" y1="163.6" x2="329.2" y2="167.5" stroke="#fefefe" stroke-width="0.63" stroke-opacity="0.9" stroke-linecap="round"/><polygon points="329.2,167.5 320.9,160.6 328.8,156.8" fill="#fefefe" fill-opacity="0.9"/>
<line x1="380.9" y1="164.0" x2="384.1" y2="167.0" stroke="#fefefe" stroke-width="0.63" stroke-opacity="0.9" stroke-linecap="round"/><polygon points="384.1,167.0 373.9,163.6 379.9,157.1" fill="#fefefe" fill-opacity="0.9"/>
<line x1="435.0" y1="164.1" x2="438.4" y2="166.9" stroke="#fefefe" stroke-width="0.63" stroke-opacity="0.9" stroke-linecap="round"/><polygon points="438.4,166.9 428.1,164.1 433.7,157.3" fill="#fefefe" fill-opacity="0.9"/>
<line x1="489.9" y1="163.6" x2="492.0" y2="167.4" stroke="#fefefe" stroke-width="0.63" stroke-opacity="0.9" stroke-linecap="round"/><polygon points="492.0,167.4 483.4,161.1 491.0,156.7" fill="#fefefe" fill-opacity="0.9"/>
<line x1="543.9" y1="163.8" x2="546.5" y2="167.2" stroke="#fefefe" stroke-width="0.63" stroke-opacity="0.9" stroke-linecap="round"/><polygon points="546.5,167.2 537.1,162.2 544.1,156.8" fill="#fefefe" fill-opacity="0.9"/>
<line x1="597.9" y1="164.0" x2="601.0" y2="167.0" stroke="#fefefe" stroke-width="0.63" stroke-opacity="0.9" stroke-linecap="round"/><polygon points="601.0,167.0 590.9,163.4 597.0,157.1" fill="#fefefe" fill-opacity="0.9"/>
<line x1="59.0" y1="220.8" x2="55.1" y2="218.7" stroke="#fefefe" stroke-width="0.63" stroke-opacity="0.9" stroke-linecap="round"/><polygon points="55.1,218.7 65.8,219.4 61.7,227.2" fill="#fefefe" fill-opacity="0.9"/>
<line x1="112.8" y1="221.4" x2="109.8" y2="218.2" stroke="#fdfdfd" stroke-width="0.63" stroke-opacity="0.9" stroke-linecap="round"/><polygon points="109.8,218.2 119.7,222.4 113.2,228.3" fill="#fdfdfd" fill-opacity="0.9"/>
<line x1="165.5" y1="221.9" x2="165.5" y2="217.6" stroke="#f0f0f0" stroke-width="0.63" stroke-opacity="0.9" stroke-linecap="round"/><polygon points="165.5,217.6 169.8,227.4 161.1,227.3" fill="#f0f0f0" fill-opacity="0.9"/>
<line x1="220.1" y1="221.9" x2="219.4" y2="217.6" stroke="#f6f6f6" stroke-width="0.63" stroke-opacity="0.9" stroke-linecap="round"/><polygon points="219.4,217.6 225.4,226.5 216.8,228.0" fill="#f6f6f6" fill-opacity="0.9"/>
<line x1="275.0" y1="217.0" x2="273.0" y2="222.5" stroke="#dcdcdc" stroke-width="0.63" stroke-opacity="0.9" stroke-linecap="round"/><polygon points="273.0,222.5 272.3,211.8 280.5,214.9" fill="#dcdcdc" fill-opacity="0.9"/>
<line x1="326.5" y1="218.4" x2="329.9" y2="221.1" stroke="#f8f8f8" stroke-width="0.63" stroke-opacity="0.9" stroke-linecap="round"/><polygon points="329.9,221.1 319.6,218.5 325.0,211.6" fill="#f8f8f8" fill-opacity="0.9"/>
<line x1="380.5" y1="218.9" x2="384.5" y2="220.6" stroke="#fefefe" stroke-width="0.63" stroke-opacity="0.9" stroke-linecap="round"/><polygon points="384.5,220.6 373.8,220.7 377.3,212.7" fill="#fefefe" fill-opacity="0.9"/>
<line x1="435.7" y1="217.9" x2="437.8" y2="221.7" stroke="#fefefe" stroke-width="0.63" stroke-opacity="0.9" stroke-linecap="round"/><polygon points="437.8,221.7 429.2,215.2 436.9,211.0" fill="#fefefe" fill-opacity="0.9"/>
<line x1="489.7" y1="218.0" x2="492.2" y2="221.6" stroke="#fefefe" stroke-width="0.63" stroke-opacity="0.9" stroke-linecap="round"/><polygon points="492.2,221.6 483.1,215.9 490.4,211.0" fill="#fefefe" fill-opacity="0.9"/>
<line x1="543.6" y1="218.3" x2="546.8" y2="221.2" stroke="#fefefe" stroke-width="0.63" stroke-opacity="0.9" stroke-linecap="round"/><polygon points="546.8,221.2 536.6,217.9 542.6,211.4" fill="#fefefe" fill-opacity="0.9"/>
<line x1="597.8" y1="218.3" x2="601.1" y2="221.2" stroke="#fefefe" stroke-width="0.63" stroke-opacity="0.9" stroke-linecap="round"/><polygon points="601.1,221.2 590.8,218.0 596.7,211.4" fill="#fefefe" fill-opacity="0.9"/>
<line x1="652.5" y1="217.9" x2="654.9" y2="221.6" stroke="#fefefe" stroke-width="0.63" stroke-opacity="0.9" stroke-linecap="round"/><polygon points="654.9,221.6 645.9,215.8 653.2,211.0" fill="#fefefe" fill-opacity="0.9"/>
<line x1="706.5" y1="218.1" x2="709.3" y2="221.4" stroke="#fefefe" stroke-width="0.63" stroke-opacity="0.9" stroke-linecap="round"/><polygon points="709.3,221.4 699.7,216.7 706.5,211.1" fill="#fefefe" fill-opacity="0.9"/>
<line x1="58.5" y1="275.6" x2="55.5" y2="272.4" stroke="#fefefe" stroke-width="0.63" stroke-opacity="0.9" stroke-linecap="round"/><polygon points="55.5,272.4 65.5,276.4 59.1,282.5" fill="#fefefe" fill-opacity="0.9"/>
<line x1="112.2" y1="276.0" x2="110.3" y2="272.0" stroke="#fefefe" stroke-width="0.63" stroke-opacity="0.9" stroke-linecap="round"/><polygon points="110.3,272.0 118.5,278.9 110.6,282.7" fill="#fefefe" fill-opacity="0.9"/>
<line x1="166.1" y1="276.1" x2="164.9" y2="271.9" stroke="#fefefe" stroke-width="0.63" stroke-opacity="0.9" stroke-linecap="round"/><polygon points="164.9,271.9 171.8,280.1 163.4,282.5" fill="#fefefe" fill-opacity="0.9"/>
<line x1="221.7" y1="274.9" x2="217.8" y2="273.1" stroke="#fdfdfd" stroke-width="0.63" stroke-opacity="0.9" stroke-linecap="round"/><polygon points="217.8,273.1 228.5,273.1 224.9,281.1" fill="#fdfdfd" fill-opacity="0.9"/>
<line x1="275.8" y1="277.0" x2="272.2" y2="271.0" stroke="#d5d5d5" stroke-width="0.63" stroke-opacity="0.9" stroke-linecap="round"/><polygon points="272.2,271.0 281.0,277.1 273.5,281.6" fill="#d5d5d5" fill-opacity="0.9"/>
<line x1="326.3" y1="275.0" x2="330.2" y2="273.0" stroke="#f4f4f4" stroke-width="0.63" stroke-opacity="0.9" stroke-linecap="round"/><polygon points="330.2,273.0 323.6,281.4 319.5,273.7" fill="#f4f4f4" fill-opacity="0.9"/>
<line x1="381.1" y1="272.3" x2="383.9" y2="275.7" stroke="#fefefe" stroke-width="0.63" stroke-opacity="0.9" stroke-linecap="round"/><polygon points="383.9,275.7 374.3,270.9 381.1,265.3" fill="#fefefe" fill-opacity="0.9"/>
<line x1="435.9" y1="272.0" x2="437.6" y2="276.0" stroke="#fefefe" stroke-width="0.63" stroke-opacity="0.9" stroke-linecap="round"/><polygon points="437.6,276.0 429.7,268.7 437.8,265.3" fill="#fefefe" fill-opacity="0.9"/>
<line x1="489.3" y1="272.6" x2="492.6" y2="275.4" stroke="#fefefe" stroke-width="0.63" stroke-opacity="0.9" stroke-linecap="round"/><polygon points="492.6,275.4 482.3,272.5 488.0,265.7" fill="#fefefe" fill-opacity="0.9"/>
<line x1="543.4" y1="272.9" x2="547.0" y2="275.1" stroke="#fefefe" stroke-width="0.63" stroke-opacity="0.9" stroke-linecap="round"/><polygon points="547.0,275.1 536.4,273.7 541.0,266.3" fill="#fefefe" fill-opacity="0.9"/>
<line x1="598.2" y1="272.2" x2="600.6" y2="275.8" stroke="#fefefe" stroke-width="0.63" stroke-opacity="0.9" stroke-linecap="round"/><polygon points="600.6,275.8 591.6,270.1 598.9,265.2" fill="#fefefe" fill-opacity="0.9"/>
<line x1="652.4" y1="272.3" x2="655.0" y2="275.7" stroke="#fefefe" stroke-width="0.63" stroke-opacity="0.9" stroke-linecap="round"/><polygon points="655.0,275.7 645.6,270.7 652.5,265.3" fill="#fefefe" fill-opacity="0.9"/>
<line x1="706.3" y1="272.5" x2="709.5" y2="275.5" stroke="#fefefe" stroke-width="0.63" stroke-opacity="0.9" stroke-linecap="round"/><polygon points="709.5,275.5 699.3,272.1 705.3,265.6" fill="#fefefe" fill-opacity="0.9"/>
<line x1="58.2" y1="330.1" x2="55.9" y2="326.4" stroke="#fefefe" stroke-width="0.63" stroke-opacity="0.9" stroke-linecap="round"/><polygon points="55.9,326.4 64.9,332.2 57.5,337.0" fill="#fefefe" fill-opacity="0.9"/>
<line x1="112.1" y1="330.2" x2="110.4" y2="326.2" stroke="#fefefe" stroke-width="0.63" stroke-opacity="0.9" stroke-linecap="round"/><polygon points="110.4,326.2 118.3,333.6 110.1,336.9" fill="#fefefe" fill-opacity="0.9"/>
<line x1="167.1" y1="329.7" x2="164.0" y2="326.7" stroke="#fefefe" stroke-width="0.63" stroke-opacity="0.9" stroke-linecap="round"/><polygon points="164.0,326.7 174.0,330.4 167.9,336.7" fill="#fefefe" fill-opacity="0.9"/>
<line x1="221.2" y1="329.9" x2="218.3" y2="326.6" stroke="#fefefe" stroke-width="0.63" stroke-opacity="0.9" stroke-linecap="round"/><polygon points="218.3,326.6 228.1,331.1 221.4,336.9" fill="#fefefe" fill-opacity="0.9"/>
<line x1="274.4" y1="330.4" x2="273.6" y2="326.1" stroke="#fefefe" stroke-width="0.63" stroke-opacity="0.9" stroke-linecap="round"/><polygon points="273.6,326.1 279.7,334.9 271.1,336.5" fill="#fefefe" fill-opacity="0.9"/>
<line x1="328.0" y1="330.4" x2="328.5" y2="326.1" stroke="#fefefe" stroke-width="0.63" stroke-opacity="0.9" stroke-linecap="round"/><polygon points="328.5,326.1 331.8,336.2 323.1,335.3" fill="#fefefe" fill-opacity="0.9"/>
<line x1="384.5" y1="327.4" x2="380.5" y2="329.0" stroke="#fefefe" stroke-width="0.63" stroke-opacity="0.9" stroke-linecap="round"/><polygon points="380.5,329.0 387.9,321.4 391.2,329.6" fill="#fefefe" fill-opacity="0.9"/>
<line x1="434.8" y1="327.3" x2="438.7" y2="329.2" stroke="#fefefe" stroke-width="0.63" stroke-opacity="0.9" stroke-linecap="round"/><polygon points="438.7,329.2 428.0,328.9 431.8,321.0" fill="#fefefe" fill-opacity="0.9"/>
<line x1="488.8" y1="327.8" x2="493.1" y2="328.7" stroke="#fefefe" stroke-width="0.63" stroke-opacity="0.9" stroke-linecap="round"/><polygon points="493.1,328.7 482.7,331.1 484.4,322.5" fill="#fefefe" fill-opacity="0.9"/>
<line x1="543.8" y1="326.6" x2="546.6" y2="329.9" stroke="#fefefe" stroke-width="0.63" stroke-opacity="0.9" stroke-linecap="round"/><polygon points="546.6,329.9 536.9,325.4 543.5,319.6" fill="#fefefe" fill-opacity="0.9"/>
<line x1="598.2" y1="326.4" x2="600.6" y2="330.0" stroke="#fefefe" stroke-width="0.63" stroke-opacity="0.9" stroke-linecap="round"/><polygon points="600.6,330.0 591.6,324.4 598.9,319.5" fill="#fefefe" fill-opacity="0.9"/>
<line x1="652.0" y1="326.8" x2="655.3" y2="329.7" stroke="#fefefe" stroke-width="0.63" stroke-opacity="0.9" stroke-linecap="round"/><polygon points="655.3,329.7 645.1,326.6 650.8,320.0" fill="#fefefe" fill-opacity="0.9"/>
<line x1="706.1" y1="327.0" x2="709.7" y2="329.5" stroke="#fefefe" stroke-width="0.63" stroke-opacity="0.9" stroke-linecap="round"/><polygon points="709.7,329.5 699.2,327.4 704.3,320.3" fill="#fefefe" fill-opacity="0.9"/>
<line x1="760.9" y1="326.5" x2="763.4" y2="330.0" stroke="#fefefe" stroke-width="0.63" stroke-opacity="0.9" stroke-linecap="round"/><polygon points="763.4,330.0 754.1,324.7 761.2,319.5" fill="#fefefe" fill-opacity="0.9"/>
<line x1="815.0" y1="326.6" x2="817.8" y2="329.9" stroke="#fefefe" stroke-width="0.63" stroke-opacity="0.9" stroke-linecap="round"/><polygon points="817.8,329.9 808.2,325.2 814.9,319.6" fill="#fefefe" fill-opacity="0.9"/>
<line x1="58.0" y1="384.4" x2="56.0" y2="380.6" stroke="#fefefe" stroke-width="0.63" stroke-opacity="0.9" stroke-linecap="round"/><polygon points="56.0,380.6 64.4,387.2 56.6,391.2" fill="#fefefe" fill-opacity="0.9"/>
<line x1="112.6" y1="384.2" x2="110.0" y2="380.7" stroke="#fefefe" stroke-width="0.63" stroke-opacity="0.9" stroke-linecap="round"/><polygon points="110.0,380.7 119.3,386.0 112.3,391.2" fill="#fefefe" fill-opacity="0.9"/>
<line x1="167.0" y1="384.1" x2="164.1" y2="380.9" stroke="#fefefe" stroke-width="0.63" stroke-opacity="0.9" stroke-linecap="round"/><polygon points="164.1,380.9 173.9,385.2 167.3,391.1" fill="#fefefe" fill-opacity="0.9"/>
<line x1="220.8" y1="384.4" x2="218.8" y2="380.6" stroke="#fefefe" stroke-width="0.63" stroke-opacity="0.9" stroke-linecap="round"/><polygon points="218.8,380.6 227.2,387.2 219.4,391.2" fill="#fefefe" fill-opacity="0.9"/>
<line x1="274.5" y1="384.6" x2="273.5" y2="380.4" stroke="#fefefe" stroke-width="0.63" stroke-opacity="0.9" stroke-linecap="round"/><polygon points="273.5,380.4 280.0,388.8 271.5,390.9" fill="#fefefe" fill-opacity="0.9"/>
<line x1="329.9" y1="383.9" x2="326.6" y2="381.1" stroke="#fefefe" stroke-width="0.63" stroke-opacity="0.9" stroke-linecap="round"/><polygon points="326.6,381.1 336.9,383.9 331.3,390.7" fill="#fefefe" fill-opacity="0.9"/>
<line x1="383.7" y1="384.3" x2="381.3" y2="380.7" stroke="#fefefe" stroke-width="0.63" stroke-opacity="0.9" stroke-linecap="round"/><polygon points="381.3,380.7 390.4,386.3 383.1,391.2" fill="#fefefe" fill-opacity="0.9"/>
<line x1="435.6" y1="384.3" x2="437.8" y2="380.6" stroke="#fefefe" stroke-width="0.63" stroke-opacity="0.9" stroke-linecap="round"/><polygon points="437.8,380.6 436.6,391.3 429.1,386.8" fill="#fefefe" fill-opacity="0.9"/>
<line x1="488.8" y1="383.0" x2="493.1" y2="382.0" stroke="#fefefe" stroke-width="0.63" stroke-opacity="0.9" stroke-linecap="round"/><polygon points="493.1,382.0 484.6,388.5 482.6,379.9" fill="#fefefe" fill-opacity="0.9"/>
<line x1="544.6" y1="380.4" x2="545.8" y2="384.6" stroke="#fefefe" stroke-width="0.63" stroke-opacity="0.9" stroke-linecap="round"/><polygon points="545.8,384.6 538.8,376.4 547.3,374.0" fill="#fefefe" fill-opacity="0.9"/>
<line x1="597.7" y1="381.2" x2="601.2" y2="383.8" stroke="#fefefe" stroke-width="0.63" stroke-opacity="0.9" stroke-linecap="round"/><polygon points="601.2,383.8 590.7,381.6 595.9,374.5" fill="#fefefe" fill-opacity="0.9"/>
<line x1="651.7" y1="381.6" x2="655.7" y2="383.4" stroke="#fefefe" stroke-width="0.63" stroke-opacity="0.9" stroke-linecap="round"/><polygon points="655.7,383.4 645.0,383.4 648.6,375.4" fill="#fefefe" fill-opacity="0.9"/>
<line x1="706.5" y1="380.9" x2="709.4" y2="384.1" stroke="#fefefe" stroke-width="0.63" stroke-opacity="0.9" stroke-linecap="round"/><polygon points="709.4,384.1 699.6,379.8 706.1,373.9" fill="#fefefe" fill-opacity="0.9"/>
<line x1="760.8" y1="380.8" x2="763.5" y2="384.2" stroke="#fefefe" stroke-width="0.63" stroke-opacity="0.9" stroke-linecap="round"/><polygon points="763.5,384.2 754.0,379.2 760.9,373.8" fill="#fefefe" fill-opacity="0.9"/>
<line x1="814.8" y1="381.1" x2="818.0" y2="383.9" stroke="#fefefe" stroke-width="0.63" stroke-opacity="0.9" stroke-linecap="round"/><polygon points="818.0,383.9 807.8,380.8 813.5,374.2" fill="#fefefe" fill-opacity="0.9"/>
<line x1="868.9" y1="381.2" x2="872.4" y2="383.8" stroke="#fefefe" stroke-width="0.63" stroke-opacity="0.9" stroke-linecap="round"/><polygon points="872.4,383.8 861.9,381.4 867.3,374.4" fill="#fefefe" fill-opacity="0.9"/>
<line x1="58.2" y1="438.6" x2="55.9" y2="434.9" stroke="#fefefe" stroke-width="0.63" stroke-opacity="0.9" stroke-linecap="round"/><polygon points="55.9,434.9 64.8,440.9 57.3,445.5" fill="#fefefe" fill-opacity="0.9"/>
<line x1="112.7" y1="438.3" x2="109.8" y2="435.1" stroke="#fefefe" stroke-width="0.63" stroke-opacity="0.9" stroke-linecap="round"/><polygon points="109.8,435.1 119.6,439.5 113.0,445.3" fill="#fefefe" fill-opacity="0.9"/>
<line x1="166.7" y1="438.5" x2="164.3" y2="434.9" stroke="#fefefe" stroke-width="0.63" stroke-opacity="0.9" stroke-linecap="round"/><polygon points="164.3,434.9 173.4,440.6 166.0,445.5" fill="#fefefe" fill-opacity="0.9"/>
<line x1="220.6" y1="438.7" x2="218.9" y2="434.7" stroke="#fefefe" stroke-width="0.63" stroke-opacity="0.9" stroke-linecap="round"/><polygon points="218.9,434.7 226.7,442.1 218.6,445.4" fill="#fefefe" fill-opacity="0.9"/>
<line x1="275.3" y1="438.5" x2="272.7" y2="435.0" stroke="#fefefe" stroke-width="0.63" stroke-opacity="0.9" stroke-linecap="round"/><polygon points="272.7,435.0 282.0,440.3 274.9,445.4" fill="#fefefe" fill-opacity="0.9"/>
<line x1="329.6" y1="438.4" x2="326.9" y2="435.1" stroke="#fefefe" stroke-width="0.63" stroke-opacity="0.9" stroke-linecap="round"/><polygon points="326.9,435.1 336.5,439.7 329.7,445.4" fill="#fefefe" fill-opacity="0.9"/>
<line x1="383.1" y1="438.8" x2="381.8" y2="434.6" stroke="#fefefe" stroke-width="0.63" stroke-opacity="0.9" stroke-linecap="round"/><polygon points="381.8,434.6 388.9,442.7 380.5,445.3" fill="#fefefe" fill-opacity="0.9"/>
<line x1="436.6" y1="438.9" x2="436.9" y2="434.6" stroke="#fefefe" stroke-width="0.63" stroke-opacity="0.9" stroke-linecap="round"/><polygon points="436.9,434.6 440.5,444.6 431.8,444.0" fill="#fefefe" fill-opacity="0.9"/>
<line x1="493.0" y1="437.5" x2="488.9" y2="436.0" stroke="#fefefe" stroke-width="0.63" stroke-opacity="0.9" stroke-linecap="round"/><polygon points="488.9,436.0 499.6,435.3 496.5,443.5" fill="#fefefe" fill-opacity="0.9"/>
<line x1="543.5" y1="438.1" x2="546.9" y2="435.4" stroke="#fefefe" stroke-width="0.63" stroke-opacity="0.9" stroke-linecap="round"/><polygon points="546.9,435.4 541.9,444.8 536.5,437.9" fill="#fefefe" fill-opacity="0.9"/>
<line x1="597.3" y1="436.9" x2="601.6" y2="436.5" stroke="#fefefe" stroke-width="0.63" stroke-opacity="0.9" stroke-linecap="round"/><polygon points="601.6,436.5 592.3,441.9 591.4,433.1" fill="#fefefe" fill-opacity="0.9"/>
<line x1="651.7" y1="435.7" x2="655.6" y2="437.7" stroke="#fefefe" stroke-width="0.63" stroke-opacity="0.9" stroke-linecap="round"/><polygon points="655.6,437.7 644.9,437.2 648.9,429.4" fill="#fefefe" fill-opacity="0.9"/>
<line x1="706.7" y1="434.9" x2="709.1" y2="438.5" stroke="#fefefe" stroke-width="0.63" stroke-opacity="0.9" stroke-linecap="round"/><polygon points="709.1,438.5 700.0,432.9 707.3,428.0" fill="#fefefe" fill-opacity="0.9"/>
<line x1="760.5" y1="435.4" x2="763.9" y2="438.1" stroke="#fefefe" stroke-width="0.63" stroke-opacity="0.9" stroke-linecap="round"/><polygon points="763.9,438.1 753.5,435.5 758.9,428.6" fill="#fefefe" fill-opacity="0.9"/>
<line x1="814.5" y1="435.6" x2="818.3" y2="437.8" stroke="#fefefe" stroke-width="0.63" stroke-opacity="0.9" stroke-linecap="round"/><polygon points="818.3,437.8 807.6,436.7 812.0,429.1" fill="#fefefe" fill-opacity="0.9"/>
<line x1="869.2" y1="435.1" x2="872.1" y2="438.3" stroke="#fefefe" stroke-width="0.63" stroke-opacity="0.9" stroke-linecap="round"/><polygon points="872.1,438.3 862.3,434.1 868.7,428.2" fill="#fefefe" fill-opacity="0.9"/>
<line x1="923.5" y1="435.1" x2="926.3" y2="438.4" stroke="#fefefe" stroke-width="0.63" stroke-opacity="0.9" stroke-linecap="round"/><polygon points="926.3,438.4 916.6,433.8 923.3,428.1" fill="#fefefe" fill-opacity="0.9"/>
<line x1="166.5" y1="492.9" x2="164.5" y2="489.0" stroke="#fefefe" stroke-width="0.63" stroke-opacity="0.9" stroke-linecap="round"/><polygon points="164.5,489.0 172.9,495.6 165.2,499.7" fill="#fefefe" fill-opacity="0.9"/>
<line x1="220.8" y1="492.8" x2="218.7" y2="489.1" stroke="#fefefe" stroke-width="0.63" stroke-opacity="0.9" stroke-linecap="round"/><polygon points="218.7,489.1 227.3,495.4 219.7,499.7" fill="#fefefe" fill-opacity="0.9"/>
<line x1="275.4" y1="492.6" x2="272.6" y2="489.3" stroke="#fefefe" stroke-width="0.63" stroke-opacity="0.9" stroke-linecap="round"/><polygon points="272.6,489.3 282.3,493.9 275.6,499.6" fill="#fefefe" fill-opacity="0.9"/>
<line x1="329.3" y1="492.9" x2="327.2" y2="489.1" stroke="#fefefe" stroke-width="0.63" stroke-opacity="0.9" stroke-linecap="round"/><polygon points="327.2,489.1 335.8,495.5 328.1,499.7" fill="#fefefe" fill-opacity="0.9"/>
<line x1="383.0" y1="493.1" x2="382.0" y2="488.9" stroke="#fefefe" stroke-width="0.63" stroke-opacity="0.9" stroke-linecap="round"/><polygon points="382.0,488.9 388.6,497.3 380.1,499.4" fill="#fefefe" fill-opacity="0.9"/>
<line x1="438.0" y1="492.7" x2="435.4" y2="489.2" stroke="#fefefe" stroke-width="0.63" stroke-opacity="0.9" stroke-linecap="round"/><polygon points="435.4,489.2 444.7,494.5 437.6,499.7" fill="#fefefe" fill-opacity="0.9"/>
<line x1="492.2" y1="492.7" x2="489.7" y2="489.2" stroke="#fefefe" stroke-width="0.63" stroke-opacity="0.9" stroke-linecap="round"/><polygon points="489.7,489.2 498.9,494.7 491.7,499.7" fill="#fefefe" fill-opacity="0.9"/>
<line x1="544.9" y1="493.1" x2="545.5" y2="488.8" stroke="#fefefe" stroke-width="0.63" stroke-opacity="0.9" stroke-linecap="round"/><polygon points="545.5,488.8 548.4,499.1 539.7,497.8" fill="#fefefe" fill-opacity="0.9"/>
<line x1="598.0" y1="492.6" x2="600.9" y2="489.3" stroke="#fefefe" stroke-width="0.63" stroke-opacity="0.9" stroke-linecap="round"/><polygon points="600.9,489.3 597.8,499.6 591.2,493.8" fill="#fefefe" fill-opacity="0.9"/>
<line x1="653.8" y1="488.8" x2="653.5" y2="493.1" stroke="#fefefe" stroke-width="0.63" stroke-opacity="0.9" stroke-linecap="round"/><polygon points="653.5,493.1 649.8,483.1 658.6,483.7" fill="#fefefe" fill-opacity="0.9"/>
<line x1="706.0" y1="489.9" x2="709.8" y2="492.0" stroke="#fefefe" stroke-width="0.63" stroke-opacity="0.9" stroke-linecap="round"/><polygon points="709.8,492.0 699.1,491.2 703.4,483.5" fill="#fefefe" fill-opacity="0.9"/>
<line x1="760.1" y1="490.4" x2="764.2" y2="491.6" stroke="#fefefe" stroke-width="0.63" stroke-opacity="0.9" stroke-linecap="round"/><polygon points="764.2,491.6 753.7,493.1 756.1,484.6" fill="#fefefe" fill-opacity="0.9"/>
<line x1="814.6" y1="489.7" x2="818.2" y2="492.2" stroke="#fefefe" stroke-width="0.63" stroke-opacity="0.9" stroke-linecap="round"/><polygon points="818.2,492.2 807.7,490.3 812.6,483.1" fill="#fefefe" fill-opacity="0.9"/>
<line x1="869.3" y1="489.3" x2="872.0" y2="492.6" stroke="#fefefe" stroke-width="0.63" stroke-opacity="0.9" stroke-linecap="round"/><polygon points="872.0,492.6 862.4,487.9 869.2,482.3" fill="#fefefe" fill-opacity="0.9"/>
<line x1="923.2" y1="489.6" x2="926.6" y2="492.3" stroke="#fefefe" stroke-width="0.63" stroke-opacity="0.9" stroke-linecap="round"/><polygon points="926.6,492.3 916.2,489.6 921.8,482.8" fill="#fefefe" fill-opacity="0.9"/>
<line x1="221.1" y1="546.9" x2="218.4" y2="543.5" stroke="#fefefe" stroke-width="0.63" stroke-opacity="0.9" stroke-linecap="round"/><polygon points="218.4,543.5 228.0,548.3 221.2,553.9" fill="#fefefe" fill-opacity="0.9"/>
<line x1="275.2" y1="547.0" x2="272.8" y2="543.4" stroke="#fefefe" stroke-width="0.63" stroke-opacity="0.9" stroke-linecap="round"/><polygon points="272.8,543.4 281.9,549.1 274.6,554.0" fill="#fefefe" fill-opacity="0.9"/>
<line x1="329.1" y1="547.2" x2="327.4" y2="543.2" stroke="#fefefe" stroke-width="0.63" stroke-opacity="0.9" stroke-linecap="round"/><polygon points="327.4,543.2 335.3,550.5 327.2,553.9" fill="#fefefe" fill-opacity="0.9"/>
<line x1="383.5" y1="547.1" x2="381.5" y2="543.3" stroke="#fefefe" stroke-width="0.63" stroke-opacity="0.9" stroke-linecap="round"/><polygon points="381.5,543.3 389.8,550.0 382.0,554.0" fill="#fefefe" fill-opacity="0.9"/>
<line x1="438.1" y1="546.9" x2="435.4" y2="543.5" stroke="#fefefe" stroke-width="0.63" stroke-opacity="0.9" stroke-linecap="round"/><polygon points="435.4,543.5 444.9,548.4 438.0,553.9" fill="#fefefe" fill-opacity="0.9"/>
<line x1="491.7" y1="547.2" x2="490.2" y2="543.2" stroke="#fefefe" stroke-width="0.63" stroke-opacity="0.9" stroke-linecap="round"/><polygon points="490.2,543.2 497.8,550.7 489.6,553.9" fill="#fefefe" fill-opacity="0.9"/>
<line x1="545.2" y1="547.4" x2="545.2" y2="543.0" stroke="#fefefe" stroke-width="0.63" stroke-opacity="0.9" stroke-linecap="round"/><polygon points="545.2,543.0 549.6,552.8 540.8,552.8" fill="#fefefe" fill-opacity="0.9"/>
<line x1="600.9" y1="546.8" x2="598.0" y2="543.6" stroke="#fefefe" stroke-width="0.63" stroke-opacity="0.9" stroke-linecap="round"/><polygon points="598.0,543.6 607.7,548.1 601.1,553.8" fill="#fefefe" fill-opacity="0.9"/>
<line x1="654.1" y1="547.3" x2="653.3" y2="543.1" stroke="#fefefe" stroke-width="0.63" stroke-opacity="0.9" stroke-linecap="round"/><polygon points="653.3,543.1 659.5,551.8 650.8,553.5" fill="#fefefe" fill-opacity="0.9"/>
<line x1="706.0" y1="546.3" x2="709.8" y2="544.1" stroke="#fefefe" stroke-width="0.63" stroke-opacity="0.9" stroke-linecap="round"/><polygon points="709.8,544.1 703.5,552.8 699.1,545.1" fill="#fefefe" fill-opacity="0.9"/>
<line x1="760.0" y1="545.2" x2="764.3" y2="545.2" stroke="#fefefe" stroke-width="0.63" stroke-opacity="0.9" stroke-linecap="round"/><polygon points="764.3,545.2 754.7,549.8 754.5,541.0" fill="#fefefe" fill-opacity="0.9"/>
<line x1="815.1" y1="543.4" x2="817.7" y2="547.0" stroke="#fefefe" stroke-width="0.63" stroke-opacity="0.9" stroke-linecap="round"/><polygon points="817.7,547.0 808.4,541.6 815.5,536.5" fill="#fefefe" fill-opacity="0.9"/>
<line x1="868.9" y1="544.0" x2="872.4" y2="546.4" stroke="#fefefe" stroke-width="0.63" stroke-opacity="0.9" stroke-linecap="round"/><polygon points="872.4,546.4 861.9,544.5 866.9,537.3" fill="#fefefe" fill-opacity="0.9"/>
<line x1="922.9" y1="544.3" x2="926.9" y2="546.1" stroke="#fefefe" stroke-width="0.63" stroke-opacity="0.9" stroke-linecap="round"/><polygon points="926.9,546.1 916.2,546.2 919.7,538.2" fill="#fefefe" fill-opacity="0.9"/>
<line x1="329.2" y1="601.4" x2="327.3" y2="597.5" stroke="#fefefe" stroke-width="0.63" stroke-opacity="0.9" stroke-linecap="round"/><polygon points="327.3,597.5 335.4,604.5 327.5,608.2" fill="#fefefe" fill-opacity="0.9"/>
<line x1="383.8" y1="601.1" x2="381.1" y2="597.7" stroke="#fefefe" stroke-width="0.63" stroke-opacity="0.9" stroke-linecap="round"/><polygon points="381.1,597.7 390.6,602.7 383.7,608.1" fill="#fefefe" fill-opacity="0.9"/>
<line x1="437.8" y1="601.3" x2="435.6" y2="597.6" stroke="#fefefe" stroke-width="0.63" stroke-opacity="0.9" stroke-linecap="round"/><polygon points="435.6,597.6 444.3,603.8 436.7,608.2" fill="#fefefe" fill-opacity="0.9"/>
<line x1="491.6" y1="601.5" x2="490.4" y2="597.4" stroke="#fefefe" stroke-width="0.63" stroke-opacity="0.9" stroke-linecap="round"/><polygon points="490.4,597.4 497.3,605.5 488.8,608.0" fill="#fefefe" fill-opacity="0.9"/>
<line x1="546.1" y1="601.4" x2="544.3" y2="597.5" stroke="#fefefe" stroke-width="0.63" stroke-opacity="0.9" stroke-linecap="round"/><polygon points="544.3,597.5 552.3,604.6 544.2,608.2" fill="#fefefe" fill-opacity="0.9"/>
<line x1="600.7" y1="601.2" x2="598.2" y2="597.6" stroke="#fefefe" stroke-width="0.63" stroke-opacity="0.9" stroke-linecap="round"/><polygon points="598.2,597.6 607.4,603.2 600.1,608.2" fill="#fefefe" fill-opacity="0.9"/>
<line x1="653.8" y1="601.6" x2="653.5" y2="597.3" stroke="#fefefe" stroke-width="0.63" stroke-opacity="0.9" stroke-linecap="round"/><polygon points="653.5,597.3 658.6,606.7 649.9,607.3" fill="#fefefe" fill-opacity="0.9"/>
<line x1="707.0" y1="601.4" x2="708.9" y2="597.5" stroke="#fefefe" stroke-width="0.63" stroke-opacity="0.9" stroke-linecap="round"/><polygon points="708.9,597.5 708.6,608.2 700.7,604.4" fill="#fefefe" fill-opacity="0.9"/>
<line x1="764.3" y1="599.2" x2="760.0" y2="599.7" stroke="#fefefe" stroke-width="0.63" stroke-opacity="0.9" stroke-linecap="round"/><polygon points="760.0,599.7 769.2,594.2 770.2,603.0" fill="#fefefe" fill-opacity="0.9"/>
<line x1="814.3" y1="599.0" x2="818.5" y2="599.9" stroke="#fefefe" stroke-width="0.63" stroke-opacity="0.9" stroke-linecap="round"/><polygon points="818.5,599.9 808.1,602.3 809.8,593.6" fill="#fefefe" fill-opacity="0.9"/>
<line x1="868.5" y1="599.3" x2="872.8" y2="599.6" stroke="#fefefe" stroke-width="0.63" stroke-opacity="0.9" stroke-linecap="round"/><polygon points="872.8,599.6 862.7,603.2 863.4,594.5" fill="#fefefe" fill-opacity="0.9"/>
<line x1="922.7" y1="599.3" x2="927.0" y2="599.5" stroke="#fefefe" stroke-width="0.63" stroke-opacity="0.9" stroke-linecap="round"/><polygon points="927.0,599.5 917.1,603.5 917.5,594.7" fill="#fefefe" fill-opacity="0.9"/>
<line x1="383.7" y1="655.5" x2="381.3" y2="651.9" stroke="#fefefe" stroke-width="0.63" stroke-opacity="0.9" stroke-linecap="round"/><polygon points="381.3,651.9 390.4,657.5 383.1,662.4" fill="#fefefe" fill-opacity="0.9"/>
<line x1="437.6" y1="655.7" x2="435.8" y2="651.7" stroke="#fefefe" stroke-width="0.63" stroke-opacity="0.9" stroke-linecap="round"/><polygon points="435.8,651.7 443.8,658.8 435.8,662.4" fill="#fefefe" fill-opacity="0.9"/>
<line x1="491.7" y1="655.7" x2="490.2" y2="651.7" stroke="#fefefe" stroke-width="0.63" stroke-opacity="0.9" stroke-linecap="round"/><polygon points="490.2,651.7 497.8,659.2 489.6,662.3" fill="#fefefe" fill-opacity="0.9"/>
<line x1="546.5" y1="655.4" x2="543.9" y2="651.9" stroke="#fefefe" stroke-width="0.63" stroke-opacity="0.9" stroke-linecap="round"/><polygon points="543.9,651.9 553.2,657.2 546.1,662.4" fill="#fefefe" fill-opacity="0.9"/>
<line x1="600.3" y1="655.7" x2="598.6" y2="651.7" stroke="#fefefe" stroke-width="0.63" stroke-opacity="0.9" stroke-linecap="round"/><polygon points="598.6,651.7 606.5,658.9 598.5,662.4" fill="#fefefe" fill-opacity="0.9"/>
<line x1="653.8" y1="655.8" x2="653.5" y2="651.5" stroke="#fefefe" stroke-width="0.63" stroke-opacity="0.9" stroke-linecap="round"/><polygon points="653.5,651.5 658.6,660.9 649.9,661.6" fill="#fefefe" fill-opacity="0.9"/>
<line x1="708.7" y1="655.7" x2="707.2" y2="651.6" stroke="#fefefe" stroke-width="0.63" stroke-opacity="0.9" stroke-linecap="round"/><polygon points="707.2,651.6 714.7,659.3 706.4,662.3" fill="#fefefe" fill-opacity="0.9"/>
<line x1="763.0" y1="655.7" x2="761.3" y2="651.7" stroke="#fefefe" stroke-width="0.63" stroke-opacity="0.9" stroke-linecap="round"/><polygon points="761.3,651.7 769.1,659.0 761.0,662.4" fill="#fefefe" fill-opacity="0.9"/>
<line x1="815.2" y1="655.5" x2="817.6" y2="651.9" stroke="#fefefe" stroke-width="0.63" stroke-opacity="0.9" stroke-linecap="round"/><polygon points="817.6,651.9 815.7,662.4 808.5,657.4" fill="#fefefe" fill-opacity="0.9"/>
<line x1="868.7" y1="654.7" x2="872.5" y2="652.6" stroke="#fefefe" stroke-width="0.63" stroke-opacity="0.9" stroke-linecap="round"/><polygon points="872.5,652.6 866.1,661.2 861.9,653.4" fill="#fefefe" fill-opacity="0.9"/>
<line x1="922.8" y1="654.4" x2="926.9" y2="653.0" stroke="#fefefe" stroke-width="0.63" stroke-opacity="0.9" stroke-linecap="round"/><polygon points="926.9,653.0 919.1,660.3 916.3,651.9" fill="#fefefe" fill-opacity="0.9"/>
<line x1="492.2" y1="709.7" x2="489.7" y2="706.1" stroke="#fefefe" stroke-width="0.63" stroke-opacity="0.9" stroke-linecap="round"/><polygon points="489.7,706.1 498.9,711.7 491.7,716.7" fill="#fefefe" fill-opacity="0.9"/>
<line x1="546.3" y1="709.8" x2="544.1" y2="706.1" stroke="#fefefe" stroke-width="0.63" stroke-opacity="0.9" stroke-linecap="round"/><polygon points="544.1,706.1 552.9,712.2 545.3,716.7" fill="#fefefe" fill-opacity="0.9"/>
<line x1="600.1" y1="710.0" x2="598.8" y2="705.9" stroke="#fefefe" stroke-width="0.63" stroke-opacity="0.9" stroke-linecap="round"/><polygon points="598.8,705.9 606.0,713.8 597.6,716.5" fill="#fefefe" fill-opacity="0.9"/>
<line x1="654.3" y1="710.0" x2="653.1" y2="705.8" stroke="#fefefe" stroke-width="0.63" stroke-opacity="0.9" stroke-linecap="round"/><polygon points="653.1,705.8 660.0,714.1 651.5,716.4" fill="#fefefe" fill-opacity="0.9"/>
<line x1="709.1" y1="709.7" x2="706.7" y2="706.1" stroke="#fefefe" stroke-width="0.63" stroke-opacity="0.9" stroke-linecap="round"/><polygon points="706.7,706.1 715.7,711.9 708.3,716.7" fill="#fefefe" fill-opacity="0.9"/>
<line x1="762.6" y1="710.0" x2="761.7" y2="705.8" stroke="#fefefe" stroke-width="0.63" stroke-opacity="0.9" stroke-linecap="round"/><polygon points="761.7,705.8 768.0,714.5 759.4,716.2" fill="#fefefe" fill-opacity="0.9"/>
<line x1="815.7" y1="710.0" x2="817.1" y2="705.9" stroke="#fefefe" stroke-width="0.63" stroke-opacity="0.9" stroke-linecap="round"/><polygon points="817.1,705.9 818.2,716.5 809.9,713.8" fill="#fefefe" fill-opacity="0.9"/>
<line x1="869.2" y1="709.6" x2="872.1" y2="706.3" stroke="#fefefe" stroke-width="0.63" stroke-opacity="0.9" stroke-linecap="round"/><polygon points="872.1,706.3 869.0,716.5 862.4,710.8" fill="#fefefe" fill-opacity="0.9"/>
<line x1="923.1" y1="709.2" x2="926.6" y2="706.7" stroke="#fefefe" stroke-width="0.63" stroke-opacity="0.9" stroke-linecap="round"/><polygon points="926.6,706.7 921.3,715.9 916.1,708.8" fill="#fefefe" fill-opacity="0.9"/>
<line x1="600.1" y1="764.2" x2="598.8" y2="760.1" stroke="#fefefe" stroke-width="0.63" stroke-opacity="0.9" stroke-linecap="round"/><polygon points="598.8,760.1 606.0,768.0 597.7,770.8" fill="#fefefe" fill-opacity="0.9"/>
<line x1="654.9" y1="764.0" x2="652.5" y2="760.3" stroke="#fefefe" stroke-width="0.63" stroke-opacity="0.9" stroke-linecap="round"/><polygon points="652.5,760.3 661.5,766.2 654.1,770.9" fill="#fefefe" fill-opacity="0.9"/>
<line x1="708.9" y1="764.1" x2="707.0" y2="760.2" stroke="#fefefe" stroke-width="0.63" stroke-opacity="0.9" stroke-linecap="round"/><polygon points="707.0,760.2 715.2,767.1 707.2,770.9" fill="#fefefe" fill-opacity="0.9"/>
<line x1="762.5" y1="764.3" x2="761.9" y2="760.0" stroke="#fefefe" stroke-width="0.63" stroke-opacity="0.9" stroke-linecap="round"/><polygon points="761.9,760.0 767.5,769.1 758.8,770.3" fill="#fefefe" fill-opacity="0.9"/>
<line x1="816.0" y1="764.3" x2="816.8" y2="760.0" stroke="#fefefe" stroke-width="0.63" stroke-opacity="0.9" stroke-linecap="round"/><polygon points="816.8,760.0 819.1,770.5 810.5,768.7" fill="#fefefe" fill-opacity="0.9"/>
<line x1="869.6" y1="764.1" x2="871.7" y2="760.3" stroke="#fefefe" stroke-width="0.63" stroke-opacity="0.9" stroke-linecap="round"/><polygon points="871.7,760.3 870.8,770.9 863.1,766.6" fill="#fefefe" fill-opacity="0.9"/>
<line x1="923.4" y1="763.8" x2="926.3" y2="760.6" stroke="#fefefe" stroke-width="0.63" stroke-opacity="0.9" stroke-linecap="round"/><polygon points="926.3,760.6 923.0,770.7 916.5,764.8" fill="#fefefe" fill-opacity="0.9"/>
<line x1="708.7" y1="818.4" x2="707.2" y2="814.4" stroke="#fefefe" stroke-width="0.63" stroke-opacity="0.9" stroke-linecap="round"/><polygon points="707.2,814.4 714.6,822.1 706.4,825.0" fill="#fefefe" fill-opacity="0.9"/>
<line x1="762.4" y1="818.6" x2="761.9" y2="814.2" stroke="#fefefe" stroke-width="0.63" stroke-opacity="0.9" stroke-linecap="round"/><polygon points="761.9,814.2 767.3,823.5 758.6,824.4" fill="#fefefe" fill-opacity="0.9"/>
<line x1="816.1" y1="818.5" x2="816.7" y2="814.3" stroke="#fefefe" stroke-width="0.63" stroke-opacity="0.9" stroke-linecap="round"/><polygon points="816.7,814.3 819.6,824.6 810.9,823.2" fill="#fefefe" fill-opacity="0.9"/>
</svg>