<?xml version="1.0" encoding="UTF-8"?>
<svg xmlns="http://www.w3.org/2000/svg" viewBox="0 0 1000 1000" preserveAspectRatio="none">
<line x1="58.2" y1="55.2" x2="55.9" y2="58.9" stroke="#fefefe" stroke-width="0.63" stroke-opacity="0.9" stroke-linecap="round"/><polygon points="55.9,58.9 57.2,48.3 64.7,52.8" fill="#fefefe" fill-opacity="0.9"/>
<line x1="111.9" y1="55.0" x2="110.7" y2="59.1" stroke="#fefefe" stroke-width="0.63" stroke-opacity="0.9" stroke-linecap="round"/><polygon points="110.7,59.1 109.2,48.5 117.6,51.0" fill="#fefefe" fill-opacity="0.9"/>
<line x1="165.5" y1="54.9" x2="165.5" y2="59.2" stroke="#fefefe" stroke-width="0.63" stroke-opacity="0.9" stroke-linecap="round"/><polygon points="165.5,59.2 161.0,49.5 169.8,49.4" fill="#fefefe" fill-opacity="0.9"/>
<line x1="219.1" y1="55.0" x2="220.4" y2="59.1" stroke="#fefefe" stroke-width="0.63" stroke-opacity="0.9" stroke-linecap="round"/><polygon points="220.4,59.1 213.3,51.1 221.6,48.5" fill="#fefefe" fill-opacity="0.9"/>
<line x1="272.9" y1="55.2" x2="275.1" y2="58.9" stroke="#fefefe" stroke-width="0.63" stroke-opacity="0.9" stroke-linecap="round"/><polygon points="275.1,58.9 266.3,52.9 273.7,48.3" fill="#fefefe" fill-opacity="0.9"/>
<line x1="326.8" y1="55.5" x2="329.7" y2="58.6" stroke="#fefefe" stroke-width="0.63" stroke-opacity="0.9" stroke-linecap="round"/><polygon points="329.7,58.6 319.9,54.5 326.3,48.5" fill="#fefefe" fill-opacity="0.9"/>
<line x1="58.5" y1="109.6" x2="55.6" y2="112.9" stroke="#fefefe" stroke-width="0.63" stroke-opacity="0.9" stroke-linecap="round"/><polygon points="55.6,112.9 58.7,102.7 65.3,108.4" fill="#fefefe" fill-opacity="0.9"/>
<line x1="112.1" y1="109.3" x2="110.4" y2="113.3" stroke="#fefefe" stroke-width="0.63" stroke-opacity="0.9" stroke-linecap="round"/><polygon points="110.4,113.3 110.2,102.6 118.3,106.0" fill="#fefefe" fill-opacity="0.9"/>
<line x1="165.5" y1="109.1" x2="165.6" y2="113.4" stroke="#fefefe" stroke-width="0.63" stroke-opacity="0.9" stroke-linecap="round"/><polygon points="165.6,113.4 161.0,103.8 169.8,103.6" fill="#fefefe" fill-opacity="0.9"/>
<line x1="218.9" y1="109.3" x2="220.7" y2="113.3" stroke="#fefefe" stroke-width="0.63" stroke-opacity="0.9" stroke-linecap="round"/><polygon points="220.7,113.3 212.6,106.2 220.6,102.5" fill="#fefefe" fill-opacity="0.9"/>
<line x1="272.5" y1="109.7" x2="275.5" y2="112.9" stroke="#fefefe" stroke-width="0.63" stroke-opacity="0.9" stroke-linecap="round"/><polygon points="275.5,112.9 265.7,108.6 272.2,102.7" fill="#fefefe" fill-opacity="0.9"/>
<line x1="326.5" y1="110.0" x2="330.0" y2="112.6" stroke="#fefefe" stroke-width="0.63" stroke-opacity="0.9" stroke-linecap="round"/><polygon points="330.0,112.6 319.5,110.3 324.8,103.2" fill="#fefefe" fill-opacity="0.9"/>
<line x1="58.9" y1="164.3" x2="55.2" y2="166.7" stroke="#fefefe" stroke-width="0.63" stroke-opacity="0.9" stroke-linecap="round"/><polygon points="55.2,166.7 61.0,157.7 65.8,165.1" fill="#fefefe" fill-opacity="0.9"/>
<line x1="112.6" y1="163.8" x2="110.0" y2="167.2" stroke="#fefefe" stroke-width="0.63" stroke-opacity="0.9" stroke-linecap="round"/><polygon points="110.0,167.2 112.4,156.8 119.4,162.1" fill="#fefefe" fill-opacity="0.9"/>
<line x1="165.5" y1="163.4" x2="165.6" y2="167.7" stroke="#fefefe" stroke-width="0.63" stroke-opacity="0.9" stroke-linecap="round"/><polygon points="165.6,167.7 160.9,158.1 169.7,157.8" fill="#fefefe" fill-opacity="0.9"/>
<line x1="218.4" y1="163.8" x2="221.1" y2="167.2" stroke="#fefefe" stroke-width="0.63" stroke-opacity="0.9" stroke-linecap="round"/><polygon points="221.1,167.2 211.5,162.4 218.3,156.9" fill="#fefefe" fill-opacity="0.9"/>
<line x1="272.2" y1="164.4" x2="275.8" y2="166.7" stroke="#fefefe" stroke-width="0.63" stroke-opacity="0.9" stroke-linecap="round"/><polygon points="275.8,166.7 265.2,165.2 269.9,157.8" fill="#fefefe" fill-opacity="0.9"/>
<line x1="326.2" y1="164.7" x2="330.2" y2="166.4" stroke="#fefefe" stroke-width="0.63" stroke-opacity="0.9" stroke-linecap="round"/><polygon points="330.2,166.4 319.5,166.7 322.9,158.5" fill="#fefefe" fill-opacity="0.9"/>
<line x1="380.4" y1="164.9" x2="384.6" y2="166.2" stroke="#fefefe" stroke-width="0.63" stroke-opacity="0.9" stroke-linecap="round"/><polygon points="384.6,166.2 373.9,167.4 376.5,159.1" fill="#fefefe" fill-opacity="0.9"/>
<line x1="600.5" y1="163.6" x2="598.4" y2="167.4" stroke="#fefefe" stroke-width="0.63" stroke-opacity="0.9" stroke-linecap="round"/><polygon points="598.4,167.4 599.2,156.7 606.9,161.0" fill="#fefefe" fill-opacity="0.9"/>
<line x1="654.2" y1="163.4" x2="653.2" y2="167.6" stroke="#fefefe" stroke-width="0.63" stroke-opacity="0.9" stroke-linecap="round"/><polygon points="653.2,167.6 651.1,157.1 659.7,159.1" fill="#fefefe" fill-opacity="0.9"/>
<line x1="707.8" y1="163.4" x2="708.1" y2="167.7" stroke="#fefefe" stroke-width="0.63" stroke-opacity="0.9" stroke-linecap="round"/><polygon points="708.1,167.7 703.0,158.3 711.7,157.6" fill="#fefefe" fill-opacity="0.9"/>
<line x1="761.4" y1="163.5" x2="762.9" y2="167.5" stroke="#fefefe" stroke-width="0.63" stroke-opacity="0.9" stroke-linecap="round"/><polygon points="762.9,167.5 755.3,160.0 763.5,156.9" fill="#fefefe" fill-opacity="0.9"/>
<line x1="815.2" y1="163.7" x2="817.6" y2="167.3" stroke="#fefefe" stroke-width="0.63" stroke-opacity="0.9" stroke-linecap="round"/><polygon points="817.6,167.3 808.5,161.8 815.7,156.8" fill="#fefefe" fill-opacity="0.9"/>
<line x1="59.2" y1="219.5" x2="54.9" y2="220.1" stroke="#fefefe" stroke-width="0.63" stroke-opacity="0.9" stroke-linecap="round"/><polygon points="54.9,220.1 64.0,214.4 65.2,223.1" fill="#fefefe" fill-opacity="0.9"/>
<line x1="113.4" y1="219.2" x2="109.2" y2="220.3" stroke="#f8f8f8" stroke-width="0.63" stroke-opacity="0.9" stroke-linecap="round"/><polygon points="109.2,220.3 117.4,213.5 119.8,222.0" fill="#f8f8f8" fill-opacity="0.9"/>
<line x1="164.3" y1="211.5" x2="166.8" y2="228.0" stroke="#9c9c9c" stroke-width="0.63" stroke-opacity="0.9" stroke-linecap="round"/><polygon points="166.8,228.0 161.0,219.0 169.7,217.7" fill="#9c9c9c" fill-opacity="0.9"/>
<line x1="217.7" y1="219.2" x2="221.9" y2="220.3" stroke="#fcfcfc" stroke-width="0.63" stroke-opacity="0.9" stroke-linecap="round"/><polygon points="221.9,220.3 211.3,222.1 213.5,213.6" fill="#fcfcfc" fill-opacity="0.9"/>
<line x1="271.8" y1="219.5" x2="276.2" y2="220.0" stroke="#fefefe" stroke-width="0.63" stroke-opacity="0.9" stroke-linecap="round"/><polygon points="276.2,220.0 265.9,223.1 267.0,214.4" fill="#fefefe" fill-opacity="0.9"/>
<line x1="326.1" y1="219.6" x2="330.4" y2="219.9" stroke="#fefefe" stroke-width="0.63" stroke-opacity="0.9" stroke-linecap="round"/><polygon points="330.4,219.9 320.3,223.5 321.1,214.7" fill="#fefefe" fill-opacity="0.9"/>
<line x1="380.3" y1="219.6" x2="384.6" y2="219.9" stroke="#fefefe" stroke-width="0.63" stroke-opacity="0.9" stroke-linecap="round"/><polygon points="384.6,219.9 374.6,223.6 375.2,214.9" fill="#fefefe" fill-opacity="0.9"/>
<line x1="546.9" y1="218.4" x2="543.5" y2="221.1" stroke="#fefefe" stroke-width="0.63" stroke-opacity="0.9" stroke-linecap="round"/><polygon points="543.5,221.1 548.4,211.6 553.9,218.4" fill="#fefefe" fill-opacity="0.9"/>
<line x1="600.8" y1="218.1" x2="598.1" y2="221.5" stroke="#fefefe" stroke-width="0.63" stroke-opacity="0.9" stroke-linecap="round"/><polygon points="598.1,221.5 600.7,211.1 607.6,216.5" fill="#fefefe" fill-opacity="0.9"/>
<line x1="654.4" y1="217.7" x2="653.0" y2="221.8" stroke="#fefefe" stroke-width="0.63" stroke-opacity="0.9" stroke-linecap="round"/><polygon points="653.0,221.8 652.0,211.2 660.3,214.0" fill="#fefefe" fill-opacity="0.9"/>
<line x1="707.7" y1="217.6" x2="708.2" y2="221.9" stroke="#fefefe" stroke-width="0.63" stroke-opacity="0.9" stroke-linecap="round"/><polygon points="708.2,221.9 702.7,212.7 711.5,211.7" fill="#fefefe" fill-opacity="0.9"/>
<line x1="761.1" y1="217.9" x2="763.2" y2="221.7" stroke="#fefefe" stroke-width="0.63" stroke-opacity="0.9" stroke-linecap="round"/><polygon points="763.2,221.7 754.6,215.3 762.3,211.0" fill="#fefefe" fill-opacity="0.9"/>
<line x1="814.9" y1="218.2" x2="817.9" y2="221.3" stroke="#fefefe" stroke-width="0.63" stroke-opacity="0.9" stroke-linecap="round"/><polygon points="817.9,221.3 807.9,217.5 814.1,211.3" fill="#fefefe" fill-opacity="0.9"/>
<line x1="868.9" y1="218.5" x2="872.4" y2="221.0" stroke="#fefefe" stroke-width="0.63" stroke-opacity="0.9" stroke-linecap="round"/><polygon points="872.4,221.0 861.9,219.1 866.9,211.8" fill="#fefefe" fill-opacity="0.9"/>
<line x1="59.1" y1="274.8" x2="55.0" y2="273.2" stroke="#fefefe" stroke-width="0.63" stroke-opacity="0.9" stroke-linecap="round"/><polygon points="55.0,273.2 65.7,272.5 62.6,280.8" fill="#fefefe" fill-opacity="0.9"/>
<line x1="113.0" y1="275.3" x2="109.6" y2="272.7" stroke="#fefefe" stroke-width="0.63" stroke-opacity="0.9" stroke-linecap="round"/><polygon points="109.6,272.7 120.0,275.1 114.6,282.1" fill="#fefefe" fill-opacity="0.9"/>
<line x1="165.4" y1="276.7" x2="165.7" y2="271.3" stroke="#dfdfdf" stroke-width="0.63" stroke-opacity="0.9" stroke-linecap="round"/><polygon points="165.7,271.3 169.5,281.3 160.7,280.8" fill="#dfdfdf" fill-opacity="0.9"/>
<line x1="218.0" y1="275.3" x2="221.5" y2="272.7" stroke="#fefefe" stroke-width="0.63" stroke-opacity="0.9" stroke-linecap="round"/><polygon points="221.5,272.7 216.1,282.0 211.0,274.8" fill="#fefefe" fill-opacity="0.9"/>
<line x1="272.0" y1="274.7" x2="276.0" y2="273.3" stroke="#fefefe" stroke-width="0.63" stroke-opacity="0.9" stroke-linecap="round"/><polygon points="276.0,273.3 268.3,280.7 265.4,272.4" fill="#fefefe" fill-opacity="0.9"/>
<line x1="326.1" y1="274.5" x2="330.3" y2="273.5" stroke="#fefefe" stroke-width="0.63" stroke-opacity="0.9" stroke-linecap="round"/><polygon points="330.3,273.5 321.9,280.1 319.8,271.5" fill="#fefefe" fill-opacity="0.9"/>
<line x1="380.3" y1="274.4" x2="384.6" y2="273.6" stroke="#fefefe" stroke-width="0.63" stroke-opacity="0.9" stroke-linecap="round"/><polygon points="384.6,273.6 375.8,279.7 374.2,271.0" fill="#fefefe" fill-opacity="0.9"/>
<line x1="493.0" y1="273.3" x2="488.9" y2="274.7" stroke="#fefefe" stroke-width="0.63" stroke-opacity="0.9" stroke-linecap="round"/><polygon points="488.9,274.7 496.8,267.5 499.5,275.8" fill="#fefefe" fill-opacity="0.9"/>
<line x1="547.2" y1="273.1" x2="543.2" y2="274.9" stroke="#fefefe" stroke-width="0.63" stroke-opacity="0.9" stroke-linecap="round"/><polygon points="543.2,274.9 550.4,266.9 553.9,274.9" fill="#fefefe" fill-opacity="0.9"/>
<line x1="601.2" y1="272.8" x2="597.7" y2="275.2" stroke="#fefefe" stroke-width="0.63" stroke-opacity="0.9" stroke-linecap="round"/><polygon points="597.7,275.2 603.2,266.1 608.2,273.3" fill="#fefefe" fill-opacity="0.9"/>
<line x1="654.8" y1="272.2" x2="652.5" y2="275.8" stroke="#fefefe" stroke-width="0.63" stroke-opacity="0.9" stroke-linecap="round"/><polygon points="652.5,275.8 653.9,265.2 661.4,269.9" fill="#fefefe" fill-opacity="0.9"/>
<line x1="707.5" y1="271.9" x2="708.3" y2="276.1" stroke="#fefefe" stroke-width="0.63" stroke-opacity="0.9" stroke-linecap="round"/><polygon points="708.3,276.1 702.2,267.4 710.8,265.7" fill="#fefefe" fill-opacity="0.9"/>
<line x1="760.6" y1="272.5" x2="763.7" y2="275.5" stroke="#fefefe" stroke-width="0.63" stroke-opacity="0.9" stroke-linecap="round"/><polygon points="763.7,275.5 753.7,271.8 759.9,265.5" fill="#fefefe" fill-opacity="0.9"/>
<line x1="814.5" y1="273.0" x2="818.3" y2="275.0" stroke="#fefefe" stroke-width="0.63" stroke-opacity="0.9" stroke-linecap="round"/><polygon points="818.3,275.0 807.6,274.2 811.8,266.5" fill="#fefefe" fill-opacity="0.9"/>
<line x1="868.6" y1="273.2" x2="872.7" y2="274.8" stroke="#fefefe" stroke-width="0.63" stroke-opacity="0.9" stroke-linecap="round"/><polygon points="872.7,274.8 862.0,275.4 865.1,267.2" fill="#fefefe" fill-opacity="0.9"/>
<line x1="58.7" y1="329.7" x2="55.4" y2="326.8" stroke="#fefefe" stroke-width="0.63" stroke-opacity="0.9" stroke-linecap="round"/><polygon points="55.4,326.8 65.6,330.0 59.8,336.6" fill="#fefefe" fill-opacity="0.9"/>
<line x1="112.3" y1="330.1" x2="110.2" y2="326.3" stroke="#fefefe" stroke-width="0.63" stroke-opacity="0.9" stroke-linecap="round"/><polygon points="110.2,326.3 118.8,332.8 111.1,337.0" fill="#fefefe" fill-opacity="0.9"/>
<line x1="165.5" y1="330.4" x2="165.6" y2="326.1" stroke="#fefefe" stroke-width="0.63" stroke-opacity="0.9" stroke-linecap="round"/><polygon points="165.6,326.1 169.7,335.9 161.0,335.7" fill="#fefefe" fill-opacity="0.9"/>
<line x1="218.6" y1="330.1" x2="220.9" y2="326.4" stroke="#fefefe" stroke-width="0.63" stroke-opacity="0.9" stroke-linecap="round"/><polygon points="220.9,326.4 219.6,337.0 212.1,332.5" fill="#fefefe" fill-opacity="0.9"/>
<line x1="272.3" y1="329.6" x2="275.7" y2="326.8" stroke="#fefefe" stroke-width="0.63" stroke-opacity="0.9" stroke-linecap="round"/><polygon points="275.7,326.8 271.1,336.5 265.4,329.8" fill="#fefefe" fill-opacity="0.9"/>
<line x1="326.4" y1="329.3" x2="330.1" y2="327.2" stroke="#fefefe" stroke-width="0.63" stroke-opacity="0.9" stroke-linecap="round"/><polygon points="330.1,327.2 323.8,335.8 319.5,328.2" fill="#fefefe" fill-opacity="0.9"/>
<line x1="380.5" y1="329.1" x2="384.5" y2="327.4" stroke="#fefefe" stroke-width="0.63" stroke-opacity="0.9" stroke-linecap="round"/><polygon points="384.5,327.4 377.2,335.3 373.8,327.2" fill="#fefefe" fill-opacity="0.9"/>
<line x1="493.1" y1="328.1" x2="488.8" y2="328.4" stroke="#fefefe" stroke-width="0.63" stroke-opacity="0.9" stroke-linecap="round"/><polygon points="488.8,328.4 498.3,323.4 498.8,332.2" fill="#fefefe" fill-opacity="0.9"/>
<line x1="547.4" y1="328.1" x2="543.0" y2="328.4" stroke="#fefefe" stroke-width="0.63" stroke-opacity="0.9" stroke-linecap="round"/><polygon points="543.0,328.4 552.4,323.2 553.1,332.0" fill="#fefefe" fill-opacity="0.9"/>
<line x1="601.6" y1="328.0" x2="597.3" y2="328.5" stroke="#fefefe" stroke-width="0.63" stroke-opacity="0.9" stroke-linecap="round"/><polygon points="597.3,328.5 606.4,322.9 607.5,331.6" fill="#fefefe" fill-opacity="0.9"/>
<line x1="655.8" y1="327.6" x2="651.6" y2="328.9" stroke="#fefefe" stroke-width="0.63" stroke-opacity="0.9" stroke-linecap="round"/><polygon points="651.6,328.9 659.7,321.9 662.2,330.3" fill="#fefefe" fill-opacity="0.9"/>
<line x1="706.3" y1="326.8" x2="709.5" y2="329.7" stroke="#fefefe" stroke-width="0.63" stroke-opacity="0.9" stroke-linecap="round"/><polygon points="709.5,329.7 699.4,326.2 705.4,319.8" fill="#fefefe" fill-opacity="0.9"/>
<line x1="760.0" y1="327.8" x2="764.3" y2="328.6" stroke="#fefefe" stroke-width="0.63" stroke-opacity="0.9" stroke-linecap="round"/><polygon points="764.3,328.6 753.9,331.2 755.5,322.6" fill="#fefefe" fill-opacity="0.9"/>
<line x1="814.2" y1="328.0" x2="818.6" y2="328.5" stroke="#fefefe" stroke-width="0.63" stroke-opacity="0.9" stroke-linecap="round"/><polygon points="818.6,328.5 808.4,331.8 809.3,323.1" fill="#fefefe" fill-opacity="0.9"/>
<line x1="868.5" y1="328.1" x2="872.8" y2="328.4" stroke="#fefefe" stroke-width="0.63" stroke-opacity="0.9" stroke-linecap="round"/><polygon points="872.8,328.4 862.8,332.1 863.4,323.3" fill="#fefefe" fill-opacity="0.9"/>
<line x1="58.3" y1="384.2" x2="55.8" y2="380.7" stroke="#fefefe" stroke-width="0.63" stroke-opacity="0.9" stroke-linecap="round"/><polygon points="55.8,380.7 65.0,386.1 57.9,391.2" fill="#fefefe" fill-opacity="0.9"/>
<line x1="112.0" y1="384.5" x2="110.6" y2="380.4" stroke="#fefefe" stroke-width="0.63" stroke-opacity="0.9" stroke-linecap="round"/><polygon points="110.6,380.4 117.9,388.2 109.7,391.1" fill="#fefefe" fill-opacity="0.9"/>
<line x1="165.5" y1="384.6" x2="165.6" y2="380.3" stroke="#fefefe" stroke-width="0.63" stroke-opacity="0.9" stroke-linecap="round"/><polygon points="165.6,380.3 169.8,390.1 161.0,390.0" fill="#fefefe" fill-opacity="0.9"/>
<line x1="219.0" y1="384.5" x2="220.5" y2="380.5" stroke="#fefefe" stroke-width="0.63" stroke-opacity="0.9" stroke-linecap="round"/><polygon points="220.5,380.5 221.2,391.1 213.0,388.0" fill="#fefefe" fill-opacity="0.9"/>
<line x1="272.7" y1="384.2" x2="275.3" y2="380.7" stroke="#fefefe" stroke-width="0.63" stroke-opacity="0.9" stroke-linecap="round"/><polygon points="275.3,380.7 273.0,391.2 265.9,385.9" fill="#fefefe" fill-opacity="0.9"/>
<line x1="326.6" y1="383.9" x2="329.9" y2="381.1" stroke="#fefefe" stroke-width="0.63" stroke-opacity="0.9" stroke-linecap="round"/><polygon points="329.9,381.1 325.4,390.8 319.6,384.1" fill="#fefefe" fill-opacity="0.9"/>
<line x1="493.1" y1="382.9" x2="488.8" y2="382.0" stroke="#fefefe" stroke-width="0.63" stroke-opacity="0.9" stroke-linecap="round"/><polygon points="488.8,382.0 499.3,379.7 497.5,388.3" fill="#fefefe" fill-opacity="0.9"/>
<line x1="547.3" y1="383.1" x2="543.1" y2="381.9" stroke="#fefefe" stroke-width="0.63" stroke-opacity="0.9" stroke-linecap="round"/><polygon points="543.1,381.9 553.7,380.3 551.3,388.8" fill="#fefefe" fill-opacity="0.9"/>
<line x1="601.4" y1="383.4" x2="597.5" y2="381.6" stroke="#fefefe" stroke-width="0.63" stroke-opacity="0.9" stroke-linecap="round"/><polygon points="597.5,381.6 608.2,381.5 604.6,389.6" fill="#fefefe" fill-opacity="0.9"/>
<line x1="655.2" y1="384.0" x2="652.2" y2="380.9" stroke="#fefefe" stroke-width="0.63" stroke-opacity="0.9" stroke-linecap="round"/><polygon points="652.2,380.9 662.1,384.8 655.9,391.0" fill="#fefefe" fill-opacity="0.9"/>
<line x1="707.3" y1="384.6" x2="708.6" y2="380.4" stroke="#fefefe" stroke-width="0.63" stroke-opacity="0.9" stroke-linecap="round"/><polygon points="708.6,380.4 709.9,391.0 701.5,388.4" fill="#fefefe" fill-opacity="0.9"/>
<line x1="760.3" y1="383.6" x2="764.0" y2="381.3" stroke="#fefefe" stroke-width="0.63" stroke-opacity="0.9" stroke-linecap="round"/><polygon points="764.0,381.3 758.0,390.2 753.4,382.8" fill="#fefefe" fill-opacity="0.9"/>
<line x1="814.3" y1="383.2" x2="818.5" y2="381.8" stroke="#fefefe" stroke-width="0.63" stroke-opacity="0.9" stroke-linecap="round"/><polygon points="818.5,381.8 810.7,389.1 807.8,380.8" fill="#fefefe" fill-opacity="0.9"/>
<line x1="868.5" y1="383.0" x2="872.8" y2="382.0" stroke="#fefefe" stroke-width="0.63" stroke-opacity="0.9" stroke-linecap="round"/><polygon points="872.8,382.0 864.3,388.5 862.2,380.0" fill="#fefefe" fill-opacity="0.9"/>
<line x1="58.0" y1="438.6" x2="56.0" y2="434.8" stroke="#fefefe" stroke-width="0.63" stroke-opacity="0.9" stroke-linecap="round"/><polygon points="56.0,434.8 64.5,441.4 56.7,445.5" fill="#fefefe" fill-opacity="0.9"/>
<line x1="111.8" y1="438.8" x2="110.7" y2="434.6" stroke="#fefefe" stroke-width="0.63" stroke-opacity="0.9" stroke-linecap="round"/><polygon points="110.7,434.6 117.4,443.0 108.9,445.2" fill="#fefefe" fill-opacity="0.9"/>
<line x1="165.5" y1="438.9" x2="165.5" y2="434.6" stroke="#fefefe" stroke-width="0.63" stroke-opacity="0.9" stroke-linecap="round"/><polygon points="165.5,434.6 169.9,444.3 161.2,444.3" fill="#fefefe" fill-opacity="0.9"/>
<line x1="221.3" y1="435.2" x2="218.2" y2="438.3" stroke="#fefefe" stroke-width="0.63" stroke-opacity="0.9" stroke-linecap="round"/><polygon points="218.2,438.3 222.0,428.2 228.2,434.5" fill="#fefefe" fill-opacity="0.9"/>
<line x1="273.9" y1="434.6" x2="274.1" y2="438.9" stroke="#fefefe" stroke-width="0.63" stroke-opacity="0.9" stroke-linecap="round"/><polygon points="274.1,438.9 269.3,429.3 278.1,428.9" fill="#fefefe" fill-opacity="0.9"/>
<line x1="327.3" y1="434.8" x2="329.2" y2="438.7" stroke="#fefefe" stroke-width="0.63" stroke-opacity="0.9" stroke-linecap="round"/><polygon points="329.2,438.7 320.9,431.9 328.8,428.0" fill="#fefefe" fill-opacity="0.9"/>
<line x1="381.0" y1="435.2" x2="384.0" y2="438.3" stroke="#fefefe" stroke-width="0.63" stroke-opacity="0.9" stroke-linecap="round"/><polygon points="384.0,438.3 374.0,434.3 380.4,428.2" fill="#fefefe" fill-opacity="0.9"/>
<line x1="547.0" y1="437.9" x2="543.4" y2="435.5" stroke="#fefefe" stroke-width="0.63" stroke-opacity="0.9" stroke-linecap="round"/><polygon points="543.4,435.5 554.0,437.1 549.2,444.5" fill="#fefefe" fill-opacity="0.9"/>
<line x1="601.0" y1="438.3" x2="597.9" y2="435.2" stroke="#fefefe" stroke-width="0.63" stroke-opacity="0.9" stroke-linecap="round"/><polygon points="597.9,435.2 607.9,439.0 601.7,445.2" fill="#fefefe" fill-opacity="0.9"/>
<line x1="654.5" y1="438.7" x2="652.8" y2="434.7" stroke="#fefefe" stroke-width="0.63" stroke-opacity="0.9" stroke-linecap="round"/><polygon points="652.8,434.7 660.7,442.0 652.6,445.4" fill="#fefefe" fill-opacity="0.9"/>
<line x1="707.6" y1="438.9" x2="708.2" y2="434.6" stroke="#fefefe" stroke-width="0.63" stroke-opacity="0.9" stroke-linecap="round"/><polygon points="708.2,434.6 711.3,444.8 702.5,443.7" fill="#fefefe" fill-opacity="0.9"/>
<line x1="760.9" y1="438.5" x2="763.4" y2="434.9" stroke="#fefefe" stroke-width="0.63" stroke-opacity="0.9" stroke-linecap="round"/><polygon points="763.4,434.9 761.4,445.5 754.2,440.4" fill="#fefefe" fill-opacity="0.9"/>
<line x1="814.7" y1="438.1" x2="818.1" y2="435.4" stroke="#fefefe" stroke-width="0.63" stroke-opacity="0.9" stroke-linecap="round"/><polygon points="818.1,435.4 813.2,444.9 807.7,438.0" fill="#fefefe" fill-opacity="0.9"/>
<line x1="868.7" y1="437.8" x2="872.5" y2="435.7" stroke="#fefefe" stroke-width="0.63" stroke-opacity="0.9" stroke-linecap="round"/><polygon points="872.5,435.7 866.1,444.2 861.9,436.5" fill="#fefefe" fill-opacity="0.9"/>
<line x1="113.3" y1="490.2" x2="109.3" y2="491.7" stroke="#fefefe" stroke-width="0.63" stroke-opacity="0.9" stroke-linecap="round"/><polygon points="109.3,491.7 116.8,484.2 119.9,492.4" fill="#fefefe" fill-opacity="0.9"/>
<line x1="167.4" y1="489.8" x2="163.7" y2="492.1" stroke="#fefefe" stroke-width="0.63" stroke-opacity="0.9" stroke-linecap="round"/><polygon points="163.7,492.1 169.8,483.3 174.3,490.8" fill="#fefefe" fill-opacity="0.9"/>
<line x1="221.1" y1="489.3" x2="218.4" y2="492.7" stroke="#fefefe" stroke-width="0.63" stroke-opacity="0.9" stroke-linecap="round"/><polygon points="218.4,492.7 221.1,482.3 227.9,487.8" fill="#fefefe" fill-opacity="0.9"/>
<line x1="273.8" y1="488.8" x2="274.2" y2="493.1" stroke="#fefefe" stroke-width="0.63" stroke-opacity="0.9" stroke-linecap="round"/><polygon points="274.2,493.1 269.1,483.7 277.9,483.1" fill="#fefefe" fill-opacity="0.9"/>
<line x1="326.8" y1="489.4" x2="329.7" y2="492.5" stroke="#fefefe" stroke-width="0.63" stroke-opacity="0.9" stroke-linecap="round"/><polygon points="329.7,492.5 319.8,488.4 326.3,482.4" fill="#fefefe" fill-opacity="0.9"/>
<line x1="381.4" y1="489.1" x2="383.6" y2="492.8" stroke="#fefefe" stroke-width="0.63" stroke-opacity="0.9" stroke-linecap="round"/><polygon points="383.6,492.8 374.9,486.6 382.5,482.2" fill="#fefefe" fill-opacity="0.9"/>
<line x1="436.4" y1="488.8" x2="437.0" y2="493.1" stroke="#fefefe" stroke-width="0.63" stroke-opacity="0.9" stroke-linecap="round"/><polygon points="437.0,493.1 431.4,484.0 440.1,482.9" fill="#fefefe" fill-opacity="0.9"/>
<line x1="490.2" y1="488.9" x2="491.7" y2="493.0" stroke="#fefefe" stroke-width="0.63" stroke-opacity="0.9" stroke-linecap="round"/><polygon points="491.7,493.0 484.1,485.5 492.3,482.3" fill="#fefefe" fill-opacity="0.9"/>
<line x1="546.8" y1="492.4" x2="543.6" y2="489.5" stroke="#fefefe" stroke-width="0.63" stroke-opacity="0.9" stroke-linecap="round"/><polygon points="543.6,489.5 553.7,492.9 547.7,499.4" fill="#fefefe" fill-opacity="0.9"/>
<line x1="600.6" y1="492.8" x2="598.3" y2="489.1" stroke="#fefefe" stroke-width="0.63" stroke-opacity="0.9" stroke-linecap="round"/><polygon points="598.3,489.1 607.2,495.0 599.8,499.7" fill="#fefefe" fill-opacity="0.9"/>
<line x1="654.3" y1="493.1" x2="653.1" y2="488.9" stroke="#fefefe" stroke-width="0.63" stroke-opacity="0.9" stroke-linecap="round"/><polygon points="653.1,488.9 659.9,497.1 651.4,499.4" fill="#fefefe" fill-opacity="0.9"/>
<line x1="707.7" y1="493.1" x2="708.1" y2="488.8" stroke="#fefefe" stroke-width="0.63" stroke-opacity="0.9" stroke-linecap="round"/><polygon points="708.1,488.8 711.6,498.9 702.9,498.1" fill="#fefefe" fill-opacity="0.9"/>
<line x1="761.3" y1="492.9" x2="763.0" y2="489.0" stroke="#fefefe" stroke-width="0.63" stroke-opacity="0.9" stroke-linecap="round"/><polygon points="763.0,489.0 763.1,499.7 755.0,496.1" fill="#fefefe" fill-opacity="0.9"/>
<line x1="815.0" y1="492.6" x2="817.8" y2="489.3" stroke="#fefefe" stroke-width="0.63" stroke-opacity="0.9" stroke-linecap="round"/><polygon points="817.8,489.3 815.0,499.6 808.2,494.1" fill="#fefefe" fill-opacity="0.9"/>
<line x1="113.4" y1="545.1" x2="109.1" y2="545.3" stroke="#fefefe" stroke-width="0.63" stroke-opacity="0.9" stroke-linecap="round"/><polygon points="109.1,545.3 118.6,540.4 119.1,549.2" fill="#fefefe" fill-opacity="0.9"/>
<line x1="167.7" y1="545.0" x2="163.4" y2="545.4" stroke="#fefefe" stroke-width="0.63" stroke-opacity="0.9" stroke-linecap="round"/><polygon points="163.4,545.4 172.8,540.2 173.4,549.0" fill="#fefefe" fill-opacity="0.9"/>
<line x1="221.9" y1="544.9" x2="217.6" y2="545.5" stroke="#fefefe" stroke-width="0.63" stroke-opacity="0.9" stroke-linecap="round"/><polygon points="217.6,545.5 226.6,539.7 228.0,548.3" fill="#fefefe" fill-opacity="0.9"/>
<line x1="273.0" y1="543.3" x2="275.0" y2="547.1" stroke="#fefefe" stroke-width="0.63" stroke-opacity="0.9" stroke-linecap="round"/><polygon points="275.0,547.1 266.5,540.6 274.3,536.4" fill="#fefefe" fill-opacity="0.9"/>
<line x1="327.0" y1="543.4" x2="329.5" y2="547.0" stroke="#fefefe" stroke-width="0.63" stroke-opacity="0.9" stroke-linecap="round"/><polygon points="329.5,547.0 320.3,541.4 327.6,536.5" fill="#fefefe" fill-opacity="0.9"/>
<line x1="382.9" y1="543.1" x2="382.1" y2="547.3" stroke="#fefefe" stroke-width="0.63" stroke-opacity="0.9" stroke-linecap="round"/><polygon points="382.1,547.3 379.6,536.9 388.2,538.5" fill="#fefefe" fill-opacity="0.9"/>
<line x1="436.4" y1="543.1" x2="437.1" y2="547.3" stroke="#fefefe" stroke-width="0.63" stroke-opacity="0.9" stroke-linecap="round"/><polygon points="437.1,547.3 431.1,538.4 439.8,537.0" fill="#fefefe" fill-opacity="0.9"/>
<line x1="489.9" y1="543.3" x2="492.0" y2="547.1" stroke="#fefefe" stroke-width="0.63" stroke-opacity="0.9" stroke-linecap="round"/><polygon points="492.0,547.1 483.5,540.6 491.3,536.4" fill="#fefefe" fill-opacity="0.9"/>
<line x1="543.8" y1="543.6" x2="546.6" y2="546.8" stroke="#fefefe" stroke-width="0.63" stroke-opacity="0.9" stroke-linecap="round"/><polygon points="546.6,546.8 536.9,542.5 543.4,536.6" fill="#fefefe" fill-opacity="0.9"/>
<line x1="654.1" y1="547.3" x2="653.3" y2="543.1" stroke="#fefefe" stroke-width="0.63" stroke-opacity="0.9" stroke-linecap="round"/><polygon points="653.3,543.1 659.5,551.8 650.9,553.5" fill="#fefefe" fill-opacity="0.9"/>
<line x1="707.8" y1="547.4" x2="708.1" y2="543.0" stroke="#fefefe" stroke-width="0.63" stroke-opacity="0.9" stroke-linecap="round"/><polygon points="708.1,543.0 711.8,553.1 703.1,552.5" fill="#fefefe" fill-opacity="0.9"/>
<line x1="761.5" y1="547.3" x2="762.8" y2="543.1" stroke="#fefefe" stroke-width="0.63" stroke-opacity="0.9" stroke-linecap="round"/><polygon points="762.8,543.1 764.0,553.8 755.6,551.0" fill="#fefefe" fill-opacity="0.9"/>
<line x1="113.4" y1="600.0" x2="109.2" y2="598.8" stroke="#fefefe" stroke-width="0.63" stroke-opacity="0.9" stroke-linecap="round"/><polygon points="109.2,598.8 119.8,597.4 117.3,605.8" fill="#fefefe" fill-opacity="0.9"/>
<line x1="167.5" y1="600.3" x2="163.5" y2="598.6" stroke="#fefefe" stroke-width="0.63" stroke-opacity="0.9" stroke-linecap="round"/><polygon points="163.5,598.6 174.2,598.5 170.7,606.5" fill="#fefefe" fill-opacity="0.9"/>
<line x1="221.4" y1="600.9" x2="218.2" y2="598.0" stroke="#fefefe" stroke-width="0.63" stroke-opacity="0.9" stroke-linecap="round"/><polygon points="218.2,598.0 228.3,601.4 222.4,607.8" fill="#fefefe" fill-opacity="0.9"/>
<line x1="275.6" y1="600.9" x2="272.4" y2="598.0" stroke="#fefefe" stroke-width="0.63" stroke-opacity="0.9" stroke-linecap="round"/><polygon points="272.4,598.0 282.6,601.2 276.8,607.8" fill="#fefefe" fill-opacity="0.9"/>
<line x1="329.7" y1="597.8" x2="326.8" y2="601.1" stroke="#fefefe" stroke-width="0.63" stroke-opacity="0.9" stroke-linecap="round"/><polygon points="326.8,601.1 329.9,590.8 336.5,596.6" fill="#fefefe" fill-opacity="0.9"/>
<line x1="383.1" y1="597.4" x2="381.9" y2="601.5" stroke="#fefefe" stroke-width="0.63" stroke-opacity="0.9" stroke-linecap="round"/><polygon points="381.9,601.5 380.5,590.9 388.9,593.4" fill="#fefefe" fill-opacity="0.9"/>
<line x1="436.2" y1="597.3" x2="437.3" y2="601.5" stroke="#fefefe" stroke-width="0.63" stroke-opacity="0.9" stroke-linecap="round"/><polygon points="437.3,601.5 430.5,593.2 439.0,591.0" fill="#fefefe" fill-opacity="0.9"/>
<line x1="489.6" y1="597.8" x2="492.3" y2="601.1" stroke="#fefefe" stroke-width="0.63" stroke-opacity="0.9" stroke-linecap="round"/><polygon points="492.3,601.1 482.7,596.4 489.5,590.8" fill="#fefefe" fill-opacity="0.9"/>
<line x1="543.4" y1="598.2" x2="547.0" y2="600.7" stroke="#fefefe" stroke-width="0.63" stroke-opacity="0.9" stroke-linecap="round"/><polygon points="547.0,600.7 536.5,598.6 541.6,591.5" fill="#fefefe" fill-opacity="0.9"/>
<line x1="597.5" y1="598.5" x2="601.4" y2="600.4" stroke="#fefefe" stroke-width="0.63" stroke-opacity="0.9" stroke-linecap="round"/><polygon points="601.4,600.4 590.7,599.9 594.7,592.1" fill="#fefefe" fill-opacity="0.9"/>
<line x1="167.1" y1="655.2" x2="164.0" y2="652.2" stroke="#fefefe" stroke-width="0.63" stroke-opacity="0.9" stroke-linecap="round"/><polygon points="164.0,652.2 174.0,655.8 168.0,662.1" fill="#fefefe" fill-opacity="0.9"/>
<line x1="221.6" y1="654.8" x2="217.9" y2="652.6" stroke="#fefefe" stroke-width="0.63" stroke-opacity="0.9" stroke-linecap="round"/><polygon points="217.9,652.6 228.5,653.6 224.2,661.3" fill="#fefefe" fill-opacity="0.9"/>
<line x1="276.1" y1="653.1" x2="271.9" y2="654.3" stroke="#fefefe" stroke-width="0.63" stroke-opacity="0.9" stroke-linecap="round"/><polygon points="271.9,654.3 280.0,647.3 282.5,655.7" fill="#fefefe" fill-opacity="0.9"/>
<line x1="330.2" y1="652.7" x2="326.3" y2="654.6" stroke="#fefefe" stroke-width="0.63" stroke-opacity="0.9" stroke-linecap="round"/><polygon points="326.3,654.6 333.1,646.4 337.0,654.2" fill="#fefefe" fill-opacity="0.9"/>
<line x1="383.7" y1="651.9" x2="381.2" y2="655.5" stroke="#fefefe" stroke-width="0.63" stroke-opacity="0.9" stroke-linecap="round"/><polygon points="381.2,655.5 383.2,644.9 390.4,650.0" fill="#fefefe" fill-opacity="0.9"/>
<line x1="435.6" y1="651.8" x2="437.9" y2="655.5" stroke="#fefefe" stroke-width="0.63" stroke-opacity="0.9" stroke-linecap="round"/><polygon points="437.9,655.5 429.0,649.5 436.5,644.9" fill="#fefefe" fill-opacity="0.9"/>
<line x1="489.0" y1="652.7" x2="492.9" y2="654.7" stroke="#fefefe" stroke-width="0.63" stroke-opacity="0.9" stroke-linecap="round"/><polygon points="492.9,654.7 482.2,654.1 486.2,646.3" fill="#fefefe" fill-opacity="0.9"/>
<line x1="543.1" y1="653.0" x2="547.3" y2="654.3" stroke="#fefefe" stroke-width="0.63" stroke-opacity="0.9" stroke-linecap="round"/><polygon points="547.3,654.3 536.6,655.6 539.2,647.2" fill="#fefefe" fill-opacity="0.9"/>
<line x1="597.3" y1="653.2" x2="601.6" y2="654.1" stroke="#fefefe" stroke-width="0.63" stroke-opacity="0.9" stroke-linecap="round"/><polygon points="601.6,654.1 591.1,656.3 593.0,647.8" fill="#fefefe" fill-opacity="0.9"/>
<line x1="762.9" y1="651.6" x2="761.4" y2="655.7" stroke="#fefefe" stroke-width="0.63" stroke-opacity="0.9" stroke-linecap="round"/><polygon points="761.4,655.7 760.5,645.1 768.8,648.0" fill="#fefefe" fill-opacity="0.9"/>
<line x1="816.1" y1="651.5" x2="816.7" y2="655.8" stroke="#fefefe" stroke-width="0.63" stroke-opacity="0.9" stroke-linecap="round"/><polygon points="816.7,655.8 811.0,646.7 819.7,645.6" fill="#fefefe" fill-opacity="0.9"/>
<line x1="221.9" y1="708.1" x2="217.6" y2="707.8" stroke="#fefefe" stroke-width="0.63" stroke-opacity="0.9" stroke-linecap="round"/><polygon points="217.6,707.8 227.7,704.1 227.0,712.9" fill="#fefefe" fill-opacity="0.9"/>
<line x1="276.2" y1="708.1" x2="271.8" y2="707.7" stroke="#fefefe" stroke-width="0.63" stroke-opacity="0.9" stroke-linecap="round"/><polygon points="271.8,707.7 282.0,704.3 281.1,713.0" fill="#fefefe" fill-opacity="0.9"/>
<line x1="330.4" y1="708.3" x2="326.1" y2="707.6" stroke="#fefefe" stroke-width="0.63" stroke-opacity="0.9" stroke-linecap="round"/><polygon points="326.1,707.6 336.4,704.8 335.1,713.4" fill="#fefefe" fill-opacity="0.9"/>
<line x1="384.5" y1="708.8" x2="380.5" y2="707.0" stroke="#fcfcfc" stroke-width="0.63" stroke-opacity="0.9" stroke-linecap="round"/><polygon points="380.5,707.0 391.2,707.0 387.6,715.0" fill="#fcfcfc" fill-opacity="0.9"/>
<line x1="434.8" y1="708.9" x2="438.6" y2="706.9" stroke="#fbfbfb" stroke-width="0.63" stroke-opacity="0.9" stroke-linecap="round"/><polygon points="438.6,706.9 432.0,715.3 428.0,707.5" fill="#fbfbfb" fill-opacity="0.9"/>
<line x1="488.8" y1="708.3" x2="493.1" y2="707.6" stroke="#fefefe" stroke-width="0.63" stroke-opacity="0.9" stroke-linecap="round"/><polygon points="493.1,707.6 484.2,713.5 482.8,704.8" fill="#fefefe" fill-opacity="0.9"/>
<line x1="543.0" y1="708.1" x2="547.4" y2="707.7" stroke="#fefefe" stroke-width="0.63" stroke-opacity="0.9" stroke-linecap="round"/><polygon points="547.4,707.7 538.1,713.0 537.2,704.3" fill="#fefefe" fill-opacity="0.9"/>
<line x1="597.3" y1="708.1" x2="601.6" y2="707.8" stroke="#fefefe" stroke-width="0.63" stroke-opacity="0.9" stroke-linecap="round"/><polygon points="601.6,707.8 592.2,712.8 591.6,704.1" fill="#fefefe" fill-opacity="0.9"/>
<line x1="709.8" y1="706.8" x2="706.1" y2="709.1" stroke="#fefefe" stroke-width="0.63" stroke-opacity="0.9" stroke-linecap="round"/><polygon points="706.1,709.1 712.1,700.2 716.7,707.7" fill="#fefefe" fill-opacity="0.9"/>
<line x1="763.4" y1="706.1" x2="760.9" y2="709.7" stroke="#fefefe" stroke-width="0.63" stroke-opacity="0.9" stroke-linecap="round"/><polygon points="760.9,709.7 762.8,699.2 770.0,704.1" fill="#fefefe" fill-opacity="0.9"/>
<line x1="815.8" y1="705.8" x2="817.0" y2="710.0" stroke="#fefefe" stroke-width="0.63" stroke-opacity="0.9" stroke-linecap="round"/><polygon points="817.0,710.0 810.2,701.7 818.7,699.5" fill="#fefefe" fill-opacity="0.9"/>
<line x1="869.0" y1="706.5" x2="872.3" y2="709.3" stroke="#fefefe" stroke-width="0.63" stroke-opacity="0.9" stroke-linecap="round"/><polygon points="872.3,709.3 862.0,706.4 867.6,699.7" fill="#fefefe" fill-opacity="0.9"/>
<line x1="221.8" y1="762.9" x2="217.7" y2="761.4" stroke="#fefefe" stroke-width="0.63" stroke-opacity="0.9" stroke-linecap="round"/><polygon points="217.7,761.4 228.4,760.5 225.5,768.8" fill="#fefefe" fill-opacity="0.9"/>
<line x1="275.9" y1="763.1" x2="272.1" y2="761.2" stroke="#fefefe" stroke-width="0.63" stroke-opacity="0.9" stroke-linecap="round"/><polygon points="272.1,761.2 282.8,761.6 278.9,769.4" fill="#fefefe" fill-opacity="0.9"/>
<line x1="329.9" y1="763.5" x2="326.6" y2="760.8" stroke="#fefefe" stroke-width="0.63" stroke-opacity="0.9" stroke-linecap="round"/><polygon points="326.6,760.8 336.9,763.5 331.4,770.4" fill="#fefefe" fill-opacity="0.9"/>
<line x1="383.3" y1="764.2" x2="381.6" y2="760.2" stroke="#fefefe" stroke-width="0.63" stroke-opacity="0.9" stroke-linecap="round"/><polygon points="381.6,760.2 389.5,767.4 381.4,770.9" fill="#fefefe" fill-opacity="0.9"/>
<line x1="436.0" y1="764.2" x2="437.5" y2="760.1" stroke="#fefefe" stroke-width="0.63" stroke-opacity="0.9" stroke-linecap="round"/><polygon points="437.5,760.1 438.2,770.8 429.9,767.7" fill="#fefefe" fill-opacity="0.9"/>
<line x1="489.3" y1="763.6" x2="492.6" y2="760.8" stroke="#fefefe" stroke-width="0.63" stroke-opacity="0.9" stroke-linecap="round"/><polygon points="492.6,760.8 488.0,770.4 482.3,763.7" fill="#fefefe" fill-opacity="0.9"/>
<line x1="543.3" y1="763.1" x2="547.1" y2="761.2" stroke="#fefefe" stroke-width="0.63" stroke-opacity="0.9" stroke-linecap="round"/><polygon points="547.1,761.2 540.4,769.5 536.4,761.6" fill="#fefefe" fill-opacity="0.9"/>
<line x1="597.4" y1="762.9" x2="601.5" y2="761.4" stroke="#fefefe" stroke-width="0.63" stroke-opacity="0.9" stroke-linecap="round"/><polygon points="601.5,761.4 593.8,768.9 590.8,760.6" fill="#fefefe" fill-opacity="0.9"/>
<line x1="710.1" y1="762.1" x2="705.8" y2="762.2" stroke="#fefefe" stroke-width="0.63" stroke-opacity="0.9" stroke-linecap="round"/><polygon points="705.8,762.2 715.3,757.5 715.7,766.3" fill="#fefefe" fill-opacity="0.9"/>
<line x1="764.3" y1="762.0" x2="760.0" y2="762.4" stroke="#fefefe" stroke-width="0.63" stroke-opacity="0.9" stroke-linecap="round"/><polygon points="760.0,762.4 769.3,757.1 770.1,765.8" fill="#fefefe" fill-opacity="0.9"/>
<line x1="814.3" y1="761.7" x2="818.5" y2="762.7" stroke="#fefefe" stroke-width="0.63" stroke-opacity="0.9" stroke-linecap="round"/><polygon points="818.5,762.7 808.0,764.7 810.0,756.1" fill="#fefefe" fill-opacity="0.9"/>
<line x1="868.5" y1="762.0" x2="872.8" y2="762.3" stroke="#fefefe" stroke-width="0.63" stroke-opacity="0.9" stroke-linecap="round"/><polygon points="872.8,762.3 862.8,766.2 863.3,757.4" fill="#fefefe" fill-opacity="0.9"/>
<line x1="922.7" y1="762.1" x2="927.0" y2="762.2" stroke="#fefefe" stroke-width="0.63" stroke-opacity="0.9" stroke-linecap="round"/><polygon points="927.0,762.2 917.2,766.3 917.4,757.5" fill="#fefefe" fill-opacity="0.9"/>
<line x1="221.6" y1="817.6" x2="217.9" y2="815.2" stroke="#fefefe" stroke-width="0.63" stroke-opacity="0.9" stroke-linecap="round"/><polygon points="217.9,815.2 228.5,816.8 223.8,824.2" fill="#fefefe" fill-opacity="0.9"/>
<line x1="275.6" y1="817.8" x2="272.4" y2="815.0" stroke="#fefefe" stroke-width="0.63" stroke-opacity="0.9" stroke-linecap="round"/><polygon points="272.4,815.0 282.6,818.1 276.8,824.7" fill="#fefefe" fill-opacity="0.9"/>
<line x1="329.5" y1="818.2" x2="327.0" y2="814.6" stroke="#fefefe" stroke-width="0.63" stroke-opacity="0.9" stroke-linecap="round"/><polygon points="327.0,814.6 336.2,820.2 328.9,825.1" fill="#fefefe" fill-opacity="0.9"/>
<line x1="383.0" y1="818.5" x2="382.0" y2="814.3" stroke="#fefefe" stroke-width="0.63" stroke-opacity="0.9" stroke-linecap="round"/><polygon points="382.0,814.3 388.5,822.8 380.0,824.8" fill="#fefefe" fill-opacity="0.9"/>
<line x1="436.3" y1="818.5" x2="437.2" y2="814.3" stroke="#fefefe" stroke-width="0.63" stroke-opacity="0.9" stroke-linecap="round"/><polygon points="437.2,814.3 439.5,824.7 430.9,822.9" fill="#fefefe" fill-opacity="0.9"/>
<line x1="489.8" y1="818.2" x2="492.1" y2="814.6" stroke="#fefefe" stroke-width="0.63" stroke-opacity="0.9" stroke-linecap="round"/><polygon points="492.1,814.6 490.5,825.2 483.1,820.3" fill="#fefefe" fill-opacity="0.9"/>
<line x1="543.6" y1="817.9" x2="546.8" y2="814.9" stroke="#fefefe" stroke-width="0.63" stroke-opacity="0.9" stroke-linecap="round"/><polygon points="546.8,814.9 542.5,824.8 536.6,818.3" fill="#fefefe" fill-opacity="0.9"/>
<line x1="597.6" y1="817.6" x2="601.3" y2="815.2" stroke="#fefefe" stroke-width="0.63" stroke-opacity="0.9" stroke-linecap="round"/><polygon points="601.3,815.2 595.4,824.2 590.7,816.8" fill="#fefefe" fill-opacity="0.9"/>
<line x1="709.8" y1="817.4" x2="706.0" y2="815.4" stroke="#fefefe" stroke-width="0.63" stroke-opacity="0.9" stroke-linecap="round"/><polygon points="706.0,815.4 716.7,816.2 712.5,823.9" fill="#fefefe" fill-opacity="0.9"/>
<line x1="763.5" y1="818.1" x2="760.8" y2="814.7" stroke="#fefefe" stroke-width="0.63" stroke-opacity="0.9" stroke-linecap="round"/><polygon points="760.8,814.7 770.3,819.7 763.3,825.1" fill="#fefefe" fill-opacity="0.9"/>
<line x1="815.8" y1="818.5" x2="817.0" y2="814.3" stroke="#fefefe" stroke-width="0.63" stroke-opacity="0.9" stroke-linecap="round"/><polygon points="817.0,814.3 818.4,824.9 810.0,822.4" fill="#fefefe" fill-opacity="0.9"/>
<line x1="868.9" y1="817.7" x2="872.4" y2="815.1" stroke="#fefefe" stroke-width="0.63" stroke-opacity="0.9" stroke-linecap="round"/><polygon points="872.4,815.1 867.1,824.4 861.9,817.3" fill="#fefefe" fill-opacity="0.9"/>
<line x1="275.3" y1="872.3" x2="272.7" y2="868.9" stroke="#fefefe" stroke-width="0.63" stroke-opacity="0.9" stroke-linecap="round"/><polygon points="272.7,868.9 282.1,873.9 275.2,879.3" fill="#fefefe" fill-opacity="0.9"/>
<line x1="329.2" y1="872.6" x2="327.3" y2="868.7" stroke="#fefefe" stroke-width="0.63" stroke-opacity="0.9" stroke-linecap="round"/><polygon points="327.3,868.7 335.5,875.6 327.5,879.4" fill="#fefefe" fill-opacity="0.9"/>
<line x1="382.8" y1="872.8" x2="382.1" y2="868.5" stroke="#fefefe" stroke-width="0.63" stroke-opacity="0.9" stroke-linecap="round"/><polygon points="382.1,868.5 388.0,877.4 379.4,878.8" fill="#fefefe" fill-opacity="0.9"/>
<line x1="436.4" y1="872.8" x2="437.0" y2="868.5" stroke="#fefefe" stroke-width="0.63" stroke-opacity="0.9" stroke-linecap="round"/><polygon points="437.0,868.5 440.0,878.8 431.3,877.5" fill="#fefefe" fill-opacity="0.9"/>
<line x1="490.1" y1="872.6" x2="491.9" y2="868.7" stroke="#fefefe" stroke-width="0.63" stroke-opacity="0.9" stroke-linecap="round"/><polygon points="491.9,868.7 491.8,879.4 483.8,875.7" fill="#fefefe" fill-opacity="0.9"/>
<line x1="543.9" y1="872.4" x2="546.5" y2="868.9" stroke="#fefefe" stroke-width="0.63" stroke-opacity="0.9" stroke-linecap="round"/><polygon points="546.5,868.9 544.1,879.3 537.1,874.0" fill="#fefefe" fill-opacity="0.9"/>
<line x1="762.9" y1="872.7" x2="761.4" y2="868.6" stroke="#fefefe" stroke-width="0.63" stroke-opacity="0.9" stroke-linecap="round"/><polygon points="761.4,868.6 768.9,876.2 760.7,879.3" fill="#fefefe" fill-opacity="0.9"/>
<line x1="816.1" y1="872.8" x2="816.7" y2="868.5" stroke="#fefefe" stroke-width="0.63" stroke-opacity="0.9" stroke-linecap="round"/><polygon points="816.7,868.5 819.7,878.8 811.0,877.5" fill="#fefefe" fill-opacity="0.9"/>
<line x1="869.4" y1="872.4" x2="871.8" y2="868.8" stroke="#fefefe" stroke-width="0.63" stroke-opacity="0.9" stroke-linecap="round"/><polygon points="871.8,868.8 870.1,879.4 862.8,874.5" fill="#fefefe" fill-opacity="0.9"/>
<line x1="382.8" y1="927.0" x2="382.2" y2="922.7" stroke="#fefefe" stroke-width="0.63" stroke-opacity="0.9" stroke-linecap="round"/><polygon points="382.2,922.7 387.8,931.9 379.1,933.0" fill="#fefefe" fill-opacity="0.9"/>
<line x1="436.5" y1="927.0" x2="437.0" y2="922.7" stroke="#fefefe" stroke-width="0.63" stroke-opacity="0.9" stroke-linecap="round"/><polygon points="437.0,922.7 440.3,932.9 431.5,931.9" fill="#fefefe" fill-opacity="0.9"/>
</svg>